<svg width="280" height="380" viewBox="0 0 280 380" fill="none" xmlns="http://www.w3.org/2000/svg">
<path d="M30.5895 290.796C39.3024 295.54 48.804 298.66 58.6317 300.006C65.5949 300.856 72.6334 300.895 79.6056 300.121C87.5189 299.247 95.2994 297.43 102.782 294.708C125.949 286.654 141.002 280.399 154.742 275.34C174.9 267.914 184.978 264.209 198.455 262.179C213.377 259.954 228.559 260.141 243.421 262.731C243.298 233.189 235.817 212.84 229.128 199.818C216.955 176.127 198.373 159.152 165.992 129.577C149.323 114.352 134.461 102.486 123.104 79.2814C119.23 71.3182 116.208 62.9675 114.089 54.3687L75.2508 63.7347C61.0759 82.8391 53.0601 105.814 52.2727 129.594C51.118 154.284 43.7446 208.219 30.5895 290.796Z" fill="#EEEEEE"/>
<path d="M74.7475 63.4951C68.537 70.5423 63.6214 76.7396 60.0336 81.4515C53.0231 90.6689 47.992 97.3365 42.7959 107.132C39.3703 113.286 36.5634 119.765 34.4163 126.474C32.3214 133.158 31.9007 137.029 29.9543 148.755C28.049 160.175 26.6552 168.559 25.1046 175.549C22.7045 186.376 21.5169 186.673 13.1207 211.47C4.72453 236.267 3.32241 243.653 2.67909 247.259C1.14502 256.031 -0.257081 264.382 0.947084 275.472C1.77026 284.673 4.33111 293.633 8.49373 301.879C13.1821 310.799 19.6166 318.685 27.414 325.067C35.6465 331.855 45.1941 336.864 55.4562 339.78C50.5639 330.519 46.5729 320.808 43.5382 310.783C40.4353 300.341 38.3255 289.629 37.237 278.79C36.2631 268.476 36.1031 258.101 36.7586 247.762C37.3524 237.645 38.3669 232.339 42.5732 207.525C45.4022 190.807 47.761 176.539 48.8662 169.715C54.3675 135.882 53.7324 134.132 56.1325 121.729C60.0694 101.664 66.3161 82.1223 74.7475 63.4951Z" fill="white"/>
<path d="M114.08 54.3853C116.051 61.6045 118.509 68.6817 121.437 75.5681C127.361 89.3109 135.044 102.226 144.292 113.989C172.705 151.305 186.916 169.963 198.265 183.191C198.265 183.191 218.298 206.527 232.979 232.282C235.392 236.454 237.445 240.824 239.116 245.345C243.512 257.285 243.949 267.023 244.369 275.2C245.021 287.966 245.879 302.242 247.124 320.933C250.373 318.862 253.469 316.559 256.386 314.042C266.542 305.153 274.426 293.963 279.381 281.406C279.143 272.288 277.973 263.219 275.892 254.339C274.746 249.495 269.352 227.809 249.351 199.926C232.46 176.374 214.628 161.628 200.129 149.803C185.629 137.978 177.678 133.53 155.682 114.815C142.749 103.79 135.805 97.0646 129.198 87.3685C122.366 77.2886 117.257 66.1421 114.08 54.3853Z" fill="white"/>
<path d="M74.3098 63.0578C60.8001 79.0914 47.0347 95.5046 38.2921 114.748C28.7083 135.84 29.4259 159.309 22.8524 181.268C10.9757 220.976 -14.0065 265.908 10.1675 306.145C15.1806 314.503 21.795 321.787 29.6308 327.579C37.4665 333.371 46.3691 337.557 55.8268 339.896C56.5938 340.085 56.9237 338.889 56.1484 338.707C38.545 334.366 23.2002 323.596 13.1284 308.513C1.23521 290.73 -0.661758 269.407 3.03321 248.728C6.90963 227.033 16.0398 206.849 22.6957 185.963C26.0282 175.643 28.435 165.047 29.8877 154.3C31.3228 143.35 32.7085 132.573 36.5766 122.167C44.7748 100.101 60.2393 81.732 75.2089 63.9325C75.712 63.3218 74.846 62.4471 74.3346 63.0578H74.3098Z" fill="#333333"/>
<path d="M55.9254 339.467C39.3146 305.906 33.8628 268.5 38.9187 231.522C41.5085 212.601 44.8076 193.761 47.7932 174.897C50.6552 156.825 53.2202 138.663 56.6265 120.682C60.3545 100.992 65.699 81.4764 75.8189 64.0482C75.902 63.9059 75.9252 63.7365 75.8835 63.5771C75.8417 63.4177 75.7384 63.2814 75.5962 63.1982C75.454 63.1151 75.2847 63.0918 75.1253 63.1336C74.966 63.1754 74.8298 63.2788 74.7467 63.421C56.3708 94.9354 53.1955 132.944 47.5953 168.279C44.4364 188.208 41.0713 208.12 38.1681 228.09C35.5536 246.095 34.8691 264.126 37.2197 282.214C39.8732 302.348 45.8341 321.905 54.8615 340.094C55.2079 340.803 56.2801 340.185 55.9254 339.467Z" fill="#333333"/>
<path d="M39.4473 293.965C51.1096 299.172 62.5409 302.531 75.4486 301.26C88.5542 299.964 101.454 296.086 113.842 291.787C139.789 282.776 164.614 270.447 191.494 264.266C207.676 260.545 224.369 259.2 240.774 262.269C241.549 262.418 241.879 261.221 241.104 261.073C186.669 250.89 139.113 286.852 87.9933 297.934C80.1992 299.585 72.133 300.897 64.1327 300.171C55.6706 299.395 47.7693 296.334 40.0742 292.901C39.3566 292.579 38.7215 293.643 39.4473 293.965Z" fill="#333333"/>
<path d="M113.487 54.5747C120.465 92.3441 154.924 115.004 183.015 137.012C213.111 160.596 242.976 186.252 261.641 220.233C271.967 239.04 278.483 259.843 278.763 281.422C278.763 281.586 278.828 281.744 278.944 281.86C279.06 281.976 279.218 282.041 279.382 282.041C279.546 282.041 279.703 281.976 279.819 281.86C279.935 281.744 280 281.586 280 281.422C279.522 244.816 261.402 211.28 237.533 184.453C224.774 170.136 210.315 157.411 195.469 145.347C180.104 132.886 163.823 121.457 149.051 108.279C132.869 93.8294 118.725 76.0959 114.691 54.2446C114.543 53.4607 113.355 53.7908 113.495 54.5747H113.487Z" fill="#333333"/>
<path d="M119.878 69.3709C129.289 102.082 154.222 126.565 174.676 152.633C187.345 168.783 199.23 185.542 211.312 202.145C222.76 217.824 235.891 233.503 240.691 252.714C243.297 263.152 243.792 273.971 244.163 284.682C244.57 296.334 244.958 307.988 245.326 319.646C245.326 320.471 246.596 320.471 246.563 319.646C245.92 300.286 246.497 280.399 243.61 261.205C240.781 242.316 231.189 227.322 220.146 212.163C208.129 195.659 196.227 179.089 183.98 162.783C173.323 148.615 161.76 135.214 150.733 121.334C138.18 105.556 126.699 88.6476 121.041 69.0739C120.987 68.9286 120.881 68.8089 120.743 68.7385C120.605 68.6681 120.445 68.652 120.296 68.6935C120.147 68.735 120.019 68.831 119.937 68.9625C119.855 69.0941 119.825 69.2516 119.854 69.4039L119.878 69.3709Z" fill="#333333"/>
<path d="M247.437 321.461C261.619 312.238 272.85 299.13 279.793 283.7C280.123 282.982 279.051 282.354 278.729 283.081C271.882 298.322 260.8 311.272 246.802 320.388C246.134 320.825 246.753 321.898 247.429 321.461H247.437Z" fill="#333333"/>
<path d="M105.522 273.813L92.4324 287.371C102.539 321.622 108.661 338.503 110.8 338.014C112.812 337.551 111.314 321.796 106.305 290.746L115.303 281.751L105.522 273.813Z" fill="#333333"/>
<path d="M128.713 136.269C130.792 140.519 133.588 146.427 136.672 153.598C142.456 166.915 147.455 180.56 151.642 194.462C153.473 200.643 155.692 208.796 157.811 218.508C155.485 223.02 153.096 227.553 150.644 232.108C138.85 254.05 126.569 274.663 114.074 293.998C109.517 288.153 106.568 281.217 105.521 273.879C105.192 271.393 105.093 268.882 105.224 266.378C107.104 260.745 108.999 255.092 110.907 249.42C115.096 236.987 119.322 224.648 123.583 212.402C119.91 204.634 116.254 196.806 112.614 188.917C105.669 173.887 98.9337 158.979 92.407 144.191L128.713 136.269Z" fill="white"/>
<path opacity="0.14" d="M106.106 152.69C109.477 159.633 112.902 166.603 116.383 173.601C122.981 186.854 129.606 199.881 136.26 212.682C135.11 215.983 133.967 219.284 132.829 222.585C125.164 245.014 117.958 267.25 111.211 289.294L103.368 269.209C109.233 257.158 114.171 244.678 118.139 231.877C120.193 225.217 121.884 218.797 123.278 212.682C119.896 205.014 116.468 197.312 112.993 189.577C108.594 179.856 104.195 170.229 99.7965 160.695L106.106 152.69Z" fill="#727272"/>
<path d="M130.644 141.22C141.29 164.835 150.038 189.261 156.806 214.267C156.849 214.425 156.954 214.56 157.097 214.641C157.24 214.723 157.41 214.744 157.568 214.7C157.727 214.656 157.862 214.551 157.943 214.408C158.024 214.265 158.045 214.095 158.001 213.937C151.195 188.831 142.405 164.306 131.716 140.593C131.386 139.867 130.322 140.502 130.644 141.22Z" fill="#333333"/>
<path d="M103.343 173.791C111.004 186.255 117.532 199.382 122.849 213.013C123.138 213.747 124.334 213.425 124.045 212.683C118.692 198.958 112.123 185.741 104.415 173.188C103.995 172.504 102.923 173.131 103.343 173.807V173.791Z" fill="#333333"/>
<path d="M121.917 213.054C117.446 231.151 111.657 248.896 104.597 266.147C104.3 266.89 105.496 267.203 105.793 266.477C112.853 249.226 118.642 231.481 123.113 213.384C123.303 212.608 122.107 212.278 121.917 213.054Z" fill="#333333"/>
<path d="M157.274 218.145C144.188 243.331 130.318 268.073 115.664 292.372C115.623 292.443 115.596 292.52 115.585 292.601C115.574 292.682 115.579 292.764 115.6 292.843C115.642 293.003 115.745 293.139 115.887 293.222C116.029 293.305 116.199 293.328 116.358 293.287C116.517 293.245 116.654 293.142 116.737 292.999C131.368 268.694 145.232 243.952 158.33 218.773C158.693 218.063 157.629 217.436 157.258 218.145H157.274Z" fill="#333333"/>
<path d="M104.036 267.781C104.926 277.262 108.194 286.365 113.537 294.245C113.983 294.897 115.055 294.245 114.601 293.618C109.369 285.928 106.161 277.041 105.273 267.781C105.199 266.997 103.962 266.956 104.036 267.781Z" fill="#333333"/>
<path d="M99.91 312.581L101.642 327.798C101.345 331.924 101.065 337.956 101.246 345.243C101.609 360.195 103.927 379.951 106.764 380C108.842 380 110.739 370.23 112.71 360.022C114.076 352.949 115.051 345.805 115.63 338.625L113.527 330.571L112.95 312.969C112.834 312.623 111.622 309.289 108.38 308.373C105.263 307.49 101.642 309.173 99.91 312.581Z" fill="#333333"/>
<path d="M75.4309 146.081C75.3566 150.389 75.2989 156.338 75.3566 163.41C75.3566 163.41 75.5298 185.014 77.0062 206.593C78.3918 226.868 82.7796 265.529 92.8253 315.016C95.6539 317.143 98.8335 318.757 102.219 319.786C113.024 323.029 122.426 319.059 125.404 317.648C121.692 304.802 118.748 291.747 116.587 278.55C114.418 265.347 112.9 251.096 112.183 228.981C111.268 199.403 112.067 169.798 114.574 140.313L75.4309 146.081Z" fill="white"/>
<path opacity="0.14" d="M80.651 149.242C80.5933 156.421 80.717 163.765 81.0717 171.25C83.7439 229.014 98.5486 279.351 116.487 320.52C113.963 320.951 111.395 321.068 108.842 320.867C103.081 320.373 97.5539 318.36 92.8246 315.032C89.2534 298.24 86.045 280.506 83.3893 261.873C77.9236 223.521 75.2635 184.821 75.4302 146.081L80.651 149.242Z" fill="#727272"/>
<path d="M74.8118 146.081C73.9517 202.942 79.7957 259.706 92.2227 315.198C92.3959 315.973 93.5918 315.643 93.4186 314.868C81.0218 259.484 75.1999 202.83 76.0737 146.081C76.0737 145.917 76.0085 145.76 75.8925 145.644C75.7765 145.528 75.6192 145.462 75.4551 145.462C75.2911 145.462 75.1337 145.528 75.0177 145.644C74.9017 145.76 74.8365 145.917 74.8365 146.081H74.8118Z" fill="#333333"/>
<path d="M112.503 154.646C109.946 208.994 108.915 265.223 124.8 317.829C125.031 318.589 126.227 318.267 125.996 317.499C110.144 265 111.183 208.887 113.74 154.646C113.781 153.821 112.544 153.821 112.503 154.646Z" fill="#333333"/>
<path d="M92.8498 316.088C97.485 319.744 103.093 320.841 108.842 321.485C114.022 322.071 119.308 322.186 123.482 318.663C124.092 318.143 123.218 317.277 122.607 317.78C118.731 321.081 113.593 320.792 108.842 320.256C103.456 319.645 98.1201 318.663 93.724 315.222C93.1055 314.735 92.223 315.601 92.8498 316.097V316.088Z" fill="#333333"/>
<path d="M68.7103 62.7112C74.1984 59.7115 80.009 57.3446 86.0305 55.6557C96.9743 52.6093 108.422 51.8149 119.681 53.3204C123.234 61.7436 125.256 70.7333 125.652 79.8671C126.04 89.9758 124.127 94.7784 123.879 103.154C123.632 111.679 125.125 123.784 133.183 138.778C127.23 142.226 120.871 144.92 114.254 146.799C101.604 150.348 88.3041 150.913 75.3992 148.449C79.3498 132.771 78.1787 121.16 76.4054 113.453C74.5497 105.407 72.0671 101.801 69.9887 92.5917C67.804 82.785 67.3712 72.6688 68.7103 62.7112Z" fill="#8008FE"/>
<path d="M79.7284 106.736C79.6129 111.483 79.4947 116.231 79.3738 120.979C76.1715 122.281 73.6012 124.779 72.2065 127.943C71.8519 128.768 69.4518 134.652 72.9406 138.44C75.5221 141.237 79.5387 140.915 80.182 140.915C80.1161 146.197 82.3429 148.507 83.044 149.167C85.6173 151.544 89.8566 152.072 91.5061 152.27C94.4093 152.633 95.8444 152.196 97.1888 153.425C98.129 154.251 98.4342 155.431 98.9951 157.692C99.4241 159.38 99.6811 161.108 99.7621 162.849L89.0401 165.82L89.5184 175.805C92.8561 176.95 96.3162 177.7 99.8281 178.041C107.389 178.731 115.005 177.575 122.023 174.674L120.538 164.648C119.14 163.197 117.323 162.222 115.341 161.859C113.36 161.497 111.315 161.765 109.494 162.626L110.55 152.13C114.243 152.02 117.837 150.911 120.95 148.92C122.745 147.928 124.199 146.418 125.124 144.587C125.93 142.726 126.115 140.654 125.652 138.679C127.928 138.473 130.056 137.457 131.648 135.816C135.07 132.036 134.378 125.352 130.823 121.523C127.524 118.008 122.88 118.008 121.924 118.033L121.437 102.874C119.781 102.017 118.035 101.345 116.233 100.868C111.457 99.5976 109.338 100.53 98.0878 101.694C90.9535 102.453 88.1493 102.469 83.8605 104.4C82.4216 105.064 81.0396 105.845 79.7284 106.736Z" fill="white"/>
<path opacity="0.19" d="M117.734 101.199C119.301 102.766 120.975 104.871 120.398 106.472C118.707 111.159 100.488 103.996 92.875 112.165C88.2563 117.117 89.4357 125.756 90.2687 131.871C90.8543 136.162 91.4894 140.825 95.2173 144.926C98.3872 148.226 102.601 150.325 107.144 150.867L105.016 166.199C102.475 168.675 102.079 169.69 102.335 170.094C103.44 171.844 116.843 162.8 121.173 166.587C123.004 168.188 122.69 171.629 121.998 174.65C111.682 179.066 100.09 179.469 89.4934 175.78L89.8068 164.986L99.7041 162.511C99.9928 156.536 98.5659 154.308 97.1308 153.434C96.0421 152.757 95.2503 153.038 90.1862 152.113C88.758 151.892 87.349 151.561 85.9717 151.123C84.3634 150.463 81.5921 148.507 80.0416 141.361C79.1755 141.212 74.6063 140.346 72.7011 136.715C70.4165 132.358 72.7011 125.336 79.2993 121.54C79.2278 116.264 79.1563 110.996 79.0848 105.737C91.431 101.249 104.649 99.6874 117.701 101.174L117.734 101.199Z" fill="#727272"/>
<path d="M84.3628 105.786C81.0637 107.915 82.8205 110.738 86.169 111.299C93.427 112.586 101.337 111.588 108.438 109.912C109.213 109.731 108.883 108.543 108.108 108.724C104.064 109.703 99.9344 110.286 95.7776 110.465C94.1941 110.523 92.6188 110.515 91.0352 110.465C89.9877 110.424 88.932 110.35 87.8846 110.259C85.2783 110.754 84.3078 109.621 84.9731 106.859C85.6329 106.43 85.0144 105.357 84.3463 105.795L84.3628 105.786Z" fill="#333333"/>
<path d="M99.9934 102.131C104.876 101.685 109.998 100.769 114.897 101.306C115.763 101.405 119.409 101.801 119.648 102.568L118.221 106.166C117.579 106.619 116.88 106.985 116.142 107.255C113.231 108.559 110.047 108.848 106.905 109.12C106.08 109.194 106.08 110.432 106.905 110.358C110.814 110.011 114.897 109.648 118.328 107.552C119.73 106.727 122.452 104.829 121.627 102.758C120.802 100.687 116.679 100.224 114.963 100.035C110.014 99.4901 104.868 100.423 99.9687 100.86C99.1852 100.934 99.1439 102.172 99.9687 102.098L99.9934 102.131Z" fill="#333333"/>
<path d="M80.4953 124.039C76.7756 123.866 74.4992 129.197 74.4745 132.291C74.4298 134.105 75.0709 135.869 76.2696 137.231C77.4684 138.592 79.1365 139.451 80.9406 139.636C81.7654 139.718 81.7654 138.48 80.9406 138.398C79.4635 138.219 78.1071 137.493 77.139 136.362C76.171 135.232 75.6617 133.779 75.7116 132.291C75.7116 130.039 77.5179 125.112 80.4953 125.252C81.32 125.252 81.32 124.048 80.4953 124.015V124.039Z" fill="#333333"/>
<path d="M79.1675 120.962C73.9467 122.439 69.9961 128.265 70.4662 133.67C70.9116 138.852 75.1921 142.433 80.3635 141.493C81.147 141.352 80.8171 140.156 80.0335 140.296C74.1612 141.369 70.6889 135.584 71.9838 130.394C72.8828 126.755 75.8685 123.181 79.5139 122.142C79.6725 122.098 79.8072 121.993 79.8885 121.85C79.9697 121.707 79.9907 121.537 79.9469 121.378C79.9032 121.22 79.7982 121.085 79.6552 121.004C79.5121 120.922 79.3426 120.901 79.184 120.945L79.1675 120.962Z" fill="#333333"/>
<path d="M79.9923 120.978C79.5411 116.372 79.6435 111.729 80.2975 107.148C80.413 106.323 79.217 106.026 79.1098 106.818C78.4188 111.506 78.2998 116.261 78.7552 120.978C78.8294 121.803 80.0666 121.803 79.9923 120.978Z" fill="#333333"/>
<path d="M120.852 102.873C121.223 107.915 121.371 112.949 121.297 118.007C121.297 118.172 121.362 118.329 121.478 118.445C121.594 118.561 121.752 118.626 121.916 118.626C122.08 118.626 122.237 118.561 122.353 118.445C122.469 118.329 122.534 118.172 122.534 118.007C122.609 112.949 122.46 107.915 122.089 102.873C122.031 102.048 120.794 102.048 120.852 102.873Z" fill="#333333"/>
<path d="M121.742 118.857C126.567 119.006 130.402 121.292 131.64 126.16C132.811 130.848 131.837 138.035 125.668 138.035C125.504 138.035 125.347 138.1 125.231 138.216C125.115 138.332 125.05 138.49 125.05 138.654C125.05 138.818 125.115 138.976 125.231 139.092C125.347 139.208 125.504 139.273 125.668 139.273C132.101 139.273 133.858 132.614 133.091 127.291C132.209 121.217 127.813 117.809 121.767 117.62C121.603 117.62 121.446 117.685 121.33 117.801C121.214 117.917 121.148 118.074 121.148 118.239C121.148 118.403 121.214 118.56 121.33 118.676C121.446 118.792 121.603 118.857 121.767 118.857H121.742Z" fill="#333333"/>
<path d="M122.658 122.868C129.652 123.314 130.221 133.059 123.392 134.47C122.617 134.636 122.947 135.824 123.722 135.667C127.277 134.933 130.081 131.624 129.644 127.902C129.393 126.206 128.558 124.65 127.282 123.505C126.006 122.36 124.371 121.697 122.658 121.63C121.833 121.581 121.833 122.819 122.658 122.868Z" fill="#333333"/>
<path d="M79.5142 141.699C81.1637 144.686 80.8503 148.523 83.803 150.702C86.6237 152.773 90.7723 152.765 94.0878 153.219C94.9126 153.318 95.2013 152.129 94.4177 152.022C91.3496 151.61 87.1433 151.651 84.5865 149.687C82.0297 147.723 82.1122 143.91 80.5864 141.072C80.207 140.37 79.143 140.998 79.5142 141.699Z" fill="#333333"/>
<path d="M125.321 138.959C124.929 140.034 124.692 141.159 124.62 142.301C124.455 144.818 123.581 146.675 121.321 147.987C118.31 149.761 114.492 150.578 111.193 151.675C110.442 151.931 110.764 153.128 111.522 152.872C115.341 151.593 120.298 150.702 123.465 148.02C126.401 145.544 125.296 142.598 126.484 139.289C126.756 138.538 125.56 138.216 125.288 138.959H125.321Z" fill="#333333"/>
<path d="M94.3264 152.773C95.1511 153.268 96.545 153.598 97.2048 154.225C97.8843 155.053 98.283 156.076 98.343 157.146C98.6564 159.209 98.8213 161.272 99.0523 163.385C99.1348 164.169 100.372 164.21 100.289 163.385C100.001 160.785 100.009 157.906 99.242 155.397C98.5244 153.037 96.9326 152.814 94.9862 151.684C94.844 151.6 94.6746 151.577 94.5153 151.619C94.356 151.661 94.2198 151.764 94.1366 151.906C94.0535 152.049 94.0303 152.218 94.0721 152.377C94.1138 152.537 94.2172 152.673 94.3593 152.756L94.3264 152.773Z" fill="#333333"/>
<path d="M109.957 151.948C108.832 155.472 108.549 159.211 109.132 162.865C109.255 163.69 110.443 163.319 110.328 162.543C109.798 159.104 110.08 155.588 111.152 152.278C111.4 151.518 110.204 151.188 109.965 151.948H109.957Z" fill="#333333"/>
<path d="M99.4076 163.955C101.057 167.874 108.241 167.759 110.418 164.441C110.855 163.773 109.783 163.154 109.346 163.814C107.647 166.414 101.725 166.29 100.472 163.327C100.166 162.601 99.0942 163.228 99.4076 163.955Z" fill="#333333"/>
<path d="M99.597 162.23C97.5433 162.576 95.4732 162.898 93.4277 163.261C92.0421 163.509 90.0379 163.732 88.9987 164.846C88.1245 165.778 88.3142 166.925 88.3389 168.147C88.4049 170.696 88.6028 173.238 88.8997 175.78C88.9905 176.564 90.2276 176.605 90.1369 175.78C89.84 173.263 88.2812 166.603 90.7885 165.242C93.2958 163.88 97.131 163.889 99.9269 163.418C100.71 163.294 100.372 162.098 99.597 162.23Z" fill="#333333"/>
<path d="M90.4588 177.083C95.0528 179.097 101.14 178.932 106.055 178.816C111.255 178.824 116.369 177.489 120.901 174.938C120.971 174.897 121.033 174.842 121.082 174.777C121.132 174.712 121.168 174.638 121.188 174.559C121.209 174.48 121.214 174.398 121.203 174.317C121.192 174.236 121.165 174.158 121.124 174.088C121.083 174.018 121.028 173.956 120.963 173.907C120.898 173.857 120.824 173.821 120.745 173.801C120.666 173.78 120.584 173.775 120.503 173.786C120.422 173.797 120.345 173.824 120.274 173.865C115.933 176.323 111.026 177.603 106.039 177.579C101.436 177.686 95.3167 177.876 91.0691 176.011C90.3433 175.697 89.7165 176.762 90.4423 177.083H90.4588Z" fill="#333333"/>
<path d="M110.517 162.915C113.214 162.915 118.228 162.733 119.845 165.151C121.462 167.569 121.354 171.687 121.404 174.649C121.404 174.813 121.469 174.971 121.585 175.087C121.701 175.203 121.858 175.268 122.022 175.268C122.186 175.268 122.344 175.203 122.46 175.087C122.576 174.971 122.641 174.813 122.641 174.649C122.614 172.491 122.437 170.338 122.113 168.204C121.89 166.76 121.75 165.044 120.744 163.897C118.657 161.537 113.371 161.644 110.517 161.677C110.353 161.677 110.195 161.742 110.079 161.858C109.963 161.974 109.898 162.132 109.898 162.296C109.898 162.46 109.963 162.617 110.079 162.733C110.195 162.849 110.353 162.915 110.517 162.915Z" fill="#333333"/>
<path d="M80.264 107.049C81.427 104.722 85.7735 104.086 88.0416 103.575C90.6117 103.017 93.2248 102.68 95.8522 102.568C96.677 102.568 96.677 101.289 95.8522 101.33C92.346 101.494 88.8688 102.048 85.4848 102.98C83.1755 103.624 80.3465 104.152 79.1918 106.463C78.8372 107.172 79.9011 107.8 80.264 107.09V107.049Z" fill="#333333"/>
<path d="M92.0345 123.107V133.01C92.0345 133.174 92.0998 133.331 92.2158 133.447C92.3319 133.563 92.4894 133.628 92.6535 133.628C92.8177 133.628 92.9752 133.563 93.0912 133.447C93.2073 133.331 93.2725 133.174 93.2725 133.01V123.107C93.2725 122.943 93.2073 122.786 93.0912 122.67C92.9752 122.553 92.8177 122.488 92.6535 122.488C92.4894 122.488 92.3319 122.553 92.2158 122.67C92.0998 122.786 92.0345 122.943 92.0345 123.107Z" fill="#333333"/>
<path d="M97.1563 123.107L96.6945 132.358C96.6945 133.183 97.8986 133.183 97.9316 132.358L98.3605 123.107C98.3605 122.282 97.1563 122.282 97.1233 123.107H97.1563Z" fill="#333333"/>
<path d="M89.9384 127.06L99.5058 126.136C100.289 126.061 100.331 124.823 99.5058 124.898L89.9384 125.822C89.1549 125.896 89.1136 127.134 89.9384 127.06Z" fill="#333333"/>
<path d="M90.7802 130.996L99.3001 129.346C100.075 129.197 99.7455 128.009 98.9702 128.157L90.4503 129.808C89.6668 129.956 90.0049 131.153 90.7802 131.004V130.996Z" fill="#333333"/>
<path d="M106.072 127.654C107.386 126.193 108.495 124.561 109.371 122.802L108.241 122.323C107.308 126.419 106.898 130.617 107.021 134.817C107.021 135.642 108.282 135.642 108.258 134.817C108.133 130.729 108.53 126.641 109.437 122.653C109.586 122.002 108.612 121.523 108.307 122.175C107.486 123.845 106.44 125.394 105.198 126.779C104.67 127.365 105.544 128.248 106.08 127.654H106.072Z" fill="#333333"/>
<path d="M68.6919 64.4775C66.3788 67.7162 64.2503 71.0828 62.3164 74.5615C60.8813 77.1443 54.0687 89.6214 50.1346 108.345C49.45 111.605 49.0129 114.278 48.7572 115.953C50.4336 123.24 54.9147 129.571 61.2277 133.571C63.0663 134.724 65.0347 135.654 67.0918 136.344C68.1681 137.496 69.3781 138.516 70.6961 139.381C73.4426 141.18 76.8076 142.385 77.1045 141.856C77.2695 141.584 76.5849 140.627 72.1559 137.343C75.9004 138.737 78.952 138.696 79.4304 137.681C79.9088 136.666 78.0778 134.38 74.8612 132.367C78.3994 133.06 80.2634 133.134 80.4696 132.589C80.75 131.83 77.8276 129.872 71.7023 126.714C71.793 124.701 70.8775 123.339 70.1187 123.322C69.3599 123.306 68.5599 124.412 68.3125 126.037L61.3019 114.047C63.4958 109.806 65.9866 105.341 68.8238 100.745C72.5683 94.6798 76.3787 89.2418 80.0655 84.4226C80.5928 79.5347 79.304 74.6235 76.4447 70.6253C74.4379 67.9372 71.7659 65.8184 68.6919 64.4775Z" fill="white"/>
<path opacity="0.14" d="M68.6912 64.4775C66.621 69.6268 63.9488 76.4429 60.9714 84.5381C53.8124 103.988 52.8226 109.245 54.2742 115.236C55.4207 119.972 58.7032 127.713 63.9983 128.637C67.619 129.272 70.7366 126.467 72.2047 127.977C73.6728 129.487 71.2562 132.416 72.2047 137.4C72.519 139.004 73.1107 140.54 73.9532 141.939C72.2443 139.816 70.155 138.031 67.7922 136.674C65.5571 135.403 64.4106 135.296 62.291 134.199C59.2777 132.616 56.6416 130.4 54.5629 127.704C51.4337 123.898 49.3323 119.352 48.4596 114.501C52.172 96.7541 59.0235 79.8135 68.6912 64.4775Z" fill="#727272"/>
<path d="M68.1641 64.1307C57.6236 78.4231 52.8646 95.6203 48.3696 112.537C48.3411 112.689 48.3706 112.847 48.4526 112.978C48.5345 113.11 48.6628 113.206 48.812 113.247C48.9613 113.289 49.1207 113.273 49.2587 113.202C49.3967 113.132 49.5032 113.012 49.5573 112.867C54.0358 96.0411 58.7535 78.9678 69.2281 64.7578C69.6982 64.1142 68.626 63.4953 68.1641 64.1307Z" fill="#333333"/>
<path d="M74.9762 90.8257C69.4308 98.2317 64.6736 106.197 60.7819 114.591C60.4438 115.309 61.516 115.937 61.8459 115.219C65.7524 106.825 70.5204 98.8601 76.0732 91.4529C76.5515 90.8175 75.4793 90.1986 75.0092 90.8257H74.9762Z" fill="#333333"/>
<path d="M59.4371 115.433C61.3588 113.131 64.0888 119.749 64.6084 120.723L67.9075 126.92C68.2868 127.621 69.3508 126.994 68.9796 126.293L65.8785 120.517C65.0466 118.664 64.0675 116.881 62.9506 115.186C61.8454 113.758 59.8989 112.949 58.5463 114.567C58.0349 115.169 58.9092 116.052 59.4206 115.442L59.4371 115.433Z" fill="#333333"/>
<path d="M47.8826 114.666C48.82 119.731 51.0778 124.459 54.4276 128.372C57.7774 132.284 62.1005 135.242 66.9595 136.946C67.71 137.21 68.0317 136.014 67.2894 135.75C62.634 134.095 58.4981 131.24 55.3002 127.472C52.1023 123.705 49.956 119.159 49.0785 114.294C48.93 113.511 47.7424 113.841 47.8826 114.625V114.666Z" fill="#333333"/>
<path d="M69.0618 127.3C69.1113 126.565 69.1278 125.567 69.7217 125.022C70.101 124.667 70.8186 124.601 71.0495 125.137C71.363 125.864 72.4269 125.237 72.1217 124.51C71.9882 124.275 71.8086 124.07 71.5936 123.906C71.3787 123.742 71.1328 123.624 70.8709 123.557C70.6089 123.491 70.3363 123.478 70.0694 123.52C69.8024 123.562 69.5467 123.657 69.3175 123.801C68.0804 124.486 67.9072 126.037 67.8247 127.3C67.7752 128.125 69.0124 128.125 69.0618 127.3Z" fill="#333333"/>
<path d="M71.5865 126.829C73.236 130.312 78.0032 129.858 80.0074 132.928C80.4445 133.588 81.5168 132.969 81.0796 132.301C79.0589 129.223 74.2505 129.511 72.6505 126.211C72.3041 125.493 71.2401 126.12 71.5865 126.829Z" fill="#333333"/>
<path d="M67.2233 136.806C67.8501 138.869 70.1182 139.479 71.5286 140.932C72.2216 141.744 73.1425 142.329 74.1719 142.612C75.2013 142.894 76.2918 142.861 77.302 142.516C78.0525 142.268 77.7309 141.072 76.9721 141.319C74.4978 142.145 73.3266 140.717 71.6028 139.298C70.5389 138.415 68.8564 137.953 68.4192 136.508C68.1883 135.749 66.9924 136.071 67.2233 136.839V136.806Z" fill="#333333"/>
<path d="M72.453 137.92C73.8421 139.401 75.4532 140.657 77.2285 141.642C77.9213 142.021 78.5481 140.957 77.8553 140.569C76.1682 139.639 74.6398 138.447 73.3273 137.037C72.783 136.459 71.9087 137.334 72.453 137.92Z" fill="#333333"/>
<path d="M72.2705 137.177C73.2791 138.087 74.5364 138.675 75.8811 138.864C77.2258 139.054 78.5965 138.837 79.8171 138.242C80.5429 137.904 79.9079 136.831 79.1986 137.177C78.2153 137.643 77.1166 137.808 76.0399 137.653C74.9632 137.497 73.9562 137.028 73.1448 136.303C72.5509 135.775 71.6767 136.649 72.2705 137.177Z" fill="#333333"/>
<path d="M74.7128 133.332C76.459 133.952 77.9423 135.148 78.9192 136.723C79.3398 137.392 80.412 136.773 79.9831 136.096C78.8322 134.251 77.0865 132.853 75.0345 132.135C74.2839 131.871 73.9623 133.067 74.7128 133.332Z" fill="#333333"/>
<path d="M72.7738 134.867C74.4957 136.012 76.4848 136.692 78.5472 136.839C79.372 136.905 79.372 135.667 78.5472 135.601C76.7049 135.458 74.9314 134.838 73.4006 133.803C72.7326 133.357 72.114 134.43 72.7738 134.867Z" fill="#333333"/>
<path d="M76.5358 133.579C77.169 133.817 77.8451 133.918 78.5201 133.877C79.1951 133.836 79.8538 133.653 80.4534 133.34C81.1627 132.985 80.5441 131.921 79.8266 132.276C79.3674 132.502 78.8653 132.629 78.3535 132.648C77.8417 132.666 77.3318 132.576 76.8574 132.383C76.1151 132.102 75.7935 133.299 76.5358 133.579Z" fill="#333333"/>
<path d="M119.681 53.3208C117.588 55.4212 116.263 58.1652 115.92 61.1107C115.186 68.3889 121.388 73.1091 121.743 73.3731L137.529 102.486C135.17 107.091 132.816 111.695 130.469 116.3C130.065 115.933 129.588 115.657 129.068 115.492C128.548 115.327 127.999 115.276 127.458 115.343C126.79 115.456 126.166 115.753 125.656 116.201C125.147 116.648 124.771 117.228 124.572 117.876C124.786 117.959 126.93 118.792 127.211 120.583C127.24 121.064 127.172 121.547 127.012 122.002C126.852 122.456 126.603 122.875 126.279 123.232C123.978 126.244 120.266 125.575 119.879 127.184C119.565 128.521 121.817 130.172 123.103 130.865C124.289 131.44 125.577 131.773 126.893 131.844C128.209 131.915 129.525 131.722 130.766 131.277C128.522 134.892 128.39 135.956 128.712 136.229C129.421 136.872 133.553 134.727 134.931 131.022C136.201 127.605 134.559 124.42 134.188 123.71C135.644 122.319 137.169 121.003 138.758 119.766C139.624 119.089 140.811 118.19 145.504 115.004C150.395 111.704 150.56 111.704 151.319 110.878C152.234 109.929 154.816 107.264 155.22 103.608C155.583 100.357 154.049 97.7578 153.249 96.355C145.471 82.962 147.83 82.7144 138.683 69.4287C133.784 62.2577 131.483 59.9471 128.786 57.9997C126.011 55.9783 122.939 54.3999 119.681 53.3208Z" fill="white"/>
<path opacity="0.21" d="M122.765 55.5654C126.229 59.3283 128.992 62.7117 131.062 65.3936C139.582 76.443 146.089 85.1076 146.345 96.1982C146.461 99.238 146.017 102.273 145.034 105.152C144.588 106.381 141.38 115.153 133.685 118.041C130.947 119.065 129.017 118.866 128.225 120.443C127.078 122.778 130.105 125.394 129.05 128.241C128.398 130.048 126.452 131.055 124.695 131.641L130.749 131.277C128.513 134.851 128.365 135.948 128.695 136.229C129.421 136.897 133.734 134.793 134.914 131.022C135.961 127.655 133.998 124.635 133.668 124.139C136.757 120.897 140.279 118.098 144.135 115.821C146.889 114.171 149.347 113.156 151.879 110.227C153.067 108.849 154.881 106.695 155.178 103.625C155.335 101.9 154.956 100.39 153.661 97.3453C152.307 94.052 150.65 90.8917 148.712 87.905C139.433 74.6193 140.077 67.1925 130.567 59.9885C128.168 58.184 125.545 56.6973 122.765 55.5654Z" fill="#727272"/>
<path d="M119.516 53.923C129.223 56.7287 135.318 64.7826 140.251 73.1254C145.183 81.4681 149.612 90.0997 153.694 98.8881C154.033 99.606 155.096 98.9789 154.758 98.2609C150.09 88.21 145.076 78.1343 139.088 68.8178C134.395 61.5643 128.366 55.1855 119.879 52.7264C119.72 52.6827 119.551 52.7037 119.408 52.785C119.265 52.8662 119.16 53.001 119.116 53.1597C119.072 53.3184 119.093 53.4879 119.174 53.6311C119.256 53.7742 119.39 53.8792 119.549 53.923H119.516Z" fill="#333333"/>
<path d="M121.206 73.6782C126.556 82.3174 131.36 91.2828 135.59 100.522C135.92 101.248 136.984 100.621 136.654 99.903C132.428 90.6603 127.621 81.6945 122.262 73.0593C121.85 72.3826 120.777 73.0015 121.198 73.6782H121.206Z" fill="#333333"/>
<path d="M143.17 99.5566C140.152 98.6159 137.859 100.497 136.473 103.08C134.222 107.272 133.125 111.918 130.411 115.896C129.966 116.556 131.03 117.175 131.483 116.523C132.971 114.236 134.21 111.796 135.178 109.244C136.416 106.191 138.139 99.2843 142.841 100.745C143.599 100.984 143.929 99.7877 143.17 99.5566Z" fill="#333333"/>
<path d="M154.429 101.686C155.056 108.287 149.423 111.786 144.532 114.831C140.858 117.21 137.393 119.896 134.173 122.86C133.571 123.389 134.453 124.263 135.047 123.735C137.696 121.271 140.521 119.004 143.501 116.952C145.851 115.401 148.375 114.08 150.553 112.29C153.852 109.575 156.062 106.068 155.641 101.686C155.567 100.861 154.33 100.861 154.404 101.686H154.429Z" fill="#333333"/>
<path d="M130.997 115.986C130.692 115.554 130.288 115.201 129.819 114.957C129.349 114.714 128.828 114.586 128.3 114.586C127.771 114.586 127.25 114.714 126.781 114.957C126.311 115.201 125.907 115.554 125.603 115.986C125.141 116.638 126.213 117.257 126.667 116.613C126.862 116.361 127.112 116.158 127.398 116.017C127.683 115.877 127.998 115.804 128.316 115.804C128.635 115.804 128.949 115.877 129.235 116.017C129.521 116.158 129.771 116.361 129.966 116.613C130.419 117.257 131.5 116.613 131.03 115.986H130.997Z" fill="#333333"/>
<path d="M126.386 115.483C125.223 115.607 123.714 116.061 123.788 117.529C123.822 117.796 123.919 118.05 124.073 118.27C124.227 118.49 124.432 118.669 124.671 118.792C125.388 119.287 126.131 119.749 126.856 120.22C127.582 120.69 128.143 119.584 127.483 119.155C126.823 118.726 126.164 118.33 125.512 117.868C125.199 117.661 124.885 117.472 125.19 117.084C125.496 116.696 126.015 116.762 126.386 116.721C127.17 116.638 127.211 115.4 126.386 115.483Z" fill="#333333"/>
<path d="M133.265 123.817C134.254 126.549 135.269 129.52 133.726 132.259C133.339 132.952 134.411 133.58 134.799 132.878C136.514 129.833 135.574 126.582 134.452 123.487C134.188 122.745 132.992 123.067 133.265 123.817Z" fill="#333333"/>
<path d="M126.386 120.054C127.541 122.72 124.035 124.056 122.262 124.882C121.297 125.327 119.227 126.218 119.054 127.473C118.625 130.576 126.015 127.927 127.104 127.671C127.879 127.489 127.549 126.293 126.774 126.474C125.776 126.714 121.553 128.232 120.901 127.498C120.431 126.978 122.361 126.194 122.889 125.954C123.631 125.608 124.39 125.311 125.099 124.898C127.095 123.751 128.456 121.705 127.467 119.427C127.153 118.701 126.089 119.328 126.403 120.054H126.386Z" fill="#333333"/>
<path d="M120.926 128.158L120.761 128.282C120.648 128.355 120.56 128.462 120.509 128.588C120.459 128.714 120.449 128.852 120.481 128.983C120.704 130.229 122.37 130.361 123.376 130.51C125.082 130.738 126.818 130.612 128.473 130.139C128.632 130.095 128.766 129.99 128.847 129.847C128.929 129.704 128.95 129.534 128.906 129.375C128.862 129.217 128.757 129.082 128.614 129.001C128.471 128.919 128.302 128.898 128.143 128.942C127.098 129.245 126.015 129.398 124.926 129.396C124.473 129.396 121.801 129.396 121.627 128.653L121.347 129.346L121.512 129.231C122.139 128.761 121.512 127.68 120.885 128.158H120.926Z" fill="#333333"/>
<path d="M121.653 130.493C122.919 131.619 124.491 132.343 126.17 132.574C127.848 132.805 129.557 132.531 131.08 131.789C131.797 131.451 131.171 130.378 130.453 130.724C129.169 131.338 127.733 131.56 126.324 131.363C124.915 131.167 123.594 130.56 122.527 129.619C121.933 129.09 121.051 129.965 121.653 130.493Z" fill="#333333"/>
<path d="M130.593 131.384C129.344 132.686 128.486 134.313 128.118 136.08C128.044 136.435 128.283 136.905 128.712 136.864C129.752 136.767 130.758 136.442 131.657 135.911C132.557 135.38 133.328 134.657 133.916 133.794C134.37 133.134 133.298 132.515 132.844 133.167C132.375 133.852 131.764 134.428 131.052 134.855C130.34 135.282 129.545 135.551 128.72 135.642L129.314 136.426C129.63 134.874 130.379 133.444 131.475 132.3C132.019 131.723 131.145 130.848 130.601 131.426L130.593 131.384Z" fill="#333333"/>
<path d="M80.8006 14.965C79.6407 16.078 78.6489 17.354 77.8562 18.7527C76.0629 22.0448 75.353 25.8189 75.8272 29.5381C75.131 29.7058 74.4753 30.0113 73.8988 30.4365C73.3223 30.8616 72.8366 31.3979 72.4704 32.0137C71.7446 33.3092 71.1838 35.7931 72.7178 37.0639C73.3912 37.5249 74.195 37.757 75.0104 37.7258C75.8258 37.6946 76.6096 37.4018 77.2458 36.8906C79.2034 41.6295 82.3789 45.7661 86.4503 48.8807C87.1925 51.6314 87.9294 54.3821 88.6607 57.1327C89.8119 57.6208 91.0407 57.9002 92.2896 57.9579C94.5223 58.0259 96.7229 57.4129 98.5991 56.2002C98.4672 53.4853 98.3435 50.7704 98.2115 48.0555C99.3384 47.3124 100.386 46.4551 101.337 45.4974C103.923 42.8578 105.772 39.5856 106.698 36.0076C110.682 35.0421 112.876 32.7068 112.571 31.337C112.307 30.1569 110.212 29.2987 107.721 29.1502C107.919 28.226 109.552 19.7842 104.175 14.2966C97.7414 7.61251 85.9719 10.0881 80.8006 14.965Z" fill="white"/>
<path opacity="0.28" d="M77.4025 20.1802C77.3464 23.3195 77.7069 26.4523 78.4747 29.4967C79.1511 32.1786 82.6976 46.24 92.001 47.9894C93.4938 48.27 96.3475 48.4598 100.249 46.471C98.7957 48.2165 97.2071 49.8444 95.498 51.3397C94.2957 52.39 93.0345 53.3709 91.7206 54.2774L92.3061 57.9083L88.6772 57.0831L86.5245 47.8326C85.3216 47.3113 84.1862 46.6463 83.1429 45.8521C80.1416 43.4397 78.0195 40.1041 77.1056 36.3623C76.751 37.1875 76.1901 38.0622 75.3901 38.1695C73.6086 38.4088 70.8044 34.7119 71.992 32.6407C72.8168 31.1388 75.3654 31.2048 75.5386 31.2131L77.4025 20.1802Z" fill="#727272"/>
<path d="M76.8005 20.0158C74.6499 25.8489 74.7962 32.2819 77.2098 38.0111C79.6234 43.7403 84.1238 48.3371 89.7989 50.87C90.5164 51.2 91.1433 50.1273 90.4257 49.7972C84.9861 47.4055 80.6675 43.0216 78.3563 37.545C76.045 32.0684 75.9162 25.9144 77.9964 20.3458C78.2603 19.5866 77.0644 19.2648 76.8005 20.0158Z" fill="#333333"/>
<path d="M93.8408 50.6387C107.037 46.5787 109.511 31.915 107.631 19.9413C107.507 19.1161 106.32 19.4957 106.443 20.2714C108.241 31.5436 106.039 45.5968 93.5109 49.4422C92.7521 49.6732 93.082 50.8698 93.8408 50.6387Z" fill="#333333"/>
<path d="M76.2141 37.1959C73.1212 39.5972 70.5892 32.3437 73.7398 32.0467C74.5646 31.9724 74.5646 30.7346 73.7398 30.8089C68.2551 31.3205 72.1975 41.85 77.0389 38.0706C77.6657 37.5838 76.7832 36.7173 76.1646 37.1959H76.2141Z" fill="#333333"/>
<path d="M108.431 29.5136C109.076 29.2666 109.792 29.28 110.428 29.5509C111.063 29.8219 111.569 30.3293 111.837 30.966C112.472 32.6659 110.823 34.2668 109.173 34.2173C108.349 34.2173 108.349 35.4221 109.173 35.4551C111.491 35.5624 113.677 33.3591 113.132 30.9825C112.994 30.4661 112.751 29.9837 112.418 29.5656C112.085 29.1475 111.67 28.8026 111.197 28.5524C110.725 28.3023 110.207 28.1522 109.674 28.1117C109.141 28.0713 108.606 28.1412 108.101 28.3171C107.367 28.5894 107.681 29.7942 108.431 29.5136Z" fill="#333333"/>
<path d="M85.8567 49.0126C86.3852 51.5664 87.0515 54.0897 87.8527 56.5715C88.1001 57.3224 89.296 57.0006 89.0486 56.2414C88.2436 53.7608 87.5772 51.2373 87.0527 48.6826C86.8877 47.9069 85.7 48.2369 85.8567 49.0126Z" fill="#333333"/>
<path d="M88.347 57.6442C89.9341 58.3534 91.6807 58.6293 93.4091 58.4438C95.1374 58.2582 96.7858 57.6179 98.1864 56.588C98.8215 56.1259 98.1864 55.0531 97.5596 55.5235C96.3492 56.4427 94.9167 57.0241 93.4082 57.2082C91.8998 57.3923 90.3696 57.1726 88.9738 56.5715C88.248 56.2661 87.6212 57.3307 88.347 57.6442Z" fill="#333333"/>
<path d="M97.6429 49.0295C97.5714 51.0925 97.5961 53.15 97.7172 55.202C97.7667 56.0272 99.0047 56.0272 98.9552 55.202C98.8286 53.15 98.8039 51.0925 98.8809 49.0295C98.8809 48.2043 97.6676 48.2043 97.6429 49.0295Z" fill="#333333"/>
<path d="M89.0324 18.3733C88.8949 23.6051 89.0049 28.8313 89.3623 34.0521C89.3661 34.1727 89.4046 34.2897 89.4732 34.389C89.5418 34.4883 89.6376 34.5656 89.749 34.6118C89.8605 34.658 89.9829 34.671 90.1015 34.6493C90.2202 34.6276 90.3301 34.5721 90.418 34.4894C91.4801 33.4347 92.2649 32.1335 92.7026 30.7018C92.95 29.9426 91.7541 29.6208 91.5149 30.3717C91.1345 31.5985 90.4575 32.7124 89.5437 33.6147L90.5994 34.0521C90.2365 28.8258 90.1266 23.5996 90.2695 18.3733C90.2695 18.2092 90.2044 18.0517 90.0884 17.9357C89.9723 17.8196 89.815 17.7544 89.651 17.7544C89.4869 17.7544 89.3296 17.8196 89.2135 17.9357C89.0975 18.0517 89.0324 18.2092 89.0324 18.3733Z" fill="#333333"/>
<path d="M88.7513 37.9385C90.0557 38.129 91.3859 38.0327 92.6493 37.6565C93.9127 37.2803 95.079 36.6331 96.067 35.76C96.6691 35.2319 95.7949 34.3654 95.1928 34.8853C94.3681 35.6174 93.395 36.1623 92.3401 36.4828C91.2852 36.8032 90.1735 36.8917 89.0812 36.742C88.3059 36.6347 87.9678 37.8313 88.7513 37.9385Z" fill="#333333"/>
<path d="M86.1867 24.4965C85.9392 24.1986 85.8108 23.8197 85.826 23.4327C85.8412 23.0456 85.9991 22.678 86.2691 22.4005L85.2959 22.2767C85.6753 23.0111 86.2114 24.0426 85.4196 24.6863L86.3929 24.8101C86.1954 24.3923 86.062 23.9472 85.997 23.4898C85.865 22.6646 84.6773 23.0359 84.801 23.8198C84.892 24.3926 85.0671 24.9487 85.3207 25.4702C85.3696 25.5509 85.4361 25.6194 85.5152 25.6708C85.5943 25.7222 85.6839 25.755 85.7774 25.7669C85.871 25.7788 85.966 25.7695 86.0554 25.7395C86.1448 25.7096 86.2264 25.6598 86.2939 25.594C87.5641 24.5708 86.995 22.8956 86.3681 21.6826C86.3192 21.6019 86.2527 21.5334 86.1736 21.482C86.0945 21.4306 86.0049 21.3978 85.9113 21.3859C85.8178 21.374 85.7228 21.3833 85.6334 21.4133C85.5439 21.4432 85.4624 21.493 85.3949 21.5588C84.9294 22.0282 84.6463 22.6482 84.5964 23.3076C84.5466 23.9669 84.7331 24.6225 85.1227 25.1567C85.6011 25.7838 86.6733 25.1567 86.1867 24.5295V24.4965Z" fill="#333333"/>
<path d="M96.6196 24.4963C96.3688 24.1989 96.2375 23.8188 96.2512 23.4299C96.2649 23.041 96.4227 22.671 96.6939 22.3921L95.7207 22.2683C96.1001 23.0027 96.6361 24.0342 95.8444 24.6779L96.8176 24.8016C96.6202 24.3839 96.4867 23.9388 96.4217 23.4813C96.2898 22.6561 95.0938 23.0275 95.2258 23.8114C95.3168 24.3841 95.4919 24.9403 95.7454 25.4618C95.7943 25.5424 95.8608 25.611 95.9399 25.6624C96.019 25.7137 96.1086 25.7466 96.2022 25.7585C96.2957 25.7704 96.3907 25.761 96.4802 25.7311C96.5696 25.7011 96.6511 25.6514 96.7186 25.5856C97.9888 24.5623 97.4197 22.8872 96.7928 21.6741C96.742 21.6028 96.6767 21.5428 96.6012 21.4983C96.5258 21.4537 96.4418 21.4254 96.3548 21.4153C96.2677 21.4052 96.1795 21.4135 96.0959 21.4396C96.0122 21.4657 95.935 21.509 95.8691 21.5669C95.4036 22.0363 95.1206 22.6563 95.0707 23.3156C95.0208 23.975 95.2074 24.6306 95.5969 25.1647C96.0753 25.7919 97.1475 25.1647 96.6609 24.5376L96.6196 24.4963Z" fill="#333333"/>
<path d="M80.455 28.3255C80.6192 28.3255 80.7766 28.2603 80.8928 28.1442C81.0089 28.0281 81.0741 27.8706 81.0741 27.7064C81.0741 27.5423 81.0089 27.3848 80.8928 27.2687C80.7766 27.1526 80.6192 27.0874 80.455 27.0874C80.2908 27.0874 80.1333 27.1526 80.0172 27.2687C79.901 27.3848 79.8358 27.5423 79.8358 27.7064C79.8358 27.8706 79.901 28.0281 80.0172 28.1442C80.1333 28.2603 80.2908 28.3255 80.455 28.3255Z" fill="#333333"/>
<path d="M85.032 28.8538C85.1962 28.8538 85.3537 28.7886 85.4698 28.6725C85.5859 28.5564 85.6511 28.3989 85.6511 28.2348C85.6511 28.0706 85.5859 27.9131 85.4698 27.797C85.3537 27.6809 85.1962 27.6157 85.032 27.6157C84.8678 27.6157 84.7103 27.6809 84.5942 27.797C84.4781 27.9131 84.4128 28.0706 84.4128 28.2348C84.4128 28.3989 84.4781 28.5564 84.5942 28.6725C84.7103 28.7886 84.8678 28.8538 85.032 28.8538Z" fill="#333333"/>
<path d="M83.2753 32.3773C83.4395 32.3773 83.5969 32.312 83.713 32.1959C83.8292 32.0799 83.8944 31.9224 83.8944 31.7582C83.8944 31.594 83.8292 31.4366 83.713 31.3205C83.5969 31.2044 83.4395 31.1392 83.2753 31.1392C83.1111 31.1392 82.9536 31.2044 82.8375 31.3205C82.7214 31.4366 82.6561 31.594 82.6561 31.7582C82.6561 31.9224 82.7214 32.0799 82.8375 32.1959C82.9536 32.312 83.1111 32.3773 83.2753 32.3773Z" fill="#333333"/>
<path d="M96.1259 29.3816C96.2901 29.3816 96.4475 29.3164 96.5637 29.2003C96.6798 29.0842 96.745 28.9268 96.745 28.7626C96.745 28.5984 96.6798 28.441 96.5637 28.3249C96.4475 28.2088 96.2901 28.1436 96.1259 28.1436C95.9616 28.1436 95.8042 28.2088 95.6881 28.3249C95.5719 28.441 95.5067 28.5984 95.5067 28.7626C95.5067 28.9268 95.5719 29.0842 95.6881 29.2003C95.8042 29.3164 95.9616 29.3816 96.1259 29.3816Z" fill="#333333"/>
<path d="M100.357 27.2693C100.522 27.2693 100.679 27.2041 100.795 27.088C100.911 26.9719 100.977 26.8145 100.977 26.6503C100.977 26.4861 100.911 26.3287 100.795 26.2126C100.679 26.0965 100.522 26.0312 100.357 26.0312C100.193 26.0312 100.036 26.0965 99.9196 26.2126C99.8035 26.3287 99.7383 26.4861 99.7383 26.6503C99.7383 26.8145 99.8035 26.9719 99.9196 27.088C100.036 27.2041 100.193 27.2693 100.357 27.2693Z" fill="#333333"/>
<path d="M99.3005 31.6756C99.4648 31.6756 99.6222 31.6104 99.7384 31.4943C99.8545 31.3782 99.9197 31.2207 99.9197 31.0565C99.9197 30.8924 99.8545 30.7349 99.7384 30.6188C99.6222 30.5027 99.4648 30.4375 99.3005 30.4375C99.1363 30.4375 98.9789 30.5027 98.8627 30.6188C98.7466 30.7349 98.6814 30.8924 98.6814 31.0565C98.6814 31.2207 98.7466 31.3782 98.8627 31.4943C98.9789 31.6104 99.1363 31.6756 99.3005 31.6756Z" fill="#333333"/>
<path d="M82.6729 17.4407C83.1792 17.2707 83.7191 17.2262 84.2463 17.311C84.7736 17.3958 85.2724 17.6074 85.6999 17.9276C86.3432 18.3979 86.9617 17.3252 86.3267 16.8548C85.7574 16.4469 85.1 16.179 84.4078 16.0729C83.7157 15.9668 83.0083 16.0255 82.343 16.2442C81.5925 16.4917 81.9142 17.6883 82.6729 17.4407Z" fill="#333333"/>
<path d="M94.6816 16.2604C95.7134 15.5276 96.9792 15.2014 98.2364 15.3444C99.0612 15.4187 99.0199 14.1809 98.2364 14.1066C96.7566 13.9505 95.2706 14.3376 94.0548 15.1959C93.4032 15.6415 94.0548 16.7225 94.6816 16.2604Z" fill="#333333"/>
<path d="M75.6212 30.6935C75.3873 29.6993 75.4157 28.6614 75.7036 27.6815C75.9502 26.9028 76.364 26.1874 76.916 25.5855C77.8975 24.455 79.1594 20.8654 80.545 10.7319C82.0975 11.9632 83.7822 13.0177 85.5679 13.8759C88.8106 15.3974 92.2995 16.3253 95.8693 16.6156C97.7475 16.8248 99.6385 16.8965 101.527 16.8301C102.077 18.0019 102.627 19.1874 103.177 20.3867C104.667 23.4565 106.187 26.3694 107.738 29.1256C108.47 28.7483 109.312 28.6449 110.114 28.834C110.915 29.0231 111.623 29.4923 112.109 30.1571C112.412 30.7353 112.539 31.3896 112.475 32.0393C112.41 32.6889 112.157 33.3054 111.746 33.8127C111.179 34.494 110.41 34.9776 109.55 35.1941C108.691 35.4106 107.785 35.3488 106.962 35.0175C106.006 37.3501 105.043 39.6826 104.076 42.0152C101.467 43.5676 99.4277 45.9203 98.2611 48.7241C95.6383 55.4742 99.1271 64.4606 106.129 67.6211C111.977 70.2618 117.767 67.7119 118.856 67.2003C121.091 66.3623 123.132 65.0757 124.852 63.4196C126.573 61.7636 127.937 59.773 128.86 57.5702C129.058 57.0751 131.648 50.3745 128.439 43.9957C126.526 40.1833 123.961 39.3333 121.346 36.899C112.439 28.647 119.639 17.5233 112.587 8.42135C105.717 -0.441289 88.8752 -2.85087 80.3306 3.80849C78.4403 5.32292 76.9341 7.26248 75.9346 9.46935C74.5091 9.74524 73.1541 10.3066 71.9509 11.1197C65.4023 15.6996 69.2952 24.9336 63.7445 37.2951C60.5526 44.3835 58.1525 43.8224 56.8576 49.6153C56.602 50.7458 54.1029 62.6947 61.6578 68.8259C69.4106 75.1139 83.3575 71.6728 87.2257 64.1388C88.8752 60.9205 88.3968 57.595 88.0504 55.0616C86.6648 45.6048 80.0997 39.7542 77.6418 37.7819C77.3095 38.1061 76.9158 38.3607 76.4838 38.5307C76.0519 38.7008 75.5904 38.7828 75.1263 38.7722C73.386 38.6401 72.4953 36.9237 72.2066 36.3791C72.0417 36.0573 70.7055 33.5074 72.2066 31.7662C73.3613 30.4129 75.4315 30.644 75.6212 30.6935Z" fill="#333333"/>
</svg>
