<svg version="1.1" id="Layer_1" xmlns="http://www.w3.org/2000/svg"
	 viewBox="0 0 140 36" xml:space="preserve">
<g>
	<path class="st0" d="M65.82,10.53c-0.75-0.02-1.35,0.56-1.38,1.28v6.69c-3.2-2.56-7.89-2.05-10.45,1.14
		c-1.05,1.32-1.63,2.95-1.63,4.65c-0.07,4.09,3.2,7.46,7.3,7.53c4.11,0.07,7.49-3.18,7.56-7.27V11.9c0-0.37-0.14-0.72-0.4-0.98
		C66.55,10.67,66.2,10.53,65.82,10.53 M64.07,26.08c-0.47,1.12-1.35,2-2.47,2.49c-1.17,0.49-2.47,0.49-3.64,0
		c-1.12-0.46-1.98-1.37-2.45-2.46c-0.49-1.14-0.49-2.44,0-3.6c0.47-1.12,1.35-2,2.45-2.46c1.17-0.49,2.47-0.49,3.64,0
		c1.12,0.49,2.01,1.37,2.47,2.49C64.56,23.64,64.56,24.94,64.07,26.08 M81.34,19.06c-2.89-2.88-7.61-2.88-10.5,0
		c-1.4,1.39-2.17,3.28-2.17,5.23c-0.07,4.09,3.2,7.46,7.3,7.53s7.49-3.18,7.56-7.27v-0.26c0-0.98-0.19-1.93-0.56-2.84
		C82.6,20.55,82.04,19.73,81.34,19.06 M80.38,26.05c-0.23,0.56-0.58,1.05-1,1.46c-0.42,0.42-0.93,0.77-1.47,1
		c-1.17,0.49-2.47,0.49-3.64,0c-1.12-0.46-2.01-1.37-2.47-2.46c-0.49-1.14-0.49-2.44,0-3.6c0.47-1.12,1.35-1.98,2.47-2.46
		c1.17-0.49,2.47-0.49,3.64,0c0.56,0.23,1.05,0.58,1.47,1c0.42,0.42,0.77,0.93,1,1.46C80.87,23.64,80.87,24.94,80.38,26.05
		 M112.07,18.25c0-0.19-0.05-0.37-0.12-0.53c-0.07-0.16-0.19-0.3-0.3-0.44c-0.12-0.12-0.28-0.23-0.44-0.3s-0.35-0.12-0.54-0.12
		c-0.26,0-0.51,0.07-0.75,0.21l-7.93,5.14V11.92c0-0.37-0.14-0.72-0.4-0.98c-0.26-0.26-0.61-0.42-0.98-0.42
		c-0.77,0-1.38,0.6-1.4,1.37v18.38c0,0.37,0.14,0.72,0.4,0.98c0.26,0.28,0.61,0.42,0.98,0.42s0.72-0.14,0.98-0.42
		c0.26-0.26,0.42-0.6,0.4-0.98v-4.76l1.61-1.05l6.14,6.86c0.26,0.23,0.58,0.37,0.93,0.35c0.19,0,0.37-0.02,0.54-0.12
		c0.16-0.07,0.3-0.16,0.44-0.3c0.12-0.14,0.23-0.28,0.3-0.44s0.12-0.35,0.12-0.53c0-0.35-0.14-0.7-0.37-0.95l-5.69-6.39l5.55-3.6
		C111.91,19.11,112.09,18.69,112.07,18.25 M89.04,20.99c0.42-0.42,0.93-0.77,1.49-1c0.58-0.23,1.19-0.37,1.82-0.37
		c0.56,0,1.1,0.09,1.61,0.28c0.51,0.21,1,0.49,1.42,0.86c0.26,0.21,0.58,0.3,0.91,0.3c0.37,0.02,0.75-0.12,1-0.4
		c0.26-0.26,0.4-0.63,0.4-1c0-0.4-0.16-0.79-0.49-1.05c-1.33-1.19-3.06-1.84-4.85-1.79c-4.11,0-7.44,3.32-7.44,7.41
		s3.31,7.39,7.4,7.41c1.8,0,3.52-0.63,4.88-1.79c0.28-0.26,0.44-0.63,0.44-1.02c0.02-0.74-0.56-1.35-1.28-1.37h-0.09
		c-0.33,0-0.63,0.09-0.89,0.28c-0.42,0.37-0.89,0.65-1.4,0.86c-0.51,0.19-1.07,0.28-1.61,0.28c-0.63,0-1.24-0.12-1.82-0.37
		c-0.56-0.23-1.05-0.58-1.49-1c-1.82-1.81-1.82-4.74-0.02-6.55C89.04,21.01,89.04,21.01,89.04,20.99 M139.62,17.8
		c-0.28-0.26-0.58-0.44-0.93-0.56c-0.4-0.14-0.82-0.23-1.24-0.28s-0.84-0.07-1.26-0.07c-0.84,0-1.7,0.14-2.5,0.44
		c-0.79,0.28-1.52,0.7-2.17,1.21v-0.28c-0.02-0.77-0.68-1.35-1.45-1.32c-0.72,0.02-1.31,0.6-1.33,1.32v12.06
		c0.02,0.77,0.68,1.35,1.45,1.32c0.72-0.02,1.31-0.6,1.33-1.32v-6.02c0-0.63,0.12-1.23,0.37-1.81c0.23-0.56,0.56-1.05,1-1.46
		c0.42-0.42,0.93-0.77,1.47-1c0.58-0.23,1.19-0.37,1.82-0.37s1.24,0.12,1.82,0.33c0.19,0.09,0.37,0.14,0.58,0.14
		c0.19,0,0.37-0.02,0.54-0.12c0.16-0.07,0.3-0.16,0.44-0.3c0.12-0.12,0.23-0.28,0.3-0.44c0.07-0.16,0.12-0.35,0.12-0.53
		C140.02,18.39,139.88,18.06,139.62,17.8 M126.74,21.45c-1.19-2.74-3.9-4.53-6.88-4.55c-4.11,0-7.42,3.3-7.44,7.39
		c0,4.09,3.34,7.41,7.44,7.41c1.77,0,3.5-0.63,4.85-1.79l0.05-0.05c0.12-0.09,0.23-0.21,0.3-0.35c0.44-0.65,0.28-1.51-0.35-1.95
		c-0.54-0.35-1.24-0.28-1.7,0.16c-0.05,0.05-0.19,0.16-0.19,0.19l-0.02,0.02c-0.4,0.33-0.84,0.6-1.33,0.77
		c-0.51,0.19-1.05,0.28-1.61,0.26c-0.51,0-1-0.07-1.49-0.23c-0.47-0.16-0.91-0.37-1.31-0.67c-0.4-0.28-0.75-0.63-1.03-1.02
		c-0.3-0.4-0.51-0.86-0.65-1.32h10.5c0.37,0,0.72-0.14,0.98-0.4c0.28-0.26,0.42-0.6,0.4-0.98
		C127.28,23.33,127.09,22.36,126.74,21.45 M115.38,22.94c0.14-0.49,0.35-0.93,0.65-1.32c0.28-0.4,0.63-0.74,1.03-1.02
		s0.84-0.51,1.31-0.67c0.47-0.16,0.98-0.23,1.47-0.23s1,0.07,1.47,0.23c0.93,0.3,1.75,0.91,2.33,1.7c0.3,0.4,0.51,0.86,0.68,1.32
		H115.38z M134.89,29.68c-0.54,0-0.96,0.44-0.96,0.98c0,0.53,0.44,0.95,0.98,0.95c0.54,0,0.96-0.44,0.96-0.95
		C135.87,30.1,135.42,29.68,134.89,29.68z M134.89,31.4c-0.42,0.02-0.77-0.3-0.79-0.72c-0.02-0.42,0.3-0.77,0.72-0.79
		c0.42-0.02,0.77,0.3,0.79,0.72v0.05c0.02,0.4-0.3,0.74-0.7,0.74L134.89,31.4z"/>
	<path class="st0" d="M135.12,30.66c0.12-0.02,0.19-0.12,0.19-0.23c0-0.09-0.02-0.16-0.09-0.21c-0.09-0.05-0.21-0.07-0.33-0.07
		s-0.26,0-0.37,0.02v0.95h0.21v-0.37h0.09c0.12,0,0.19,0.05,0.21,0.14c0.02,0.07,0.05,0.16,0.07,0.23h0.23
		c-0.05-0.07-0.07-0.16-0.07-0.23C135.28,30.79,135.21,30.7,135.12,30.66 M134.84,30.59h-0.12v-0.28h0.12
		c0.14,0,0.21,0.07,0.21,0.14C135.07,30.54,134.96,30.61,134.84,30.59 M49.82,13.64c-0.14-0.12-1.4-1.07-4.11-1.07
		c-0.7,0-1.42,0.07-2.12,0.19c-0.51-3.56-3.48-5.28-3.59-5.37l-0.72-0.42L38.8,7.65c-0.58,0.91-1.03,1.93-1.28,2.97
		c-0.49,2.02-0.19,3.93,0.84,5.55c-1.24,0.7-3.24,0.86-3.66,0.88H1.57C0.7,17.06,0,17.76,0,18.62c-0.05,2.88,0.44,5.76,1.45,8.48
		c1.14,2.97,2.85,5.18,5.04,6.53C8.96,35.14,13,36,17.55,36c2.05,0,4.11-0.19,6.14-0.56c2.82-0.51,5.53-1.49,8.03-2.9
		c2.05-1.19,3.9-2.7,5.46-4.46c2.64-2.95,4.2-6.25,5.34-9.18h0.47c2.87,0,4.64-1.14,5.62-2.11c0.65-0.6,1.14-1.35,1.49-2.18
		l0.21-0.6L49.82,13.64z"/>
	<path class="st0" d="M4.65,16.11h4.43c0.21,0,0.4-0.16,0.4-0.4v-3.95c0-0.21-0.16-0.4-0.4-0.4H4.65c-0.21,0-0.4,0.16-0.4,0.4v3.95
		C4.27,15.94,4.44,16.11,4.65,16.11z M10.76,16.11h4.43c0.21,0,0.4-0.16,0.4-0.4v-3.95c0-0.21-0.16-0.4-0.4-0.4h-4.43
		c-0.21,0-0.4,0.16-0.4,0.4v3.95C10.39,15.94,10.55,16.11,10.76,16.11 M16.99,16.11h4.43c0.21,0,0.4-0.16,0.4-0.4v-3.95
		c0-0.21-0.16-0.4-0.4-0.4h-4.43c-0.21,0-0.4,0.16-0.4,0.4v3.95C16.59,15.94,16.76,16.11,16.99,16.11z M23.13,16.11h4.43
		c0.21,0,0.4-0.16,0.4-0.4v-3.95c0-0.21-0.16-0.4-0.4-0.4h-4.43c-0.21,0-0.4,0.16-0.4,0.4v3.95C22.73,15.94,22.92,16.11,23.13,16.11
		z M10.76,10.46h4.43c0.21,0,0.4-0.19,0.4-0.4V6.12c0-0.21-0.16-0.4-0.4-0.4h-4.43c-0.21,0-0.4,0.16-0.4,0.4v3.95
		C10.39,10.27,10.55,10.46,10.76,10.46 M16.99,10.46h4.43c0.21,0,0.4-0.19,0.4-0.4V6.12c0-0.21-0.16-0.4-0.4-0.4h-4.43
		c-0.21,0-0.4,0.16-0.4,0.4v3.95C16.59,10.27,16.76,10.46,16.99,10.46 M23.13,10.46h4.43c0.21,0,0.4-0.19,0.4-0.4V6.12
		c0-0.21-0.19-0.4-0.4-0.4h-4.43c-0.21,0-0.4,0.16-0.4,0.4v3.95C22.73,10.27,22.92,10.46,23.13,10.46 M23.13,4.79h4.43
		c0.21,0,0.4-0.16,0.4-0.4V0.44c0-0.21-0.19-0.4-0.4-0.4h-4.43c-0.21,0-0.4,0.16-0.4,0.4V4.4C22.73,4.6,22.92,4.79,23.13,4.79
		 M29.31,16.11h4.43c0.21,0,0.4-0.16,0.4-0.4v-3.95c0-0.21-0.16-0.4-0.4-0.4h-4.43c-0.21,0-0.4,0.16-0.4,0.4v3.95
		C28.94,15.95,29.1,16.11,29.31,16.11"/>
</g>
</svg>
