<svg width="200" height="38" viewBox="0 0 200 38" fill="none" xmlns="http://www.w3.org/2000/svg">
<path d="M186.426 13.3066C186.319 12.2785 186.095 11.2451 185.631 10.3182C185.151 9.36468 184.436 8.56032 183.604 7.89447C183.498 7.80924 183.396 7.72933 183.29 7.6441L183.284 7.66008C182.559 7.15403 181.753 6.7705 180.9 6.53612C180.164 6.33902 179.407 6.2751 178.644 6.26978C178.596 6.26978 178.542 6.26978 178.494 6.26978C178.446 6.26978 178.393 6.26978 178.345 6.26978C177.582 6.2751 176.83 6.3337 176.089 6.53612C175.236 6.7705 174.425 7.15403 173.705 7.66008L173.699 7.6441C173.593 7.72933 173.486 7.80924 173.385 7.89447C172.553 8.56032 171.838 9.36468 171.358 10.3182C170.889 11.2451 170.67 12.2838 170.563 13.3066C170.446 14.4412 170.43 15.5705 170.43 16.7051C170.43 17.9729 170.43 19.246 170.43 20.5138C170.43 21.9627 170.43 23.4116 170.43 24.8552V26.9486H173.251C173.251 26.938 173.251 26.9327 173.251 26.922C173.251 26.2988 173.251 25.6755 173.251 25.0576C173.251 23.8644 173.251 22.6712 173.251 21.4779C173.251 20.2581 173.251 19.0436 173.251 17.8237C173.251 17.1472 173.251 16.476 173.251 15.7995C173.251 15.2402 173.241 14.6702 173.294 14.1162C173.347 13.4877 173.406 12.8697 173.625 12.2731C173.923 11.4635 174.409 10.6857 175.07 10.1158C175.79 9.49785 176.665 9.1516 177.609 9.02376C177.849 8.9918 178.228 8.95984 178.494 8.95984C178.756 8.96516 179.14 8.9918 179.38 9.02376C180.324 9.14628 181.199 9.49785 181.919 10.1158C182.58 10.6857 183.066 11.4635 183.364 12.2731C183.583 12.8697 183.642 13.4877 183.695 14.1162C183.743 14.6756 183.738 15.2402 183.738 15.7995C183.738 16.476 183.738 17.1472 183.738 17.8237C183.738 19.0436 183.738 20.2581 183.738 21.4779C183.738 22.6712 183.738 23.8644 183.738 25.0576C183.738 25.6808 183.738 26.2988 183.738 26.922C183.738 26.9327 183.738 26.938 183.738 26.9486H186.559V24.8552C186.559 23.4063 186.559 21.9627 186.559 20.5138C186.559 19.246 186.559 17.9729 186.559 16.7051C186.564 15.5705 186.548 14.4412 186.426 13.3066Z" fill="white"/>
<path d="M104.403 13.3066C104.296 12.2785 104.072 11.2451 103.608 10.3182C103.128 9.36468 102.413 8.56032 101.581 7.89447C101.475 7.80924 101.373 7.72933 101.267 7.6441L101.261 7.66008C100.536 7.15403 99.7306 6.7705 98.8772 6.53612C98.1411 6.33902 97.3837 6.2751 96.621 6.26978C96.573 6.26978 96.5196 6.26978 96.4716 6.26978C96.4236 6.26978 96.3756 6.26978 96.3223 6.26978C95.5596 6.2751 94.8075 6.3337 94.0661 6.53612C93.2127 6.7705 92.402 7.15403 91.6819 7.66008L91.6766 7.6441C91.5699 7.72933 91.4632 7.80924 91.3619 7.89447C90.5298 8.56032 89.8151 9.36468 89.3351 10.3182C88.8657 11.2451 88.647 12.2838 88.5403 13.3066C88.423 14.4412 88.407 15.5705 88.407 16.7051C88.407 17.9729 88.407 19.246 88.407 20.5138V24.8552C88.407 25.553 88.407 26.2508 88.407 26.9486H91.2285C91.2285 26.938 91.2285 26.9327 91.2285 26.922C91.2285 26.2988 91.2285 25.6755 91.2285 25.0576C91.2285 23.8644 91.2285 22.6712 91.2285 21.4779C91.2285 20.2581 91.2285 19.0436 91.2285 17.8237C91.2285 17.1472 91.2285 16.476 91.2285 15.7995C91.2285 15.2402 91.2179 14.6702 91.2712 14.1162C91.3299 13.4877 91.3832 12.8697 91.6019 12.2731C91.9006 11.4635 92.386 10.6857 93.0474 10.1158C93.7674 9.49785 94.6422 9.1516 95.5862 9.02376C95.8263 8.9918 96.205 8.95984 96.4716 8.95984C96.733 8.96516 97.117 8.9918 97.357 9.02376C98.2958 9.14628 99.1759 9.49785 99.8959 10.1158C100.557 10.6857 101.043 11.4635 101.341 12.2731C101.56 12.8697 101.619 13.4877 101.672 14.1162C101.72 14.6756 101.715 15.2402 101.715 15.7995C101.715 16.476 101.715 17.1472 101.715 17.8237C101.715 19.0436 101.715 20.2581 101.715 21.4779C101.715 22.6712 101.715 23.8644 101.715 25.0576C101.715 25.6808 101.715 26.2988 101.715 26.922C101.715 26.9327 101.715 26.938 101.715 26.9486H104.536C104.536 26.2508 104.536 25.553 104.536 24.8552V20.5138C104.536 19.246 104.536 17.9729 104.536 16.7051C104.536 15.5705 104.52 14.4412 104.403 13.3066Z" fill="white"/>
<path d="M127.317 24.6687C128.213 23.8803 128.997 22.9747 129.595 21.9413C130.272 20.7641 130.693 19.4537 130.853 18.1113C130.923 17.5307 130.939 16.9447 130.933 16.3588H130.928C130.869 14.3132 130.24 12.3263 129.034 10.6537C127.962 9.16217 126.522 7.91568 124.842 7.13263C123.199 6.36557 121.338 6.08857 119.53 6.21109C117.908 6.32295 116.383 6.81835 114.969 7.58542C113.06 8.62415 111.556 10.2915 110.654 12.2464C110.644 12.2677 110.622 12.3157 110.612 12.337C109.716 14.3026 109.678 16.5132 109.678 18.6333V22.3408V28.4454V34.3156V37.3253V37.3679H112.5V23.8483C113.14 24.5088 113.812 25.1214 114.585 25.6275C115.529 26.2401 116.596 26.6769 117.695 26.9326C119.956 27.4546 122.453 27.3108 124.591 26.3892C125.199 26.1282 125.781 25.8033 126.325 25.4304C126.432 25.3558 126.538 25.2812 126.645 25.2067L127.317 24.6687ZM115.796 23.0653C114.937 22.4527 114.18 21.675 113.636 20.7854C112.814 19.459 112.494 17.8982 112.532 16.3534C112.553 15.5011 112.713 14.6542 113.028 13.8605C113.092 13.7007 112.697 14.6968 113.028 13.8605C113.369 12.9869 113.897 12.2038 114.532 11.506C115.535 10.4087 116.788 9.55635 118.239 9.16217C119.482 8.82657 120.778 8.82125 122.031 9.1089C122.773 9.27936 123.503 9.55103 124.154 9.93989C124.517 10.1583 124.831 10.4033 125.157 10.6697C125.477 10.9307 125.786 11.181 126.069 11.4794C126.602 12.0493 127.061 12.6939 127.397 13.4023C127.946 14.5529 128.165 15.8527 128.106 17.1258C128.037 18.6067 127.546 20.0396 126.661 21.2435C126 22.1384 125.173 22.8895 124.218 23.4648C122.015 24.7912 119.044 24.8498 116.767 23.6512C116.473 23.4967 116.191 23.321 115.913 23.1345L115.796 23.0653Z" fill="white"/>
<path d="M155.533 12.8749C154.711 10.7335 153.106 8.88511 151.138 7.68124C149.244 6.52532 146.988 6.04057 144.774 6.22169C143.404 6.33355 142.049 6.6798 140.822 7.29771L140.817 7.29238C140.262 7.60134 139.734 7.93161 139.206 8.28318L139.211 8.29916C137.03 9.93983 135.52 12.2943 135.115 14.979C135.014 15.6396 134.982 16.3108 134.992 16.9766H134.998C135.067 19.9863 136.486 22.9747 138.875 24.871C139.169 25.1001 139.473 25.3131 139.782 25.5156C139.99 25.6487 140.225 25.8245 140.459 25.9044V25.9097C140.63 26.0003 140.801 26.0855 140.971 26.1761C143.446 27.364 146.327 27.5344 148.945 26.6981C149.687 26.4584 150.386 26.1388 151.058 25.7553C152.386 24.9669 153.559 23.9015 154.445 22.6444C155.719 20.8439 156.274 18.6812 156.226 16.4972C156.194 15.2614 155.975 14.0309 155.533 12.8749C155.202 12.012 155.762 13.4662 155.533 12.8749ZM151.895 21.2487C151.036 22.394 149.906 23.3688 148.561 23.9228C147.223 24.4768 145.697 24.642 144.268 24.4076C142.657 24.1412 141.227 23.2996 140.091 22.1596C138.801 20.8652 138.022 19.2139 137.883 17.3974C137.739 15.565 138.187 13.7752 139.249 12.2623L139.313 12.1718C140.225 10.9306 141.494 9.89189 142.956 9.35921C144.502 8.79456 146.215 8.77325 147.793 9.23136C148.812 9.52434 149.751 10.041 150.551 10.7282L150.631 10.7975C151.719 11.7829 152.578 12.9655 153.01 14.3718C153.41 15.6769 153.468 17.1311 153.17 18.4628C152.962 19.395 152.572 20.2686 152.023 21.057L151.895 21.2487Z" fill="white"/>
<path d="M164.365 6.60535H161.538V26.9593H164.365V6.60535Z" fill="white"/>
<path d="M200 6.61063H194.629V0H191.802C191.802 0.825663 191.802 1.65133 191.802 2.47699C191.802 4.35737 191.802 6.24308 191.802 8.12346C191.802 10.2063 191.802 14.3772 191.802 14.3772C191.802 14.3772 191.802 17.1738 191.802 18.5748C191.802 20.7055 192.047 22.9641 193.487 24.6634C193.615 24.8125 193.749 24.9617 193.882 25.1055L193.893 25.0948C194.965 26.1176 196.41 26.6396 197.872 26.8048C198.187 26.842 198.501 26.8633 198.837 26.874L199.28 26.8793L200 26.874V24.1786L199.296 24.1573C198.395 24.1307 197.621 24.0028 197.008 23.7738C196.656 23.6459 196.362 23.4648 196.064 23.2464L196.058 23.2517C195.989 23.1931 195.914 23.1718 195.856 23.1026C195.786 23.0227 195.717 22.9428 195.653 22.8575C195.482 22.6285 195.333 22.3888 195.221 22.1331C194.8 21.1849 194.682 20.1142 194.645 19.0915C194.624 18.5907 194.64 18.09 194.64 17.5893C194.64 16.5292 194.64 15.4745 194.634 14.4145C194.634 13.3118 194.629 12.2092 194.629 11.1118C194.629 10.5312 194.629 9.94524 194.624 9.36462C194.624 9.35396 194.624 9.34864 194.624 9.33798H200V6.61063Z" fill="white"/>
<path d="M31.64 7.15399C30.4559 7.59612 29.4425 8.37917 28.7544 9.42856C28.0503 10.4993 27.7143 11.7617 27.581 13.0242C27.469 14.0683 27.5116 15.1336 27.5116 16.1883C27.5116 17.5041 27.5116 18.8251 27.5116 20.1409C27.5116 21.6004 27.5116 23.06 27.5116 24.5142C27.5116 25.3079 27.5116 26.0963 27.5116 26.89C27.5116 26.9007 27.5116 26.9113 27.5116 26.9273C28.4557 26.9273 29.3945 26.9326 30.3385 26.9326V24.7433V20.1569V16.0818C30.3385 14.7341 30.3119 13.3704 30.6799 12.06C30.8079 11.6072 30.9786 11.1012 31.2879 10.7336C31.656 10.3022 32.088 9.98255 32.6214 9.76948C33.4961 9.42323 34.4242 9.36464 35.3523 9.33268C35.475 9.32735 35.5976 9.32202 35.7203 9.32202V6.63196C34.3335 6.62663 32.9521 6.66392 31.64 7.15399C30.6906 7.51089 32.5734 6.80775 31.64 7.15399Z" fill="white"/>
<path d="M54.3297 22.3994C54.0844 22.6391 53.823 22.8628 53.5457 23.0599V23.0652L53.4017 23.1665L53.3963 23.1611C53.2096 23.289 53.0176 23.4115 52.8203 23.5287C52.8096 23.534 52.7936 23.5447 52.7829 23.55C52.7723 23.5553 52.7616 23.5606 52.7509 23.566C51.8709 24.056 50.9268 24.3703 49.9187 24.4928C49.8814 24.4982 49.844 24.5035 49.812 24.5035C49.5774 24.5248 49.3373 24.5301 49.0973 24.5248C48.2759 24.5035 47.4652 24.381 46.6918 24.0987C46.3718 23.9815 46.0571 23.843 45.753 23.6832C45.2677 23.4168 44.8143 23.1185 44.3929 22.7723L44.3876 22.7669C44.0142 22.4527 43.6782 22.1064 43.3689 21.7389C43.1235 21.4459 42.9422 21.1103 42.7075 20.812C42.1634 19.9277 41.8647 18.9795 41.6781 17.9674H43.6462H48.1639H53.1616C54.2924 17.9674 55.4285 17.9674 56.5646 17.9674C57.2793 17.9674 56.5113 17.9674 59.4182 17.9674V17.9621C59.4448 16.9447 59.4342 15.9326 59.2581 14.9258C59.0501 13.7486 58.6181 12.5926 58.042 11.5379C57.7167 10.9413 57.3327 10.382 56.9006 9.85996V9.85463V9.84931C56.6553 9.57231 56.4099 9.30064 56.1432 9.04495L56.1326 9.05561C56.1059 9.02897 56.0792 9.00234 56.0472 8.9757L56.0525 8.96505C55.5352 8.47498 54.9698 8.0435 54.3671 7.67595C53.9884 7.43624 53.5883 7.22317 53.1723 7.04205C52.5803 6.78104 51.9616 6.58394 51.3268 6.44545C50.7241 6.31227 50.1001 6.23237 49.4707 6.21639C48.8093 6.20041 48.1479 6.24302 47.5025 6.34956C47.4812 6.35489 47.4545 6.35489 47.4332 6.36022C47.4118 6.36554 47.3905 6.36554 47.3638 6.37087C47.1878 6.40283 47.0065 6.44012 46.8305 6.47741C46.8198 6.47741 46.8091 6.48273 46.7985 6.48273C46.7611 6.49339 46.7238 6.49871 46.6865 6.50937C46.6545 6.52002 46.6171 6.52535 46.5851 6.536C46.5851 6.536 46.5851 6.536 46.5798 6.536C45.561 6.80235 44.5796 7.22317 43.6835 7.79314C42.6381 8.46432 41.7154 9.32727 40.9793 10.3234L40.9847 10.3287C40.9687 10.35 40.9473 10.3767 40.9313 10.398L40.9207 10.3926C40.7926 10.5738 40.67 10.7549 40.558 10.936C40.4086 11.165 40.2699 11.3994 40.1366 11.6391C39.8646 12.1399 39.6406 12.6512 39.4592 13.1733C39.1658 13.9989 38.9685 14.8566 38.8885 15.7408C38.8512 16.1616 38.8458 16.5878 38.8458 17.0086C38.8458 17.0299 38.8458 17.0512 38.8458 17.0672C38.9365 20.3539 40.6006 23.4807 43.2835 25.4304C43.5342 25.6115 43.7956 25.7819 44.0622 25.9364L44.0569 25.9471C44.3556 26.1015 44.665 26.304 44.985 26.4052C46.7665 27.1936 48.836 27.4226 50.7881 27.103C50.8308 27.0977 50.8735 27.087 50.9161 27.0817C50.9641 27.0764 51.0068 27.0657 51.0548 27.0551C51.0921 27.0497 51.1242 27.0391 51.1615 27.0337C51.8869 26.8899 52.5909 26.6662 53.2523 26.3679C53.6044 26.2134 53.9404 26.027 54.2657 25.8299C54.4951 25.6967 54.7138 25.5529 54.9325 25.4037V25.3984C55.0925 25.2812 55.2472 25.164 55.4018 25.0362H55.4072C55.8232 24.6846 56.2072 24.3117 56.5806 23.9175L56.6553 23.8323C57.0713 23.3316 57.4073 22.9321 57.7434 22.3727H57.738C57.738 22.3727 57.738 22.3674 57.7434 22.3674H54.5751H54.3297V22.3994ZM41.7847 15.059C42.2701 12.5767 44.0782 10.366 46.4624 9.42848C47.7959 8.90645 49.316 8.81057 50.7188 9.11953C52.1962 9.44447 53.5883 10.2648 54.6071 11.3675C55.5938 12.4328 56.3246 13.8178 56.5699 15.2454H41.7474L41.7847 15.059Z" fill="white"/>
<path d="M78.8385 22.3994C78.5931 22.6391 78.3317 22.8628 78.0544 23.0599V23.0652L77.9104 23.1665L77.905 23.1611C77.7184 23.289 77.5263 23.4115 77.329 23.5287C77.3183 23.534 77.3023 23.5447 77.2917 23.55C77.281 23.5553 77.2703 23.5606 77.2597 23.566C76.3796 24.056 75.4355 24.3703 74.4221 24.4928C74.3848 24.4982 74.3527 24.5035 74.3154 24.5035C74.0807 24.5248 73.8407 24.5301 73.6007 24.5248C72.7793 24.5035 71.9686 24.381 71.1952 24.0987C70.8751 23.9815 70.5604 23.843 70.2564 23.6832C69.771 23.4168 69.3177 23.1185 68.8963 22.7723L68.891 22.7669C68.5176 22.4527 68.1816 22.1064 67.8722 21.7389C67.6269 21.4459 67.4455 21.1103 67.2108 20.812C66.6668 19.9277 66.3681 18.9795 66.1814 17.9674H68.1496H72.6673H77.665C78.7958 17.9674 79.9319 17.9674 81.068 17.9674C81.7827 17.9674 81.0146 17.9674 83.9215 17.9674V17.9621C83.9482 16.9447 83.9375 15.9326 83.7615 14.9258C83.5535 13.7486 83.1215 12.5926 82.5454 11.5379C82.2201 10.9413 81.836 10.382 81.404 9.85996V9.85463V9.84931C81.1586 9.57231 80.9133 9.30064 80.6466 9.04495L80.6359 9.05561C80.6093 9.02897 80.5826 9.00234 80.5506 8.9757L80.5559 8.96505C80.0386 8.47498 79.4732 8.0435 78.8705 7.67595C78.4918 7.43624 78.0917 7.22317 77.6757 7.04205C77.0836 6.78104 76.4649 6.58394 75.8302 6.44545C75.2275 6.31227 74.6034 6.23237 73.9741 6.21639C73.3127 6.20041 72.6566 6.24302 72.0059 6.34956C71.9846 6.35489 71.9579 6.35489 71.9366 6.36022C71.9152 6.36554 71.8939 6.36554 71.8672 6.37087C71.6912 6.40283 71.5098 6.44012 71.3392 6.47741C71.3285 6.47741 71.3178 6.48273 71.3072 6.48273C71.2698 6.49339 71.2325 6.49871 71.1952 6.50937C71.1578 6.52002 71.1258 6.52535 71.0885 6.536C71.0885 6.536 71.0885 6.536 71.0831 6.536C70.0644 6.80235 69.083 7.22317 68.1922 7.79314C67.1468 8.46432 66.2241 9.32727 65.488 10.3234L65.4934 10.3287C65.4774 10.35 65.456 10.3767 65.44 10.398L65.4507 10.4033C65.3227 10.5844 65.2 10.7655 65.088 10.9466C64.9387 11.1757 64.8 11.4101 64.6666 11.6498C64.3946 12.1505 64.1706 12.6619 63.9892 13.1839C63.6959 14.0096 63.4985 14.8672 63.4185 15.7515C63.3812 16.1723 63.3759 16.5984 63.3759 17.0193C63.3759 17.0406 63.3759 17.0619 63.3759 17.0779C63.4665 20.3645 65.1307 23.4914 67.8135 25.441C68.0642 25.6221 68.3256 25.7926 68.5923 25.9471L68.5869 25.9577C68.8856 26.1122 69.195 26.3146 69.515 26.4158C71.2965 27.2042 73.366 27.4333 75.3182 27.1137C75.3608 27.1083 75.4035 27.0977 75.4462 27.0923C75.4942 27.087 75.5368 27.0764 75.5849 27.0657C75.6222 27.0604 75.6542 27.0497 75.6915 27.0444C76.4169 26.9006 77.121 26.6769 77.7824 26.3785C78.1344 26.2241 78.4704 26.0376 78.7958 25.8405C79.0251 25.7074 79.2438 25.5635 79.4625 25.4144V25.4091C79.6225 25.2919 79.7772 25.1747 79.9319 25.0468H79.9372C80.3532 24.6953 80.7373 24.3224 81.1106 23.9282L81.1853 23.843C81.6013 23.3422 81.9374 22.9427 82.2734 22.3834H82.2681L82.2734 22.3781H79.1051H78.8385V22.3994ZM66.2934 15.059C66.7788 12.5767 68.5869 10.366 70.9711 9.42848C72.3046 8.90645 73.8247 8.81057 75.2275 9.11953C76.7049 9.44447 78.0971 10.2648 79.1158 11.3675C80.1026 12.4328 80.8333 13.8178 81.0786 15.2454H66.2561L66.2934 15.059Z" fill="white"/>
<path d="M21.2871 14.9845C21.255 14.7821 21.2284 14.6063 21.2017 14.4571C21.1697 14.2867 21.1377 14.1216 21.095 13.9564L21.0844 13.9191C21.0577 13.8019 21.031 13.6954 21.0097 13.6102C20.983 13.5143 20.9564 13.4078 20.9137 13.2852C20.8817 13.1734 20.8497 13.0668 20.8177 12.9763C20.7857 12.8751 20.7483 12.7739 20.7003 12.646C20.567 12.2998 20.4123 11.9589 20.231 11.6233C20.135 11.4475 20.0336 11.2717 19.9269 11.0959L19.9429 11.0906L19.6176 10.6325C19.4042 10.3288 19.1589 10.0252 18.8655 9.70559C18.5882 9.39663 18.2841 9.09833 17.9695 8.816L17.8468 8.70414C17.2761 8.20342 16.6627 7.76129 16.0226 7.39906C15.8786 7.31383 15.7399 7.24458 15.6173 7.18066C15.4893 7.11674 15.3506 7.04749 15.1746 6.96758L14.8972 6.84507C14.7959 6.80245 14.7052 6.76516 14.6198 6.7332L14.5612 6.71189C14.0705 6.53078 13.5638 6.38163 13.0571 6.27509C12.977 6.25911 12.8704 6.2378 12.737 6.2165C12.081 6.0993 11.3983 6.04071 10.7049 6.04071H10.4275V6.04604C9.59011 6.06734 8.76338 6.17921 7.96331 6.38696C7.80863 6.42957 7.63262 6.47751 7.45127 6.53611C7.25392 6.5947 7.08324 6.6533 6.93923 6.70657C6.83255 6.74918 6.71521 6.7918 6.59253 6.84507C6.50719 6.88235 6.42185 6.91964 6.33651 6.95693L6.24584 6.99954C6.08582 7.07412 5.92048 7.1487 5.75513 7.23393L5.66446 7.27654C5.63245 7.29252 5.58445 7.31916 5.55778 7.33514C4.9604 7.66008 4.40036 8.04361 3.88831 8.46443C3.79231 8.54433 3.69096 8.62956 3.59496 8.72012C3.48828 8.816 3.39227 8.90123 3.2856 9.00777C2.81089 9.47121 2.37886 9.97726 1.99483 10.5206C1.90949 10.6431 1.82948 10.755 1.77081 10.8509C1.72814 10.9148 1.6748 10.9947 1.62146 11.0852L1.55213 11.1918C1.33877 11.538 1.14142 11.9056 0.96541 12.2785C0.789396 12.6513 0.640051 13.0295 0.522709 13.3864C0.512041 13.4131 0.49604 13.477 0.458704 13.6048L0.389365 13.8392C0.261354 14.2973 0.160013 14.7714 0.0960079 15.2402C0.0320028 15.7036 0 16.1937 0 16.6998V16.9448C0.0106675 17.4988 0.0640057 18.0475 0.15468 18.5801C0.261355 19.1874 0.421368 19.784 0.629384 20.354C0.837401 20.924 1.10942 21.4833 1.42411 22.0213C1.7068 22.4954 2.0375 22.9748 2.42153 23.4436L2.54421 23.5874C2.9229 24.0402 3.32293 24.4557 3.7283 24.8179C3.81364 24.8978 3.89898 24.967 3.96832 25.031L4.20834 25.2281L4.27768 25.2813C4.63504 25.5583 5.01374 25.8087 5.39777 26.0271C5.45111 26.059 5.53111 26.1017 5.64312 26.1603L6.41652 26.5331C6.72588 26.6663 7.05124 26.7888 7.37126 26.8847C7.72329 26.9966 8.06999 27.0818 8.41668 27.1511L8.69404 27.2043L8.69937 27.199C8.97139 27.2469 9.24341 27.2789 9.51544 27.3109C10.6889 27.4227 12.081 27.3481 13.2757 27.0605C14.1078 26.8581 14.9239 26.5491 15.7026 26.1496C15.9213 26.0324 16.14 25.9099 16.348 25.782L16.5933 25.6276C16.7267 25.5423 16.8707 25.4465 17.0254 25.3399C17.1694 25.2387 17.3134 25.1322 17.4574 25.0256L17.5054 24.983C17.6761 24.8498 17.8414 24.7114 17.9961 24.5675C18.1775 24.4024 18.3535 24.2319 18.5242 24.0508L18.8069 23.7578V26.4319C18.8069 27.1244 18.7802 27.769 18.7322 28.3443C18.7268 28.4188 18.7162 28.5307 18.6948 28.6905C18.6895 28.7491 18.6788 28.829 18.6682 28.9569L18.6575 29.0155C18.5882 29.5535 18.4922 30.0435 18.3748 30.4803L18.2095 31.0184C18.0175 31.5564 17.7561 32.0677 17.4254 32.5365C17.3614 32.6324 17.2921 32.7229 17.2227 32.8135C17.1481 32.9094 17.0787 32.9946 16.9987 33.0852C16.9454 33.1491 16.8974 33.2077 16.8494 33.2556C16.8014 33.3089 16.7374 33.3675 16.668 33.4421C16.5667 33.5433 16.4813 33.6285 16.4227 33.6818L15.884 34.1292C15.6173 34.3317 15.3506 34.5074 15.0786 34.6566C15.0039 34.6992 14.9185 34.7418 14.8279 34.7898C14.7959 34.8058 14.7639 34.8217 14.7319 34.8377V37.613C14.7905 37.5917 14.8545 37.581 14.9132 37.5597C15.0252 37.5224 15.1212 37.4852 15.2066 37.4532C15.3186 37.4106 15.4146 37.368 15.5213 37.3254L16.1133 37.0484C16.476 36.8672 16.828 36.6702 17.1481 36.4624C17.4681 36.2547 17.7774 36.0256 18.0815 35.7699C18.3908 35.5089 18.6735 35.2372 18.9189 34.9709C19.1695 34.6992 19.4149 34.3956 19.6389 34.076C20.0176 33.5433 20.343 32.9467 20.6043 32.2968C20.647 32.1903 20.695 32.0571 20.7483 31.9079C20.8017 31.7641 20.8443 31.6309 20.887 31.4978L20.9724 31.2048C21.0044 31.1036 21.0257 31.013 21.047 30.9278C21.175 30.4377 21.2764 29.9104 21.3457 29.367L21.3884 29.0368C21.4631 28.3496 21.5057 27.6305 21.5057 26.8954V18.0954C21.4951 16.9501 21.4257 15.9061 21.2871 14.9845ZM18.7802 17.3922C18.7215 18.1806 18.5402 18.9477 18.2468 19.6721C18.1721 19.8533 18.0921 20.0237 18.0068 20.1942C17.9214 20.3593 17.8308 20.5298 17.7241 20.7002C17.6601 20.8121 17.5854 20.924 17.5001 21.0518C17.4254 21.1637 17.3454 21.2755 17.2601 21.3927C17.1801 21.5046 17.0894 21.6164 17.004 21.7283L16.7107 22.0799C16.1453 22.7191 15.5159 23.2518 14.8439 23.662C14.7052 23.7472 14.5718 23.8218 14.4492 23.891C14.3212 23.9603 14.1878 24.0242 14.0385 24.0934C13.6384 24.2745 13.2011 24.4237 12.7477 24.5302C12.6624 24.5515 12.5717 24.5675 12.4863 24.5888C11.9903 24.69 11.4676 24.7433 10.9289 24.754H10.7742C9.63811 24.754 8.57136 24.5515 7.61128 24.1414C7.4246 24.0615 7.23792 23.9762 7.05657 23.8804C6.88056 23.7898 6.70454 23.6886 6.52319 23.5714C6.38985 23.4915 6.26717 23.4063 6.15516 23.3264C6.04849 23.2518 5.93115 23.1612 5.80847 23.06C5.68046 22.9588 5.56312 22.8576 5.46177 22.7724C5.39243 22.7138 5.3231 22.6445 5.24842 22.5753L5.20042 22.5327L5.12575 22.4581C5.04574 22.3782 4.96573 22.2983 4.88039 22.2077C4.41102 21.739 4.21901 21.4566 3.88298 20.9293C3.80831 20.8121 3.7443 20.7109 3.69096 20.6097C3.64296 20.5191 3.58429 20.4126 3.51495 20.2741L3.46161 20.1675C3.41361 20.061 3.36027 19.9598 3.30693 19.8213C3.10425 19.3419 2.94957 18.8358 2.84823 18.3138C2.74689 17.7971 2.69888 17.2484 2.69888 16.6838L2.72022 16.1085C2.74155 15.7889 2.77889 15.4746 2.83756 15.1656C2.9229 14.6862 3.05625 14.2121 3.23759 13.7593L3.25893 13.7007C3.42961 13.2799 3.64829 12.8644 3.90965 12.4596C4.171 12.0494 4.48569 11.6499 4.84306 11.2664C5.24842 10.8349 5.68046 10.4513 6.13383 10.1211C6.5872 9.79082 7.06724 9.51915 7.55794 9.30075C7.97398 9.11963 8.41135 8.97581 8.84872 8.8746C8.89672 8.86395 8.98206 8.84264 9.1154 8.816C9.47277 8.74675 9.85146 8.69349 10.2302 8.67218L10.4275 8.64022L10.8169 8.65087C11.5423 8.66685 12.2463 8.76806 12.897 8.94385C13.5531 9.11963 14.1771 9.38598 14.7639 9.7269C14.8865 9.79615 14.9985 9.87072 15.0999 9.93464C15.1906 9.99324 15.2759 10.0518 15.3559 10.1104L15.4252 10.1637C15.5853 10.2862 15.7399 10.4034 15.9213 10.5579L16.092 10.707C16.4653 11.0426 16.8067 11.4049 17.1054 11.7831C17.4094 12.1666 17.6761 12.5661 17.8948 12.9763C17.9534 13.0935 18.0121 13.2107 18.0655 13.3225L18.1295 13.461C18.3588 13.9671 18.5295 14.5051 18.6415 15.0644C18.7535 15.6184 18.8122 16.2097 18.8122 16.8169L18.7802 17.3922Z" fill="white"/>
</svg>
