<svg width="185" height="32" viewBox="0 0 185 32" fill="none" xmlns="http://www.w3.org/2000/svg">
<g clip-path="url(#clip0_466_9335)">
<path d="M13.061 31.3884C13.061 31.3884 13.0611 31.3883 13.061 31.3884C16.4904 28.1296 16.4905 22.8458 13.0612 19.5869C9.63184 16.3281 4.07177 16.3281 0.642423 19.5869C0.642479 19.5869 0.642366 19.587 0.642423 19.5869L2.90402 21.7364C2.90408 21.7364 2.90397 21.7365 2.90402 21.7364C5.08423 19.6646 8.61922 19.6645 10.7994 21.7363C12.9796 23.8081 12.9796 27.1671 10.7994 29.2389C10.7994 29.239 10.7995 29.2389 10.7994 29.2389L13.061 31.3884Z" fill="white"/>
<path d="M5.29934 28.4396C6.15676 27.6251 7.5469 27.6251 8.40432 28.4396C9.26173 29.2541 9.26173 30.5746 8.40432 31.3891C7.5469 32.2036 6.15676 32.2036 5.29934 31.3891C4.44193 30.5746 4.44193 29.2541 5.29934 28.4396Z" fill="white"/>
<path d="M0.64294 24.0126C1.50019 23.1979 2.89008 23.1979 3.74733 24.0126C4.60459 24.8272 4.60459 26.148 3.74733 26.9626C2.89008 27.7772 1.50019 27.7772 0.64294 26.9626C-0.214314 26.148 -0.214314 24.8272 0.64294 24.0126Z" fill="white"/>
<path d="M20.6103 31.3884C20.6103 31.3884 20.6102 31.3883 20.6103 31.3884C17.181 28.1296 17.1808 22.8458 20.6101 19.5869C24.0394 16.3281 29.5994 16.3281 33.0286 19.5869C33.0286 19.5869 33.0287 19.587 33.0286 19.5869L30.7671 21.7364C30.767 21.7364 30.7671 21.7365 30.7671 21.7364C28.5869 19.6646 25.052 19.6645 22.8718 21.7363C20.6917 23.8081 20.6917 27.1671 22.8718 29.2389C22.8719 29.239 22.8718 29.2389 22.8718 29.2389L20.6103 31.3884Z" fill="white"/>
<path d="M28.3718 28.4396C27.5144 27.6251 26.1243 27.6251 25.2669 28.4396C24.4095 29.2541 24.4095 30.5746 25.2669 31.3891C26.1243 32.2036 27.5144 32.2036 28.3718 31.3891C29.2292 30.5746 29.2292 29.2541 28.3718 28.4396Z" fill="white"/>
<path d="M33.0284 24.0126C32.1712 23.1979 30.7813 23.1979 29.9241 24.0126C29.0668 24.8272 29.0668 26.148 29.9241 26.9626C30.7813 27.7772 32.1712 27.7772 33.0284 26.9626C33.8856 26.148 33.8856 24.8272 33.0284 24.0126Z" fill="white"/>
<path d="M0.643301 12.413C4.07247 15.6718 9.63214 15.6718 13.0613 12.4129C16.4904 9.15398 16.4904 3.87021 13.0613 0.611282C13.0609 0.610965 13.0606 0.610648 13.0603 0.610331L10.7988 2.7599C10.7991 2.76015 10.7993 2.7604 10.7996 2.76066C12.9797 4.83252 12.9797 8.19168 10.7996 10.2635C8.61952 12.3354 5.0849 12.3354 2.90481 10.2635C2.90479 10.2635 2.90484 10.2636 2.90481 10.2635L0.643301 12.413Z" fill="white"/>
<path d="M3.74712 5.03757C4.60433 5.85222 4.60433 7.17304 3.74712 7.98769C2.88992 8.80235 1.50011 8.80235 0.642905 7.98769C-0.214302 7.17304 -0.214302 5.85222 0.642905 5.03757C1.50011 4.22292 2.88992 4.22292 3.74712 5.03757Z" fill="white"/>
<path d="M8.40307 0.611044C9.2602 1.42577 9.2602 2.74671 8.40307 3.56144C7.54594 4.37617 6.15626 4.37617 5.29913 3.56144C4.44201 2.74671 4.44201 1.42577 5.29913 0.611044C6.15626 -0.203684 7.54594 -0.203684 8.40307 0.611044Z" fill="white"/>
<path d="M33.0283 12.4128C33.0283 12.4127 33.0283 12.4128 33.0283 12.4128C29.5991 15.6718 24.0393 15.6719 20.6101 12.4128C17.1809 9.15374 17.1809 3.8697 20.6101 0.610603C20.6101 0.610632 20.6101 0.610574 20.6101 0.610603L22.8718 2.76C22.8718 2.76003 22.8719 2.75997 22.8718 2.76C20.6917 4.83197 20.6916 8.19138 22.8717 10.2634C25.0518 12.3353 28.5865 12.3353 30.7666 10.2634C30.7666 10.2633 30.7665 10.2634 30.7666 10.2634L33.0283 12.4128Z" fill="white"/>
<path d="M29.9242 5.03715C29.067 5.85184 29.067 7.17272 29.9242 7.98742C30.7814 8.80211 32.1712 8.80211 33.0284 7.98742C33.8856 7.17272 33.8856 5.85184 33.0284 5.03715C32.1712 4.22245 30.7814 4.22245 29.9242 5.03715Z" fill="white"/>
<path d="M25.267 0.611021C24.4098 1.42572 24.4098 2.7466 25.267 3.56129C26.1242 4.37599 27.514 4.37599 28.3712 3.56129C29.2285 2.7466 29.2285 1.42572 28.3712 0.611021C27.514 -0.203674 26.1242 -0.203674 25.267 0.611021Z" fill="white"/>
<path d="M44.4943 26.1877V5.98803H47.3529V15.8533C47.9601 15.0019 48.6747 14.3807 49.4968 13.9897C50.3189 13.5988 51.3185 13.4033 52.4955 13.4033C53.4858 13.4033 54.3265 13.551 55.0178 13.8464C55.7185 14.1331 56.265 14.5631 56.6573 15.1365C56.8909 15.4754 57.059 15.8707 57.1618 16.3225C57.2645 16.7742 57.3159 17.5648 57.3159 18.6943V26.1877H54.2471V19.8411C54.2471 18.2164 54.0323 17.1391 53.6025 16.6092C53.1822 16.0705 52.4301 15.8012 51.3465 15.8012C50.6365 15.8012 50.0013 15.9228 49.4408 16.1661C48.8896 16.4093 48.4552 16.7525 48.1376 17.1956C47.9134 17.491 47.7546 17.8733 47.6611 18.3424C47.5771 18.8029 47.535 19.5414 47.535 20.5579V26.1877H44.4943Z" fill="white"/>
<path d="M73.865 26.1877H70.8242V24.5848C70.2824 25.2972 69.6471 25.8272 68.9185 26.1747C68.1991 26.5222 67.3724 26.696 66.4382 26.696C64.5605 26.696 63.0798 26.1008 61.9962 24.9106C60.9219 23.7116 60.3847 22.0739 60.3847 19.9975C60.3847 18.0253 60.9359 16.4354 62.0382 15.2278C63.1405 14.0114 64.5792 13.4033 66.3541 13.4033C67.4378 13.4033 68.3626 13.6161 69.1286 14.0418C69.904 14.4589 70.4692 15.0627 70.8242 15.8533V13.8333H73.865V26.1877ZM70.9083 19.9714C70.9083 18.6943 70.586 17.6995 69.9414 16.9871C69.3061 16.2747 68.414 15.9185 67.265 15.9185C66.1159 15.9185 65.2098 16.2877 64.5465 17.0262C63.8926 17.756 63.5656 18.7725 63.5656 20.0757C63.5656 21.3876 63.8832 22.3997 64.5185 23.1122C65.1537 23.8246 66.0505 24.1808 67.2089 24.1808C68.3019 24.1808 69.1894 23.7942 69.8713 23.0209C70.5626 22.2477 70.9083 21.2312 70.9083 19.9714Z" fill="white"/>
<path d="M81.0114 19.9714C81.0114 21.2486 81.3524 22.2694 82.0344 23.034C82.7257 23.7985 83.6318 24.1808 84.7528 24.1808C85.9019 24.1808 86.7894 23.8246 87.4153 23.1122C88.0505 22.3997 88.3681 21.3876 88.3681 20.0757C88.3681 18.7725 88.0365 17.756 87.3732 17.0262C86.7193 16.2877 85.8178 15.9185 84.6688 15.9185C83.5197 15.9185 82.6229 16.2747 81.9783 16.9871C81.3337 17.6995 81.0114 18.6943 81.0114 19.9714ZM78.0688 32V13.8333H81.1095V15.8533C81.4645 15.0714 82.0297 14.4676 82.8051 14.0418C83.5898 13.6161 84.524 13.4033 85.6076 13.4033C87.3732 13.4033 88.8025 14.0114 89.8955 15.2278C90.9979 16.4354 91.549 18.0253 91.549 19.9975C91.549 22.0739 91.0072 23.7116 89.9235 24.9106C88.8492 26.1008 87.3732 26.696 85.4955 26.696C84.5613 26.696 83.7299 26.5222 83.0013 26.1747C82.2819 25.8272 81.6514 25.2972 81.1095 24.5848V32H78.0688Z" fill="white"/>
<path d="M97.7146 19.9714C97.7146 21.2486 98.0556 22.2694 98.7376 23.034C99.4289 23.7985 100.335 24.1808 101.456 24.1808C102.605 24.1808 103.493 23.8246 104.118 23.1122C104.754 22.3997 105.071 21.3876 105.071 20.0757C105.071 18.7725 104.74 17.756 104.076 17.0262C103.422 16.2877 102.521 15.9185 101.372 15.9185C100.223 15.9185 99.3261 16.2747 98.6815 16.9871C98.0369 17.6995 97.7146 18.6943 97.7146 19.9714ZM94.772 32V13.8333H97.8127V15.8533C98.1677 15.0714 98.7329 14.4676 99.5083 14.0418C100.293 13.6161 101.227 13.4033 102.311 13.4033C104.076 13.4033 105.506 14.0114 106.599 15.2278C107.701 16.4354 108.252 18.0253 108.252 19.9975C108.252 22.0739 107.71 23.7116 106.627 24.9106C105.552 26.1008 104.076 26.696 102.199 26.696C101.265 26.696 100.433 26.5222 99.7044 26.1747C98.9851 25.8272 98.3545 25.2972 97.8127 24.5848V32H94.772Z" fill="white"/>
<path d="M113.759 32H110.634L114.278 25.1191L109.401 13.8333H112.764L115.203 20.2321C115.343 20.623 115.464 21.0227 115.567 21.431C115.679 21.8307 115.768 22.239 115.833 22.656C115.955 22.2216 116.244 21.5309 116.702 20.5839L116.772 20.4276L120.051 13.8333H123.344L113.759 32Z" fill="white"/>
<path d="M134.092 26.1877V16.3094H131.766V13.8333H134.092V10.5232C134.092 8.88115 134.456 7.66916 135.185 6.88724C135.923 6.10532 137.062 5.71436 138.604 5.71436C138.931 5.71436 139.267 5.73608 139.613 5.77952C139.958 5.82296 140.309 5.89246 140.664 5.98803V8.54231C140.421 8.41199 140.173 8.31642 139.921 8.25561C139.678 8.1861 139.431 8.15135 139.178 8.15135C138.45 8.15135 137.927 8.35986 137.609 8.77689C137.291 9.19392 137.132 9.89765 137.132 10.8881V13.8333H140.327V16.3094H137.132V26.1877H134.092Z" fill="white"/>
<path d="M154.971 26.1877H151.93V24.5848C151.388 25.2972 150.753 25.8272 150.024 26.1747C149.305 26.5222 148.478 26.696 147.544 26.696C145.666 26.696 144.186 26.1008 143.102 24.9106C142.028 23.7116 141.49 22.0739 141.49 19.9975C141.49 18.0253 142.042 16.4354 143.144 15.2278C144.246 14.0114 145.685 13.4033 147.46 13.4033C148.543 13.4033 149.468 13.6161 150.234 14.0418C151.01 14.4589 151.575 15.0627 151.93 15.8533V13.8333H154.971V26.1877ZM152.014 19.9714C152.014 18.6943 151.692 17.6995 151.047 16.9871C150.412 16.2747 149.52 15.9185 148.371 15.9185C147.222 15.9185 146.315 16.2877 145.652 17.0262C144.998 17.756 144.671 18.7725 144.671 20.0757C144.671 21.3876 144.989 22.3997 145.624 23.1122C146.259 23.8246 147.156 24.1808 148.315 24.1808C149.408 24.1808 150.295 23.7942 150.977 23.0209C151.668 22.2477 152.014 21.2312 152.014 19.9714Z" fill="white"/>
<path d="M169.095 17.352C168.628 16.8741 168.082 16.5092 167.456 16.2573C166.839 16.0053 166.172 15.8794 165.452 15.8794C164.21 15.8794 163.215 16.2529 162.467 17.0001C161.72 17.7473 161.346 18.7377 161.346 19.9714C161.346 21.2573 161.72 22.2694 162.467 23.0079C163.224 23.7377 164.266 24.1026 165.592 24.1026C166.33 24.1026 166.989 23.9766 167.568 23.7247C168.147 23.464 168.656 23.0731 169.095 22.5518V25.8098C168.535 26.1052 167.932 26.3267 167.288 26.4744C166.653 26.6221 165.975 26.696 165.256 26.696C163.173 26.696 161.473 26.0791 160.155 24.8454C158.848 23.6117 158.194 22.0131 158.194 20.0496C158.194 18.0601 158.871 16.4571 160.225 15.2408C161.589 14.0158 163.369 13.4033 165.564 13.4033C166.256 13.4033 166.891 13.4684 167.47 13.5988C168.049 13.7204 168.591 13.9115 169.095 14.1722V17.352Z" fill="white"/>
<path d="M185 20.4276H174.378C174.453 21.5831 174.822 22.4866 175.485 23.1382C176.149 23.7811 177.031 24.1026 178.134 24.1026C179.115 24.1026 179.932 23.9115 180.586 23.5292C181.24 23.1469 181.81 22.5301 182.295 21.6786L184.86 23.0079C184.112 24.2503 183.188 25.1756 182.085 25.7837C180.983 26.3919 179.689 26.696 178.204 26.696C176.074 26.696 174.378 26.0922 173.117 24.8845C171.856 23.6769 171.225 22.0652 171.225 20.0496C171.225 18.1122 171.875 16.5223 173.173 15.2799C174.481 14.0288 176.158 13.4033 178.204 13.4033C180.343 13.4033 182.011 13.9723 183.206 15.1105C184.402 16.2486 185 17.8429 185 19.8932V20.4276ZM181.847 18.5249C181.726 17.6387 181.361 16.9654 180.754 16.5049C180.147 16.0357 179.315 15.8012 178.26 15.8012C177.26 15.8012 176.457 16.0271 175.85 16.4788C175.242 16.9306 174.817 17.6126 174.574 18.5249H181.847Z" fill="white"/>
</g>
<defs>
<clipPath id="clip0_466_9335">
<rect width="185" height="32" fill="white"/>
</clipPath>
</defs>
</svg>
