<svg width="153" height="17" viewBox="0 0 153 17" fill="none" xmlns="http://www.w3.org/2000/svg">
<path fill-rule="evenodd" clip-rule="evenodd" d="M15.1804 16.9999C14.791 16.8969 14.396 16.8145 14.0178 16.6806C13.3735 16.5058 12.8245 16.1118 12.4809 15.5778C12.1373 15.0437 12.0246 14.409 12.1654 13.8012C12.5771 11.3545 13.0499 8.91809 13.5005 6.48169C13.6785 5.50816 13.8398 4.53464 14.0567 3.57141C14.5407 1.46983 15.8646 0.480844 18.0674 0.161486C18.9889 0.0281212 19.9272 0.0281212 20.8487 0.161486C23.2017 0.491146 24.0861 1.70677 23.6745 3.89077C23.096 7.00881 22.5064 10.1337 21.9056 13.2655C21.7914 14.211 21.3273 15.0908 20.5922 15.7556C19.8571 16.4203 18.8962 16.8291 17.8727 16.9124C17.7883 16.9321 17.7063 16.9597 17.6279 16.9948L15.1804 16.9999ZM20.4537 3.65898C20.4537 2.73696 20.0199 2.33003 19.23 2.32488C18.751 2.29993 18.2801 2.44643 17.9146 2.73407C17.5491 3.02171 17.317 3.42847 17.2664 3.87016C16.9289 5.61118 16.5988 7.35564 16.2762 9.10352C16.0092 10.52 15.72 11.9365 15.503 13.353C15.462 13.4785 15.4482 13.6103 15.4624 13.7407C15.4765 13.8711 15.5184 13.9977 15.5857 14.1131C15.6529 14.2284 15.7441 14.3304 15.854 14.413C15.9639 14.4956 16.0904 14.5573 16.2261 14.5944C16.3472 14.6265 16.473 14.6404 16.5988 14.6356C16.8301 14.6686 17.066 14.659 17.2932 14.6074C17.5205 14.5559 17.7345 14.4633 17.923 14.3351C18.1116 14.2069 18.271 14.0455 18.3922 13.8602C18.5134 13.6749 18.5939 13.4693 18.6292 13.2552V13.2243C19.102 10.8188 19.547 8.4236 20.0254 6.02841C20.1812 5.18365 20.3425 4.3389 20.476 3.65898H20.4537Z" fill="white"/>
<path fill-rule="evenodd" clip-rule="evenodd" d="M117.727 17L117.027 16.83C115.246 16.4283 114.373 15.2435 114.674 13.5695C115.174 10.824 115.703 8.07859 116.214 5.32799C116.337 4.70472 116.437 4.07631 116.587 3.45819C117.071 1.48023 118.506 0.470648 120.57 0.140988C121.641 -0.0516101 122.745 -0.0323012 123.807 0.197649C125.726 0.64578 126.589 1.74293 126.238 3.56121C125.649 6.85438 125.024 10.1407 124.364 13.4201C123.946 15.4805 122.6 16.5982 120.386 16.9073C120.285 16.9318 120.184 16.961 120.086 16.9949L117.727 17ZM121.682 2.33014C120.626 2.33014 119.925 2.97401 119.724 4.07116C119.285 6.44059 118.829 8.81002 118.389 11.1795C118.239 11.9985 118.089 12.8175 118 13.6416C117.966 13.8525 118.024 14.0672 118.161 14.2389C118.297 14.4106 118.501 14.5254 118.729 14.5585V14.5585C119.919 14.883 120.954 14.2546 121.16 13.0544C121.516 11.1692 121.883 9.28391 122.233 7.38836C122.472 6.12638 122.717 4.8644 122.906 3.59727C122.983 3.33362 122.943 3.05261 122.796 2.81599C122.649 2.57936 122.407 2.40647 122.122 2.33529C121.97 2.30445 121.812 2.30445 121.66 2.33529L121.682 2.33014Z" fill="white"/>
<path fill-rule="evenodd" clip-rule="evenodd" d="M144.628 16.9997C144.311 16.9225 143.989 16.8503 143.677 16.7576C142.976 16.6093 142.364 16.2153 141.97 15.6583C141.576 15.1012 141.43 14.4245 141.563 13.7701C141.691 12.8223 141.903 11.8848 142.086 10.901H145.307C145.157 11.7355 145.006 12.539 144.867 13.3374C144.728 14.1358 145.04 14.5479 145.935 14.6663C146.346 14.7544 146.777 14.6884 147.134 14.4828C147.492 14.2771 147.747 13.9486 147.843 13.5692V13.5692C148.026 12.945 148.161 12.3099 148.249 11.6685C148.295 11.3874 148.255 11.1001 148.135 10.8384C148.016 10.5767 147.82 10.3506 147.571 10.185C146.703 9.57207 145.874 8.91274 144.973 8.34099C144.357 7.98159 143.874 7.45661 143.589 6.83623C143.303 6.21585 143.229 5.52962 143.377 4.86925C143.476 4.2 143.638 3.53995 143.861 2.89644C144.028 2.40457 144.306 1.95106 144.676 1.56575C145.046 1.18044 145.5 0.87207 146.008 0.660936C147.479 -0.0106371 149.164 -0.162634 150.747 0.233408C151.304 0.334987 151.812 0.595172 152.201 0.977547C152.59 1.35992 152.84 1.84535 152.917 2.3659C152.933 2.4173 152.962 2.46475 153 2.50497V3.1849C152.878 3.7309 152.727 4.2769 152.65 4.82805C152.611 5.12165 152.472 5.15771 152.205 5.15771C151.587 5.15771 150.964 5.15771 150.347 5.15771H149.334C149.407 4.78684 149.468 4.49839 149.518 4.20993C149.568 3.92148 149.629 3.62273 149.657 3.33427C149.695 3.16698 149.671 2.99281 149.591 2.83902C149.51 2.68523 149.377 2.56051 149.212 2.48437C149.025 2.38894 148.819 2.32895 148.607 2.30789C148.395 2.28682 148.18 2.30512 147.976 2.3617C147.771 2.41828 147.581 2.51201 147.416 2.63743C147.251 2.76285 147.114 2.91744 147.015 3.09218C147.015 3.09218 146.987 3.14884 146.97 3.1746C146.789 3.67554 146.669 4.19396 146.614 4.71988C146.584 4.93944 146.62 5.16246 146.718 5.36427C146.816 5.56608 146.973 5.73881 147.17 5.86339C148.16 6.57937 149.151 7.30565 150.124 8.04223C151.198 8.85608 151.843 9.86052 151.593 11.2101C151.454 11.9724 151.314 12.7553 151.142 13.4919C151.012 14.2263 150.664 14.9125 150.136 15.4738C149.608 16.0352 148.922 16.4494 148.155 16.6701C147.743 16.7988 147.315 16.8709 146.892 16.974L144.628 16.9997Z" fill="white"/>
<path fill-rule="evenodd" clip-rule="evenodd" d="M29.6154 16.9999C29.3873 16.9432 29.1592 16.8762 28.9312 16.8299C26.9286 16.4281 26.1165 15.3979 26.4558 13.5178C27.0121 10.35 27.6518 7.19763 28.2581 4.0401C28.3137 3.7465 28.3971 3.46319 28.4806 3.17474C29.009 1.39252 30.3886 0.516856 32.2632 0.156291C33.4229 -0.0697481 34.6227 -0.0503796 35.7732 0.212951C37.4976 0.625026 38.2486 1.68612 37.9982 3.30352C37.8314 4.28735 37.6255 5.26602 37.442 6.27561H34.2045C34.3603 5.39995 34.516 4.53459 34.6551 3.67438C34.7942 2.81418 34.4882 2.46906 33.576 2.36604C33.157 2.28179 32.7191 2.35487 32.3582 2.56925C31.9974 2.78362 31.7432 3.12179 31.6513 3.50955C31.6513 3.56106 31.6513 3.61257 31.6513 3.66408C31.3676 4.88485 31.1506 6.12108 30.917 7.35731C30.5647 9.21164 30.2161 11.0694 29.8712 12.9306C29.8737 12.9443 29.8737 12.9582 29.8712 12.9718C29.6877 13.899 29.9269 14.4914 30.6055 14.5995C31.6068 14.7644 32.4857 14.5995 32.7638 13.6209C33.0419 12.6422 33.1365 11.7511 33.3757 10.8187C33.3757 10.7157 33.537 10.5612 33.626 10.556C34.605 10.556 35.5841 10.556 36.6632 10.556C36.3684 11.8489 36.1848 13.1315 35.7788 14.3111C35.2225 15.9388 33.7762 16.629 32.0796 16.9278C31.9541 16.9455 31.8296 16.9696 31.7069 16.9999H29.6154Z" fill="white"/>
<path fill-rule="evenodd" clip-rule="evenodd" d="M0 16.3251C0.183567 15.4598 0.378258 14.5944 0.556262 13.7497C1.11252 10.7656 1.66879 7.79003 2.22505 4.82309C2.48093 3.46324 2.78131 2.10339 2.99825 0.743542C3.04276 0.470542 3.12619 0.35207 3.44326 0.362372C4.37779 0.362372 5.31231 0.362372 6.31914 0.362372C5.45137 4.99822 4.58917 9.55165 3.71583 14.172H8.42738C8.26606 15.022 8.11587 15.8204 7.96012 16.6548H0V16.3251Z" fill="white"/>
<path fill-rule="evenodd" clip-rule="evenodd" d="M109.027 8.28967C109.083 8.33661 109.144 8.37646 109.211 8.40814C110.746 8.92323 110.88 10.0513 110.685 11.2206C110.457 12.5392 110.201 13.8578 109.979 15.1765C109.92 15.4336 109.923 15.6994 109.987 15.9555C110.05 16.2116 110.172 16.4519 110.346 16.66C109.2 16.66 108.121 16.66 107.008 16.66C106.937 16.6424 106.873 16.6079 106.821 16.56C106.77 16.5121 106.732 16.4524 106.713 16.387C106.667 15.7726 106.676 15.1558 106.741 14.5429C106.919 13.3582 107.175 12.1838 107.403 11.0042C107.603 9.97403 107.242 9.5465 106.113 9.53105C105.718 9.53105 105.317 9.5568 104.928 9.53105C104.538 9.50529 104.477 9.65467 104.422 9.95342C104.032 12.0962 103.632 14.2287 103.226 16.3663C103.202 16.4674 103.172 16.5671 103.137 16.6651H99.9158C100.939 11.236 101.963 5.84812 102.986 0.388123H104.477C106.296 0.388123 108.11 0.388123 109.929 0.413877C111.453 0.439632 112.287 1.36165 112.087 2.77816C111.948 3.77229 111.764 4.75612 111.575 5.73995C111.353 7.05344 110.696 8.08363 109.027 8.28967ZM104.983 7.14101C105.662 7.14101 106.268 7.16676 106.869 7.14101C107.153 7.16476 107.437 7.09878 107.676 6.95381C107.914 6.80883 108.093 6.59341 108.182 6.34261C108.423 5.41524 108.608 4.47637 108.738 3.5302C108.751 3.4408 108.745 3.34985 108.72 3.26266C108.695 3.17546 108.652 3.09377 108.592 3.02233C108.532 2.95089 108.458 2.89115 108.373 2.84657C108.289 2.802 108.195 2.77349 108.098 2.76271C108.058 2.75755 108.017 2.75755 107.976 2.76271C107.706 2.74991 107.434 2.74991 107.164 2.76271C106.724 2.76271 106.185 2.65969 105.89 2.85542C105.595 3.05116 105.695 3.55595 105.618 3.92682C105.614 3.9404 105.614 3.95445 105.618 3.96803C105.417 4.99822 105.217 6.06961 105.011 7.17191L104.983 7.14101Z" fill="white"/>
<path fill-rule="evenodd" clip-rule="evenodd" d="M78.0102 6.72893H80.9028C81.3088 4.60674 81.7038 2.50516 82.1043 0.388123H85.3584C84.3293 5.81722 83.3114 11.2051 82.2879 16.6393H79.0393C79.501 14.172 79.9627 11.7356 80.4355 9.22199H78.3607C77.5151 9.22199 77.5263 9.22199 77.3928 9.97403C76.9997 12.1271 76.5973 14.2768 76.1857 16.423C76.1639 16.4964 76.1379 16.5686 76.1078 16.6393H72.8704C73.8939 11.2206 74.9174 5.82237 75.9409 0.393273H79.1895C78.8057 2.51031 78.433 4.60159 78.0102 6.72893Z" fill="white"/>
<path fill-rule="evenodd" clip-rule="evenodd" d="M45.9083 14.0433H43.0046C42.7209 14.8262 42.4483 15.5886 42.1313 16.387C42.0978 16.4532 42.0483 16.5114 41.9865 16.557C41.9248 16.6026 41.8525 16.6343 41.7753 16.6497C40.8074 16.6497 39.8339 16.6497 38.7993 16.6497L39.4946 14.9395C41.3488 10.2144 43.2123 5.48928 45.085 0.76415C45.1133 0.637617 45.1919 0.525548 45.3052 0.450173C45.4186 0.374798 45.5584 0.341622 45.6969 0.357225C46.7705 0.38298 47.8441 0.357225 48.9677 0.357225C49.0289 5.79662 49.0957 11.1742 49.1624 16.6239H45.9138L45.9083 14.0433ZM46.064 11.4678C46.1475 9.23745 46.2309 7.03285 46.3144 4.83339H46.2532L43.8946 11.4781L46.064 11.4678Z" fill="white"/>
<path fill-rule="evenodd" clip-rule="evenodd" d="M98.2638 2.86582H93.0349L92.3396 6.65176H97.2736C97.1235 7.45016 97.0011 8.19705 96.8286 8.96454C96.8286 9.05726 96.5672 9.16543 96.4281 9.16543C95.082 9.16543 93.7358 9.16543 92.3897 9.16543H91.8668C91.5497 10.8189 91.2438 12.4363 90.9267 14.1052H96.4059C96.239 14.9757 96.0888 15.7947 95.9331 16.6291H87.183C87.361 15.6711 87.5391 14.7439 87.7393 13.8167L89.6918 3.45818C89.8698 2.51556 90.0422 1.57294 90.2481 0.630313C90.2481 0.527294 90.4316 0.367615 90.5317 0.367615C93.2296 0.367615 95.9219 0.367615 98.6142 0.367615C98.6661 0.377589 98.7165 0.393148 98.7644 0.413973C98.5753 1.22267 98.4251 2.02107 98.2638 2.86582Z" fill="white"/>
<path fill-rule="evenodd" clip-rule="evenodd" d="M132.24 14.1308H137.719C137.558 14.991 137.402 15.8151 137.252 16.6393H128.524C128.719 15.5679 128.919 14.5119 129.114 13.4611C129.707 10.3294 130.301 7.19759 130.894 4.06582C131.111 2.92746 131.317 1.7891 131.545 0.650747C131.545 0.542577 131.734 0.377747 131.834 0.377747C134.543 0.377747 137.258 0.377747 139.967 0.377747C139.967 0.377747 140.017 0.403501 140.067 0.429256C139.917 1.2225 139.761 2.0209 139.605 2.8605H134.376C134.132 4.13278 133.898 5.36901 133.659 6.65675H138.593C138.448 7.39848 138.292 8.10416 138.192 8.80984C138.142 9.13435 137.986 9.18071 137.686 9.18071C136.368 9.18071 135.049 9.18071 133.737 9.18071H133.18C132.869 10.8187 132.563 12.4464 132.24 14.1308Z" fill="white"/>
<path fill-rule="evenodd" clip-rule="evenodd" d="M59.3643 0.367584C58.491 5.00343 57.6288 9.56717 56.7554 14.1876H61.467C61.3112 15.0272 61.1666 15.8153 61.0108 16.6291H53.0452C53.2454 15.568 53.4345 14.5172 53.6348 13.4664C54.2207 10.3278 54.8141 7.19258 55.4148 4.06081C55.6318 2.92245 55.8376 1.78409 56.0657 0.650886C56.0657 0.547867 56.227 0.383037 56.316 0.377886C57.295 0.362433 58.3074 0.367584 59.3643 0.367584Z" fill="white"/>
</svg>
