<svg width="242" height="29" viewBox="0 0 242 29" fill="none" xmlns="http://www.w3.org/2000/svg">
<path d="M51.4845 21.0965L53.0949 10.1205H53.2781L57.8591 19.1262L62.3873 10.1205H62.5494L64.1704 21.0965H63.0674L61.9574 13.2462L57.979 21.0965H57.6935L53.6693 13.1877L52.5628 21.0965H51.4845Z" fill="white"/>
<path d="M70.9221 10.1205H72.0638V21.0965H70.9397L70.9221 10.1205Z" fill="white"/>
<path d="M83.9181 10.1205L89.1616 21.0965H87.9494L86.1875 17.486H81.3351L79.5732 21.0965H78.3222L83.6362 10.1205H83.9181ZM83.7736 12.4519L81.8496 16.4269H85.6941L83.7736 12.4519Z" fill="white"/>
<path d="M94.4404 19.0539L95.3953 18.4935C96.0696 19.7015 96.8472 20.3056 97.7281 20.3056C98.0969 20.3061 98.4601 20.2175 98.7853 20.0477C99.0982 19.8926 99.3597 19.6541 99.5394 19.36C99.7118 19.0834 99.8021 18.7656 99.8002 18.4419C99.7922 18.052 99.6591 17.6744 99.4196 17.3622C98.8675 16.6876 98.2183 16.0946 97.492 15.6016C96.8465 15.1711 96.2551 14.6679 95.7301 14.1024C95.3469 13.6227 95.1375 13.0326 95.1346 12.4244C95.1303 11.9659 95.2519 11.5147 95.487 11.1177C95.7237 10.7256 96.0662 10.4045 96.4772 10.1893C96.9026 9.96167 97.3804 9.84335 97.8656 9.84545C98.3875 9.84252 98.9008 9.97546 99.3526 10.2306C99.9356 10.5983 100.435 11.0794 100.819 11.6438L99.8988 12.3315C99.618 11.9091 99.261 11.5397 98.8452 11.2415C98.5524 11.0675 98.2154 10.977 97.8726 10.9802C97.669 10.9724 97.4658 11.0039 97.2747 11.0729C97.0836 11.142 96.9084 11.2472 96.7591 11.3825C96.6197 11.5085 96.5093 11.6619 96.4352 11.8326C96.3611 12.0033 96.3249 12.1874 96.3292 12.3728C96.3294 12.6099 96.3811 12.8443 96.4807 13.0605C96.6202 13.335 96.8087 13.583 97.0375 13.7929C97.1855 13.9305 97.6717 14.2984 98.4928 14.8898C99.2649 15.3983 99.9419 16.0321 100.494 16.7639C100.837 17.2492 101.025 17.8219 101.037 18.4109C101.037 18.7987 100.955 19.1823 100.796 19.5375C100.636 19.8927 100.403 20.2116 100.11 20.4741C99.8127 20.7611 99.4592 20.9869 99.0706 21.1381C98.682 21.2893 98.2662 21.3628 97.8479 21.3543C97.1883 21.3615 96.5415 21.1759 95.9909 20.8214C95.3355 20.3629 94.8035 19.7565 94.4404 19.0539Z" fill="white"/>
<path d="M106.982 11.1968V10.1205H113.145V11.1968H110.64V21.0965H109.491V11.1968H106.982Z" fill="white"/>
<path d="M124.82 9.84545C125.611 9.82496 126.399 9.96195 127.134 10.2481C127.87 10.5342 128.538 10.9635 129.098 11.5097C129.928 12.3157 130.495 13.3444 130.726 14.4652C130.957 15.586 130.841 16.7484 130.394 17.805C129.946 18.8615 129.187 19.7646 128.213 20.3996C127.239 21.0346 126.093 21.3729 124.922 21.3715C124.137 21.3892 123.358 21.25 122.63 20.9626C121.903 20.6752 121.244 20.2457 120.693 19.7004C120.137 19.1774 119.698 18.5486 119.401 17.853C119.105 17.1574 118.958 16.4099 118.97 15.6566C118.963 14.6285 119.234 13.6168 119.756 12.7235C120.263 11.8485 121 11.1209 121.89 10.6151C122.781 10.1094 123.793 9.84375 124.823 9.84545H124.82ZM124.869 10.9114C124.036 10.912 123.22 11.1318 122.504 11.5475C121.769 11.9549 121.16 12.549 120.742 13.2668C120.32 14.0014 120.104 14.8316 120.115 15.6738C120.11 16.2839 120.229 16.8888 120.465 17.4538C120.701 18.0187 121.049 18.5323 121.49 18.965C121.931 19.3976 122.455 19.7407 123.033 19.9743C123.61 20.208 124.23 20.3276 124.855 20.3262C125.705 20.3322 126.541 20.1187 127.279 19.7073C128.006 19.3071 128.606 18.7209 129.016 18.0121C129.44 17.2778 129.656 16.4473 129.644 15.6051C129.654 14.7772 129.437 13.9617 129.016 13.2428C128.596 12.5343 127.987 11.9498 127.255 11.551C126.531 11.1367 125.708 10.916 124.869 10.9114V10.9114Z" fill="white"/>
<path d="M146.167 10.1205H147.323L149.62 18.0293L152.845 10.1205H153.081L156.252 18.0293L158.589 10.1205H159.734L156.503 21.0965H156.295L152.958 12.7923L149.554 21.0965H149.346L146.167 10.1205Z" fill="white"/>
<path d="M168.515 14.7076L170.556 13.0639V14.3603L168.515 16.0211V20.0511H172.846V21.1102H167.391V16.922L165.844 18.1805V16.8739L167.391 15.6188V10.1171H168.515V14.7076Z" fill="white"/>
<path d="M184.683 9.84545C185.474 9.82496 186.262 9.96195 186.997 10.2481C187.733 10.5342 188.401 10.9635 188.961 11.5097C189.792 12.3163 190.359 13.3459 190.59 14.4677C190.82 15.5895 190.704 16.7528 190.255 17.8098C189.806 18.8667 189.046 19.7697 188.07 20.4039C187.094 21.0381 185.947 21.3749 184.775 21.3715C183.99 21.3888 183.211 21.2494 182.483 20.9621C181.756 20.6747 181.097 20.2454 180.546 19.7004C179.993 19.1762 179.556 18.5469 179.262 17.8514C178.968 17.1558 178.823 16.4089 178.837 15.6566C178.831 14.6287 179.102 13.6173 179.623 12.7235C180.13 11.8485 180.867 11.1209 181.757 10.6151C182.647 10.1094 183.66 9.84375 184.69 9.84545H184.683ZM184.736 10.9114C183.902 10.9116 183.084 11.1314 182.368 11.5475C181.632 11.9549 181.023 12.549 180.606 13.2668C180.183 14.0014 179.967 14.8316 179.979 15.6738C179.974 16.2839 180.094 16.8887 180.331 17.4535C180.567 18.0182 180.916 18.5316 181.357 18.9641C181.798 19.3967 182.322 19.7397 182.9 19.9735C183.477 20.2072 184.096 20.3271 184.722 20.3262C185.57 20.3318 186.406 20.1183 187.143 19.7073C187.87 19.3076 188.472 18.7214 188.883 18.0121C189.305 17.2775 189.521 16.447 189.507 15.6051C189.518 14.7775 189.303 13.962 188.883 13.2428C188.462 12.5346 187.854 11.9502 187.121 11.551C186.398 11.1362 185.575 10.9156 184.736 10.9114V10.9114Z" fill="white"/>
<path d="M196.474 19.0539L197.429 18.4935C198.103 19.7015 198.881 20.3056 199.762 20.3056C200.13 20.3069 200.494 20.2183 200.819 20.0477C201.133 19.8927 201.395 19.6543 201.576 19.36C201.749 19.0834 201.839 18.7656 201.837 18.4419C201.83 18.0514 201.695 17.6733 201.453 17.3622C200.902 16.6876 200.254 16.0946 199.529 15.6016C198.883 15.1711 198.292 14.6679 197.767 14.1024C197.384 13.6227 197.174 13.0326 197.171 12.4244C197.167 11.9659 197.289 11.5147 197.524 11.1177C197.761 10.7256 198.103 10.4045 198.514 10.1893C198.94 9.96167 199.417 9.84335 199.902 9.84545C200.424 9.84252 200.938 9.97546 201.39 10.2306C201.973 10.5983 202.472 11.0794 202.855 11.6438L201.936 12.3315C201.645 11.9111 201.278 11.5454 200.854 11.2518C200.561 11.0783 200.224 10.9878 199.881 10.9905C199.678 10.9827 199.475 11.0142 199.283 11.0832C199.092 11.1523 198.917 11.2575 198.768 11.3928C198.628 11.5188 198.518 11.6722 198.444 11.8429C198.37 12.0136 198.334 12.1978 198.338 12.3831C198.338 12.6202 198.39 12.8546 198.489 13.0708C198.628 13.3461 198.816 13.5943 199.046 13.8032C199.194 13.9408 199.677 14.3087 200.502 14.9001C201.274 15.4086 201.951 16.0424 202.503 16.7742C202.845 17.2595 203.034 17.8322 203.046 18.4212C203.046 18.8094 202.964 19.1934 202.804 19.5486C202.644 19.9039 202.409 20.2226 202.115 20.4844C201.819 20.7716 201.466 20.9976 201.078 21.1488C200.69 21.3001 200.274 21.3735 199.857 21.3647C199.197 21.3722 198.55 21.1866 198 20.8317C197.352 20.3675 196.828 19.7576 196.474 19.0539V19.0539Z" fill="white"/>
<path d="M215.485 9.84543C216.276 9.82514 217.064 9.96223 217.799 10.2483C218.535 10.5345 219.203 10.9636 219.763 11.5097C220.594 12.3163 221.161 13.3459 221.392 14.4677C221.622 15.5895 221.506 16.7527 221.057 17.8097C220.608 18.8667 219.848 19.7697 218.872 20.4039C217.896 21.0381 216.749 21.3749 215.576 21.3715C214.792 21.3892 214.012 21.25 213.285 20.9626C212.558 20.6752 211.899 20.2457 211.348 19.7004C210.792 19.1774 210.353 18.5486 210.056 17.853C209.76 17.1574 209.613 16.4099 209.625 15.6566C209.618 14.6289 209.888 13.6175 210.407 12.7235C210.915 11.847 211.653 11.1183 212.546 10.6125C213.438 10.1067 214.453 9.8419 215.485 9.84543V9.84543ZM215.534 10.9114C214.702 10.912 213.885 11.1318 213.17 11.5475C212.434 11.9548 211.825 12.549 211.408 13.2668C210.984 14.0007 210.767 14.8314 210.781 15.6738C210.775 16.2838 210.894 16.8888 211.13 17.4537C211.366 18.0187 211.715 18.5323 212.156 18.9649C212.596 19.3976 213.121 19.7407 213.698 19.9743C214.276 20.208 214.895 20.3276 215.52 20.3262C216.37 20.3322 217.206 20.1187 217.945 19.7073C218.671 19.3071 219.272 18.7209 219.682 18.012C220.104 17.2775 220.319 16.447 220.305 15.605C220.317 14.7775 220.101 13.962 219.682 13.2427C219.262 12.5339 218.653 11.9492 217.92 11.551C217.198 11.1363 216.376 10.9157 215.538 10.9114H215.534ZM216.094 6.95703H217.737L215.481 9.25743H214.424L216.094 6.95703Z" fill="white"/>
<path d="M227.818 10.1205H228.974L231.272 18.0293L234.496 10.1205H234.729L237.9 18.0293L240.237 10.1205H241.382L238.15 21.0965H237.943L234.605 12.7923L231.205 21.0965H230.99L227.818 10.1205Z" fill="white"/>
<path d="M33.844 15.0618C33.785 14.8036 33.6813 14.557 33.5375 14.3328C33.4637 14.2221 33.3663 14.1283 33.252 14.0576C33.1377 13.987 33.0091 13.9413 32.875 13.9236V13.9236C33.0045 13.946 33.1275 13.9958 33.2352 14.0694C33.343 14.1431 33.4329 14.2388 33.4987 14.35C33.627 14.573 33.7141 14.8162 33.756 15.0686C33.8504 15.5727 33.8588 16.0886 33.7806 16.5954C33.744 16.8461 33.6778 17.0919 33.5833 17.3278C33.4947 17.5614 33.3763 17.7832 33.2309 17.988C33.0877 18.187 32.9057 18.3564 32.6953 18.4866C32.4911 18.6071 32.2573 18.6713 32.0187 18.6723C31.7734 18.675 31.5312 18.6182 31.3139 18.5072C31.0976 18.3939 30.9003 18.2489 30.729 18.0774C30.5508 17.8998 30.3871 17.7089 30.2391 17.5066L30.1792 17.4206V17.3897C30.2603 16.702 30.3308 15.9489 30.3836 15.189C30.4259 14.5494 30.4576 13.8136 30.4788 13.0193C30.497 12.2162 30.4723 11.4128 30.4048 10.6123C30.3743 10.3011 30.3237 9.99218 30.2532 9.68727C30.1816 9.37278 30.0741 9.06713 29.9326 8.77605C29.8109 8.52088 29.637 8.29269 29.4216 8.10553C29.3267 8.02255 29.2147 7.9603 29.0932 7.92294C28.9717 7.88558 28.8433 7.87397 28.7168 7.8889C28.4549 7.90616 28.2066 8.00914 28.0121 8.18118C27.8106 8.36779 27.6521 8.59399 27.5469 8.84482C27.4245 9.1302 27.345 9.43131 27.3108 9.73886C27.2722 10.0618 27.2651 10.3877 27.2897 10.712C27.3599 11.6844 27.5456 12.6456 27.8429 13.5763C28.0302 14.1423 28.249 14.6979 28.4984 15.2406L28.6851 15.6704C28.7944 15.9111 28.9071 16.1484 29.0375 16.3856C29.1679 16.6229 29.2807 16.8601 29.4181 17.0905C29.4533 17.149 29.4886 17.2074 29.5273 17.2659C29.5661 17.3243 29.6049 17.3828 29.6471 17.4378C29.6894 17.4928 29.7951 17.6338 29.8727 17.7301C29.7141 19.2328 29.5414 20.481 29.3335 21.6707C29.2489 22.2002 29.1432 22.7263 29.0269 23.2284C28.9251 23.6931 28.7981 24.1522 28.6464 24.6038C28.5344 24.9537 28.3807 25.2896 28.1883 25.6044C28.1336 25.7173 28.0531 25.8163 27.9529 25.8939C27.8526 25.9714 27.7354 26.0253 27.6103 26.0514C27.2897 26.0755 27.1241 25.4772 27.0712 25.2812C26.9443 24.8273 26.8175 24.2496 26.6906 23.5619C26.5638 22.8742 26.4439 22.1384 26.3382 21.3406C26.2325 20.5429 26.0845 19.7967 25.9541 19.1296C25.8495 18.5634 25.7047 18.005 25.5207 17.4585C25.4291 17.1937 25.2811 16.8842 25.1119 16.898C24.6601 16.9181 24.217 17.0257 23.8081 17.2143C23.6735 17.2855 23.5664 17.3974 23.5028 17.5333C23.4392 17.6692 23.4227 17.8215 23.4557 17.9674V18.1393C23.4557 18.2356 23.4275 18.9336 23.3782 19.4288C23.3289 19.9239 23.2654 20.4603 23.1914 21.069C23.1174 21.6776 23.0258 22.3172 22.9377 22.9155C22.8496 23.5138 22.7368 24.1258 22.6241 24.6347C22.5291 25.0755 22.4007 25.5088 22.24 25.9311C22.0849 26.3162 21.9123 26.5122 21.7185 26.526C21.5246 26.5397 21.2921 26.3197 21.1405 25.8554C20.9768 25.3168 20.859 24.7659 20.7882 24.2084C20.6789 23.5207 20.5732 22.7126 20.4745 21.8014C20.3759 20.8901 20.2737 19.917 20.168 18.882C20.0622 17.847 19.9495 16.7776 19.8156 15.7048C19.6817 14.6319 19.5407 13.5522 19.3716 12.5413C19.2024 11.5303 19.0192 10.5572 18.7936 9.65977C18.6084 8.86597 18.3562 8.08848 18.0395 7.33529C17.8134 6.77564 17.4851 6.26068 17.0705 5.81544C16.9186 5.65196 16.7304 5.52452 16.5203 5.44287C16.3102 5.36123 16.0838 5.32753 15.8583 5.34436C15.6433 5.36499 14.7659 5.4372 14.3219 6.89172C14.2549 7.10835 14.1104 7.67228 14.1104 7.67228L14.1351 5.92548C14.1351 5.0452 14.1351 4.30935 14.1351 3.71104C14.1351 3.11273 14.1351 2.73104 14.1351 2.5488C14.0541 1.61007 13.8497 0.932672 13.529 0.537236C13.3998 0.35698 13.2245 0.212909 13.0204 0.119393C12.8164 0.0258774 12.5908 -0.0138179 12.3661 0.00425643C12.1483 0.0299013 11.9397 0.1048 11.7567 0.222997C11.5738 0.341195 11.4217 0.499425 11.3125 0.685092C10.9834 1.17293 10.7371 1.70936 10.5831 2.27371C10.3724 3.0184 10.2239 3.77852 10.1391 4.54661C10.0404 5.40625 9.97695 6.30716 9.94524 7.22526C9.91353 8.14336 9.91705 9.08553 9.94524 10.0036C9.97343 10.9217 10.3329 14.4394 10.2095 14.4497C10.0862 14.46 9.29685 10.3647 9.05018 9.51535C8.93119 9.09905 8.72076 8.71302 8.4335 8.38406C8.35121 8.29322 8.24964 8.22095 8.13585 8.17226C8.02205 8.12357 7.89877 8.09963 7.77454 8.1021C7.55568 8.11914 7.35105 8.21469 7.20015 8.3703C7.02244 8.55999 6.88261 8.7804 6.78786 9.0202C6.66805 9.31191 6.57489 9.61338 6.50948 9.9211C6.43545 10.2433 6.38015 10.5693 6.34386 10.8977C6.30509 11.2209 6.28043 11.5303 6.26633 11.8158C6.25224 12.1012 6.24519 12.3419 6.23814 12.5035V12.947L6.03728 12.5722C5.85097 12.22 5.6303 11.886 5.37832 11.5751C5.14219 11.2805 4.86458 11.0201 4.55373 10.8014C4.24579 10.5927 3.90552 10.4337 3.54591 10.3303C3.14974 10.2215 2.73611 10.1865 2.32666 10.2271C2.07438 10.2461 1.82502 10.2922 1.58312 10.3647L1.37874 10.4334C1.14194 10.5263 0.923674 10.659 0.733873 10.8254C0.356935 11.1614 0.108385 11.6125 0.0291016 12.1046C-0.00970053 12.345 -0.00970053 12.5898 0.0291016 12.8301C0.0751025 13.0675 0.150846 13.2985 0.254628 13.5178C0.352886 13.7367 0.484787 13.9396 0.645777 14.1196C0.812418 14.2969 1.01214 14.4416 1.23426 14.546C1.02294 14.4319 0.836269 14.2789 0.684538 14.0955C0.535505 13.9129 0.41661 13.7087 0.332152 13.4903C0.244359 13.276 0.183999 13.052 0.152436 12.8233C0.125495 12.5938 0.136201 12.3617 0.184151 12.1355C0.268085 11.7479 0.46086 11.3908 0.74092 11.104C0.882076 10.9907 1.04873 10.9118 1.22721 10.8736C1.4611 10.8501 1.69716 10.8881 1.91093 10.9836C2.1247 11.0791 2.30839 11.2287 2.44294 11.4169C2.87834 11.9528 3.21136 12.5608 3.4261 13.2118C3.73332 14.1097 3.96895 15.0294 4.13087 15.9627C4.33173 17.0252 4.48326 18.2184 4.59602 19.5078C4.65945 20.2265 4.74402 20.9727 4.85326 21.7257C4.9625 22.4788 5.08584 23.1974 5.23384 23.9127C5.38184 24.6279 5.54394 25.2881 5.72013 25.8967C5.87698 26.4461 6.07363 26.9838 6.30862 27.506C6.46618 27.878 6.67869 28.2255 6.93939 28.5375C7.00751 28.6347 7.09905 28.7141 7.20596 28.7686C7.31288 28.8232 7.43189 28.8513 7.55254 28.8504C7.80978 28.8298 7.98245 28.565 8.07407 28.0355C8.18134 27.2815 8.21791 26.5196 8.18331 25.7592C8.15864 24.8136 8.08464 23.727 7.96483 22.5303C7.84502 21.3337 7.71464 20.0821 7.56664 18.8304C7.41863 17.5788 7.28473 16.3375 7.15434 15.1271C7.02396 13.9167 6.93586 12.8233 6.89358 11.8776C6.84463 11.0946 6.86467 10.3088 6.95348 9.5291C7.04158 8.8689 7.26006 8.51816 7.59835 8.49753C7.78159 8.49753 7.95073 8.66258 8.08816 9.03395C8.2365 9.44346 8.35427 9.86292 8.44055 10.289C8.55331 10.7911 8.6696 11.3687 8.79294 12.053C8.91627 12.7373 9.03256 13.3769 9.16647 14.0577C9.30037 14.7385 9.4378 15.3987 9.58228 16.059C9.70779 16.6396 9.86422 17.2135 10.051 17.7782C10.1826 18.1891 10.3674 18.582 10.6007 18.9474C10.7839 19.2121 10.9531 19.3325 11.168 19.3153C11.168 19.3153 11.2632 19.2568 11.2878 18.6276C11.2878 18.0877 11.2878 17.3725 11.242 16.5025C11.1962 15.6326 11.1293 14.6216 11.0447 13.4938C10.9601 12.3659 10.8826 11.2312 10.8156 10.0277C10.7487 8.82419 10.6993 7.69978 10.6747 6.55474C10.65 5.40969 10.6747 4.39531 10.7346 3.50128C10.7737 2.75018 10.9014 2.00597 11.1152 1.28341C11.3125 0.674779 11.6191 0.351552 12.0173 0.320604C12.2992 0.296534 12.5071 0.592251 12.6375 1.20088C12.7698 1.92649 12.8429 2.66122 12.8559 3.39813C12.8912 4.33686 12.9053 5.42001 12.8947 6.62351C12.8841 7.82701 12.863 9.14398 12.863 10.5263C12.863 11.9086 12.8278 13.3253 12.8172 14.7901C12.8066 16.255 12.8172 17.6545 12.8595 19.0402C12.9018 20.4259 12.9793 21.6982 13.092 22.9155C13.1822 23.9758 13.3506 25.0285 13.596 26.0652C13.7494 26.7961 14.0346 27.4947 14.4382 28.1283C14.7694 28.5994 15.1993 28.8951 15.6645 28.7679C15.7948 28.7335 15.9464 28.596 16.0979 28.2968C16.3 27.8674 16.465 27.4223 16.5912 26.9661C16.7533 26.4194 16.919 25.7729 17.0775 25.0439C17.2361 24.315 17.3912 23.5482 17.5286 22.7642C17.5955 22.379 17.659 21.9974 17.7189 21.6122L17.8774 20.6563L18.0008 21.3062C18.1784 22.2363 18.4137 23.1549 18.7056 24.0571C18.9593 24.8936 19.3612 25.6803 19.8931 26.3815C20.3547 26.9455 20.8903 27.2859 21.5493 27.138C21.7537 27.0933 21.9546 26.918 22.1378 26.5328C22.3661 26.0293 22.5477 25.5069 22.6805 24.9717C22.8426 24.3459 22.9835 23.6582 23.0963 22.9361C23.209 22.214 23.3112 21.5091 23.3852 20.873C23.4592 20.2368 23.5156 19.7245 23.5509 19.274C23.5602 19.0275 23.5849 18.7818 23.6249 18.5382C23.6249 18.4591 23.7376 18.4556 23.7376 18.4556C23.935 18.4728 24.09 18.7238 24.2345 19.2156C24.3543 19.6385 24.4741 20.1543 24.608 20.7904C24.7419 21.4266 24.8829 22.073 25.0415 22.7917C25.1854 23.4526 25.3725 24.1038 25.6017 24.7413C25.7818 25.2539 26.0396 25.7372 26.3664 26.1752C26.4759 26.3371 26.6277 26.4673 26.8062 26.5526C26.9846 26.6379 27.1832 26.675 27.3813 26.6601C27.5194 26.6432 27.6528 26.5999 27.7737 26.5327C27.8947 26.4654 28.0008 26.3755 28.0861 26.2681C28.3395 25.9757 28.5441 25.6461 28.6922 25.2915C28.8864 24.8445 29.0489 24.3849 29.1785 23.9161C29.3265 23.4003 29.4533 22.8845 29.559 22.3378C29.8327 20.9237 30.0233 19.4955 30.1299 18.0602V18.0327C30.239 18.1552 30.3567 18.2701 30.4823 18.3765C30.69 18.5683 30.928 18.7262 31.1871 18.8442C31.4555 18.9629 31.7489 19.0182 32.0434 19.0058C32.3373 18.99 32.6212 18.8961 32.8644 18.7342C33.0988 18.5753 33.2978 18.3718 33.4494 18.1358C33.5977 17.9095 33.7161 17.6657 33.8018 17.4103C33.8878 17.1573 33.9434 16.8953 33.9674 16.6298C34.0153 16.104 33.9737 15.5742 33.844 15.0618V15.0618ZM17.7541 20.0167C17.6343 20.7732 17.5145 21.5056 17.4017 22.2346C17.289 22.9636 17.1445 23.6685 17.0071 24.3494C16.8696 25.0302 16.7251 25.6423 16.5842 26.1649C16.4736 26.6013 16.3359 27.0308 16.1719 27.4509C16.0204 27.8154 15.8653 28.0011 15.7032 28.0149C15.4319 28.0355 15.2028 27.7982 14.9985 27.3272C14.7978 26.7428 14.6574 26.1403 14.5791 25.5288C14.4664 24.7792 14.3712 23.8851 14.3007 22.8673C14.2303 21.8495 14.1774 20.7423 14.1386 19.6041C14.0999 18.466 14.0752 17.2659 14.0611 16.0211C14.0611 14.7145 14.0611 13.5247 14.0611 12.3797C14.0611 11.2346 14.0611 10.0518 14.0858 8.9411C14.0858 8.11585 14.0858 8.83451 14.0858 8.13304C14.1886 7.66788 14.3181 7.20869 14.4734 6.75761C14.6707 6.25902 14.9773 5.82232 15.224 5.7845C15.5764 5.73636 15.8407 6.09053 16.045 6.77481C16.2687 7.58509 16.4312 8.41026 16.5313 9.2437C16.6652 10.2478 16.7921 11.4169 16.9084 12.7201C17.0247 14.0233 17.1621 15.3678 17.3136 16.7054C17.4299 17.7163 17.5744 18.7685 17.7576 19.9308V19.9652L17.7541 20.0167ZM27.9733 9.89359C27.9687 9.61545 27.9947 9.33762 28.0508 9.06489C28.0935 8.83262 28.1846 8.6114 28.3186 8.415C28.3802 8.32589 28.4623 8.2521 28.5584 8.19955C28.6545 8.147 28.7618 8.11716 28.8719 8.11241C28.9811 8.10076 29.0917 8.1119 29.1962 8.14509C29.3007 8.17829 29.3967 8.23279 29.478 8.30497C29.6571 8.46976 29.7956 8.67196 29.8832 8.89641C29.9884 9.15801 30.0686 9.4285 30.1229 9.70447C30.1819 10.0046 30.2242 10.3076 30.2497 10.6123C30.3174 11.3841 30.3421 12.1589 30.3237 12.9333C30.3061 13.6726 30.2744 14.3397 30.225 14.9139C30.1687 15.6016 30.0982 16.2343 30.0171 16.8292L29.9819 17.1112C29.9677 17.0913 29.9548 17.0706 29.9431 17.0493C29.9114 16.9977 29.8832 16.9392 29.8515 16.8876C29.7352 16.6641 29.626 16.4338 29.5273 16.1999C29.4287 15.9661 29.3265 15.7254 29.2348 15.4847C29.0481 15.0136 28.8825 14.5288 28.7133 14.0508C28.6076 13.707 28.5054 13.3631 28.4032 12.978C28.2094 12.2495 28.0786 11.5065 28.0121 10.7567C27.9804 10.4713 27.9663 10.179 27.9627 9.89359H27.9733Z" fill="white"/>
</svg>
