<svg width="79" height="24" viewBox="0 0 79 24" fill="none" xmlns="http://www.w3.org/2000/svg">
<g clip-path="url(#clip0_803_32269)">
<path d="M17.0752 23.1955C17.1412 23.0635 17.2072 22.921 17.2785 22.7941C19.3403 19.2294 21.4004 15.6629 23.4588 12.0946C23.5151 11.9975 23.5451 11.8872 23.5456 11.7749C23.5404 11.0538 23.5456 10.3276 23.4996 9.60302C23.4678 9.22414 23.3893 8.85064 23.2659 8.49102C23.1108 7.96812 22.7956 7.50705 22.3647 7.17275C21.9338 6.83845 21.4088 6.64776 20.8638 6.62754C19.9478 6.53394 19.0226 6.65653 18.1626 6.98545C17.3025 7.31438 16.5317 7.84045 15.9119 8.52142C15.8481 8.60394 15.8157 8.7065 15.8207 8.81071C15.8155 11.6342 15.8137 14.4593 15.8155 17.2863V17.5469H14.7852V2.29247H15.8059V7.82295C15.938 7.70654 16.0292 7.62487 16.1161 7.53886C16.8403 6.81848 17.7274 6.28314 18.7023 5.97813C19.6772 5.67312 20.7112 5.60742 21.7169 5.78659C22.4107 5.86506 23.0568 6.17823 23.5482 6.6742C24.0395 7.17017 24.3467 7.81916 24.4187 8.5136C24.5152 9.02617 24.5404 9.55611 24.6012 10.0826C24.6168 10.0626 24.6472 10.0365 24.6672 10.0061C26.5866 6.69038 28.5045 3.37262 30.4209 0.0528278C30.4297 0.0369563 30.4365 0.0200231 30.4409 0.00244141H31.3966C31.2541 0.256117 31.1168 0.515004 30.9752 0.764336C29.1723 3.87215 27.3728 6.97997 25.5768 10.0878C25.5247 10.1664 25.49 10.2553 25.4751 10.3484C25.5664 10.2928 25.6628 10.2415 25.7549 10.1807C26.6122 9.60328 27.5951 9.23928 28.6218 9.11912C29.1466 9.06059 29.6772 9.08109 30.1959 9.17994C30.7066 9.263 31.1845 9.4854 31.5769 9.82262C31.9693 10.1598 32.261 10.5988 32.4199 11.0912C32.4503 11.1676 32.4755 11.2432 32.5164 11.3518C32.6076 11.2649 32.6901 11.1894 32.7648 11.1129C33.774 10.1155 35.0545 9.43716 36.4466 9.16256C36.9965 9.05675 37.5614 9.05498 38.112 9.15735C38.6877 9.25212 39.2202 9.52184 39.6372 9.92985C40.0542 10.3379 40.3355 10.8644 40.4429 11.4378C40.5872 12.0092 40.6638 12.5956 40.6714 13.1849C40.7018 15.0735 40.6818 16.9683 40.687 18.857C40.6834 19.1101 40.7002 19.3632 40.7374 19.6136C40.7486 19.7541 40.7897 19.8905 40.8579 20.0138C40.9261 20.1371 41.0198 20.2444 41.1328 20.3285C41.2458 20.4126 41.3755 20.4717 41.5131 20.5017C41.6508 20.5316 41.7933 20.5319 41.931 20.5024C42.0579 20.4867 42.1795 20.4668 42.322 20.4416C42.342 20.5892 42.3724 20.7309 42.3776 20.8759C42.3741 20.9043 42.3641 20.9316 42.3482 20.9554C42.3324 20.9792 42.3112 20.999 42.2863 21.0132C41.7357 21.2791 41.1021 21.3157 40.5245 21.1148C40.3033 21.022 40.1124 20.8691 39.9733 20.6736C39.8342 20.478 39.7525 20.2475 39.7374 20.0081C39.6885 19.7401 39.6647 19.4682 39.6662 19.1958C39.6558 17.2663 39.6662 15.3368 39.6506 13.4064C39.6527 12.7639 39.5349 12.1266 39.3031 11.5273C39.119 11.0133 38.765 10.5776 38.2996 10.2923C37.8341 10.007 37.2852 9.88917 36.7437 9.95834C35.3606 10.12 34.0635 10.7133 33.0368 11.6541C32.8932 11.744 32.7813 11.8764 32.7167 12.033C32.6521 12.1895 32.6379 12.3623 32.6762 12.5272C32.7051 12.7222 32.7135 12.9196 32.7014 13.1162V20.942H31.6659V20.7031C31.6659 18.3218 31.6711 15.9449 31.6659 13.5637C31.6898 12.8707 31.5813 12.1796 31.3462 11.5273C31.1897 11.0868 30.9039 10.7037 30.5261 10.4283C30.1484 10.1528 29.6963 9.99784 29.229 9.98353C28.0018 9.90248 26.7847 10.2508 25.7862 10.9687C25.4152 11.2128 25.0911 11.5169 24.7436 11.7914C24.6869 11.8352 24.6423 11.8927 24.6138 11.9585C24.5854 12.0243 24.5742 12.0962 24.5812 12.1676C24.5864 15.0165 24.5881 17.8654 24.5864 20.7143V20.948H23.5604V13.7113C23.55 13.7061 23.5352 13.7061 23.5248 13.7009C23.4996 13.7365 23.4692 13.7774 23.4431 13.8173C21.6656 16.8869 19.8899 19.9565 18.1159 23.0261C18.0855 23.0817 18.0603 23.1382 18.0352 23.1938L17.0752 23.1955Z" fill="white"/>
<path d="M0.428711 11.3092C0.479099 10.9539 0.515576 10.5933 0.580732 10.2424C0.793029 8.83884 1.54566 7.57396 2.6779 6.71783C3.36723 6.21248 4.17215 5.88783 5.01919 5.77349C6.01976 5.60815 7.04537 5.68471 8.0103 5.99676C8.70181 6.21375 9.33274 6.59005 9.85226 7.09539C10.3718 7.60073 10.7654 8.22097 11.0014 8.90621C11.3686 9.84647 11.5464 10.85 11.5246 11.8592C11.5028 12.8683 11.2819 13.8632 10.8746 14.7868C10.5168 15.6465 9.923 16.3875 9.16188 16.924C8.40076 17.4605 7.50336 17.7707 6.57339 17.8187C5.50834 17.9466 4.42859 17.7817 3.45025 17.3418C2.80381 17.0466 2.23055 16.6123 1.77145 16.0698C1.31235 15.5274 0.978748 14.8902 0.794473 14.2039C0.65082 13.6266 0.54059 13.0415 0.464343 12.4516C0.453918 12.3908 0.444348 12.33 0.428711 12.2691V11.3092ZM1.45993 11.7661C1.53638 12.33 1.57721 12.9033 1.68841 13.4567C1.87644 14.5375 2.44686 15.5147 3.29558 16.2098C3.82193 16.6037 4.43028 16.8739 5.0754 17.0005C5.72051 17.127 6.38583 17.1066 7.02198 16.9408C7.65812 16.7749 8.24871 16.4679 8.74994 16.0425C9.25116 15.6172 9.65015 15.0843 9.91722 14.4836C10.5931 12.8808 10.6635 11.087 10.1153 9.43615C9.90721 8.72436 9.51282 8.08105 8.9729 7.57268C8.55458 7.18557 8.06094 6.88882 7.52285 6.70093C6.98475 6.51305 6.41372 6.43806 5.84537 6.48066C5.07745 6.47037 4.32248 6.67886 3.66866 7.08176C3.01484 7.48466 2.48919 8.06534 2.15317 8.75592C1.70751 9.69756 1.47072 10.7244 1.45903 11.7661H1.45993Z" fill="white"/>
<path d="M78.429 18.6571C78.4152 18.6763 78.4034 18.6966 78.3934 18.7179C78.2958 19.1314 78.1039 19.5166 77.8326 19.8435C77.5613 20.1704 77.218 20.4301 76.8297 20.6023C75.9629 21.0343 75.0077 21.2592 74.0392 21.2592C73.0707 21.2592 72.1155 21.0343 71.2488 20.6023C70.4692 20.2189 69.8699 19.5467 69.5782 18.7284C69.5582 18.678 69.5425 18.6215 69.5173 18.5459C69.7919 18.4495 70.0603 18.3583 70.3349 18.2618C70.3601 18.3122 70.3852 18.3583 70.4061 18.4043C70.582 18.8353 70.85 19.2226 71.1912 19.5393C71.5324 19.8559 71.9387 20.0941 72.3816 20.2374C73.5265 20.6334 74.7743 20.6137 75.9061 20.1818C76.2466 20.0731 76.5568 19.886 76.8116 19.6355C77.0665 19.385 77.2589 19.0782 77.3735 18.7397C77.5229 18.3337 77.5327 17.8894 77.4011 17.4773C77.2696 17.0652 77.0042 16.7087 76.6472 16.4644C76.0992 16.0946 75.4935 15.8183 74.855 15.6469C74.0731 15.3932 73.2808 15.1543 72.5041 14.885C71.9426 14.6978 71.422 14.4046 70.9708 14.0215C70.5029 13.5582 70.2223 12.9386 70.1829 12.2814C70.1435 11.6241 70.3479 10.9755 70.757 10.4596C71.2664 9.86711 71.9541 9.45563 72.717 9.28678C73.9687 8.93136 75.3047 9.01756 76.5004 9.53089C76.9773 9.73172 77.3944 10.0523 77.7111 10.4615C78.0278 10.8708 78.2335 11.3549 78.3082 11.867C78.3187 11.9226 78.3187 11.979 78.3282 12.0598C78.0494 12.1363 77.7696 12.2075 77.4803 12.2883C77.4647 12.2223 77.4499 12.1762 77.4395 12.1311C77.3814 11.7491 77.2339 11.3862 77.0089 11.072C76.784 10.7578 76.488 10.5013 76.1451 10.3232C75.5697 9.99815 74.9233 9.81937 74.2628 9.80255C73.6022 9.78574 72.9475 9.93141 72.3564 10.2268C71.9584 10.3966 71.6261 10.6908 71.4092 11.0652C71.1924 11.4396 71.1025 11.8742 71.1532 12.304C71.1871 12.5503 71.2747 12.7863 71.4098 12.9951C71.5449 13.2039 71.7242 13.3805 71.9351 13.5124C72.4022 13.8207 72.9121 14.0586 73.4485 14.2187C74.3928 14.5332 75.3424 14.8268 76.2823 15.163C76.8859 15.3689 77.4299 15.7194 77.8669 16.1838C78.1137 16.4806 78.3047 16.8197 78.4307 17.1846L78.429 18.6571Z" fill="white"/>
<path d="M54.4596 19.3875C54.5247 19.5581 54.5806 19.7321 54.6272 19.9087C54.6237 19.9478 54.6119 19.9857 54.5925 20.0198C54.5732 20.054 54.5468 20.0836 54.5152 20.1068C53.8066 20.582 53.0084 20.9072 52.1695 21.0624C51.0303 21.3157 49.8464 21.2858 48.7214 20.9755C47.9927 20.7941 47.3196 20.4368 46.7611 19.9349C46.2025 19.433 45.7755 18.8017 45.5175 18.0965C45.1128 17.0973 44.9222 16.0243 44.9581 14.9469C44.994 13.8694 45.2556 12.8115 45.726 11.8415C46.1047 11.0109 46.7157 10.3075 47.4852 9.81642C48.2547 9.32529 49.1499 9.06733 50.0628 9.07364C50.7929 9.0222 51.5252 9.135 52.206 9.40376C52.7593 9.63565 53.2493 9.99624 53.6352 10.4556C54.0211 10.9149 54.2918 11.4598 54.4248 12.0448C54.6461 12.9083 54.7013 13.806 54.5873 14.6901C54.5768 14.8117 54.516 14.8274 54.4135 14.8274C53.9791 14.8222 53.55 14.8274 53.1182 14.8274H46.0544C46.0544 15.1019 46.0388 15.3608 46.0544 15.6145C46.082 16.7714 46.4688 17.8911 47.1612 18.8184C47.5162 19.2689 47.9607 19.6409 48.4667 19.9109C48.9727 20.181 49.5292 20.3432 50.101 20.3874C51.5835 20.5574 53.08 20.2206 54.3466 19.4318C54.3864 19.4231 54.4245 19.4081 54.4596 19.3875ZM46.0857 14.1263H53.6621C53.7269 13.5847 53.7047 13.0363 53.596 12.5017C53.5159 11.9225 53.2764 11.377 52.9042 10.926C52.5321 10.475 52.0419 10.1362 51.4884 9.9476C50.7552 9.70004 49.9648 9.67705 49.2184 9.88158C47.076 10.4263 46.1969 12.5269 46.0857 14.1263Z" fill="white"/>
<path d="M66.5001 12.0571C66.216 12.1335 65.9363 12.2048 65.6417 12.2856C65.6166 12.1787 65.6009 12.0875 65.5809 11.9963C65.5077 11.6426 65.3573 11.3095 65.1404 11.0208C64.9236 10.732 64.6456 10.4946 64.3265 10.3257C63.7524 9.99823 63.1067 9.81678 62.4461 9.79724C61.7855 9.7777 61.1303 9.92067 60.5378 10.2136C60.175 10.3618 59.8642 10.6142 59.6447 10.9389C59.4251 11.2636 59.3067 11.646 59.3042 12.038C59.2954 12.2837 59.3429 12.5282 59.4432 12.7527C59.5435 12.9773 59.6939 13.1759 59.8828 13.3333C60.2539 13.6529 60.6856 13.8946 61.152 14.0439C62.0208 14.3384 62.9086 14.5869 63.7722 14.9022C64.3339 15.101 64.8763 15.3508 65.3924 15.6485C65.7556 15.8854 66.0592 16.2029 66.2796 16.5763C66.5 16.9496 66.6312 17.3688 66.6632 17.8012C66.6951 18.2336 66.6269 18.6676 66.4637 19.0693C66.3006 19.471 66.0469 19.8297 65.7226 20.1174C65.0382 20.6816 64.2063 21.0377 63.3257 21.1433C62.1565 21.3543 60.9519 21.242 59.842 20.8184C59.3742 20.6418 58.9481 20.3701 58.5906 20.0205C58.233 19.6709 57.9519 19.251 57.7648 18.7873C57.7344 18.7161 57.7135 18.6448 57.6831 18.5536C57.9576 18.4572 58.2261 18.3659 58.4954 18.2695C58.5143 18.2917 58.5312 18.3155 58.5458 18.3408C58.7501 18.8643 59.0851 19.3268 59.5188 19.6842C59.9525 20.0416 60.4705 20.2819 61.0235 20.3823C62.0498 20.6292 63.1272 20.5565 64.111 20.1738C64.4877 20.0494 64.8248 19.8275 65.0879 19.5305C65.351 19.2336 65.5307 18.8722 65.6087 18.4832C65.6933 18.1285 65.673 17.7569 65.5504 17.4134C65.4278 17.07 65.2081 16.7695 64.9181 16.5485C64.4248 16.1767 63.867 15.8995 63.2727 15.731C62.5012 15.4773 61.7237 15.2489 60.9522 14.9943C60.4143 14.8205 59.9032 14.5725 59.4337 14.2576C59.1167 14.0266 58.855 13.728 58.6675 13.3835C58.4801 13.0389 58.3715 12.657 58.3496 12.2654C58.3277 11.8738 58.3932 11.4822 58.5411 11.1189C58.6891 10.7557 58.9159 10.4298 59.2052 10.1649C59.9395 9.53771 60.8608 9.17116 61.8253 9.12243C62.7876 9.00388 63.7641 9.14424 64.654 9.52901C65.1445 9.73764 65.5714 10.0718 65.8917 10.498C66.212 10.9241 66.4143 11.4271 66.4784 11.9563C66.4888 11.9891 66.4961 12.0229 66.5001 12.0571Z" fill="white"/>
</g>
<defs>
<clipPath id="clip0_803_32269">
<rect width="78" height="23.1913" fill="white" transform="translate(0.428711)"/>
</clipPath>
</defs>
</svg>
