<svg class="tech__logo" width="88" height="44" viewBox="0 0 88 44" fill="none" xmlns="http://www.w3.org/2000/svg">
<g opacity="0.5">
<path d="M6.66952 9.78827H19.169C22.8378 9.81907 25.4962 10.8768 27.1445 12.9598C28.7927 15.0427 29.3366 17.8878 28.7769 21.4949C28.5595 23.1431 28.0773 24.7597 27.331 26.3455C26.6156 27.9312 25.6212 29.3612 24.3461 30.6363C22.7911 32.2529 21.1279 33.279 19.3556 33.7146C17.5833 34.1502 15.7485 34.3675 13.8521 34.3675H8.25528L6.48296 43.2291H0L6.66952 9.78827ZM12.1264 15.1052L9.328 29.0972C9.51456 29.128 9.70112 29.1439 9.88768 29.1439C10.105 29.1439 10.3233 29.1439 10.5406 29.1439C13.5256 29.1747 16.0134 28.8799 18.003 28.2577C19.9927 27.6047 21.3303 25.3352 22.0141 21.4483C22.5738 18.1835 22.0141 16.302 20.335 15.8048C18.6868 15.3076 16.6197 15.0744 14.1319 15.1052C13.7588 15.136 13.4015 15.1519 13.0592 15.1519C12.7486 15.1519 12.4221 15.1519 12.0798 15.1519L12.1264 15.1052Z" fill="#333333"/>
<path d="M36.1618 0.880005H42.5982L40.7792 9.78824H46.5626C49.7341 9.85072 52.0969 10.5037 53.6518 11.7471C55.2376 12.9906 55.704 15.3542 55.051 18.8364L51.9262 34.3675H45.3966L48.3815 19.536C48.6922 17.981 48.5989 16.8775 48.1017 16.2246C47.6045 15.5716 46.5318 15.2451 44.8835 15.2451L39.7065 15.1985L35.882 34.3675H29.4457L36.1618 0.880005Z" fill="#333333"/>
<path d="M61.9626 9.78827H74.4621C78.1308 9.81907 80.7893 10.8768 82.4376 12.9598C84.0858 15.0427 84.6296 17.8878 84.07 21.4949C83.8526 23.1431 83.3704 24.7597 82.6241 26.3455C81.9087 27.9312 80.9143 29.3612 79.6392 30.6363C78.0842 32.2529 76.421 33.279 74.6487 33.7146C72.8764 34.1502 71.0416 34.3675 69.1452 34.3675H63.5484L61.776 43.2291H55.2931L61.9626 9.78827ZM67.4195 15.1052L64.6211 29.0972C64.8076 29.128 64.9942 29.1439 65.1808 29.1439C65.3981 29.1439 65.6164 29.1439 65.8337 29.1439C68.8187 29.1747 71.3064 28.8799 73.2961 28.2577C75.2858 27.6047 76.6234 25.3352 77.3072 21.4483C77.8668 18.1835 77.3072 16.302 75.6281 15.8048C73.9799 15.3076 71.9128 15.0744 69.425 15.1052C69.0519 15.136 68.6946 15.1519 68.3523 15.1519C68.0416 15.1519 67.7152 15.1519 67.3728 15.1519L67.4195 15.1052Z" fill="#333333"/>
</g>
</svg>
