<svg class="tech__logo" width="64" height="48" viewBox="0 0 64 48" fill="none" xmlns="http://www.w3.org/2000/svg">
<path opacity="0.5" d="M55.1631 27.6351C52.9305 27.6468 50.9902 28.1847 49.3654 28.9799C48.7693 27.7988 48.1732 26.7464 48.068 25.9746C47.9511 25.0742 47.8108 24.5246 47.9511 23.4488C48.0913 22.373 48.7225 20.8411 48.7108 20.7242C48.6992 20.6073 48.5706 20.0577 47.2848 20.046C45.999 20.0343 44.8886 20.2915 44.76 20.6306C44.6314 20.9698 44.3859 21.7415 44.2223 22.5367C44.0002 23.7061 41.6507 27.8807 40.3065 30.0674C39.874 29.2138 39.5 28.4654 39.4181 27.869C39.3013 26.9686 39.161 26.419 39.3013 25.3432C39.4415 24.2674 40.0727 22.7355 40.061 22.6186C40.0493 22.5016 39.9208 21.952 38.635 21.9403C37.3492 21.9286 36.2388 22.1859 36.1102 22.525C35.9816 22.8641 35.8413 23.6593 35.5725 24.4311C35.3036 25.2029 32.1827 32.1723 31.3645 33.9731C30.9437 34.8969 30.5813 35.6336 30.3242 36.1364C30.3242 36.1364 30.3125 36.1715 30.2774 36.2299C30.0553 36.6626 29.9267 36.8965 29.9267 36.8965C29.9267 36.8965 29.9267 36.8965 29.9267 36.9082C29.7514 37.2239 29.5644 37.5162 29.4709 37.5162C29.4007 37.5162 29.2722 36.6743 29.4942 35.5283C29.9618 33.1077 31.0722 29.3424 31.0606 29.2138C31.0606 29.1436 31.271 28.4888 30.3358 28.1496C29.4241 27.8105 29.0968 28.3718 29.015 28.3718C28.9332 28.3718 28.8747 28.5706 28.8747 28.5706C28.8747 28.5706 29.8917 24.3375 26.9344 24.3375C25.0875 24.3375 22.5393 26.3605 21.2769 28.1847C20.4821 28.6174 18.7872 29.5412 16.9754 30.5351C16.2857 30.921 15.5727 31.3069 14.9065 31.6694C14.8597 31.6227 14.8129 31.5642 14.7662 31.5174C11.1894 27.6936 4.57344 24.9924 4.85397 19.8589C4.95917 17.9879 5.60206 13.0766 17.5598 7.11281C27.3552 2.22487 35.1984 3.56964 36.5544 6.55152C38.4947 10.808 32.358 18.7129 22.1887 19.8589C18.3079 20.2915 16.2741 18.7947 15.7597 18.2334C15.2221 17.6488 15.1402 17.6137 14.9415 17.7306C14.6142 17.906 14.8246 18.4322 14.9415 18.7363C15.2454 19.5314 16.4961 20.9347 18.6118 21.6246C20.4821 22.2327 25.0291 22.5718 30.5346 20.4435C36.6946 18.058 41.5105 11.4278 40.0961 5.87329C38.6584 0.236958 29.3072 -1.62233 20.4587 1.52326C15.1987 3.39424 9.49448 6.32934 5.39166 10.1648C0.517378 14.7254 -0.254092 18.6895 0.0615094 20.35C1.19534 26.2436 9.31914 30.0791 12.5687 32.9206C12.405 33.0142 12.2531 33.0961 12.1245 33.1662C10.4997 33.9731 4.30459 37.2122 2.76165 40.6384C1.00831 44.5207 3.04219 47.3038 4.38641 47.678C8.55936 48.8357 12.8492 46.7542 15.1519 43.3163C17.4546 39.8784 17.1741 35.4114 16.1104 33.365C16.0987 33.3416 16.087 33.3182 16.0637 33.2948C16.4845 33.0493 16.9169 32.792 17.3378 32.5465C18.1677 32.0553 18.9859 31.5993 19.6872 31.2251C19.2898 32.3126 18.9976 33.6106 18.8573 35.4816C18.682 37.68 19.582 40.5332 20.7626 41.6558C21.2886 42.1469 21.9081 42.1586 22.3055 42.1586C23.6848 42.1586 24.3044 41.0126 24.994 39.6562C25.8356 37.9957 26.5954 36.0662 26.5954 36.0662C26.5954 36.0662 25.6486 41.2816 28.2201 41.2816C29.1553 41.2816 30.1021 40.0655 30.5229 39.4457C30.5229 39.4574 30.5229 39.4574 30.5229 39.4574C30.5229 39.4574 30.5462 39.4223 30.593 39.3404C30.6865 39.1884 30.745 39.0949 30.745 39.0949C30.745 39.0949 30.745 39.0832 30.745 39.0715C31.119 38.4167 31.9606 36.9316 33.2113 34.4642C34.8244 31.2835 36.379 27.3077 36.379 27.3077C36.379 27.3077 36.5193 28.2783 36.9985 29.892C37.2791 30.8392 37.8635 31.8799 38.3311 32.8856C37.957 33.4118 37.7232 33.7041 37.7232 33.7041C37.7232 33.7041 37.7233 33.7041 37.7349 33.7158C37.431 34.1134 37.1037 34.5461 36.7414 34.967C35.4673 36.4872 33.9477 38.2296 33.7373 38.7324C33.4919 39.3288 33.5503 39.7614 34.0179 40.1122C34.3568 40.3695 34.9647 40.4046 35.5842 40.3695C36.7297 40.2876 37.5362 40.007 37.9337 39.8316C38.5532 39.6094 39.2779 39.2703 39.9558 38.7675C41.2066 37.8437 41.9663 36.5223 41.8962 34.7799C41.8611 33.8211 41.5455 32.8622 41.1598 31.9618C41.2767 31.7981 41.3819 31.6343 41.4988 31.4706C43.4742 28.5823 45.0055 25.4133 45.0055 25.4133C45.0055 25.4133 45.1457 26.3839 45.625 27.9976C45.8587 28.8162 46.338 29.7049 46.7588 30.5702C44.9003 32.0787 43.7547 33.8327 43.3456 34.9787C42.6092 37.107 43.182 38.0658 44.2691 38.288C44.76 38.3933 45.4613 38.1594 45.9756 37.9372C46.6302 37.7267 47.4017 37.3642 48.1381 36.8263C49.3888 35.9025 50.5928 34.6162 50.5226 32.8739C50.4876 32.0787 50.2772 31.2952 49.9849 30.5351C51.5629 29.8803 53.5968 29.5178 56.1918 29.8218C61.7557 30.4767 62.8545 33.9497 62.6441 35.4114C62.4337 36.8731 61.2648 37.6683 60.879 37.9138C60.4933 38.1594 60.3647 38.2412 60.3998 38.4167C60.4465 38.6739 60.6336 38.6622 60.9608 38.6154C61.4167 38.5336 63.8831 37.4344 63.9883 34.7449C64.2221 31.342 60.9492 27.6 55.1631 27.6351ZM12.2414 42.1118C10.3945 44.1231 7.82296 44.8832 6.71251 44.2401C5.52024 43.5502 5.9878 40.58 8.25545 38.4517C9.63474 37.1537 11.4115 35.9493 12.592 35.2126C12.8609 35.0489 13.2583 34.815 13.7376 34.5227C13.8194 34.4759 13.8661 34.4525 13.8661 34.4525C13.9597 34.394 14.0532 34.3356 14.1467 34.2771C14.9766 37.3175 14.1817 39.9953 12.2414 42.1118ZM25.672 32.9674C25.0291 34.5344 23.6848 38.5453 22.8666 38.3231C22.1653 38.136 21.7328 35.0957 22.7263 32.0904C23.229 30.5819 24.2927 28.7811 24.9122 28.0795C25.9174 26.9569 27.0279 26.5827 27.2967 27.0388C27.6474 27.6234 26.0811 31.9852 25.672 32.9674ZM36.7764 38.2646C36.5076 38.405 36.2504 38.4985 36.1336 38.4283C36.0517 38.3816 36.2504 38.1945 36.2504 38.1945C36.2504 38.1945 37.6414 36.6977 38.1908 36.0195C38.5064 35.6219 38.8805 35.1541 39.2779 34.6279C39.2779 34.6747 39.2779 34.7332 39.2779 34.7799C39.2779 36.5691 37.5479 37.7852 36.7764 38.2646ZM45.3327 36.3118C45.134 36.1715 45.1691 35.7037 45.8354 34.242C46.0925 33.669 46.7004 32.7102 47.7407 31.7864C47.8576 32.1606 47.9394 32.5231 47.9277 32.8622C47.916 35.1307 46.3029 35.9727 45.3327 36.3118Z" fill="#333333"/>
</svg>
