<svg width="147" height="36" viewBox="0 0 147 36" fill="none" xmlns="http://www.w3.org/2000/svg">
<g opacity="0.5">
<path d="M18.3289 36C28.4516 36 36.6578 27.9411 36.6578 18C36.6578 8.05888 28.4516 0 18.3289 0C8.20612 0 0 8.05888 0 18C0 27.9411 8.20612 36 18.3289 36Z" fill="#252422"/>
<path d="M26.342 6.66025C24.4805 6.72437 22.8541 7.73235 21.6456 9.12634C20.3051 10.655 19.4145 12.469 18.772 14.3195C17.6235 13.3949 16.7375 12.1984 14.895 11.6764C13.4696 11.2744 11.9744 11.4398 10.5987 12.4465C9.94646 12.9249 9.4979 13.6475 9.28439 14.3265C8.73072 16.0924 9.86485 17.664 10.3807 18.2289L11.5069 19.4126C11.7394 19.6454 12.2976 20.2519 12.0254 21.1208C11.7296 22.0666 10.57 22.6776 9.37972 22.3179C8.84824 22.1563 8.08432 21.7684 8.25604 21.2221C8.32656 20.9977 8.48979 20.829 8.57793 20.6373C8.65824 20.4706 8.69611 20.3462 8.72027 20.2731C8.93769 19.5755 8.64061 18.6688 7.88061 18.4386C7.17088 18.2257 6.44613 18.395 6.16472 19.2908C5.84479 20.3109 6.34167 22.1583 9.00102 22.9643C12.1168 23.9049 14.7526 22.2378 15.1261 20.0654C15.3618 18.7047 14.735 17.6929 13.5891 16.3919L12.6554 15.3781C12.0894 14.8222 11.8954 13.8764 12.4805 13.1499C12.9747 12.5363 13.6779 12.2747 14.8316 12.5818C16.5142 13.0294 17.2644 14.1765 18.5154 15.1018C17.999 16.7657 17.6608 18.436 17.3558 19.9352L17.1685 21.0509C16.2733 25.6586 15.591 28.1882 13.8163 29.6405C13.4592 29.8912 12.9473 30.2644 12.1775 30.2907C11.7733 30.3035 11.6434 30.0304 11.6369 29.9111C11.6277 29.6328 11.8674 29.5052 12.026 29.3802C12.263 29.2526 12.6215 29.0423 12.5973 28.3684C12.5706 27.5694 11.898 26.8782 10.9265 26.9109C10.1972 26.9346 9.08787 27.6072 9.12965 28.8409C9.17275 30.1131 10.3807 31.0678 12.2023 31.0063C13.1765 30.9749 15.3507 30.5857 17.493 28.0843C19.9865 25.2162 20.6844 21.9287 21.2094 19.5229L21.7944 16.347C22.1202 16.3848 22.4676 16.4111 22.8463 16.4194C25.9522 16.4848 27.5055 14.9043 27.5297 13.7552C27.5447 13.0595 27.0648 12.3753 26.3923 12.3907C25.9118 12.4042 25.3071 12.7184 25.1622 13.3711C25.0205 14.0123 26.1507 14.5907 25.2673 15.1531C24.6399 15.5525 23.5149 15.8334 21.9309 15.6051L22.2195 14.0412C22.8064 11.0763 23.5325 7.42906 26.2833 7.34121C26.4837 7.33095 27.2176 7.35019 27.2346 7.82597C27.2391 7.98499 27.1993 8.02602 27.01 8.39023C26.8161 8.67364 26.7436 8.91538 26.7521 9.19366C26.7795 9.95029 27.3652 10.4479 28.2133 10.4184C29.3474 10.3818 29.6739 9.29754 29.6556 8.73969C29.6086 7.42842 28.2022 6.60126 26.342 6.66025Z" fill="white"/>
<path d="M111.132 12.9357C115.359 12.9357 118.192 15.9347 118.192 20.0833C118.192 23.9927 115.303 27.2302 111.132 27.2302C106.935 27.2302 104.046 23.9927 104.046 20.0833C104.046 15.9347 106.879 12.9357 111.132 12.9357ZM111.132 25.1988C114.131 25.1988 115.465 22.5212 115.465 20.0833C115.465 17.4877 113.857 14.9716 111.132 14.9716C108.379 14.9716 106.77 17.4877 106.77 20.0833C106.77 22.5212 108.107 25.1988 111.132 25.1988Z" fill="#252422"/>
<path d="M103.695 14.2066V13.257H100.014V11.9592C100.014 10.1119 100.287 8.7179 102.493 8.7179C102.534 8.7179 102.577 8.72175 102.619 8.72367C102.624 8.72367 102.623 8.71662 102.628 8.71662C103.24 8.76022 103.751 8.27098 103.785 7.66953L103.829 6.84493C103.312 6.76414 102.765 6.68463 102.112 6.68463C98.3232 6.68463 97.4515 8.8532 97.4515 12.1734V13.257H94.1771V14.3169C94.2614 14.8665 94.7406 15.2903 95.325 15.2903C95.3276 15.2903 95.3308 15.2929 95.3341 15.2929H97.4515V26.9109H98.8619C98.8651 26.9109 98.8632 26.9109 98.8664 26.9109C99.4541 26.9109 99.9333 26.4762 100.013 25.9228V15.2929H102.576C103.18 15.273 103.665 14.7991 103.695 14.2066Z" fill="#252422"/>
<path d="M69.5625 13.257C69.5586 13.257 69.5553 13.2602 69.5488 13.2602C69.0095 13.2602 68.4865 13.6244 68.2579 14.1175L64.7328 24.5551H64.678L61.2299 14.1226C61.004 13.627 60.479 13.2596 59.9358 13.2596C59.9292 13.2596 59.9273 13.2564 59.9221 13.2564H58.135L62.8511 25.9998C63.0156 26.4557 63.3434 27.152 63.3434 27.445C63.3434 27.7143 62.5795 30.8178 60.2884 30.8178C60.2322 30.8178 60.1747 30.8114 60.1192 30.8075C59.5349 30.7761 59.0935 31.1769 58.9962 31.7944L58.9264 32.6658C59.3899 32.7459 59.8548 32.8536 60.6723 32.8536C64.0518 32.8536 65.0606 29.8265 66.0158 27.2039L71.1393 13.2557H69.5625V13.257Z" fill="#252422"/>
<path d="M53.2735 16.0302C51.158 14.9671 48.8421 14.2445 48.8016 12.1054C48.8082 9.8336 50.9341 9.23663 52.5716 9.23856C52.5795 9.23727 52.586 9.23727 52.5899 9.23727C53.3016 9.23727 53.8703 9.30653 54.4259 9.42643C54.4331 9.42643 54.4318 9.41745 54.4403 9.41745C55.0279 9.45977 55.5209 9.009 55.5894 8.44089L55.6364 7.61566C54.5624 7.35404 53.44 7.22003 52.4632 7.22003C48.9015 7.24183 46.2565 9.00195 46.248 12.3612C46.252 15.298 48.2669 16.4361 50.4359 17.4672C52.5618 18.4713 54.8895 19.2998 54.9097 21.7242C54.898 24.2525 52.413 25.1841 50.7003 25.188C49.6988 25.1841 48.6116 24.9398 47.6949 24.6558C47.121 24.5628 46.6502 25.0604 46.5752 25.7189L46.4981 26.4537C47.7576 26.8532 49.0484 27.2027 50.3471 27.2027C50.3471 27.2027 50.3484 27.2027 50.3497 27.2027C50.353 27.2027 50.3576 27.2027 50.3615 27.2027C54.3521 27.1738 57.4535 25.6112 57.4659 21.553C57.4614 18.4226 55.4314 17.1075 53.2735 16.0302Z" fill="#252422"/>
<path d="M92.029 26.9108C92.031 26.9108 92.031 26.9108 92.0323 26.9108C92.5853 26.9108 93.0469 26.5287 93.1625 26.0202V18.1564C93.1625 15.1844 91.8841 12.9351 88.338 12.9351C87.0844 12.9351 84.9859 13.6327 84.0314 15.5865C83.2962 13.7391 81.6874 12.9351 80.0805 12.9351C78.0349 12.9351 76.6442 13.6577 75.6635 15.2383H75.6086V14.3893C75.6008 13.7641 75.0856 13.2595 74.4484 13.2595C74.4425 13.2595 74.4399 13.2563 74.436 13.2563H73.2104V26.9102H74.5973C74.5992 26.9102 74.5992 26.9102 74.6005 26.9102C75.243 26.9102 75.7627 26.3979 75.7627 25.7682C75.7627 25.7509 75.7686 25.7445 75.7745 25.7329V20.0294C75.7745 17.487 76.8094 14.9709 79.4256 14.9709C81.4961 14.9709 81.908 17.085 81.908 18.772V26.9096H83.3138C83.3151 26.9096 83.3151 26.9096 83.3177 26.9096C83.9249 26.9096 84.414 26.4511 84.4682 25.8689V20.0294C84.4682 17.487 85.505 14.9709 88.1213 14.9709C90.193 14.9709 90.6024 17.085 90.6024 18.772V26.9096H92.029V26.9108Z" fill="#252422"/>
<path d="M131.628 26.9108C131.629 26.9108 131.629 26.9108 131.631 26.9108C132.256 26.9108 132.759 26.4261 132.789 25.8189V18.7989C132.789 15.1318 131.179 12.9351 127.58 12.9351C125.645 12.9351 123.793 13.8731 123.027 15.4268H122.974V14.4066C122.974 14.4053 122.971 14.4053 122.971 14.4028C122.971 13.7699 122.45 13.2595 121.81 13.2595C121.803 13.2595 121.801 13.2563 121.797 13.2563H120.492V26.9102H121.901C121.901 26.9102 121.901 26.9102 121.903 26.9102C122.513 26.9102 123.007 26.444 123.054 25.8567V20.5917C123.054 17.2728 124.364 14.9709 127.281 14.9709C129.518 15.1036 130.223 16.6554 130.223 19.8422V26.9096H131.628V26.9108Z" fill="#252422"/>
<path d="M145.423 13.257C145.416 13.257 145.413 13.2602 145.408 13.2602C144.868 13.2602 144.345 13.6244 144.117 14.1175L140.593 24.5551H140.535L137.087 14.1226C136.861 13.627 136.336 13.2596 135.794 13.2596C135.789 13.2596 135.785 13.2564 135.781 13.2564H133.994L138.711 25.9998C138.874 26.4557 139.203 27.152 139.203 27.445C139.203 27.7143 138.439 30.8178 136.147 30.8178C136.092 30.8178 136.035 30.8114 135.978 30.8075C135.394 30.7761 134.954 31.1769 134.854 31.7944L134.785 32.6658C135.248 32.7459 135.714 32.8536 136.532 32.8536C139.911 32.8536 140.919 29.8265 141.875 27.2039L147 13.2557H145.423V13.257Z" fill="#252422"/>
</g>
</svg>
