<svg width="89" height="40" viewBox="0 0 89 40" fill="none" xmlns="http://www.w3.org/2000/svg">
<g opacity="0.5">
<path fill-rule="evenodd" clip-rule="evenodd" d="M61.7819 5.91139C63.4577 5.91139 64.8163 4.58808 64.8163 2.95569C64.8163 1.32331 63.4577 0 61.7819 0C60.106 0 58.7474 1.32331 58.7474 2.95569C58.7474 4.58808 60.106 5.91139 61.7819 5.91139ZM9.02827 7.44376V31.5106H15.3251V7.44376H24.3534V2.2039H0V7.44376H9.02827ZM45.1864 31.5106H51.6501L57.7593 9.10915H51.7335L48.314 25.174H47.9387L43.8937 9.10915H38.0972L34.0731 25.174H33.6978L30.2783 9.10915H24.1274L30.2574 31.5106H36.6377L40.7035 16.055H41.0788L45.1864 31.5106ZM58.7217 9.10915H64.7892V31.5106H58.7217V9.10915ZM82.6197 17.4564C82.8699 18.2417 82.9951 19.1285 82.9951 20.1169C82.9951 21.1053 82.8769 21.9922 82.6406 22.7775C82.4043 23.5628 82.0568 24.233 81.5981 24.7881C81.1533 25.3433 80.6042 25.7698 79.9509 26.0676C79.2976 26.3655 78.5608 26.5144 77.7407 26.5144C76.9206 26.5144 76.1839 26.3655 75.5306 26.0676C74.8912 25.7698 74.349 25.3433 73.9042 24.7881C73.4733 24.233 73.1397 23.5628 72.9034 22.7775C72.681 21.9786 72.5698 21.085 72.5698 20.0966C72.5698 19.1218 72.681 18.2417 72.9034 17.4564C73.1397 16.6575 73.4803 15.9806 73.9251 15.4254C74.3699 14.8703 74.912 14.4438 75.5514 14.1459C76.1908 13.848 76.9206 13.6991 77.7407 13.6991C78.5608 13.6991 79.2906 13.848 79.93 14.1459C80.5833 14.4438 81.1324 14.8703 81.5772 15.4254C82.0359 15.9806 82.3834 16.6575 82.6197 17.4564ZM73.4872 39.5329C74.7382 39.8443 76.1283 40 77.6573 40C79.3949 40 80.9586 39.7969 82.3487 39.3907C83.7526 38.9981 84.9481 38.4294 85.935 37.6847C86.9219 36.94 87.6795 36.0396 88.2077 34.9835C88.7359 33.9274 89 32.7427 89 31.4294V9.10915H83.1202V12.7039H82.7448C82.439 12.0947 82.0498 11.5463 81.5772 11.0589C81.1046 10.5579 80.5625 10.1382 79.9509 9.79967C79.3532 9.46118 78.6998 9.20393 77.9909 9.02791C77.282 8.83835 76.5383 8.74358 75.7599 8.74358C74.3004 8.74358 72.9868 9.01437 71.8192 9.55596C70.6515 10.084 69.6577 10.8422 68.8375 11.8306C68.0313 12.819 67.4128 14.0173 66.9819 15.4254C66.5509 16.82 66.3355 18.3839 66.3355 20.1169C66.3355 21.8094 66.5509 23.3394 66.9819 24.7069C67.4128 26.0609 68.0313 27.2185 68.8375 28.1798C69.6438 29.1412 70.6168 29.8858 71.7566 30.4139C72.9103 30.9284 74.2031 31.1856 75.6348 31.1856C77.2612 31.1856 78.6581 30.881 79.8258 30.2717C81.0073 29.6624 81.9178 28.762 82.5572 27.5705H82.9325V31.7137C82.9325 32.9864 82.4807 33.9681 81.5772 34.6586C80.6876 35.3491 79.4227 35.6944 77.7824 35.6944C76.4619 35.6944 75.3916 35.4913 74.5714 35.0851C73.7652 34.6789 73.2857 34.1305 73.1328 33.44H67.1278C67.2251 34.4284 67.5379 35.322 68.0661 36.1209C68.6082 36.9333 69.331 37.6238 70.2345 38.1924C71.152 38.7747 72.2362 39.2215 73.4872 39.5329Z" fill="#333333"/>
</g>
</svg>
