<svg width="124" height="44" viewBox="0 0 124 44" fill="none" xmlns="http://www.w3.org/2000/svg">
<path fill-rule="evenodd" clip-rule="evenodd" d="M40.8156 0.0088501H50.8521L25.5094 44L0 0.0088501H10.2648L25.5094 26.4923L40.8156 0.0088501Z" fill="#9B9B9B"/>
<path fill-rule="evenodd" clip-rule="evenodd" d="M31.3308 0H40.8764L25.4963 26.5387L10.2397 0H19.6361L25.4963 10.217L31.3308 0Z" fill="#464646"/>
<path opacity="0.5" fill-rule="evenodd" clip-rule="evenodd" d="M56.8411 8.68458C56.8411 8.36005 57.0199 8.08961 57.3776 7.87324C57.7353 7.65689 58.1092 7.54871 58.4994 7.54871C59.0413 7.54871 59.3774 7.75424 59.5074 8.16533L65.2304 27.4423L70.9208 8.16533C71.0726 7.75426 71.3977 7.54871 71.8963 7.54871C72.3082 7.54871 72.693 7.6677 73.0507 7.90569C73.4083 8.14367 73.5872 8.41411 73.5872 8.71703C73.5872 8.73866 73.5819 8.77112 73.5709 8.81438C73.56 8.85765 73.5546 8.90093 73.5546 8.94419L66.9538 30.5255C66.7153 31.1529 66.1409 31.4666 65.2304 31.4666C64.3199 31.4666 63.7671 31.1529 63.5721 30.5255L56.9064 8.9442C56.863 8.81439 56.8414 8.72785 56.8414 8.68458H56.8411ZM73.8434 25.3003V16.8627C73.8434 16.6031 73.9789 16.3759 74.2499 16.1812C74.5208 15.9865 74.8406 15.8891 75.2091 15.8891C75.556 15.8891 75.8649 15.9919 76.1358 16.1974C76.4068 16.403 76.5423 16.6247 76.5423 16.8627V25.3003C76.5423 26.2738 76.9108 27.1501 77.6479 27.9289C78.3849 28.7078 79.2629 29.0972 80.2817 29.0972C81.2789 29.0972 82.146 28.7132 82.8831 27.9452C83.6201 27.1771 83.9886 26.2955 83.9886 25.3003V16.8297C83.9886 16.5918 84.1241 16.3754 84.3951 16.1807C84.6661 15.986 84.9858 15.8886 85.3543 15.8886C85.7446 15.8886 86.0643 15.9806 86.3136 16.1645C86.5629 16.3484 86.6875 16.5701 86.6875 16.8298V25.3003C86.6875 26.9662 86.0535 28.4211 84.7853 29.6652C83.5172 30.9092 82.016 31.5312 80.2818 31.5312C78.5259 31.5312 77.0139 30.9092 75.7457 29.6652C74.4776 28.4211 73.8435 26.9662 73.8435 25.3003H73.8434ZM88.8943 25.2353V21.8278C88.8943 20.1619 89.5284 18.7232 90.7965 17.5115C92.0646 16.3 93.5875 15.6942 95.3651 15.6942C97.056 15.6942 98.5192 16.2621 99.7549 17.398C100.991 18.5338 101.608 19.9564 101.608 21.6656C101.608 22.293 101.532 22.796 101.381 23.1746C101.229 23.5533 100.996 23.8237 100.682 23.986C100.367 24.1482 100.075 24.251 99.8036 24.2943C99.5327 24.3375 99.1695 24.3592 98.7143 24.3592H91.593V25.3328C91.593 26.5227 92.0212 27.4747 92.8774 28.1887C93.7337 28.9026 94.8447 29.2596 96.2104 29.2596C96.9258 29.2596 97.549 29.1514 98.0801 28.9351C98.6112 28.7187 99.0394 28.5078 99.3645 28.3023C99.6897 28.0967 99.9498 27.994 100.145 27.994C100.448 27.994 100.709 28.1292 100.925 28.3996C101.142 28.6701 101.25 28.9459 101.25 29.2271C101.25 29.7248 100.757 30.2332 99.771 30.7524C98.7847 31.2717 97.5653 31.5313 96.1129 31.5313C93.9884 31.5313 92.2542 30.9525 90.9102 29.7951C89.5662 28.6376 88.8942 27.1177 88.8942 25.2354L88.8943 25.2353ZM91.5931 22.5418H97.6087C98.1723 22.5418 98.5517 22.4715 98.7468 22.3308C98.942 22.1902 99.0395 21.9144 99.0395 21.5033C99.0395 20.5297 98.6818 19.6751 97.9664 18.9395C97.2511 18.2039 96.3731 17.8361 95.3326 17.8361C94.3137 17.8361 93.4358 18.1769 92.6987 18.8583C91.9617 19.5398 91.5932 20.3782 91.5932 21.3734L91.5931 22.5418ZM102.97 29.7787C102.97 29.3027 103.133 28.8971 103.458 28.5617C103.783 28.2264 104.184 28.0587 104.661 28.0587C105.116 28.0587 105.506 28.2264 105.832 28.5617C106.157 28.8971 106.319 29.3027 106.319 29.7787C106.319 30.233 106.157 30.6279 105.832 30.9632C105.506 31.2986 105.116 31.4662 104.661 31.4662C104.184 31.4662 103.783 31.2986 103.458 30.9632C103.133 30.6279 102.97 30.2331 102.97 29.7787ZM105.372 37.535C105.372 37.1888 105.481 36.9022 105.697 36.675C105.914 36.4478 106.174 36.3343 106.478 36.3343C107.323 36.3343 107.876 36.0206 108.136 35.3932C108.396 34.7658 108.526 33.8246 108.526 32.5698V16.83C108.526 16.5487 108.651 16.3216 108.9 16.1485C109.15 15.9754 109.469 15.8889 109.86 15.8889C110.25 15.8889 110.575 15.9754 110.835 16.1485C111.095 16.3216 111.225 16.5487 111.225 16.83V32.5698C111.225 34.452 110.857 35.9448 110.12 37.0483C109.383 38.1517 108.266 38.7034 106.771 38.7034C105.838 38.7034 105.372 38.3139 105.372 37.5351L105.372 37.535ZM108.169 10.1122C108.169 9.70115 108.331 9.3442 108.656 9.04128C108.982 8.73838 109.383 8.58694 109.86 8.58694C110.315 8.58694 110.705 8.73839 111.03 9.04128C111.355 9.34417 111.518 9.70116 111.518 10.1122C111.518 10.5233 111.355 10.8857 111.03 11.1994C110.705 11.5131 110.315 11.67 109.86 11.67C109.404 11.67 109.009 11.5131 108.673 11.1994C108.337 10.8857 108.169 10.5233 108.169 10.1122H108.169ZM113.237 29.0645C113.237 28.7832 113.329 28.5074 113.514 28.237C113.698 27.9665 113.92 27.8313 114.18 27.8313C114.354 27.8313 114.603 27.9611 114.928 28.2208C115.253 28.4804 115.719 28.7346 116.326 28.9834C116.933 29.2322 117.649 29.3566 118.472 29.3566C119.556 29.3566 120.342 29.1619 120.83 28.7725C121.318 28.383 121.561 27.8962 121.561 27.3121C121.561 26.5981 121.29 26.0302 120.748 25.6083C120.206 25.1864 119.545 24.8673 118.765 24.6509C117.985 24.4346 117.204 24.1966 116.424 23.9369C115.643 23.6773 114.982 23.2446 114.44 22.6388C113.898 22.033 113.627 21.2325 113.627 20.2373C113.627 19.0041 114.066 17.9386 114.944 17.0407C115.822 16.1429 117.161 15.6939 118.96 15.6939C120.109 15.6939 121.16 15.8724 122.114 16.2294C123.068 16.5864 123.545 16.992 123.545 17.4464C123.545 17.706 123.442 17.998 123.236 18.3226C123.03 18.6471 122.775 18.8094 122.472 18.8094C122.385 18.8094 121.968 18.6525 121.22 18.3388C120.472 18.0251 119.729 17.8682 118.992 17.8682C117.995 17.8682 117.253 18.1008 116.765 18.566C116.277 19.0311 116.033 19.5558 116.033 20.14C116.033 20.7457 116.304 21.2217 116.846 21.5679C117.388 21.914 118.055 22.1845 118.846 22.3792C119.637 22.5739 120.423 22.8119 121.204 23.0932C121.984 23.3745 122.645 23.8558 123.187 24.5373C123.729 25.2188 124 26.1005 124 27.1823C124 28.5236 123.523 29.5837 122.569 30.3626C121.616 31.1415 120.282 31.5309 118.57 31.5309C117.096 31.5309 115.838 31.2659 114.798 30.7358C113.757 30.2057 113.237 29.6486 113.237 29.0645L113.237 29.0645Z" fill="#333333"/>
</svg>
