<svg width="148" height="43" viewBox="0 0 148 43" fill="none" xmlns="http://www.w3.org/2000/svg">
<path d="M19.2754 0L37.9429 10.6327V31.903L19.2754 42.5357L0.60791 31.903V10.6327L19.2754 0Z" fill="white"/>
<path d="M34.6098 31.1696L19.8929 39.5534V33.0251L29.0627 27.9443L34.6098 31.1696ZM35.618 30.2516V12.7214L30.2348 15.8544V27.1234L35.618 30.2516ZM3.88326 31.1696L18.6002 39.5534V33.0251L9.42562 27.9443L3.88326 31.1696ZM2.87512 30.2516V12.7214L8.2583 15.8544V27.1234L2.87512 30.2516ZM3.50702 11.5848L18.6002 2.9873V9.29699L8.92879 14.6546L8.85161 14.6984L3.50702 11.5848ZM34.9861 11.5848L19.8929 2.9873V9.29699L29.5643 14.6498L29.6415 14.6935L34.9861 11.5848Z" fill="#C9C9C9"/>
<path d="M18.6002 31.5387L9.55103 26.5259V16.6024L18.6002 21.8629V31.5387ZM19.8929 31.5387L28.942 26.5308V16.6024L19.8929 21.8629V31.5387ZM10.1636 15.4561L19.2465 10.4287L28.3294 15.4561L19.2465 20.736L10.1636 15.4561Z" fill="#6A6A6A"/>
<path opacity="0.5" d="M56.7695 27.9929H60.749L64.8057 14.3826H60.9275L58.5253 24.039L55.964 14.3826H52.6067L50.0213 24.039L47.6432 14.3826H43.765L47.7976 27.9929H51.7771L54.2854 19.2739L56.7695 27.9929ZM65.0131 21.2266C65.0131 25.3116 67.7771 28.3329 72.1232 28.3329C75.4852 28.3329 77.2941 26.3025 77.8102 25.3408L75.4563 23.5435C75.0704 24.1167 74.0092 25.2096 72.1714 25.2096C70.1792 25.2096 68.7322 23.9078 68.655 22.0863H78.172C78.1961 21.824 78.1961 21.5666 78.1961 21.3043C78.1961 16.855 75.8181 14.0426 71.6312 14.0426C67.7771 14.0426 65.0131 17.1124 65.0131 21.2266ZM68.7611 19.7403C68.9155 18.181 70.0008 16.9813 71.6842 16.9813C73.3146 16.9813 74.5012 18.0742 74.5784 19.7403H68.7611ZM79.5419 27.9929H82.904V26.5891C83.2658 27.0311 84.6116 28.3329 86.9124 28.3329C90.7906 28.3329 93.5305 25.3942 93.5305 21.2023C93.5305 16.9861 90.9981 14.0474 87.1199 14.0474C84.7949 14.0474 83.4491 15.3492 83.1114 15.8155V9.17554H79.5467V27.9929H79.5419ZM83.0053 21.2266C83.0053 18.6765 84.5054 17.2193 86.4687 17.2193C88.538 17.2193 89.932 18.8611 89.932 21.2266C89.932 23.6455 88.4849 25.1562 86.4687 25.1562C84.298 25.1562 83.0053 23.3833 83.0053 21.2266ZM94.9197 32.8599H98.4843V26.5842C98.822 27.0263 100.163 28.328 102.493 28.328C106.371 28.328 108.903 25.3893 108.903 21.1732C108.903 17.0104 106.164 14.0426 102.285 14.0426C99.9845 14.0426 98.6387 15.3444 98.2769 15.8107V14.3777H94.9148V32.8599H94.9197ZM98.383 21.1489C98.383 18.9874 99.6758 17.2193 101.846 17.2193C103.863 17.2193 105.31 18.7299 105.31 21.1489C105.31 23.5193 103.916 25.1562 101.846 25.1562C99.8832 25.1562 98.383 23.699 98.383 21.1489ZM109.55 23.7767C109.55 26.6377 111.875 28.3329 114.615 28.3329C116.168 28.3329 117.2 27.8666 117.899 27.1088L118.131 27.9929H121.286V19.3759C121.286 16.3304 119.993 14.0426 115.652 14.0426C113.582 14.0426 111.542 14.8246 110.326 15.6552L111.672 18.1033C112.68 17.5836 113.92 17.1416 115.266 17.1416C116.843 17.1416 117.721 17.9479 117.721 19.1477V20.0317C117.229 19.6917 116.168 19.2788 114.798 19.2788C111.643 19.2739 109.55 21.0954 109.55 23.7767ZM113.114 23.6698C113.114 22.5526 114.069 21.7706 115.439 21.7706C116.809 21.7706 117.793 22.4749 117.793 23.6698C117.793 24.8162 116.809 25.5448 115.468 25.5448C114.127 25.5448 113.114 24.7919 113.114 23.6698ZM129.944 25.1562C127.696 25.1562 126.095 23.5144 126.095 21.2023C126.095 19.0165 127.518 17.2193 129.819 17.2193C131.343 17.2193 132.38 17.9722 132.973 18.5211L133.981 15.4998C133.104 14.8246 131.705 14.0426 129.717 14.0426C125.608 14.0426 122.53 17.0881 122.53 21.2266C122.53 25.365 125.53 28.3329 129.741 28.3329C131.705 28.3329 133.181 27.5023 133.953 26.8757L132.997 23.937C132.399 24.4276 131.314 25.1562 129.944 25.1562ZM135.293 27.9929H138.858V20.9643L143.383 27.9929H147.57L142.452 20.5466L147.208 14.3777H143.199L138.858 20.1045V9.17554H135.293V27.9929Z" fill="#333333"/>
</svg>
