<svg width="173" height="25" viewBox="0 0 173 25" fill="none" xmlns="http://www.w3.org/2000/svg">
<path d="M61.5723 24.2299V5.69401H53.7132V0.548584H75.3335V5.69401H67.4744V24.2299H61.5723Z" fill="#727272" stroke="white" stroke-width="0.57" stroke-miterlimit="10"/>
<path d="M13.0172 24.5996C11.2899 24.6166 9.57587 24.3005 7.97165 23.6691C6.44902 23.0746 5.05972 22.1911 3.88267 21.0687C2.72426 19.9588 1.7981 18.6356 1.15668 17.1742C0.496348 15.6625 0.162075 14.032 0.175078 12.3862C0.162578 10.7424 0.496848 9.11401 1.15668 7.60431C1.79668 6.13849 2.72292 4.81102 3.88267 3.69748C5.06082 2.57954 6.45005 1.70023 7.97165 1.10936C9.57587 0.477972 11.2899 0.161876 13.0172 0.178873C14.7444 0.162984 16.4583 0.47904 18.0628 1.10936C19.5814 1.7025 20.9681 2.58158 22.1455 3.69748C23.3039 4.80739 24.2301 6.13056 24.8715 7.59199C25.5313 9.10169 25.8656 10.7301 25.8531 12.3738C25.8661 14.0197 25.5318 15.6502 24.8715 17.1619C24.2301 18.6233 23.3039 19.9465 22.1455 21.0564C20.9692 22.1767 19.5824 23.06 18.0628 23.6568C16.4591 24.2914 14.7453 24.6116 13.0172 24.5996ZM13.0172 19.257C13.9136 19.266 14.8026 19.0966 15.6309 18.7588C16.4592 18.421 17.2098 17.9219 17.8377 17.2913C18.4577 16.6667 18.9427 15.9246 19.2632 15.1099C19.6105 14.243 19.7846 13.3181 19.7759 12.3862C19.7875 11.45 19.6134 10.5205 19.2632 9.65016C18.9395 8.84251 18.4548 8.10703 17.8377 7.48723C17.2068 6.85842 16.4556 6.35921 15.6277 6.01851C14.7997 5.6778 13.9113 5.50237 13.0141 5.50237C12.1168 5.50237 11.2285 5.6778 10.4005 6.01851C9.57254 6.35921 8.82136 6.85842 8.19047 7.48723C7.57338 8.10703 7.08865 8.84251 6.76496 9.65016C6.42002 10.5113 6.24597 11.4296 6.25227 12.3554C6.24497 13.2972 6.41894 14.2319 6.76496 15.1099C7.0855 15.9246 7.57046 16.6667 8.19047 17.2913C8.81908 17.9226 9.57069 18.4222 10.4001 18.76C11.2296 19.0978 12.1198 19.2669 13.0172 19.257Z" fill="#727272" stroke="white" stroke-width="0.57" stroke-miterlimit="10"/>
<path d="M88.5445 24.5996C86.8173 24.6154 85.1035 24.2994 83.4989 23.6691C81.9749 23.0737 80.5837 22.1903 79.4037 21.0686C78.2453 19.9587 77.3191 18.6355 76.6777 17.1741C76.0174 15.6624 75.6831 14.0319 75.6961 12.3861C75.6836 10.7423 76.0179 9.11395 76.6777 7.60424C77.3177 6.13842 78.2439 4.81096 79.4037 3.69742C80.58 2.5771 81.9668 1.69378 83.4864 1.09697C86.7324 -0.143653 90.3316 -0.143653 93.5776 1.09697C95.1046 1.69008 96.4983 2.5737 97.679 3.69742C98.8374 4.80733 99.7636 6.13049 100.405 7.59192C101.065 9.10162 101.399 10.73 101.387 12.3738C101.4 14.0196 101.065 15.6501 100.405 17.1618C99.7636 18.6232 98.8374 19.9464 97.679 21.0563C96.502 22.1787 95.1127 23.0622 93.5901 23.6567C91.9867 24.2924 90.2726 24.6126 88.5445 24.5996ZM88.5445 19.2569C89.4419 19.2668 90.3321 19.0977 91.1616 18.7599C91.991 18.4221 92.7426 17.9226 93.3712 17.2912C93.9912 16.6666 94.4762 15.9245 94.7967 15.1098C95.4801 13.3522 95.4801 11.4077 94.7967 9.65009C94.4731 8.84244 93.9883 8.10697 93.3712 7.48716C92.7403 6.85836 91.9892 6.35915 91.1612 6.01844C90.3332 5.67774 89.4449 5.50231 88.5476 5.50231C87.6504 5.50231 86.762 5.67774 85.9341 6.01844C85.1061 6.35915 84.3549 6.85836 83.724 7.48716C83.1069 8.10697 82.6222 8.84244 82.2985 9.65009C81.9507 10.5104 81.7765 11.4293 81.7858 12.3553C81.7754 13.2974 81.9495 14.2327 82.2985 15.1098C82.619 15.9245 83.104 16.6666 83.724 17.2912C84.3519 17.9218 85.1025 18.4209 85.9308 18.7587C86.7591 19.0965 87.6481 19.266 88.5445 19.2569Z" fill="#727272" stroke="white" stroke-width="0.57" stroke-miterlimit="10"/>
<path d="M104.506 24.2299V0.54859H117.174C118.638 0.521646 120.084 0.865361 121.375 1.54686C122.597 2.19082 123.615 3.15585 124.314 4.33493C125.014 5.51401 125.369 6.86105 125.339 8.22668C125.358 9.57938 124.989 10.9099 124.276 12.0657C123.572 13.2185 122.563 14.1602 121.356 14.7894C120.067 15.4564 118.629 15.7933 117.174 15.7692H110.409V24.2299H104.506ZM110.409 10.9319H116.486C117.256 10.9682 118.009 10.7023 118.58 10.1924C118.841 9.94322 119.046 9.64276 119.182 9.3105C119.318 8.97824 119.381 8.62159 119.368 8.26365C119.383 7.89816 119.32 7.53365 119.185 7.19317C119.049 6.85269 118.843 6.54364 118.58 6.28559C118.299 6.03025 117.969 5.83321 117.609 5.70618C117.249 5.57915 116.867 5.52472 116.486 5.54613H110.409V10.9319Z" fill="#727272" stroke="white" stroke-width="0.57" stroke-miterlimit="10"/>
<path d="M138.931 24.5688C136.932 24.6122 134.952 24.1632 133.173 23.2624C131.565 22.4267 130.245 21.1401 129.378 19.5651C128.454 17.8256 127.994 15.8834 128.04 13.9205V0.548584H133.948V13.9144C133.928 14.8787 134.143 15.8338 134.574 16.6997C134.962 17.477 135.578 18.1212 136.343 18.5483C137.159 18.9777 138.075 19.1901 139 19.1646C139.928 19.1962 140.847 18.9834 141.664 18.5483C142.412 18.1117 143.014 17.4691 143.396 16.6997C143.826 15.8337 144.041 14.8787 144.021 13.9144V0.548584H149.923V13.9144C149.969 15.8696 149.502 17.8034 148.566 19.5281C147.686 21.097 146.363 22.3811 144.759 23.2254C142.963 24.1529 140.958 24.6152 138.931 24.5688Z" fill="#727272" stroke="white" stroke-width="0.57" stroke-miterlimit="10"/>
<path d="M162.284 24.5688C160.314 24.5637 158.361 24.2088 156.519 23.5213C154.666 22.8481 152.946 21.8618 151.436 20.6066L154.731 16.3793C155.961 17.407 157.333 18.2557 158.807 18.8996C160.057 19.4126 161.399 19.6724 162.753 19.6637C163.541 19.6783 164.328 19.5871 165.091 19.3926C165.645 19.2603 166.154 18.9861 166.566 18.5977C166.73 18.436 166.86 18.2438 166.948 18.0322C167.036 17.8206 167.081 17.5939 167.079 17.3652C167.092 17.0673 167.028 16.7709 166.894 16.5037C166.759 16.2365 166.559 16.0072 166.31 15.837C165.524 15.3787 164.648 15.0909 163.74 14.9928L158.451 14.0808C156.746 13.8618 155.163 13.0875 153.956 11.8809C152.881 10.6996 152.316 9.15242 152.38 7.56737C152.342 6.15899 152.756 4.77465 153.562 3.61124C154.411 2.46416 155.582 1.58783 156.932 1.09091C158.619 0.466725 160.413 0.167584 162.215 0.209715C164.049 0.219048 165.869 0.522923 167.604 1.10939C169.309 1.6463 170.902 2.48124 172.306 3.57427L169.18 7.8878C166.708 6.0186 164.249 5.08401 161.802 5.08401C161.102 5.06919 160.402 5.15429 159.726 5.33666C159.227 5.45917 158.768 5.70279 158.388 6.04531C158.24 6.18874 158.122 6.36045 158.042 6.55005C157.963 6.73965 157.923 6.94319 157.926 7.14834C157.914 7.41053 157.968 7.67153 158.085 7.90736C158.202 8.14318 158.377 8.34624 158.595 8.49786C159.261 8.89473 160.004 9.1488 160.777 9.24348L165.779 10.0569C168.092 10.4143 169.849 11.1702 171.049 12.3246C171.648 12.9038 172.117 13.5998 172.427 14.368C172.737 15.1362 172.881 15.9598 172.85 16.786C172.895 18.2647 172.457 19.7186 171.599 20.9332C170.674 22.1549 169.41 23.0877 167.961 23.6199C166.149 24.2955 164.22 24.6178 162.284 24.5688Z" fill="#727272" stroke="white" stroke-width="0.57" stroke-miterlimit="10"/>
<path d="M66.2177 5.26869C64.1357 5.26869 62.7539 5.13312 61.0971 5.3796L61.2721 5.54598C61.3156 5.58603 61.3468 5.63726 61.3623 5.69389C61.3778 5.75051 61.3769 5.81028 61.3597 5.86642C61.2534 6.17453 60.7344 6.48264 60.0029 6.86469C59.1214 7.30837 58.4149 7.29605 58.2335 7.15431C58.1165 7.02834 58.0441 6.86832 58.0272 6.69831C57.2998 7.49586 56.7446 8.43094 56.3954 9.44665C56.5595 9.32317 56.7652 9.26589 56.9706 9.28643C57.2144 9.33573 57.2519 10.106 57.0456 10.9934C56.8393 11.8807 56.4204 12.4045 56.189 12.4045C55.9534 12.3425 55.7462 12.2035 55.6013 12.0101C55.27 13.2919 54.9761 14.6599 54.6447 16.0217C54.8419 15.936 55.0638 15.9229 55.27 15.9847C55.6138 16.1449 55.5326 16.9707 55.1074 18.0059C54.6823 19.0412 54.0383 19.5095 53.7319 19.4602C53.5984 19.416 53.478 19.3398 53.3818 19.2384C52.8285 20.1709 52.1491 21.025 51.3623 21.7772C51.446 21.771 51.53 21.7814 51.6095 21.8079C51.689 21.8343 51.7623 21.8763 51.825 21.9312C52.1376 22.301 51.7124 22.8248 51.3998 23.1144C50.8031 23.6229 50.1485 24.0613 49.4491 24.4208C48.7614 24.7782 47.5734 25.0863 47.4546 24.5933C47.4019 24.387 47.424 24.169 47.5172 23.9771L47.3296 24.0141C45.2448 24.4101 43.1254 24.6021 41.0023 24.5871C39.259 24.601 37.5292 24.2851 35.9067 23.6567C34.3834 23.062 32.9908 22.1832 31.8052 21.0685C30.0328 19.3489 28.8248 17.1446 28.3377 14.7408C27.8506 12.337 28.1067 9.84439 29.073 7.58567C29.7197 6.11814 30.662 4.79531 31.8428 3.69733C33.0306 2.57956 34.4279 1.70049 35.9567 1.10921C38.8234 -0.00240679 41.9867 -0.128333 44.935 0.7518C46.1877 1.1257 47.3825 1.66683 48.4863 2.36013C49.5367 3.01508 50.4599 3.84984 51.2123 4.82501L47.2296 8.68254C46.4719 7.69246 45.5029 6.87838 44.391 6.29777C43.3434 5.78913 42.1888 5.53154 41.0211 5.54598C40.096 5.538 39.1791 5.71624 38.3263 6.06977C37.5136 6.40834 36.7732 6.89551 36.1443 7.50556C35.5225 8.12648 35.0336 8.86408 34.7063 9.67465C34.3555 10.547 34.1813 11.4786 34.1936 12.4168C34.1846 13.338 34.3632 14.2516 34.7188 15.1035C35.0656 15.9088 35.569 16.6394 36.2006 17.2541C36.8323 17.8811 37.5906 18.3702 38.4264 18.6899C39.3174 19.0385 40.2688 19.2122 41.2274 19.2014C42.3516 19.2085 43.4614 18.953 44.4661 18.4558C45.5118 17.9209 46.4304 17.1732 47.1608 16.262C49.1177 13.8403 50.4057 10.2662 52.2189 7.69659C54.5635 4.38133 57.0956 3.21668 60.972 3.44468C65.1548 3.69733 66.524 5.26252 66.2177 5.26869Z" fill="#727272" stroke="white" stroke-width="0.57" stroke-miterlimit="10"/>
<path d="M49.2428 23.5336C49.0927 23.626 48.6176 24.0697 48.6176 24.1868C48.6176 24.3038 49.199 24.045 49.5241 23.8663C49.8711 23.683 50.2053 23.4772 50.5245 23.2501C50.7058 23.1269 51.1497 22.7325 51.1497 22.6339C51.1497 22.5353 50.3619 22.8373 50.1118 22.9851C49.6617 23.2748 49.4804 23.4165 49.2428 23.5336Z" fill="white"/>
<path d="M54.9074 17.3097C54.9574 17.1865 55.0449 16.7243 54.9887 16.6935C54.9324 16.6627 54.7323 16.94 54.576 17.2419C54.435 17.5209 54.3139 17.8092 54.2134 18.1046C54.1446 18.3018 54.0321 18.7209 54.0821 18.7578C54.1321 18.7948 54.3759 18.5052 54.4822 18.3142C54.6522 17.9917 54.7944 17.6557 54.9074 17.3097Z" fill="white"/>
<path d="M56.3329 11.1846C56.3329 11.2893 56.2328 11.6652 56.3329 11.696C56.4329 11.7268 56.5267 11.4557 56.6142 11.24C56.6517 11.1476 56.708 10.9381 56.783 10.6238C56.783 10.4944 56.858 10.0569 56.783 10.0569C56.708 10.0569 56.5704 10.402 56.5142 10.5745C56.4079 10.8949 56.3829 10.9935 56.3329 11.1846Z" fill="white"/>
<path d="M60.3468 6.2178C60.4531 6.1685 60.7532 5.9405 60.7032 5.87888C60.6531 5.81726 60.3155 5.92818 60.0779 6.02061C59.8481 6.11759 59.6246 6.22873 59.4089 6.35337C59.2839 6.42115 58.9213 6.69229 58.99 6.75391C59.2279 6.73156 59.4592 6.66463 59.6715 6.55672L60.3468 6.2178Z" fill="white"/>
<path d="M41.0211 24.5686C42.528 24.5456 44.0202 24.2727 45.4352 23.7614C46.8506 23.2699 48.1624 22.5263 49.3053 21.5676C50.4453 20.6149 51.3788 19.4454 52.05 18.1291C52.7051 16.7994 53.259 15.4235 53.7069 14.0128C54.1946 12.6078 54.6385 11.1844 55.1762 9.78554C55.4399 9.08174 55.7468 8.39441 56.0953 7.72737C56.4372 7.04096 56.8937 6.41605 57.4457 5.87871C58.0137 5.35608 58.6994 4.97381 59.4465 4.76336C60.1885 4.5713 60.9563 4.49438 61.7223 4.53536C63.2478 4.59082 64.7109 4.9852 66.2177 5.15157C64.7109 5.07763 63.2228 4.73255 61.716 4.73255C60.9723 4.71299 60.23 4.80652 59.5152 5.00984C58.81 5.22227 58.1667 5.59842 57.6396 6.10671C56.6655 7.21847 55.9315 8.51426 55.4825 9.91495C54.9636 11.3014 54.5259 12.7311 54.0508 14.1422C53.5853 15.5658 53.0149 16.954 52.3439 18.2955C51.6495 19.6458 50.6762 20.838 49.4866 21.7956C47.089 23.6825 44.0876 24.6656 41.0211 24.5686Z" fill="white"/>
</svg>
