<svg width="154" height="188" viewBox="0 0 154 188" fill="none" xmlns="http://www.w3.org/2000/svg">
<path d="M122.5 62L112 38.5M122.5 62L107.5 46M122.5 62L104.125 51.5M112 38.5L121.676 22.3725C122.057 21.7387 121.642 20.9256 120.905 20.8617L38.872 13.749C37.9268 13.6671 37.4094 14.8243 38.1008 15.474L93.1051 67.1591C93.5669 67.5931 94.3108 67.4935 94.6422 66.9534L107.5 46M112 38.5L59.5 23.5L107.5 46" stroke="#EEEEEE" stroke-width="2" stroke-linecap="round" stroke-linejoin="round"/>
<path d="M128.061 64.4393C127.475 63.8536 126.525 63.8536 125.939 64.4393C125.354 65.0251 125.354 65.9749 125.939 66.5607L128.061 64.4393ZM70.6709 184.5C69.8425 184.5 69.1709 185.171 69.1709 186C69.1709 186.828 69.8425 187.5 70.6709 187.5V184.5ZM70.6709 187.5C71.3664 187.5 72.0559 187.487 72.7394 187.461L72.627 184.463C71.9811 184.488 71.3291 184.5 70.6709 184.5V187.5ZM76.8328 187.151C78.213 186.993 79.5663 186.782 80.8928 186.522L80.3157 183.578C79.0669 183.823 77.792 184.021 76.4907 184.171L76.8328 187.151ZM84.8909 185.57C86.2234 185.195 87.526 184.77 88.799 184.298L87.7569 181.485C86.5584 181.929 85.3324 182.329 84.0787 182.682L84.8909 185.57ZM92.5928 182.718C93.8439 182.139 95.0634 181.513 96.2515 180.847L94.7842 178.23C93.6617 178.86 92.5107 179.45 91.3311 179.997L92.5928 182.718ZM99.7536 178.709C100.897 177.952 102.009 177.157 103.088 176.329L101.262 173.949C100.236 174.736 99.1814 175.49 98.0977 176.207L99.7536 178.709ZM106.249 173.732C107.276 172.831 108.27 171.9 109.233 170.944L107.119 168.815C106.199 169.729 105.249 170.618 104.27 171.477L106.249 173.732ZM112.043 167.985C112.954 166.969 113.833 165.932 114.68 164.878L112.342 162.999C111.527 164.012 110.684 165.008 109.81 165.982L112.043 167.985ZM117.147 161.641C117.946 160.535 118.712 159.417 119.446 158.291L116.933 156.653C116.225 157.74 115.486 158.818 114.716 159.883L117.147 161.641ZM121.586 154.836C122.28 153.655 122.941 152.47 123.567 151.288L120.916 149.884C120.31 151.028 119.671 152.174 119 153.316L121.586 154.836ZM125.387 147.662C125.978 146.418 126.531 145.181 127.047 143.96L124.284 142.793C123.784 143.974 123.249 145.17 122.677 146.375L125.387 147.662ZM128.546 140.179C129.031 138.872 129.47 137.59 129.866 136.342L127.006 135.436C126.625 136.637 126.201 137.874 125.733 139.137L128.546 140.179ZM130.995 132.42C131.357 131.019 131.655 129.68 131.89 128.418L128.941 127.868C128.719 129.058 128.436 130.33 128.09 131.671L130.995 132.42ZM132.46 124.315C132.521 123.572 132.553 122.87 132.553 122.215H129.553C129.553 122.775 129.526 123.394 129.47 124.067L132.46 124.315ZM132.553 122.215C132.553 121.561 132.526 120.914 132.474 120.276L129.484 120.523C129.529 121.078 129.553 121.642 129.553 122.215H132.553ZM131.823 116.442C131.487 115.16 131.041 113.932 130.492 112.77L127.779 114.051C128.248 115.043 128.632 116.097 128.921 117.201L131.823 116.442ZM128.48 109.404C127.694 108.343 126.805 107.369 125.827 106.498L123.832 108.74C124.655 109.471 125.404 110.292 126.07 111.19L128.48 109.404ZM122.619 104.202C121.484 103.56 120.273 103.034 118.998 102.637L118.106 105.501C119.176 105.834 120.191 106.276 121.142 106.814L122.619 104.202ZM115.142 101.861C114.499 101.798 113.845 101.766 113.182 101.766V104.766C113.749 104.766 114.305 104.794 114.851 104.847L115.142 101.861ZM113.182 101.766C112.522 101.766 111.873 101.796 111.234 101.855L111.508 104.842C112.054 104.792 112.612 104.766 113.182 104.766V101.766ZM107.385 102.594C106.104 102.978 104.888 103.492 103.751 104.126L105.212 106.746C106.157 106.22 107.171 105.79 108.247 105.467L107.385 102.594ZM100.535 106.425C99.5611 107.302 98.6827 108.288 97.9102 109.371L100.353 111.113C101 110.205 101.733 109.383 102.542 108.655L100.535 106.425ZM95.9726 112.782C95.4583 113.945 95.0435 115.179 94.7349 116.474L97.6533 117.169C97.9209 116.046 98.2782 114.986 98.7162 113.996L95.9726 112.782ZM94.1511 120.293C94.1051 120.923 94.0818 121.564 94.0818 122.215H97.0818C97.0818 121.636 97.1026 121.068 97.1432 120.511L94.1511 120.293ZM94.0818 122.215C94.0818 123.049 94.1482 123.869 94.275 124.672L97.2383 124.204C97.1355 123.553 97.0818 122.889 97.0818 122.215H94.0818ZM95.7495 129.331C96.4566 130.79 97.3607 132.144 98.4088 133.368L100.688 131.417C99.7952 130.375 99.0367 129.235 98.4493 128.022L95.7495 129.331ZM101.931 136.626C103.23 137.578 104.633 138.381 106.092 139.006L107.273 136.249C106.027 135.715 104.823 135.026 103.704 134.206L101.931 136.626ZM110.737 140.343C111.55 140.465 112.367 140.529 113.182 140.529V137.529C112.523 137.529 111.854 137.477 111.182 137.376L110.737 140.343ZM113.182 140.529C113.858 140.529 114.558 140.494 115.278 140.423L114.986 137.437C114.357 137.499 113.754 137.529 113.182 137.529V140.529ZM119.348 139.69C120.625 139.359 121.932 138.927 123.245 138.389L122.109 135.613C120.92 136.099 119.741 136.489 118.595 136.786L119.348 139.69ZM126.931 136.596C128.092 135.935 129.24 135.185 130.356 134.343L128.549 131.949C127.54 132.71 126.5 133.389 125.448 133.988L126.931 136.596ZM133.462 131.659C134.417 130.716 135.33 129.691 136.184 128.581L133.807 126.751C133.037 127.75 132.215 128.674 131.354 129.525L133.462 131.659ZM138.463 125.164C139.126 124.006 139.729 122.778 140.262 121.476L137.485 120.34C137.003 121.519 136.458 122.629 135.86 123.672L138.463 125.164ZM141.57 117.594C141.914 116.321 142.193 114.992 142.402 113.604L139.435 113.158C139.243 114.435 138.987 115.652 138.674 116.813L141.57 117.594ZM142.795 109.563C142.826 108.899 142.842 108.223 142.842 107.537H139.842C139.842 108.177 139.827 108.806 139.799 109.422L142.795 109.563ZM142.842 107.537C142.842 106.887 142.834 106.244 142.819 105.607L139.82 105.68C139.835 106.293 139.842 106.912 139.842 107.537H142.842ZM142.63 101.753C142.533 100.444 142.404 99.1636 142.247 97.9135L139.271 98.287C139.421 99.487 139.545 100.717 139.638 101.975L142.63 101.753ZM141.667 94.0974C141.435 92.8001 141.174 91.5395 140.887 90.3163L137.966 91.001C138.241 92.1729 138.492 93.3813 138.714 94.6255L141.667 94.0974ZM139.904 86.583C139.531 85.3074 139.132 84.0794 138.714 82.9L135.886 83.9031C136.286 85.0304 136.668 86.205 137.025 87.4258L139.904 86.583ZM137.316 79.2949C136.793 78.0533 136.252 76.8778 135.704 75.7701L133.015 77.1017C133.537 78.1556 134.053 79.2756 134.552 80.4602L137.316 79.2949ZM133.869 72.3502C133.169 71.143 132.471 70.0453 131.795 69.0604L129.322 70.7577C129.954 71.6795 130.611 72.7133 131.274 73.8559L133.869 72.3502ZM129.416 65.9217C128.936 65.3552 128.481 64.8599 128.061 64.4393L125.939 66.5607C126.294 66.9152 126.693 67.3486 127.127 67.861L129.416 65.9217Z" fill="#EEEEEE"/>
</svg>
