<svg width="154" height="188" viewBox="0 0 154 188" fill="none" xmlns="http://www.w3.org/2000/svg">
<path d="M42 149.5L31.5 126L49.875 136.5L59.3578 121.046C59.6892 120.506 60.433 120.407 60.8949 120.841L115.899 172.526C116.591 173.175 116.073 174.333 115.128 174.251L33.0946 167.138C32.3582 167.074 31.9432 166.261 32.3235 165.627L42 149.5Z" fill="white"/>
<path d="M31.5 126L42 149.5M31.5 126L46.5 142M31.5 126L49.875 136.5M42 149.5L32.3235 165.627C31.9432 166.261 32.3582 167.074 33.0946 167.138L115.128 174.251C116.073 174.333 116.591 173.175 115.899 172.526L60.8949 120.841C60.433 120.407 59.6892 120.506 59.3578 121.046L46.5 142M42 149.5L94.5 164.5L46.5 142" stroke="#EEEEEE" stroke-width="2" stroke-linecap="round" stroke-linejoin="round"/>
<path d="M25.9393 123.56C26.5251 124.146 27.4749 124.146 28.0607 123.56C28.6464 122.975 28.6464 122.025 28.0607 121.439L25.9393 123.56ZM83.3291 3.49995C84.1575 3.49995 84.8291 2.82838 84.8291 1.99995C84.8291 1.17152 84.1575 0.499947 83.3291 0.499947L83.3291 3.49995ZM83.3291 0.499947C82.6335 0.499947 81.9441 0.512924 81.2606 0.538536L81.373 3.53643C82.0188 3.51222 82.6709 3.49995 83.3291 3.49995L83.3291 0.499947ZM77.1672 0.848671C75.787 1.00707 74.4337 1.2179 73.1072 1.47794L73.6843 4.42191C74.9331 4.17709 76.208 3.97845 77.5093 3.8291L77.1672 0.848671ZM69.1091 2.43023C67.7766 2.80499 66.474 3.23004 65.201 3.70159L66.2431 6.51479C67.4416 6.07084 68.6675 5.67081 69.9213 5.31817L69.1091 2.43023ZM61.4072 5.28131C60.1561 5.86128 58.9366 6.48648 57.7485 7.15262L59.2157 9.76935C60.3383 9.13992 61.4893 8.54992 62.6689 8.00311L61.4072 5.28131ZM54.2464 9.29087C53.1027 10.0479 51.9913 10.8428 50.9119 11.6711L52.7382 14.0511C53.764 13.2639 54.8186 12.5098 55.9023 11.7925L54.2464 9.29087ZM47.7512 14.2677C46.7243 15.1689 45.7297 16.0998 44.7671 17.0558L46.881 19.1844C47.8015 18.2703 48.7511 17.3817 49.73 16.5226L47.7512 14.2677ZM41.9568 20.0146C41.0456 21.0307 40.1667 22.068 39.3198 23.1219L41.6584 25.001C42.4726 23.9878 43.3164 22.9919 44.1902 22.0176L41.9568 20.0146ZM36.8532 26.3589C36.0539 27.4646 35.2875 28.5829 34.5535 29.709L37.0667 31.3472C37.7753 30.2602 38.5144 29.1817 39.2845 28.1164L36.8532 26.3589ZM32.4142 33.1635C31.7196 34.3449 31.0594 35.5295 30.4332 36.7118L33.0844 38.1158C33.6902 36.9718 34.3288 35.8262 35.0003 34.6842L32.4142 33.1635ZM28.6134 40.3375C28.0222 41.5822 27.4688 42.8184 26.9528 44.0396L29.7163 45.2073C30.2155 44.0258 30.751 42.8294 31.3233 41.6246L28.6134 40.3375ZM25.4539 47.8203C24.9692 49.1283 24.5295 50.4102 24.1343 51.6573L26.9941 52.5637C27.3747 51.3629 27.7988 50.1262 28.267 48.8626L25.4539 47.8203ZM23.0047 55.5795C22.6433 56.9807 22.3452 58.32 22.1099 59.5816L25.0591 60.1315C25.2809 58.942 25.5639 57.6694 25.9097 56.3287L23.0047 55.5795ZM21.5404 63.6845C21.4787 64.4277 21.4472 65.1299 21.4472 65.7847L24.4472 65.7847C24.4472 65.2246 24.4742 64.606 24.5301 63.9329L21.5404 63.6845ZM21.4472 65.7847C21.4472 66.439 21.4739 67.0857 21.5264 67.7234L24.5163 67.4771C24.4705 66.9218 24.4472 66.3574 24.4472 65.7847L21.4472 65.7847ZM22.1771 71.5579C22.5125 72.8397 22.9591 74.0679 23.508 75.2298L26.2206 73.9484C25.752 72.9565 25.3685 71.9033 25.0795 70.7985L22.1771 71.5579ZM25.5198 78.5957C26.3063 79.6571 27.1945 80.6306 28.1733 81.5015L30.1675 79.2602C29.345 78.5284 28.5958 77.7079 27.9302 76.8096L25.5198 78.5957ZM31.3808 83.7974C32.5163 84.4397 33.7272 84.966 35.0017 85.363L35.8939 82.4987C34.8236 82.1654 33.8087 81.724 32.8578 81.1862L31.3808 83.7974ZM38.8583 86.1389C39.5015 86.2015 40.1551 86.2333 40.818 86.2333L40.818 83.2333C40.2513 83.2333 39.6946 83.2061 39.1488 83.153L38.8583 86.1389ZM40.818 86.2333C41.4776 86.2333 42.1273 86.2037 42.7661 86.1451L42.4922 83.1577C41.946 83.2077 41.3877 83.2333 40.818 83.2333L40.818 86.2333ZM46.6148 85.4059C47.8964 85.0216 49.1117 84.5077 50.2488 83.8736L48.7877 81.2535C47.8432 81.7802 46.8291 82.2097 45.753 82.5324L46.6148 85.4059ZM53.4649 81.5744C54.4389 80.6979 55.3173 79.7121 56.0898 78.6291L53.6473 76.8871C52.9998 77.7949 52.2669 78.6165 51.4581 79.3444L53.4649 81.5744ZM58.0274 75.2176C58.5417 74.0549 58.9565 72.8211 59.2651 71.5258L56.3467 70.8306C56.0791 71.954 55.7218 73.0138 55.2838 74.0041L58.0274 75.2176ZM59.8489 67.7069C59.8949 67.0765 59.9182 66.4355 59.9182 65.7847L56.9182 65.7847C56.9182 66.364 56.8974 66.9321 56.8568 67.4886L59.8489 67.7069ZM59.9182 65.7847C59.9182 64.9508 59.8518 64.1305 59.725 63.3278L56.7617 63.7956C56.8645 64.4465 56.9182 65.1103 56.9182 65.7847L59.9182 65.7847ZM58.2504 58.6692C57.5434 57.2101 56.6393 55.8559 55.5912 54.6317L53.3123 56.5828C54.2047 57.6252 54.9633 58.7652 55.5507 59.9774L58.2504 58.6692ZM52.0694 51.374C50.7702 50.4215 49.3672 49.6187 47.9078 48.9935L46.7265 51.7511C47.9727 52.2849 49.1773 52.9735 50.2956 53.7934L52.0694 51.374ZM43.263 47.6567C42.4504 47.5348 41.6329 47.4712 40.818 47.4712L40.818 50.4712C41.4768 50.4712 42.1455 50.5226 42.818 50.6235L43.263 47.6567ZM40.818 47.4712C40.1425 47.4712 39.4418 47.5062 38.7222 47.5766L39.0142 50.5623C39.6426 50.5009 40.2457 50.4712 40.818 50.4712L40.818 47.4712ZM34.6521 48.3102C33.3753 48.6412 32.0677 49.073 30.7548 49.6103L31.8912 52.3868C33.0797 51.9003 34.2593 51.5112 35.4051 51.2141L34.6521 48.3102ZM27.0692 51.4042C25.9077 52.0649 24.7596 52.8144 23.6437 53.6567L25.4511 56.0511C26.4604 55.2893 27.4999 54.6106 28.5525 54.0119L27.0692 51.4042ZM20.5376 56.3407C19.5827 57.2839 18.6705 58.3089 17.816 59.4188L20.1931 61.2489C20.9626 60.2494 21.7845 59.3257 22.6457 58.4751L20.5376 56.3407ZM15.5374 62.8356C14.8739 63.9934 14.2705 65.2221 13.7382 66.5236L16.5149 67.6594C16.9969 66.4809 17.5421 65.3711 18.1403 64.3273L15.5374 62.8356ZM12.4296 70.4058C12.0863 71.6785 11.8068 73.0081 11.5982 74.3955L14.5649 74.8415C14.7568 73.5652 15.013 72.3477 15.3261 71.1871L12.4296 70.4058ZM11.2048 78.4372C11.1737 79.1011 11.1579 79.7764 11.1579 80.4632L14.1579 80.4632C14.1579 79.8225 14.1726 79.194 14.2015 78.5775L11.2048 78.4372ZM11.1579 80.4632C11.1579 81.1126 11.1658 81.7558 11.1813 82.3927L14.1804 82.3198C14.1655 81.7071 14.1579 81.0883 14.1579 80.4632L11.1579 80.4632ZM11.3703 86.2465C11.4673 87.5561 11.5959 88.8362 11.7528 90.0863L14.7295 89.7128C14.5789 88.5128 14.4553 87.2833 14.3621 86.0249L11.3703 86.2465ZM12.3326 93.9024C12.5646 95.1997 12.8261 96.4603 13.1128 97.6835L16.0337 96.9988C15.759 95.8269 15.5082 94.6185 15.2858 93.3743L12.3326 93.9024ZM14.0956 101.417C14.469 102.692 14.868 103.92 15.2864 105.1L18.1137 104.097C17.7138 102.969 17.3321 101.795 16.9748 100.574L14.0956 101.417ZM16.6836 108.705C17.207 109.947 17.7477 111.122 18.2965 112.23L20.9847 110.898C20.4627 109.844 19.9474 108.724 19.448 107.54L16.6836 108.705ZM20.1309 115.65C20.8315 116.857 21.5289 117.954 22.2046 118.939L24.6784 117.242C24.0459 116.32 23.3888 115.287 22.7257 114.144L20.1309 115.65ZM24.5837 122.078C25.0637 122.645 25.5188 123.14 25.9393 123.56L28.0607 121.439C27.7061 121.085 27.3068 120.651 26.8726 120.139L24.5837 122.078Z" fill="#EEEEEE"/>
</svg>
