<svg width="113" height="16" viewBox="0 0 113 16" fill="none" xmlns="http://www.w3.org/2000/svg">
<g clip-path="url(#clip0_386_4458)">
<path d="M40.2177 15.507V3.64409H35.0843V0.351013H49.2062V3.64409H44.0729V15.507H40.2177Z" fill="#333333" stroke="white" stroke-width="0.57" stroke-miterlimit="10"/>
<path d="M8.50256 15.7437C7.37431 15.7545 6.25475 15.5522 5.2069 15.1481C4.21235 14.7676 3.30489 14.2022 2.53606 13.4839C1.77942 12.7735 1.17447 11.9267 0.755508 10.9914C0.324191 10.0239 0.10585 8.98035 0.114344 7.92704C0.106179 6.87503 0.324517 5.83286 0.755508 4.86665C1.17354 3.92852 1.77854 3.07894 2.53606 2.36628C3.30561 1.65079 4.21302 1.08804 5.2069 0.709883C6.25475 0.305792 7.37431 0.103491 8.50256 0.114369C9.63075 0.1042 10.7502 0.306476 11.7982 0.709883C12.7901 1.08949 13.6959 1.6521 14.465 2.36628C15.2216 3.07662 15.8266 3.92345 16.2455 4.85876C16.6765 5.82497 16.8949 6.86714 16.8867 7.91915C16.8952 8.97247 16.6769 10.016 16.2455 10.9835C15.8266 11.9188 15.2216 12.7656 14.465 13.476C13.6966 14.193 12.7908 14.7583 11.7982 15.1402C10.7507 15.5464 9.63129 15.7513 8.50256 15.7437V15.7437ZM8.50256 12.3244C9.08806 12.3301 9.66873 12.2217 10.2098 12.0055C10.7508 11.7893 11.2411 11.4699 11.6512 11.0663C12.0562 10.6666 12.373 10.1916 12.5823 9.6702C12.8092 9.1154 12.9229 8.5235 12.9172 7.92704C12.9248 7.32786 12.811 6.73303 12.5823 6.17599C12.3709 5.65909 12.0543 5.18839 11.6512 4.79172C11.2391 4.38928 10.7485 4.06979 10.2076 3.85174C9.66683 3.63368 9.08659 3.52141 8.50052 3.52141C7.91446 3.52141 7.33421 3.63368 6.79339 3.85174C6.25257 4.06979 5.76191 4.38928 5.34983 4.79172C4.94676 5.18839 4.63014 5.65909 4.41872 6.17599C4.19341 6.72709 4.07973 7.31483 4.08384 7.90732C4.07907 8.5101 4.1927 9.1083 4.41872 9.6702C4.62809 10.1916 4.94485 10.6666 5.34983 11.0663C5.76042 11.4704 6.25136 11.7901 6.79315 12.0063C7.33493 12.2225 7.91638 12.3307 8.50256 12.3244V12.3244Z" fill="#333333" stroke="white" stroke-width="0.57" stroke-miterlimit="10"/>
<path d="M57.8354 15.7437C56.7072 15.7538 55.5878 15.5516 54.5397 15.1481C53.5443 14.7671 52.6356 14.2017 51.8648 13.4839C51.1082 12.7735 50.5032 11.9267 50.0843 10.9914C49.653 10.0239 49.4346 8.98037 49.4431 7.92705C49.4349 6.87504 49.6533 5.83287 50.0843 4.86666C50.5023 3.92853 51.1073 3.07896 51.8648 2.36629C52.6332 1.64929 53.539 1.08396 54.5316 0.702007C56.6518 -0.0919938 59.0027 -0.0919938 61.1229 0.702007C62.1204 1.0816 63.0307 1.64711 63.8019 2.36629C64.5585 3.07663 65.1635 3.92346 65.5825 4.85877C66.0134 5.82498 66.2318 6.86715 66.2236 7.91916C66.2321 8.97248 66.0138 10.016 65.5825 10.9835C65.1635 11.9188 64.5585 12.7656 63.8019 13.476C63.0331 14.1943 62.1256 14.7598 61.1311 15.1403C60.0838 15.547 58.9642 15.752 57.8354 15.7437V15.7437ZM57.8354 12.3244C58.4216 12.3307 59.003 12.2225 59.5448 12.0063C60.0866 11.7901 60.5775 11.4704 60.9881 11.0663C61.3931 10.6666 61.7099 10.1916 61.9192 9.67021C62.3656 8.54536 62.3656 7.30086 61.9192 6.176C61.7078 5.65911 61.3912 5.1884 60.9881 4.79173C60.5761 4.38929 60.0854 4.0698 59.5446 3.85175C59.0038 3.6337 58.4235 3.52142 57.8374 3.52142C57.2514 3.52142 56.6711 3.6337 56.1303 3.85175C55.5895 4.0698 55.0988 4.38929 54.6868 4.79173C54.2837 5.1884 53.9671 5.65911 53.7557 6.176C53.5285 6.72658 53.4147 7.31468 53.4208 7.90733C53.414 8.51028 53.5277 9.10884 53.7557 9.67021C53.965 10.1916 54.2818 10.6666 54.6868 11.0663C55.0969 11.4699 55.5871 11.7893 56.1282 12.0055C56.6692 12.2217 57.2499 12.3302 57.8354 12.3244V12.3244Z" fill="#333333" stroke="white" stroke-width="0.57" stroke-miterlimit="10"/>
<path d="M68.2614 15.5071V0.351039H76.5353C77.4916 0.333795 78.4365 0.553773 79.2797 0.989935C80.078 1.40206 80.7425 2.01968 81.1996 2.77429C81.6566 3.5289 81.8882 4.39102 81.8688 5.26502C81.8811 6.13074 81.6405 6.98229 81.1746 7.722C80.7149 8.45978 80.0555 9.06247 79.2674 9.46516C78.4255 9.89201 77.4861 10.1076 76.5353 10.0922H72.1166V15.5071H68.2614ZM72.1166 6.99634H76.0861C76.589 7.01957 77.0809 6.84939 77.4542 6.52309C77.6247 6.3636 77.7586 6.17131 77.8472 5.95866C77.9359 5.74602 77.9773 5.51776 77.9688 5.28868C77.9783 5.05477 77.9376 4.82148 77.849 4.60357C77.7604 4.38566 77.626 4.18787 77.4542 4.02272C77.2706 3.8593 77.0549 3.7332 76.8199 3.6519C76.5849 3.5706 76.3353 3.53576 76.0861 3.54946H72.1166V6.99634Z" fill="#333333" stroke="white" stroke-width="0.57" stroke-miterlimit="10"/>
<path d="M90.7471 15.724C89.4409 15.7517 88.1481 15.4644 86.9859 14.8879C85.9356 14.353 85.073 13.5296 84.507 12.5216C83.9036 11.4083 83.6028 10.1653 83.6331 8.90906V0.351013H87.4923V8.90512C87.4791 9.52229 87.6191 10.1335 87.9007 10.6877C88.1541 11.1852 88.5569 11.5975 89.0564 11.8709C89.5897 12.1457 90.1878 12.2816 90.792 12.2652C91.3979 12.2855 91.9985 12.1493 92.5318 11.8709C93.0202 11.5914 93.4134 11.1802 93.663 10.6877C93.9444 10.1335 94.0844 9.52227 94.0714 8.90512V0.351013H97.9265V8.90512C97.9567 10.1565 97.6515 11.3941 97.0403 12.4979C96.4652 13.502 95.6014 14.3238 94.5533 14.8642C93.3805 15.4578 92.0708 15.7536 90.7471 15.724V15.724Z" fill="#333333" stroke="white" stroke-width="0.57" stroke-miterlimit="10"/>
<path d="M106 15.7239C104.714 15.7206 103.438 15.4935 102.235 15.0535C101.024 14.6227 99.9009 13.9914 98.9148 13.1881L101.067 10.4826C101.87 11.1403 102.767 11.6835 103.73 12.0956C104.546 12.4239 105.422 12.5902 106.307 12.5847C106.821 12.594 107.335 12.5356 107.834 12.4111C108.196 12.3265 108.528 12.151 108.798 11.9024C108.905 11.7989 108.99 11.6759 109.047 11.5405C109.105 11.4051 109.134 11.26 109.133 11.1136C109.141 10.9229 109.099 10.7333 109.012 10.5622C108.924 10.3912 108.793 10.2445 108.63 10.1356C108.117 9.84226 107.545 9.65806 106.952 9.59527L103.497 9.01159C102.383 8.87142 101.35 8.37588 100.561 7.60365C99.8589 6.84764 99.4898 5.85742 99.5315 4.84299C99.5066 3.94163 99.7767 3.05565 100.303 2.31107C100.858 1.57693 101.623 1.01608 102.504 0.698054C103.607 0.298577 104.778 0.107127 105.955 0.134091C107.153 0.140063 108.342 0.334544 109.476 0.709886C110.589 1.05351 111.629 1.58787 112.547 2.28741L110.505 5.04807C108.89 3.85178 107.284 3.25364 105.686 3.25364C105.228 3.24416 104.771 3.29862 104.33 3.41533C104.004 3.49374 103.704 3.64966 103.456 3.86887C103.359 3.96067 103.282 4.07056 103.23 4.19191C103.178 4.31325 103.152 4.44352 103.154 4.57481C103.146 4.74261 103.182 4.90966 103.258 5.06058C103.334 5.21151 103.449 5.34147 103.591 5.4385C104.026 5.6925 104.512 5.8551 105.016 5.9157L108.283 6.43628C109.794 6.66502 110.942 7.1488 111.726 7.8876C112.117 8.25829 112.423 8.70372 112.626 9.19539C112.828 9.68706 112.922 10.2141 112.902 10.7429C112.931 11.6893 112.645 12.6198 112.085 13.3971C111.481 14.179 110.655 14.776 109.708 15.1166C108.525 15.549 107.265 15.7553 106 15.7239Z" fill="#333333" stroke="white" stroke-width="0.57" stroke-miterlimit="10"/>
<path d="M43.252 3.37196C41.8921 3.37196 40.9896 3.2852 39.9073 3.44295L40.0217 3.54943C40.0501 3.57506 40.0705 3.60785 40.0806 3.64409C40.0907 3.68033 40.0901 3.71858 40.0789 3.75451C40.0094 3.9517 39.6705 4.14889 39.1927 4.39341C38.6168 4.67736 38.1554 4.66947 38.0369 4.57877C37.9605 4.49815 37.9132 4.39573 37.9022 4.28693C37.427 4.79736 37.0644 5.3958 36.8363 6.04586C36.9435 5.96684 37.0778 5.93017 37.212 5.94332C37.3713 5.97487 37.3958 6.46785 37.261 7.03576C37.1262 7.60366 36.8526 7.93889 36.7015 7.93889C36.5476 7.89922 36.4123 7.81022 36.3176 7.68648C36.1012 8.50679 35.9093 9.38232 35.6928 10.2539C35.8216 10.1991 35.9665 10.1907 36.1012 10.2302C36.3258 10.3328 36.2727 10.8612 35.995 11.5238C35.7173 12.1864 35.2967 12.4861 35.0966 12.4545C35.0093 12.4262 34.9307 12.3775 34.8679 12.3126C34.5065 12.9094 34.0627 13.456 33.5488 13.9374C33.6034 13.9334 33.6584 13.9401 33.7103 13.957C33.7622 13.974 33.81 14.0008 33.851 14.036C34.0552 14.2726 33.7775 14.6079 33.5733 14.7932C33.1836 15.1186 32.756 15.3992 32.2991 15.6293C31.8499 15.858 31.074 16.0552 30.9964 15.7397C30.9619 15.6077 30.9764 15.4682 31.0372 15.3453L30.9147 15.369C29.553 15.6225 28.1686 15.7454 26.7819 15.7358C25.6432 15.7447 24.5133 15.5425 23.4535 15.1403C22.4585 14.7597 21.5489 14.1973 20.7745 13.4839C19.6168 12.3833 18.8278 10.9725 18.5096 9.43409C18.1914 7.89566 18.3587 6.30041 18.9899 4.85483C19.4123 3.91562 20.0278 3.069 20.799 2.36629C21.5749 1.65092 22.4876 1.08832 23.4862 0.709898C25.3586 -0.00153546 27.4248 -0.082128 29.3506 0.481157C30.1688 0.72045 30.9493 1.06678 31.6702 1.51049C32.3563 1.92966 32.9594 2.4639 33.4508 3.08801L30.8494 5.55683C30.3545 4.92318 29.7215 4.40217 28.9953 4.03058C28.311 3.70505 27.5568 3.54019 26.7941 3.54943C26.1899 3.54433 25.5909 3.6584 25.034 3.88466C24.5031 4.10134 24.0195 4.41313 23.6087 4.80356C23.2026 5.20095 22.8832 5.67301 22.6694 6.19178C22.4403 6.75008 22.3265 7.34628 22.3345 7.94677C22.3287 8.53632 22.4454 9.12102 22.6776 9.66627C22.9041 10.1817 23.2329 10.6492 23.6455 11.0427C24.0581 11.4439 24.5534 11.7569 25.0993 11.9616C25.6813 12.1846 26.3028 12.2958 26.9289 12.2889C27.6632 12.2935 28.3881 12.1299 29.0443 11.8117C29.7274 11.4694 30.3274 10.9908 30.8044 10.4077C32.0827 8.85779 32.924 6.57039 34.1083 4.92582C35.6397 2.80406 37.2937 2.05868 39.8257 2.2046C42.5577 2.36629 43.4521 3.36802 43.252 3.37196Z" fill="#333333" stroke="white" stroke-width="0.57" stroke-miterlimit="10"/>
<path d="M32.1644 15.0614C32.0664 15.1206 31.756 15.4045 31.756 15.4795C31.756 15.5544 32.1358 15.3887 32.3481 15.2744C32.5748 15.1571 32.7931 15.0253 33.0016 14.88C33.12 14.8011 33.4099 14.5487 33.4099 14.4856C33.4099 14.4225 32.8954 14.6158 32.732 14.7104C32.438 14.8958 32.3196 14.9865 32.1644 15.0614Z" fill="white"/>
<path d="M35.8643 11.0781C35.897 10.9993 35.9542 10.7035 35.9174 10.6838C35.8807 10.664 35.75 10.8415 35.6479 11.0348C35.5558 11.2133 35.4767 11.3978 35.411 11.5869C35.3661 11.7131 35.2926 11.9813 35.3253 12.0049C35.3579 12.0286 35.5172 11.8432 35.5866 11.721C35.6977 11.5146 35.7905 11.2995 35.8643 11.0781V11.0781Z" fill="white"/>
<path d="M36.7955 7.15799C36.7955 7.22504 36.7301 7.46561 36.7955 7.48533C36.8608 7.50505 36.9221 7.33152 36.9792 7.19349C37.0037 7.13433 37.0405 7.00024 37.0895 6.79911C37.0895 6.71629 37.1385 6.43628 37.0895 6.43628C37.0405 6.43628 36.9506 6.65713 36.9139 6.76756C36.8445 6.97264 36.8281 7.03574 36.7955 7.15799Z" fill="white"/>
<path d="M39.4173 3.97928C39.4867 3.94773 39.6827 3.8018 39.65 3.76237C39.6174 3.72293 39.3968 3.79392 39.2417 3.85307C39.0915 3.91514 38.9456 3.98627 38.8047 4.06604C38.723 4.10942 38.4861 4.28295 38.5311 4.32239C38.6864 4.30808 38.8375 4.26525 38.9762 4.19618L39.4173 3.97928Z" fill="white"/>
<path d="M26.7941 15.724C27.7784 15.7092 28.7531 15.5345 29.6773 15.2073C30.6018 14.8928 31.4587 14.4169 32.2052 13.8033C32.9498 13.1936 33.5596 12.4451 33.998 11.6027C34.4259 10.7517 34.7876 9.87108 35.0802 8.96823C35.3988 8.06904 35.6887 7.15802 36.0399 6.26278C36.2122 5.81234 36.4127 5.37245 36.6403 4.94555C36.8636 4.50625 37.1618 4.1063 37.5224 3.76241C37.8933 3.42792 38.3412 3.18327 38.8292 3.04858C39.3138 2.92566 39.8154 2.87643 40.3157 2.90266C41.3122 2.93815 42.2678 3.19056 43.252 3.29704C42.2678 3.24971 41.2958 3.02886 40.3116 3.02886C39.8259 3.01634 39.341 3.0762 38.8741 3.20633C38.4134 3.34228 37.9933 3.58302 37.649 3.90833C37.0127 4.61985 36.5333 5.44916 36.24 6.3456C35.9011 7.23295 35.6152 8.14792 35.3048 9.05105C35.0008 9.96215 34.6282 10.8506 34.1899 11.7092C33.7363 12.5733 33.1006 13.3364 32.3236 13.9492C30.7575 15.1568 28.7971 15.786 26.7941 15.724V15.724Z" fill="white"/>
</g>
<defs>
<clipPath id="clip0_386_4458">
<rect width="113" height="16" fill="white"/>
</clipPath>
</defs>
</svg>
