<svg width="82" height="78" viewBox="0 0 82 78" fill="none" xmlns="http://www.w3.org/2000/svg">
<path d="M76.8787 75.229H4.22598C3.29221 75.229 2.53986 74.4719 2.53986 73.5441V4.39006C2.53986 3.45699 3.29754 2.7052 4.22598 2.7052H76.8787C77.8125 2.7052 78.5648 3.46232 78.5648 4.39006V73.5441C78.5648 74.4772 77.8072 75.229 76.8787 75.229Z" fill="white"/>
<mask id="mask0_949_12930" style="mask-type:luminance" maskUnits="userSpaceOnUse" x="2" y="2" width="77" height="74">
<path d="M78.7783 2.49194H2.32642V75.4423H78.7783V2.49194Z" fill="white"/>
</mask>
<g mask="url(#mask0_949_12930)">
<path d="M76.8787 75.229H4.22598C3.29221 75.229 2.53986 74.4719 2.53986 73.5441V4.39006C2.53986 3.45699 3.29754 2.7052 4.22598 2.7052H76.8787C77.8125 2.7052 78.5648 3.46232 78.5648 4.39006V73.5441C78.5648 74.4772 77.8072 75.229 76.8787 75.229Z" stroke="#666C71" stroke-width="0.79" stroke-miterlimit="10"/>
</g>
<path d="M15.9435 54.9519C15.5113 54.7013 15.1698 54.3601 14.9137 53.9229C14.6575 53.4857 14.5348 53.0005 14.5348 52.4726C14.5348 51.9448 14.6629 51.4596 14.9137 51.0224C15.1644 50.5852 15.5113 50.2439 15.9435 49.9933C16.3757 49.7427 16.8506 49.6201 17.3628 49.6201C17.763 49.6201 18.1418 49.6894 18.494 49.8334C18.8462 49.9773 19.1396 50.1746 19.3691 50.4359L18.9049 50.8997C18.7341 50.6865 18.51 50.5212 18.2432 50.4092C17.9711 50.2972 17.683 50.2386 17.3735 50.2386C16.9893 50.2386 16.6265 50.3292 16.2956 50.5158C15.9648 50.7025 15.698 50.9637 15.4953 51.2996C15.2925 51.6355 15.1965 52.0301 15.1965 52.4726C15.1965 52.9152 15.2978 53.3044 15.4953 53.6456C15.6927 53.9869 15.9648 54.2428 16.301 54.4294C16.6371 54.616 16.9946 54.7067 17.3788 54.7067C17.763 54.7067 18.0511 54.648 18.2966 54.5361C18.542 54.4241 18.7555 54.2695 18.9315 54.0829C19.0649 53.9389 19.1717 53.7683 19.2517 53.5657C19.3317 53.3631 19.3851 53.1444 19.4064 52.8992H17.3842V52.2967H20.0094C20.0361 52.4406 20.0467 52.5686 20.0467 52.6912C20.0467 53.0271 19.9934 53.3524 19.8867 53.6723C19.7799 53.9922 19.6092 54.2695 19.3744 54.5094C18.8729 55.0532 18.2005 55.3252 17.3681 55.3252C16.8559 55.3252 16.381 55.2025 15.9488 54.9519H15.9435ZM17.3628 55.3945C16.8399 55.3945 16.349 55.2665 15.9115 55.0106C15.4686 54.7547 15.1164 54.4028 14.855 53.9549C14.5935 53.5123 14.4655 53.0111 14.4655 52.4726C14.4655 51.9341 14.5988 51.4383 14.855 50.9904C15.1111 50.5478 15.4686 50.1906 15.9115 49.9347C16.3543 49.6787 16.8399 49.5508 17.3628 49.5508C17.7737 49.5508 18.1632 49.6254 18.5207 49.7694C18.8835 49.9133 19.1823 50.1213 19.4171 50.3879L19.4598 50.4359L18.8995 50.9957L18.8515 50.9371C18.6861 50.7345 18.4727 50.5745 18.2112 50.4625C17.9498 50.3506 17.667 50.2972 17.3681 50.2972C16.9946 50.2972 16.6425 50.3879 16.3223 50.5692C16.0022 50.7504 15.7407 51.0064 15.5433 51.3316C15.3512 51.6569 15.2498 52.0408 15.2498 52.4673C15.2498 52.8938 15.3459 53.2777 15.5433 53.603C15.7354 53.9282 16.0022 54.1842 16.3223 54.3654C16.6478 54.5467 17 54.6374 17.3681 54.6374C17.7363 54.6374 18.0245 54.584 18.2592 54.4721C18.4993 54.3601 18.7021 54.2161 18.8782 54.0349C19.0062 53.9016 19.1076 53.7309 19.1877 53.539C19.257 53.3631 19.3051 53.1711 19.3264 52.9632H17.3095V52.2274H20.0574L20.0681 52.2807C20.0948 52.4246 20.1054 52.5633 20.1054 52.6912C20.1054 53.0325 20.0521 53.3684 19.94 53.6936C19.828 54.0189 19.6519 54.3068 19.4118 54.5521C18.8995 55.1066 18.2059 55.3892 17.3575 55.3892L17.3628 55.3945ZM17.3628 49.6894C16.8612 49.6894 16.397 49.812 15.9755 50.052C15.554 50.2972 15.2178 50.6331 14.967 51.0544C14.7216 51.4809 14.5935 51.9554 14.5935 52.4673C14.5935 52.9792 14.7162 53.459 14.967 53.8802C15.2125 54.3068 15.554 54.6427 15.9755 54.8826C16.397 55.1226 16.8612 55.2452 17.3628 55.2452C18.1739 55.2452 18.8302 54.9786 19.3211 54.4507C19.5505 54.2161 19.7159 53.9442 19.8173 53.6403C19.924 53.3311 19.972 53.0111 19.972 52.6806C19.972 52.5793 19.9614 52.4673 19.9454 52.35H17.4428V52.8192H19.4705V52.8938C19.4438 53.1444 19.3904 53.3737 19.3051 53.5817C19.2197 53.7896 19.1076 53.9709 18.9742 54.1148C18.7928 54.3068 18.5687 54.4667 18.3179 54.584C18.0618 54.7013 17.7417 54.76 17.3681 54.76C16.9946 54.76 16.6051 54.664 16.2583 54.4721C15.9115 54.2801 15.634 54.0082 15.4259 53.6616C15.2178 53.3151 15.1164 52.9098 15.1164 52.4566C15.1164 52.0034 15.2231 51.5982 15.4259 51.2516C15.634 50.9051 15.9115 50.6331 16.253 50.4412C16.5945 50.2493 16.968 50.1533 17.3628 50.1533C17.6776 50.1533 17.9818 50.2119 18.2592 50.3292C18.5154 50.4359 18.7288 50.5905 18.8995 50.7824L19.2677 50.4145C19.0543 50.1853 18.7821 50.004 18.462 49.876C18.1205 49.7374 17.747 49.6681 17.3521 49.6681L17.3628 49.6894ZM21.6475 55.0532C21.3433 54.872 21.1032 54.6214 20.9325 54.3068C20.7617 53.9922 20.6764 53.6456 20.6764 53.2617C20.6764 52.8779 20.7617 52.5313 20.9325 52.2167C21.1032 51.9021 21.3433 51.6515 21.6475 51.4702C21.9516 51.289 22.2985 51.1983 22.6773 51.1983C23.0561 51.1983 23.403 51.289 23.7071 51.4702C24.0113 51.6515 24.2514 51.9021 24.4221 52.2167C24.5929 52.5313 24.6782 52.8779 24.6782 53.2617C24.6782 53.6456 24.5929 53.9922 24.4221 54.3068C24.2514 54.6214 24.0113 54.872 23.7071 55.0532C23.403 55.2345 23.0561 55.3252 22.6773 55.3252C22.2985 55.3252 21.9516 55.2345 21.6475 55.0532ZM23.3443 54.5627C23.5524 54.4454 23.7178 54.2695 23.8405 54.0455C23.9632 53.8216 24.0273 53.5603 24.0273 53.2617C24.0273 52.9632 23.9632 52.7019 23.8405 52.478C23.7178 52.254 23.5524 52.0834 23.3443 51.9661C23.1362 51.8488 22.9174 51.7848 22.6773 51.7848C22.4372 51.7848 22.2131 51.8435 22.005 51.9661C21.7969 52.0834 21.6315 52.2594 21.5034 52.478C21.3807 52.7019 21.3167 52.9632 21.3167 53.2617C21.3167 53.5603 21.3807 53.8216 21.5034 54.0455C21.6261 54.2695 21.7969 54.4401 22.005 54.5627C22.2131 54.68 22.4372 54.744 22.6773 54.744C22.9174 54.744 23.1415 54.6853 23.3443 54.5627ZM22.6773 55.3945C22.2825 55.3945 21.925 55.2985 21.6101 55.1119C21.2953 54.9253 21.0499 54.664 20.8738 54.3388C20.6977 54.0135 20.6123 53.651 20.6123 53.2617C20.6123 52.8725 20.703 52.51 20.8738 52.1847C21.0445 51.8595 21.2953 51.6035 21.6101 51.4116C21.925 51.225 22.2825 51.129 22.6773 51.129C23.0722 51.129 23.4297 51.225 23.7391 51.4116C24.054 51.5982 24.2994 51.8595 24.4755 52.1847C24.6516 52.51 24.7369 52.8725 24.7369 53.2617C24.7369 53.651 24.6462 54.0135 24.4755 54.3388C24.2994 54.664 24.054 54.9253 23.7391 55.1119C23.4243 55.2985 23.0668 55.3945 22.6773 55.3945ZM22.6773 51.2623C22.3091 51.2623 21.973 51.3529 21.6795 51.5289C21.386 51.7048 21.1566 51.9501 20.9912 52.2487C20.8258 52.5526 20.7457 52.8939 20.7457 53.2617C20.7457 53.6296 20.8311 53.9709 20.9912 54.2748C21.1566 54.5787 21.386 54.8186 21.6795 54.9946C21.973 55.1705 22.3091 55.2612 22.6773 55.2612C23.0455 55.2612 23.3816 55.1705 23.6751 54.9946C23.9686 54.8186 24.198 54.5787 24.3634 54.2748C24.5288 53.9709 24.6089 53.6296 24.6089 53.2617C24.6089 52.8939 24.5235 52.5526 24.3634 52.2487C24.198 51.9448 23.9686 51.7048 23.6751 51.5289C23.3816 51.3529 23.0455 51.2623 22.6773 51.2623ZM22.6773 54.808C22.4265 54.808 22.1917 54.744 21.973 54.6214C21.7542 54.4934 21.5781 54.3121 21.4501 54.0829C21.322 53.8483 21.2526 53.5763 21.2526 53.2671C21.2526 52.9578 21.3167 52.6806 21.4501 52.4513C21.5781 52.2167 21.7595 52.0354 21.973 51.9128C22.4052 51.6622 22.9494 51.6622 23.3763 51.9128C23.5897 52.0354 23.7658 52.2167 23.8992 52.4513C24.0273 52.6859 24.0966 52.9578 24.0966 53.2671C24.0966 53.5763 24.0326 53.8536 23.8992 54.0829C23.7712 54.3175 23.5951 54.4987 23.3763 54.6214C23.1629 54.744 22.9228 54.808 22.6773 54.808ZM22.6773 51.8488C22.4479 51.8488 22.2344 51.9075 22.037 52.0194C21.8396 52.1314 21.6795 52.2967 21.5621 52.51C21.4447 52.7232 21.386 52.9738 21.386 53.2617C21.386 53.5497 21.4447 53.8003 21.5621 54.0135C21.6795 54.2268 21.8396 54.3921 22.037 54.5041C22.4319 54.728 22.9174 54.728 23.3069 54.5041C23.499 54.3921 23.6591 54.2268 23.7765 54.0135C23.8939 53.8003 23.9526 53.5497 23.9526 53.2617C23.9526 52.9738 23.8939 52.7232 23.7765 52.51C23.6591 52.2967 23.499 52.1314 23.3069 52.0194C23.1148 51.9075 22.9014 51.8488 22.672 51.8488H22.6773ZM26.1883 55.0532C25.8841 54.872 25.644 54.6214 25.4733 54.3068C25.3025 53.9922 25.2172 53.6456 25.2172 53.2617C25.2172 52.8779 25.3025 52.5313 25.4733 52.2167C25.644 51.9021 25.8841 51.6515 26.1883 51.4702C26.4924 51.289 26.8393 51.1983 27.2181 51.1983C27.5969 51.1983 27.9438 51.289 28.2479 51.4702C28.5521 51.6515 28.7922 51.9021 28.9629 52.2167C29.1337 52.5313 29.219 52.8779 29.219 53.2617C29.219 53.6456 29.1337 53.9922 28.9629 54.3068C28.7922 54.6214 28.5521 54.872 28.2479 55.0532C27.9438 55.2345 27.5969 55.3252 27.2181 55.3252C26.8393 55.3252 26.4924 55.2345 26.1883 55.0532ZM27.8851 54.5627C28.0932 54.4454 28.2586 54.2695 28.3813 54.0455C28.504 53.8216 28.5681 53.5603 28.5681 53.2617C28.5681 52.9632 28.504 52.7019 28.3813 52.478C28.2586 52.254 28.0932 52.0834 27.8851 51.9661C27.677 51.8488 27.4582 51.7848 27.2181 51.7848C26.978 51.7848 26.7539 51.8435 26.5458 51.9661C26.3377 52.0834 26.1723 52.2594 26.0442 52.478C25.9215 52.7019 25.8575 52.9632 25.8575 53.2617C25.8575 53.5603 25.9215 53.8216 26.0442 54.0455C26.1669 54.2695 26.3377 54.4401 26.5458 54.5627C26.7539 54.68 26.978 54.744 27.2181 54.744C27.4582 54.744 27.6823 54.6853 27.8851 54.5627ZM27.2181 55.3945C26.8232 55.3945 26.4657 55.2985 26.1509 55.1119C25.8361 54.9253 25.5907 54.664 25.4146 54.3388C25.2385 54.0135 25.1531 53.651 25.1531 53.2617C25.1531 52.8725 25.2438 52.51 25.4146 52.1847C25.5853 51.8595 25.8361 51.6035 26.1509 51.4116C26.4657 51.225 26.8232 51.129 27.2181 51.129C27.613 51.129 27.9705 51.225 28.2799 51.4116C28.5947 51.5982 28.8402 51.8595 29.0163 52.1847C29.1924 52.51 29.2777 52.8725 29.2777 53.2617C29.2777 53.651 29.187 54.0135 29.0163 54.3388C28.8402 54.664 28.5947 54.9253 28.2799 55.1119C27.9651 55.2985 27.6076 55.3945 27.2181 55.3945ZM27.2181 51.2623C26.8499 51.2623 26.5138 51.3529 26.2203 51.5289C25.9268 51.7048 25.6974 51.9501 25.532 52.2487C25.3666 52.5526 25.2865 52.8939 25.2865 53.2617C25.2865 53.6296 25.3719 53.9709 25.532 54.2748C25.6974 54.5787 25.9268 54.8186 26.2203 54.9946C26.5138 55.1705 26.8499 55.2612 27.2181 55.2612C27.5863 55.2612 27.9224 55.1705 28.2159 54.9946C28.5094 54.8186 28.7388 54.5787 28.9042 54.2748C29.0696 53.9709 29.1497 53.6296 29.1497 53.2617C29.1497 52.8939 29.0643 52.5526 28.9042 52.2487C28.7388 51.9448 28.5094 51.7048 28.2159 51.5289C27.9224 51.3529 27.5863 51.2623 27.2181 51.2623ZM27.2181 54.808C26.9673 54.808 26.7325 54.744 26.5138 54.6214C26.295 54.4934 26.1189 54.3121 25.9909 54.0829C25.8628 53.8483 25.7934 53.5763 25.7934 53.2671C25.7934 52.9578 25.8575 52.6806 25.9909 52.4513C26.1189 52.2167 26.3003 52.0354 26.5138 51.9128C26.946 51.6622 27.4902 51.6622 27.9171 51.9128C28.1305 52.0354 28.3066 52.2167 28.44 52.4513C28.5681 52.6859 28.6374 52.9578 28.6374 53.2671C28.6374 53.5763 28.5734 53.8536 28.44 54.0829C28.3119 54.3175 28.1359 54.4987 27.9171 54.6214C27.7037 54.744 27.4635 54.808 27.2181 54.808ZM27.2181 51.8488C26.9887 51.8488 26.7752 51.9075 26.5778 52.0194C26.3804 52.1314 26.2203 52.2967 26.1029 52.51C25.9855 52.7232 25.9268 52.9738 25.9268 53.2617C25.9268 53.5497 25.9855 53.8003 26.1029 54.0135C26.2203 54.2268 26.3804 54.3921 26.5778 54.5041C26.9727 54.728 27.4582 54.728 27.8477 54.5041C28.0398 54.3921 28.1999 54.2268 28.3173 54.0135C28.4347 53.8003 28.4934 53.5497 28.4934 53.2617C28.4934 52.9738 28.4347 52.7232 28.3173 52.51C28.1999 52.2967 28.0398 52.1314 27.8477 52.0194C27.6556 51.9075 27.4422 51.8488 27.2128 51.8488H27.2181ZM30.5423 56.6528C30.2435 56.4395 30.0461 56.1836 29.9447 55.885L30.5317 55.6344C30.617 55.8584 30.7611 56.0396 30.9639 56.1783C31.1666 56.3169 31.4014 56.3862 31.6789 56.3862C32.079 56.3862 32.3939 56.2742 32.6126 56.0503C32.8314 55.8264 32.9435 55.5065 32.9435 55.0906V54.6587H32.9114C32.7834 54.856 32.6073 55.0159 32.3725 55.1439C32.1431 55.2665 31.8763 55.3305 31.5828 55.3305C31.2467 55.3305 30.9425 55.2452 30.6651 55.0692C30.3876 54.8933 30.1688 54.648 30.0034 54.3388C29.838 54.0242 29.758 53.667 29.758 53.2671C29.758 52.8672 29.838 52.5153 30.0034 52.2007C30.1688 51.8861 30.3876 51.6409 30.6651 51.4649C30.9425 51.289 31.2467 51.2037 31.5828 51.2037C31.8763 51.2037 32.1431 51.2676 32.3725 51.3903C32.602 51.5129 32.7834 51.6782 32.9114 51.8808H32.9435V51.3263H33.5624V55.0639C33.5624 55.6877 33.3917 56.1676 33.0448 56.4928C32.698 56.8181 32.2445 56.9834 31.6789 56.9834C31.22 56.9834 30.8411 56.8767 30.5477 56.6635L30.5423 56.6528ZM32.3138 54.5627C32.5059 54.4454 32.6553 54.2748 32.7727 54.0509C32.8848 53.8269 32.9435 53.5657 32.9435 53.2617C32.9435 52.9578 32.8848 52.6859 32.7727 52.462C32.6607 52.238 32.5059 52.0727 32.3138 51.9554C32.1217 51.8381 31.9083 51.7795 31.6789 51.7795C31.4494 51.7795 31.2306 51.8381 31.0386 51.9554C30.8465 52.0727 30.6917 52.2434 30.5743 52.4673C30.4623 52.6912 30.4036 52.9525 30.4036 53.2564C30.4036 53.5603 30.4623 53.8269 30.5743 54.0509C30.6864 54.2748 30.8411 54.4454 31.0386 54.5627C31.236 54.68 31.4441 54.7387 31.6789 54.7387C31.9136 54.7387 32.1271 54.68 32.3138 54.5627ZM31.6789 57.042C31.2093 57.042 30.8145 56.9301 30.505 56.7115C30.1955 56.4928 29.9874 56.2209 29.8807 55.9063L29.8593 55.8477L30.569 55.5438L30.5957 55.6078C30.6757 55.8157 30.8145 55.9917 31.0012 56.1196C31.188 56.2529 31.4174 56.3169 31.6789 56.3169C32.0577 56.3169 32.3565 56.2103 32.5646 56.0023C32.7727 55.7944 32.8794 55.4851 32.8794 55.0906V54.8186C32.7567 54.9679 32.5966 55.0959 32.4099 55.1972C32.1698 55.3252 31.8923 55.3892 31.5882 55.3892C31.2413 55.3892 30.9212 55.2985 30.633 55.1172C30.3449 54.9359 30.1155 54.68 29.95 54.3601C29.7846 54.0402 29.6993 53.667 29.6993 53.2564C29.6993 52.8459 29.7846 52.4833 29.95 52.1581C30.1155 51.8328 30.3502 51.5769 30.633 51.3956C30.9212 51.2143 31.2413 51.1237 31.5882 51.1237C31.8923 51.1237 32.1698 51.1877 32.4099 51.321C32.5966 51.4223 32.7567 51.5502 32.8794 51.7048V51.2463H33.6318V55.0479C33.6318 55.6877 33.4504 56.1836 33.0929 56.5248C32.7354 56.8607 32.2605 57.0367 31.6789 57.0367V57.042ZM30.0301 55.9223C30.1315 56.1836 30.3182 56.4129 30.585 56.5995C30.8678 56.8021 31.236 56.9087 31.6789 56.9087C32.2231 56.9087 32.666 56.7488 32.9968 56.4342C33.3276 56.1196 33.493 55.6557 33.493 55.0532V51.3849H33.0075V51.9394H32.8741L32.8527 51.9075C32.73 51.7155 32.5593 51.5556 32.3405 51.4383C32.1217 51.321 31.8656 51.257 31.5828 51.257C31.2627 51.257 30.9639 51.3423 30.6971 51.5076C30.4303 51.6729 30.2168 51.9128 30.0621 52.2167C29.9074 52.5206 29.8273 52.8725 29.8273 53.2511C29.8273 53.6296 29.9074 53.9922 30.0621 54.2908C30.2168 54.5947 30.4303 54.8293 30.6971 54.9999C30.9639 55.1652 31.2573 55.2505 31.5828 55.2505C31.8656 55.2505 32.1217 55.1919 32.3405 55.0746C32.5593 54.9573 32.7354 54.8027 32.8527 54.6107L32.8741 54.5787H33.0075V55.0799C33.0075 55.5118 32.8901 55.853 32.6553 56.0876C32.4205 56.3222 32.0897 56.4449 31.6735 56.4449C31.3854 56.4449 31.1346 56.3702 30.9212 56.2209C30.7291 56.0876 30.585 55.917 30.4943 55.7091L30.0247 55.9117L30.0301 55.9223ZM31.6789 54.808C31.4334 54.808 31.2093 54.744 31.0012 54.6267C30.7984 54.5041 30.633 54.3228 30.5156 54.0882C30.3983 53.8536 30.3342 53.5763 30.3342 53.2617C30.3342 52.9472 30.3929 52.6699 30.5156 52.4406C30.633 52.2114 30.7984 52.0301 31.0012 51.9021C31.204 51.7795 31.4334 51.7155 31.6789 51.7155C31.9243 51.7155 32.1484 51.7795 32.3512 51.8968C32.5539 52.0194 32.714 52.2007 32.8314 52.43C32.9488 52.6592 33.0128 52.9418 33.0128 53.2564C33.0128 53.571 32.9541 53.8483 32.8314 54.0775C32.714 54.3068 32.5486 54.4881 32.3512 54.616C32.1484 54.7387 31.9243 54.8027 31.6789 54.8027V54.808ZM31.6789 51.8488C31.4601 51.8488 31.2573 51.9075 31.0706 52.0194C30.8892 52.1314 30.7398 52.2967 30.633 52.5046C30.5263 52.7179 30.4676 52.9738 30.4676 53.2617C30.4676 53.5497 30.521 53.8109 30.633 54.0242C30.7398 54.2375 30.8892 54.3974 31.0706 54.5094C31.252 54.6214 31.4548 54.6747 31.6789 54.6747C31.903 54.6747 32.1004 54.616 32.2818 54.5041C32.4632 54.3921 32.6073 54.2268 32.714 54.0189C32.8207 53.8056 32.8794 53.5497 32.8794 53.2617C32.8794 52.9738 32.8261 52.7072 32.714 52.494C32.6073 52.286 32.4579 52.1207 32.2818 52.0141C32.1004 51.9075 31.8976 51.8488 31.6789 51.8488ZM34.5175 49.7481H35.1685V55.2079H34.5175V49.7481ZM35.2325 55.2719H34.4482V49.6787H35.2325V55.2719ZM34.5816 55.1386H35.0991V49.812H34.5816V55.1386ZM36.86 55.0586C36.5665 54.8826 36.337 54.6374 36.1716 54.3228C36.0062 54.0082 35.9262 53.6563 35.9262 53.2671C35.9262 52.8779 36.0062 52.5473 36.161 52.2274C36.3157 51.9128 36.5345 51.6622 36.8226 51.4702C37.1054 51.2836 37.4362 51.1877 37.8151 51.1877C38.1939 51.1877 38.5247 51.273 38.8075 51.4436C39.085 51.6142 39.3038 51.8488 39.4532 52.1474C39.6026 52.446 39.6773 52.7925 39.6773 53.1764C39.6773 53.2511 39.6719 53.3204 39.6559 53.3737H36.5825C36.5985 53.667 36.6679 53.9176 36.7959 54.1202C36.924 54.3228 37.0841 54.4774 37.2815 54.5787C37.4789 54.68 37.6817 54.7333 37.8951 54.7333C38.3913 54.7333 38.7755 54.4987 39.0476 54.0295L39.5972 54.2961C39.4318 54.6107 39.2024 54.8613 38.9143 55.0426C38.6261 55.2239 38.2793 55.3145 37.8738 55.3145C37.5003 55.3145 37.1694 55.2239 36.876 55.0479L36.86 55.0586ZM38.9836 52.8459C38.9729 52.6859 38.9249 52.5206 38.8449 52.3553C38.7648 52.1954 38.6368 52.0567 38.4607 51.9448C38.2846 51.8328 38.0659 51.7795 37.7991 51.7795C37.4949 51.7795 37.2335 51.8755 37.0254 52.0727C36.8119 52.27 36.6732 52.526 36.6092 52.8459H38.9836ZM37.8631 55.3892C37.4789 55.3892 37.1321 55.2985 36.8279 55.1119C36.5238 54.9306 36.2837 54.6694 36.1129 54.3494C35.9422 54.0295 35.8568 53.6616 35.8568 53.2617C35.8568 52.8619 35.9369 52.5206 36.0969 52.1954C36.257 51.8701 36.4864 51.6089 36.7799 51.4169C37.0734 51.2196 37.4202 51.1237 37.8097 51.1237C38.1992 51.1237 38.5461 51.2143 38.8342 51.3903C39.1223 51.5662 39.3465 51.8115 39.5012 52.1207C39.6559 52.43 39.736 52.7872 39.736 53.1818C39.736 53.2617 39.7253 53.3364 39.7093 53.395L39.6933 53.443H36.6412C36.6625 53.6936 36.7319 53.9122 36.8386 54.0882C36.9613 54.2801 37.1107 54.4241 37.2975 54.5201C37.4842 54.616 37.6817 54.664 37.8791 54.664C38.354 54.664 38.7115 54.4454 38.9729 53.9975L39.005 53.9442L39.6719 54.2695L39.6399 54.3281C39.4692 54.6534 39.2291 54.9093 38.9356 55.1012C38.6368 55.2878 38.2793 55.3838 37.8578 55.3838L37.8631 55.3892ZM36.8973 54.9999C37.1801 55.1705 37.5056 55.2559 37.8631 55.2559C38.2579 55.2559 38.5941 55.1652 38.8662 54.9893C39.1223 54.824 39.3358 54.6054 39.4905 54.3281L39.0583 54.1202C38.7809 54.5734 38.3807 54.8027 37.8791 54.8027C37.655 54.8027 37.4362 54.7493 37.2335 54.6427C37.0254 54.5361 36.8546 54.3761 36.7212 54.1628C36.5878 53.9496 36.5131 53.6883 36.4971 53.3844V53.3151H39.5866C39.5919 53.2777 39.5972 53.2298 39.5972 53.1818C39.5972 52.8085 39.5225 52.4726 39.3785 52.1794C39.2344 51.8915 39.0263 51.6622 38.7595 51.5022C38.4927 51.3369 38.1672 51.257 37.8044 51.257C37.4416 51.257 37.1214 51.3476 36.8493 51.5289C36.5772 51.7102 36.3637 51.9554 36.2143 52.2594C36.0649 52.5633 35.9902 52.9045 35.9902 53.2671C35.9902 53.6296 36.0703 53.9922 36.2303 54.2908C36.3904 54.5894 36.6145 54.8293 36.8973 54.9999ZM39.053 52.9098H36.5291L36.5451 52.8299C36.6145 52.4993 36.7586 52.2274 36.9827 52.0194C37.2068 51.8115 37.4789 51.7102 37.8044 51.7102C38.0819 51.7102 38.3166 51.7688 38.4981 51.8861C38.6848 52.0034 38.8182 52.1527 38.9089 52.3233C38.9943 52.494 39.0423 52.6646 39.053 52.8352V52.9045V52.9098ZM36.6999 52.7765H38.9143C38.8982 52.6486 38.8556 52.5153 38.7915 52.3873C38.7168 52.238 38.5941 52.1047 38.4287 52.0034C38.2633 51.9021 38.0552 51.8488 37.8044 51.8488C37.5163 51.8488 37.2708 51.9394 37.0734 52.1261C36.892 52.2967 36.7639 52.5153 36.6945 52.7819L36.6999 52.7765ZM42.025 49.7427H43.8659C44.17 49.7427 44.4528 49.812 44.7143 49.9507C44.9758 50.0893 45.1785 50.2812 45.3386 50.5265C45.4933 50.7718 45.5734 51.049 45.5734 51.3636C45.5734 51.6782 45.4933 51.9501 45.3386 52.2007C45.1839 52.446 44.9758 52.6379 44.7143 52.7765C44.4528 52.9152 44.17 52.9845 43.8659 52.9845H42.6653V55.2132H42.025V49.7534V49.7427ZM43.8819 52.3553C44.0847 52.3553 44.2661 52.3073 44.4208 52.2114C44.5756 52.1154 44.6983 51.9928 44.7837 51.8381C44.869 51.6835 44.9117 51.5236 44.9117 51.3583C44.9117 51.193 44.869 51.033 44.7837 50.8784C44.6983 50.7238 44.5756 50.6012 44.4208 50.5052C44.2661 50.4092 44.0847 50.3612 43.8819 50.3612H42.6707V52.3607H43.8819V52.3553ZM42.7347 55.2665H41.961V49.6734H43.8659C44.1807 49.6734 44.4742 49.7427 44.7463 49.8867C45.0131 50.0306 45.2319 50.2333 45.392 50.4839C45.552 50.7398 45.6374 51.033 45.6374 51.3529C45.6374 51.6729 45.5574 51.9661 45.392 52.222C45.2319 52.478 45.0131 52.6806 44.7463 52.8192C44.4795 52.9632 44.1861 53.0325 43.8659 53.0325H42.7347V55.2612V55.2665ZM42.0944 55.1332H42.6013V52.9045H43.8659C44.1594 52.9045 44.4315 52.8405 44.6823 52.7072C44.9277 52.5739 45.1305 52.3927 45.2799 52.1527C45.4293 51.9181 45.504 51.6462 45.504 51.3529C45.504 51.0597 45.4293 50.7878 45.2799 50.5532C45.1305 50.3186 44.9331 50.132 44.6823 49.9987C44.4315 49.8654 44.1594 49.8014 43.8659 49.8014H42.0944V55.1279V55.1332ZM43.8819 52.4246H42.6013V50.2919H43.8819C44.0953 50.2919 44.2874 50.3452 44.4528 50.4465C44.6183 50.5478 44.7463 50.6811 44.837 50.8464C44.9277 51.0064 44.9758 51.1823 44.9758 51.3583C44.9758 51.5342 44.9277 51.7102 44.837 51.8701C44.7463 52.0301 44.6183 52.1634 44.4528 52.27C44.2874 52.3713 44.0953 52.4246 43.8819 52.4246ZM42.7347 52.2914H43.8819C44.074 52.2914 44.2394 52.2487 44.3835 52.1581C44.5275 52.0674 44.6449 51.9501 44.725 51.8062C44.805 51.6622 44.8477 51.5129 44.8477 51.3583C44.8477 51.2037 44.805 51.0544 44.725 50.9104C44.6449 50.7664 44.5275 50.6491 44.3835 50.5585C44.2394 50.4679 44.0687 50.4252 43.8819 50.4252H42.7347V52.2914ZM46.87 55.1546C46.6459 55.0426 46.4751 54.888 46.3524 54.6907C46.2297 54.4934 46.171 54.2748 46.171 54.0242C46.171 53.6136 46.3257 53.2884 46.6352 53.0591C46.9447 52.8299 47.3395 52.7126 47.8091 52.7126C48.0439 52.7126 48.2626 52.7392 48.4601 52.7872C48.6628 52.8405 48.8176 52.8992 48.9243 52.9632V52.7286C48.9243 52.4406 48.8229 52.206 48.6201 52.0301C48.4174 51.8541 48.1613 51.7688 47.8518 51.7688C47.633 51.7688 47.4302 51.8168 47.2488 51.9075C47.0674 52.0034 46.9233 52.1314 46.8166 52.302L46.3257 51.9341C46.4805 51.6995 46.6886 51.5182 46.9554 51.3849C47.2221 51.2516 47.521 51.1877 47.8464 51.1877C48.3747 51.1877 48.7909 51.3263 49.095 51.6035C49.3992 51.8808 49.5486 52.2594 49.5486 52.7339V55.1972H48.9296V54.6427H48.8976C48.7855 54.8293 48.6201 54.9893 48.396 55.1226C48.1719 55.2559 47.9211 55.3198 47.6383 55.3198C47.3555 55.3198 47.0994 55.2665 46.8753 55.1546H46.87ZM48.3053 54.584C48.4921 54.4721 48.6415 54.3228 48.7535 54.1362C48.8656 53.9496 48.9189 53.7416 48.9189 53.5177C48.7962 53.4377 48.6468 53.3684 48.4707 53.3204C48.2946 53.2724 48.1026 53.2458 47.9051 53.2458C47.5476 53.2458 47.2808 53.3204 47.0994 53.4697C46.918 53.619 46.8273 53.8056 46.8273 54.0402C46.8273 54.2535 46.9073 54.4241 47.0727 54.5574C47.2382 54.6907 47.4409 54.7547 47.6917 54.7547C47.9105 54.7547 48.1132 54.7013 48.3 54.5894L48.3053 54.584ZM47.633 55.3892C47.3395 55.3892 47.0727 55.3305 46.838 55.2132C46.6032 55.0959 46.4218 54.9359 46.2937 54.728C46.1657 54.5254 46.1016 54.2855 46.1016 54.0242C46.1016 53.5923 46.267 53.2511 46.5925 53.0058C46.9127 52.7659 47.3235 52.6486 47.8091 52.6486C48.0492 52.6486 48.2733 52.6752 48.4761 52.7286C48.6308 52.7659 48.7535 52.8085 48.8549 52.8565V52.7339C48.8549 52.462 48.7642 52.2487 48.5721 52.0887C48.38 51.9235 48.1399 51.8435 47.8464 51.8435C47.6383 51.8435 47.4463 51.8861 47.2755 51.9768C47.1048 52.0621 46.966 52.19 46.8646 52.3447L46.8273 52.4033L46.2297 51.9554L46.2617 51.9021C46.4218 51.6569 46.6405 51.4649 46.918 51.3316C47.1955 51.1983 47.4996 51.129 47.8358 51.129C48.38 51.129 48.8122 51.273 49.127 51.5609C49.4419 51.8488 49.6019 52.2487 49.6019 52.7392V55.2665H48.8496V54.8133C48.7375 54.9519 48.5935 55.0799 48.4174 55.1812C48.1826 55.3198 47.9158 55.3892 47.6277 55.3892H47.633ZM47.8091 52.7819C47.3502 52.7819 46.9714 52.8938 46.6726 53.1178C46.3791 53.3364 46.235 53.635 46.235 54.0295C46.235 54.2641 46.2937 54.4774 46.4058 54.6587C46.5232 54.8453 46.6886 54.9893 46.8967 55.0959C47.1101 55.2025 47.3555 55.2559 47.6277 55.2559C47.8998 55.2559 48.1346 55.1919 48.348 55.0692C48.5614 54.9413 48.7215 54.792 48.8282 54.6107L48.8496 54.5787H48.983V55.1332H49.4685V52.7392C49.4685 52.286 49.3245 51.9181 49.0363 51.6569C48.7482 51.3903 48.3427 51.257 47.8358 51.257C47.521 51.257 47.2328 51.321 46.9767 51.4489C46.7419 51.5662 46.5498 51.7262 46.4111 51.9235L46.7899 52.2114C46.8967 52.0621 47.0407 51.9448 47.2115 51.8541C47.4036 51.7582 47.617 51.7048 47.8464 51.7048C48.1719 51.7048 48.444 51.8008 48.6628 51.9821C48.8816 52.1687 48.9936 52.4246 48.9936 52.7286V53.0858L48.8923 53.0218C48.7909 52.9578 48.6415 52.9045 48.4494 52.8565C48.252 52.8085 48.0385 52.7819 47.8144 52.7819H47.8091ZM47.697 54.8186C47.4356 54.8186 47.2115 54.7493 47.0354 54.6054C46.8593 54.4614 46.7686 54.2695 46.7686 54.0349C46.7686 53.7789 46.87 53.571 47.0621 53.411C47.2542 53.2564 47.537 53.1764 47.9105 53.1764C48.1132 53.1764 48.3107 53.2031 48.4921 53.2564C48.6788 53.3097 48.8336 53.379 48.9616 53.4644L48.9936 53.4857V53.523C48.9936 53.7576 48.9349 53.9762 48.8176 54.1735C48.7002 54.3708 48.5401 54.5307 48.3427 54.648C48.1452 54.7653 47.9265 54.824 47.697 54.824V54.8186ZM47.9105 53.3097C47.569 53.3097 47.3129 53.379 47.1474 53.5177C46.982 53.651 46.902 53.8216 46.902 54.0402C46.902 54.2321 46.9714 54.3868 47.1208 54.5094C47.2702 54.632 47.4623 54.6907 47.697 54.6907C47.9051 54.6907 48.0972 54.6374 48.2733 54.5307C48.4494 54.4241 48.5935 54.2801 48.7002 54.1042C48.8016 53.9389 48.8549 53.7523 48.8602 53.555C48.7482 53.4857 48.6148 53.427 48.4601 53.3844C48.2893 53.3364 48.1026 53.3097 47.9158 53.3097H47.9105ZM50.3383 51.3743H50.9572V51.9928H50.9892C51.08 51.7635 51.2347 51.5875 51.4535 51.4596C51.6722 51.3316 51.9123 51.2676 52.1685 51.2676C52.2805 51.2676 52.3766 51.273 52.4513 51.289V51.9501C52.3659 51.9288 52.2485 51.9181 52.0991 51.9181C51.7683 51.9181 51.5015 52.0301 51.2934 52.2434C51.0853 52.462 50.9839 52.7446 50.9839 53.0965V55.2559H50.3329V51.3689L50.3383 51.3743ZM54.2868 55.2452C54.1534 55.1919 54.0413 55.1226 53.9453 55.0373C53.8439 54.9413 53.7692 54.824 53.7159 54.696C53.6625 54.568 53.6412 54.4081 53.6412 54.2215V51.9021H52.9635V51.3156H53.6412V50.2173H54.2868V51.3156H55.2312V51.9021H54.2868V54.0669C54.2868 54.2855 54.3295 54.4454 54.4095 54.5521C54.5056 54.664 54.6443 54.7227 54.831 54.7227C54.9805 54.7227 55.1192 54.68 55.2579 54.5947V55.2292C55.1832 55.2665 55.1032 55.2879 55.0231 55.3038C54.9431 55.3198 54.8417 55.3252 54.7243 55.3252C54.5643 55.3252 54.4202 55.2985 54.2868 55.2452ZM54.7243 55.3892C54.5589 55.3892 54.4042 55.3625 54.2601 55.3092C54.116 55.2559 53.9933 55.1812 53.8973 55.0852C53.7906 54.9786 53.7052 54.856 53.6518 54.7227C53.5985 54.5894 53.5718 54.4188 53.5718 54.2268V51.9714H52.8941V51.2516H53.5718V50.1533H54.3508V51.2516H55.2953V51.9714H54.3508V54.0722C54.3508 54.2748 54.3882 54.4241 54.4575 54.5147C54.5429 54.6107 54.6603 54.6587 54.8257 54.6587C54.9591 54.6587 55.0925 54.616 55.2152 54.5414L55.3166 54.4774V55.2719L55.2793 55.2878C55.1939 55.3252 55.1138 55.3518 55.0285 55.3678C54.9484 55.3838 54.8417 55.3892 54.7137 55.3892H54.7243ZM53.0275 51.8328H53.7052V54.2215C53.7052 54.3974 53.7265 54.5521 53.7746 54.6694C53.8226 54.7867 53.8919 54.8986 53.988 54.9893C54.0734 55.0692 54.1801 55.1386 54.3028 55.1865C54.4309 55.2345 54.5696 55.2612 54.719 55.2612C54.8364 55.2612 54.9324 55.2559 55.0071 55.2399C55.0658 55.2292 55.1245 55.2132 55.1885 55.1865V54.712C55.0712 54.7653 54.9484 54.7973 54.8257 54.7973C54.623 54.7973 54.4629 54.7333 54.3562 54.6C54.2654 54.4827 54.2174 54.3121 54.2174 54.0722V51.8381H55.1619V51.3849H54.2174V50.2866H53.7052V51.3849H53.0275V51.8381V51.8328ZM51.0533 55.3305H50.2689V51.3103H51.0213V51.7795C51.1173 51.6249 51.2507 51.5022 51.4161 51.4063C51.6456 51.273 51.8963 51.2037 52.1685 51.2037C52.2805 51.2037 52.3819 51.2143 52.4619 51.225L52.5153 51.2356V52.0354L52.4353 52.0141C52.3552 51.9928 52.2432 51.9874 52.0991 51.9874C51.7843 51.9874 51.5388 52.0887 51.3414 52.2967C51.1493 52.4993 51.0533 52.7712 51.0533 53.1071V55.3305ZM50.4023 55.1972H50.9199V53.1071C50.9199 52.7392 51.0319 52.4406 51.2454 52.206C51.4641 51.9768 51.7523 51.8595 52.0991 51.8595C52.2112 51.8595 52.3072 51.8648 52.3819 51.8755V51.3476C52.3179 51.3369 52.2485 51.3369 52.1685 51.3369C51.923 51.3369 51.6936 51.4009 51.4855 51.5182C51.2774 51.6409 51.1333 51.8008 51.0479 52.0194L51.0319 52.0621H50.8879V51.4436H50.4023V55.1972ZM55.9729 51.3156H56.5919V51.8861H56.6239C56.7306 51.6942 56.9014 51.5289 57.1361 51.3956C57.3709 51.2623 57.6217 51.193 57.8831 51.193C58.3527 51.193 58.7102 51.3263 58.9556 51.5982C59.2011 51.8701 59.3238 52.238 59.3238 52.7072V55.2025H58.6728V52.8085C58.6728 52.446 58.5875 52.1847 58.4114 52.0248C58.2406 51.8648 58.0005 51.7795 57.7017 51.7795C57.4936 51.7795 57.3069 51.8381 57.1415 51.9554C56.9761 52.0727 56.848 52.2274 56.7573 52.4193C56.6666 52.6113 56.6186 52.8085 56.6186 53.0165V55.2025H55.9676V51.3156H55.9729ZM59.3879 55.2719H58.6035V52.8085C58.6035 52.4673 58.5234 52.222 58.3634 52.0727C58.2033 51.9235 57.9792 51.8488 57.7017 51.8488C57.5096 51.8488 57.3336 51.9021 57.1788 52.0141C57.0241 52.1261 56.9014 52.27 56.816 52.4513C56.7306 52.6326 56.6826 52.8245 56.6826 53.0218V55.2772H55.8982V51.257H56.6506V51.7208C56.7626 51.5769 56.9067 51.4542 57.0934 51.3476C57.3389 51.209 57.6003 51.1343 57.8725 51.1343C58.358 51.1343 58.7369 51.2783 58.993 51.5662C59.2491 51.8488 59.3825 52.238 59.3825 52.7232V55.2825L59.3879 55.2719ZM58.7369 55.1386H59.2545V52.7126C59.2545 52.2647 59.1371 51.9075 58.9023 51.6462C58.6728 51.3903 58.326 51.2623 57.8778 51.2623C57.627 51.2623 57.3869 51.3263 57.1628 51.4543C56.9387 51.5822 56.7786 51.7368 56.6772 51.9181L56.6559 51.9501H56.5172V51.3796H56.0316V55.1332H56.5492V53.0112C56.5492 52.7925 56.5972 52.5846 56.6933 52.382C56.7893 52.1847 56.9227 52.0194 57.0988 51.8968C57.2749 51.7742 57.4776 51.7102 57.6964 51.7102C58.0112 51.7102 58.2673 51.8008 58.4541 51.9714C58.6408 52.1474 58.7369 52.4246 58.7369 52.8032V55.1332V55.1386ZM60.9833 55.0586C60.6898 54.8826 60.4604 54.6374 60.2949 54.3228C60.1295 54.0082 60.0495 53.6563 60.0495 53.2671C60.0495 52.8779 60.1295 52.5473 60.2843 52.2274C60.439 51.9128 60.6578 51.6622 60.9459 51.4702C61.2341 51.2783 61.5595 51.1877 61.9384 51.1877C62.3172 51.1877 62.648 51.273 62.9308 51.4436C63.2136 51.6142 63.4271 51.8488 63.5765 52.1474C63.7259 52.446 63.8006 52.7925 63.8006 53.1764C63.8006 53.2511 63.7952 53.3204 63.7792 53.3737H60.7058C60.7218 53.667 60.7912 53.9176 60.9192 54.1202C61.0473 54.3228 61.2074 54.4774 61.4048 54.5787C61.6022 54.68 61.805 54.7333 62.0184 54.7333C62.5147 54.7333 62.8988 54.4987 63.171 54.0295L63.7205 54.2961C63.5498 54.6107 63.3257 54.8613 63.0376 55.0426C62.7494 55.2239 62.4026 55.3145 61.9971 55.3145C61.6236 55.3145 61.2927 55.2239 60.9993 55.0479L60.9833 55.0586ZM63.1069 52.8459C63.0963 52.6859 63.0482 52.5206 62.9682 52.3553C62.8882 52.1954 62.7601 52.0567 62.584 51.9448C62.4079 51.8328 62.1892 51.7795 61.9224 51.7795C61.6182 51.7795 61.3568 51.8755 61.1487 52.0727C60.9352 52.27 60.7965 52.526 60.7325 52.8459H63.1069ZM61.9864 55.3892C61.6076 55.3892 61.2554 55.2985 60.9513 55.1119C60.6471 54.9306 60.407 54.6694 60.2362 54.3494C60.0655 54.0295 59.9801 53.6616 59.9801 53.2617C59.9801 52.8619 60.0602 52.5206 60.2202 52.1954C60.3803 51.8701 60.6098 51.6089 60.9032 51.4169C61.1967 51.2196 61.5435 51.1237 61.933 51.1237C62.3226 51.1237 62.6694 51.2143 62.9575 51.3903C63.2457 51.5662 63.4698 51.8115 63.6245 52.1207C63.7792 52.43 63.8593 52.7872 63.8593 53.1818C63.8593 53.2617 63.8486 53.3364 63.8326 53.395L63.8166 53.443H60.7645C60.7858 53.6936 60.8552 53.9122 60.9619 54.0882C61.0793 54.2801 61.2341 54.4241 61.4208 54.5201C61.6076 54.616 61.7996 54.664 62.0024 54.664C62.4773 54.664 62.8401 54.4454 63.0963 53.9975L63.1283 53.9442L63.7952 54.2695L63.7632 54.3281C63.5925 54.6534 63.3524 54.9093 63.0589 55.1012C62.7601 55.2878 62.3973 55.3838 61.9811 55.3838L61.9864 55.3892ZM61.0206 54.9999C61.3034 55.1705 61.6289 55.2559 61.9864 55.2559C62.3813 55.2559 62.7174 55.1652 62.9895 54.9893C63.2457 54.824 63.4591 54.6054 63.6138 54.3281L63.1816 54.1202C62.9042 54.5734 62.504 54.8027 62.0024 54.8027C61.7783 54.8027 61.5595 54.7493 61.3568 54.6427C61.1487 54.5361 60.9779 54.3761 60.8445 54.1628C60.7111 53.9496 60.6364 53.6883 60.6204 53.3844V53.3151H63.7099C63.7152 53.2777 63.7205 53.2298 63.7205 53.1818C63.7205 52.8085 63.6458 52.4726 63.5018 52.1794C63.3577 51.8915 63.1496 51.6675 62.8828 51.5022C62.616 51.3369 62.2905 51.257 61.9277 51.257C61.5649 51.257 61.2447 51.3476 60.9726 51.5289C60.7005 51.7102 60.4817 51.9554 60.3376 52.2594C60.1882 52.5633 60.1135 52.9045 60.1135 53.2671C60.1135 53.6296 60.1936 53.9922 60.3536 54.2908C60.5137 54.5894 60.7378 54.8293 61.0206 54.9999ZM63.1763 52.9098H60.6524L60.6684 52.8299C60.7378 52.4993 60.8819 52.2274 61.106 52.0194C61.3301 51.8115 61.6022 51.7102 61.9277 51.7102C62.2052 51.7102 62.4399 51.7688 62.6214 51.8861C62.8081 52.0034 62.9415 52.1527 63.0322 52.3233C63.1176 52.494 63.1656 52.6646 63.1763 52.8352V52.9045V52.9098ZM60.8179 52.7765H63.0322C63.0162 52.6486 62.9735 52.5153 62.9095 52.3873C62.8348 52.238 62.7121 52.1047 62.5467 52.0034C62.3813 51.8968 62.1732 51.8488 61.9224 51.8488C61.6342 51.8488 61.3888 51.9394 61.1914 52.1261C61.0099 52.2967 60.8819 52.5153 60.8125 52.7819L60.8179 52.7765ZM64.5423 51.3103H65.1612V51.9341H65.1932C65.2679 51.7208 65.4173 51.5449 65.6361 51.4009C65.8549 51.257 66.0843 51.1877 66.3244 51.1877C66.5005 51.1877 66.6553 51.2143 66.7833 51.273V51.9661C66.6179 51.8861 66.4365 51.8435 66.2337 51.8435C66.047 51.8435 65.8709 51.8968 65.7162 52.0034C65.5561 52.1101 65.4333 52.254 65.3373 52.4353C65.2413 52.6166 65.1986 52.8085 65.1986 53.0218V55.1972H64.5476V51.3103H64.5423ZM65.2573 55.2665H64.4729V51.2463H65.2253V51.7155C65.316 51.5769 65.4387 51.4542 65.5934 51.3529C65.8229 51.2037 66.0683 51.129 66.3191 51.129C66.5059 51.129 66.6659 51.161 66.8047 51.2196L66.8473 51.2356V52.0834L66.7513 52.0354C66.5966 51.9608 66.4205 51.9181 66.2337 51.9181C66.0576 51.9181 65.8976 51.9661 65.7535 52.0674C65.6041 52.1687 65.4867 52.3073 65.396 52.4726C65.3053 52.6433 65.2626 52.8299 65.2626 53.0271V55.2719L65.2573 55.2665ZM64.6063 55.1332H65.1239V53.0218C65.1239 52.8032 65.1719 52.5953 65.2733 52.4087C65.3693 52.2167 65.5081 52.0674 65.6735 51.9501C65.8442 51.8381 66.031 51.7795 66.2284 51.7795C66.4045 51.7795 66.5645 51.8062 66.714 51.8648V51.3156C66.6019 51.273 66.4738 51.2516 66.3244 51.2516C66.1003 51.2516 65.8816 51.321 65.6735 51.4543C65.4707 51.5875 65.3266 51.7582 65.2573 51.9554L65.2413 51.9981H65.0972V51.3743H64.6116V55.1279L64.6063 55.1332Z" fill="#606469"/>
<path d="M51.763 31.977C51.763 31.1613 51.6349 30.3775 51.5015 29.6204H40.7658V34.0671H46.79C46.5232 35.5067 45.8402 36.7277 44.6183 37.5488V40.4493H48.348C50.5197 38.4446 51.7683 35.4801 51.7683 31.977H51.763Z" fill="#0081C6"/>
<path d="M40.7284 43.2273C43.8285 43.2273 46.4378 42.2089 48.3427 40.4494L44.6129 37.5488C43.5884 38.242 42.2705 38.6472 40.7284 38.6472C37.7404 38.6472 35.2005 36.6264 34.2934 33.9019H30.4623V36.8824C32.3512 40.6466 36.2357 43.2273 40.7284 43.2273Z" fill="#00AE57"/>
<path d="M34.2988 33.9072C34.0693 33.2141 33.9413 32.4783 33.9413 31.7158C33.9413 30.9534 34.0693 30.2176 34.2988 29.5244V26.5439H30.4676C29.6886 28.1008 29.2457 29.855 29.2457 31.7158C29.2457 33.5767 29.6886 35.3308 30.4676 36.8877L34.2988 33.9072Z" fill="#FBAB18"/>
<path d="M40.7284 24.779C42.4146 24.779 43.9299 25.3602 45.1252 26.5012L48.4174 23.2008C46.4271 21.34 43.8285 20.199 40.7284 20.199C36.241 20.199 32.3512 22.7796 30.4623 26.5439L34.2934 29.5244C35.2005 26.7998 37.735 24.779 40.7284 24.779Z" fill="#F04931"/>
<path d="M74.1254 11.2468H69.6007V6.89604H71.863V6.27222H69.6007C69.2432 6.27222 68.955 6.5548 68.955 6.89604V11.2522C68.955 11.5934 69.2485 11.876 69.6007 11.876H74.1254C74.4829 11.876 74.7711 11.5987 74.7711 11.2522V9.07677H74.1254V11.2522V11.2468ZM72.5087 6.27222V6.89604H73.6719L70.5024 9.94586L70.956 10.3831L74.1254 7.33325V8.45294H74.7711V6.27755H72.5087V6.27222Z" fill="#0081C6"/>
</svg>
