<svg width="116" height="38" viewBox="0 0 116 38" fill="none" xmlns="http://www.w3.org/2000/svg">
<g clip-path="url(#clip0_949_12920)">
<mask id="mask0_949_12920" style="mask-type:luminance" maskUnits="userSpaceOnUse" x="0" y="0" width="116" height="38">
<path d="M0.38269 0.874756H116V37.113H0.38269V0.874756Z" fill="white"/>
</mask>
<g mask="url(#mask0_949_12920)">
<path d="M106.365 29.8421C106.079 29.8408 105.803 29.9481 105.592 30.1428C105.38 30.3389 105.246 30.6078 105.218 30.8976H107.397C107.416 30.7546 107.403 30.6092 107.358 30.4724C107.312 30.3355 107.237 30.211 107.137 30.1082C107.037 30.0064 106.916 29.9294 106.782 29.8831C106.648 29.8369 106.505 29.8231 106.365 29.8421ZM87.3253 32.4221C87.3253 32.7736 87.5545 33.0085 88.0132 33.0085C88.1338 33.0233 88.256 33.0138 88.3729 32.9806C88.4899 32.9475 88.5992 32.8913 88.6946 32.8153C88.888 32.6611 89.0143 32.4358 89.0456 32.1876V31.8356H88.5868C87.7841 31.7185 87.3253 31.8356 87.3253 32.4221ZM83.0812 28.3171H82.3928V30.3111H83.0812C83.7695 30.3111 84.2283 29.9591 84.2283 29.2556C84.2283 28.6691 83.7695 28.3171 83.0812 28.3171ZM70.9228 29.4901C70.559 29.4965 70.212 29.6469 69.9564 29.9091C69.6992 30.1729 69.5524 30.527 69.5466 30.8976H72.2996C72.1848 29.9591 71.726 29.4901 70.9228 29.4901ZM51.4243 29.4901C51.0602 29.4965 50.7132 29.6469 50.4574 29.9091C50.2001 30.1729 50.0534 30.527 50.0475 30.8976H52.8006C52.6858 29.9591 52.227 29.4901 51.4243 29.4901Z" fill="black"/>
<path d="M115.312 23.7436H39.6099C39.5185 23.7403 39.4274 23.7562 39.3424 23.7904C39.2574 23.8246 39.1803 23.8763 39.1161 23.9423C39.0514 24.0085 39.0007 24.0875 38.9673 24.1743C38.9339 24.2611 38.9185 24.354 38.9219 24.4471V36.4095C38.9188 36.5026 38.9344 36.5953 38.9678 36.6821C39.0011 36.7689 39.0516 36.8479 39.1161 36.9143C39.1805 36.9801 39.2576 37.0317 39.3425 37.0658C39.4275 37.1 39.5185 37.1161 39.6099 37.113H115.312C115.403 37.1163 115.494 37.1004 115.579 37.0662C115.664 37.032 115.741 36.9803 115.805 36.9143C115.87 36.848 115.921 36.7689 115.954 36.682C115.988 36.5951 116.003 36.5023 116 36.4091V24.5646C116.01 24.364 115.944 24.1672 115.816 24.0139C115.689 23.8612 115.508 23.7647 115.312 23.7436ZM45.689 33.9465C43.854 33.9465 42.7068 32.6565 42.7068 30.5456V30.4281C42.6717 29.9924 42.7259 29.5541 42.8661 29.1406C43.0058 28.728 43.2288 28.3493 43.5207 28.0285C43.8114 27.7089 44.165 27.4545 44.5588 27.2816C44.9516 27.1094 45.3758 27.0228 45.8038 27.0275C46.1215 26.9885 46.4437 27.0159 46.7506 27.1079C47.0575 27.2 47.3431 27.3549 47.5899 27.5636C47.8369 27.7725 48.0396 28.0298 48.1857 28.32C48.3322 28.6108 48.4194 28.9294 48.442 29.2556H47.5241C47.4097 28.2001 46.8362 27.7311 45.689 27.7311C45.3563 27.7272 45.0268 27.7973 44.7238 27.9364C44.4199 28.0761 44.1497 28.2812 43.9321 28.5375C43.7135 28.795 43.5523 29.0972 43.4596 29.4236C43.367 29.75 43.345 30.0928 43.3952 30.4285V30.5456C43.3952 32.1875 44.1979 33.243 45.5742 33.243C46.0457 33.2854 46.5145 33.137 46.8781 32.8302C47.2437 32.5216 47.4755 32.0804 47.5241 31.6011H48.2125C48.2141 31.9301 48.1479 32.255 48.0187 32.5562C47.8897 32.8568 47.6999 33.1266 47.4616 33.3484C47.2241 33.5692 46.9433 33.7367 46.6374 33.8399C46.3323 33.943 46.0091 33.9794 45.689 33.9465ZM53.4885 31.6011H49.9331C49.9038 31.819 49.9202 32.0408 49.9815 32.2518C50.0428 32.4629 50.1474 32.6584 50.2886 32.8257C50.4288 32.9921 50.6029 33.126 50.7989 33.2181C50.9948 33.3103 51.2081 33.3586 51.4242 33.3596C52.1122 33.3601 52.5709 33.1256 52.6857 32.5391H53.4885C53.4024 33.0144 53.1397 33.4384 52.7545 33.7237C52.3713 34.0073 51.8944 34.1293 51.4242 34.064C51.1089 34.0788 50.7942 34.0242 50.5018 33.9041C50.2087 33.7837 49.9447 33.6007 49.7278 33.3676C49.5099 33.1335 49.344 32.855 49.2411 32.5507C49.138 32.2457 49.1001 31.922 49.13 31.6011V31.4836C49.0979 31.172 49.13 30.8571 49.225 30.5589C49.3198 30.2613 49.4753 29.9871 49.6813 29.7541C49.8865 29.5222 50.1377 29.3368 50.4187 29.2102C50.699 29.0839 51.0026 29.0194 51.3094 29.0211C51.6194 29.0075 51.9285 29.064 52.2142 29.1864C52.5008 29.3092 52.7571 29.4945 52.9647 29.7292C53.1733 29.9651 53.3284 30.2444 53.4188 30.5475C53.5093 30.8507 53.5331 31.1702 53.4885 31.4836V31.6011ZM57.0442 29.6075C56.1267 29.6075 55.4387 29.9591 55.4387 31.132V33.8291H54.6356V29.0211H55.4387V29.8416C55.5769 29.5347 55.8062 29.2791 56.0946 29.1102C56.3819 28.9422 56.7141 28.87 57.0442 28.9036V29.6075ZM60.256 33.8295C60.0303 33.8886 59.8 33.9278 59.5676 33.9465C59.3973 33.9652 59.2249 33.9446 59.0635 33.8862C58.9021 33.8279 58.7559 33.7333 58.6357 33.6096C58.5146 33.4853 58.4222 33.3353 58.3652 33.1705C58.3082 33.0057 58.288 32.8302 58.3061 32.6565V29.6075H57.6178V28.9036H58.3061V27.8481H59.1089V28.9036H60.256V29.6075H59.1089V32.5391C59.1089 33.0085 59.3385 33.243 59.6824 33.243C59.8812 33.2734 60.084 33.2322 60.256 33.1256V33.8295ZM62.2059 33.8295H61.4031V29.0211H62.2059V33.8295ZM61.7471 27.9656C61.656 27.9657 61.5669 27.9381 61.4914 27.8865C61.4159 27.8349 61.3573 27.7616 61.3233 27.6761C61.2883 27.5904 61.2791 27.4962 61.2967 27.4052C61.3143 27.3142 61.3581 27.2305 61.4225 27.1646C61.4865 27.0993 61.5682 27.0548 61.6573 27.0367C61.7464 27.0186 61.8388 27.0277 61.9228 27.0629C62.007 27.0987 62.0788 27.159 62.1292 27.2361C62.1796 27.3132 62.2062 27.4037 62.2059 27.4961C62.2112 27.5587 62.2031 27.6217 62.182 27.6808C62.1609 27.7399 62.1274 27.7936 62.0837 27.8383C62.0401 27.8829 61.9874 27.9175 61.9293 27.9394C61.8711 27.9614 61.809 27.9703 61.7471 27.9656ZM65.7616 27.3791C65.6468 27.3791 65.532 27.2616 65.3028 27.2616C64.8441 27.2616 64.6145 27.6136 64.6145 28.0826V28.9036H65.7616V29.6075H64.6145V33.8295H63.8117V29.6071H63.1234V28.9032H63.8117V28.0826C63.8117 27.1442 64.2705 26.5581 65.188 26.5581C65.3864 26.5394 65.5855 26.5802 65.7616 26.6747V27.3791ZM67.4819 33.8295H66.6791V29.0211H67.4819V33.8295ZM67.1379 27.9656C67.0469 27.9652 66.9581 27.9374 66.8826 27.8859C66.8072 27.8344 66.7485 27.7614 66.7141 27.6761C66.6792 27.5903 66.67 27.4961 66.6877 27.4051C66.7054 27.3141 66.7492 27.2305 66.8137 27.1646C66.8613 27.1154 66.9193 27.0777 66.9832 27.0543C67.0472 27.0308 67.1155 27.0221 67.1832 27.0289C67.2509 27.0357 67.3163 27.0578 67.3744 27.0935C67.4326 27.1292 67.4821 27.1777 67.5193 27.2354C67.5699 27.3129 67.5967 27.4037 67.5967 27.4965C67.5888 27.618 67.538 27.7324 67.4535 27.8189C67.3694 27.9051 67.2572 27.9572 67.1379 27.9656ZM72.9875 31.6011H69.4317C69.402 31.819 69.4183 32.041 69.4796 32.2521C69.541 32.4632 69.646 32.6587 69.7876 32.8257C69.9288 32.9923 70.1032 33.1264 70.2991 33.2184C70.4945 33.3105 70.7076 33.3588 70.9228 33.3601C71.6112 33.3601 72.0699 33.1256 72.1847 32.5395H72.9875C72.9013 33.0147 72.6387 33.4385 72.2535 33.7237C71.8702 34.0073 71.3932 34.1293 70.9228 34.064C70.6077 34.0788 70.2931 34.0242 70.0008 33.9041C69.7076 33.7836 69.4435 33.6006 69.2264 33.3676C69.0084 33.1331 68.8423 32.8543 68.7392 32.5496C68.6362 32.245 68.5986 31.9216 68.629 31.6011V31.4836C68.5969 31.172 68.629 30.8571 68.724 30.5589C68.8188 30.2613 68.9743 29.9871 69.1803 29.7541C69.3854 29.5221 69.6367 29.3367 69.9177 29.2102C70.198 29.0839 70.5016 29.0194 70.8084 29.0211C71.1184 29.0075 71.4275 29.064 71.7132 29.1864C71.9998 29.3092 72.2561 29.4945 72.4637 29.7292C72.6723 29.9651 72.8274 30.2444 72.9179 30.5475C73.0083 30.8507 73.0321 31.1702 72.9875 31.4836V31.6011ZM78.3783 33.8295H77.5756V33.0085C77.407 33.2895 77.1712 33.523 76.8901 33.6875C76.6099 33.8512 76.2932 33.9404 75.9697 33.9465C75.663 33.9482 75.3595 33.8837 75.0793 33.7574C74.7982 33.6308 74.5468 33.4454 74.3416 33.2134C74.1356 32.9805 73.9803 32.7063 73.8857 32.4087C73.7906 32.1105 73.7581 31.7956 73.7906 31.484V31.3665C73.7586 31.0494 73.7905 30.729 73.8844 30.4248C73.9782 30.1205 74.1321 29.8386 74.3366 29.5963C74.5402 29.3553 74.7903 29.159 75.0715 29.0194C75.3519 28.8801 75.6576 28.8007 75.9697 28.7861C76.2838 28.7721 76.5963 28.8403 76.8769 28.984C77.1579 29.1277 77.3982 29.3422 77.5756 29.6075V26.5585H78.3783V33.8295ZM85.6046 29.3726C85.6046 30.7805 84.6871 31.4836 83.196 31.4836H82.3928V33.9465H80.9017V27.262H83.196C83.4962 27.1939 83.8081 27.1982 84.1065 27.2745C84.4055 27.3513 84.6827 27.4977 84.9158 27.7023C85.1498 27.9077 85.3336 28.1652 85.4528 28.4546C85.5725 28.7445 85.6243 29.0581 85.6046 29.3726ZM90.3075 33.8295H89.0455V33.243C88.8768 33.4801 88.6509 33.6694 88.3893 33.7928C88.1287 33.9161 87.8412 33.9692 87.5544 33.947C86.6369 33.947 85.9486 33.4775 85.9486 32.5391C85.9486 31.3665 86.9809 31.0146 88.472 31.0146H89.0455V30.7801C89.0455 30.1936 88.8164 29.842 88.2428 29.842C87.6692 29.842 87.4396 30.0765 87.4396 30.5456H86.1781C86.2929 29.3726 87.0957 28.9036 88.3572 28.9036C89.6191 28.9036 90.3075 29.373 90.3075 30.663V33.8295ZM94.322 30.1936C93.404 30.1936 92.8305 30.5456 92.8305 31.4836V33.9465H91.569V29.1381H92.8305V30.0765C92.9621 29.7798 93.1705 29.5246 93.4337 29.338C93.6957 29.1524 94.0029 29.0428 94.322 29.0211V30.1936ZM97.7629 33.8291C97.5087 33.9339 97.2329 33.9743 96.9598 33.9465C95.9274 33.9465 95.4687 33.4775 95.4687 32.422V29.9591H94.8951V29.0211H95.4687V27.9656H96.7306V29.0211H97.7629V29.9591H96.7306V32.3046C96.7252 32.3828 96.7364 32.4613 96.7634 32.5348C96.7905 32.6083 96.8327 32.6751 96.8874 32.7307C96.9414 32.7861 97.0066 32.8291 97.0785 32.8568C97.1504 32.8844 97.2274 32.8961 97.3042 32.891C97.5333 32.891 97.6481 32.8911 97.7629 32.7736V33.8291ZM103.154 33.8291H101.892V30.8975C101.892 30.1936 101.663 29.9591 101.089 29.9591C100.951 29.9484 100.811 29.9684 100.681 30.0178C100.551 30.0671 100.434 30.1446 100.336 30.2448C100.238 30.3453 100.162 30.4661 100.114 30.5989C100.065 30.7317 100.046 30.8735 100.057 31.0146V33.8295H98.7952V29.0211H100.057V29.725C100.201 29.4476 100.415 29.2141 100.678 29.0485C100.939 28.8837 101.24 28.7931 101.548 28.7861C102.465 28.7861 103.154 29.373 103.154 30.663V33.8291ZM108.774 31.7185H105.333C105.317 31.8818 105.334 32.0467 105.385 32.2027C105.435 32.3587 105.517 32.5023 105.625 32.6245C105.733 32.7456 105.865 32.8424 106.012 32.9086C106.159 32.9747 106.319 33.0088 106.48 33.0085C106.707 33.0445 106.939 32.9922 107.13 32.8619C107.322 32.731 107.458 32.5322 107.512 32.3046H108.774C108.659 33.3601 107.856 33.9465 106.48 33.9465C106.15 33.9809 105.817 33.9419 105.503 33.832C105.189 33.7217 104.902 33.5434 104.663 33.3097C104.423 33.0741 104.236 32.7892 104.114 32.4742C103.992 32.1592 103.938 31.8214 103.956 31.4836V31.3665C103.937 31.0331 103.985 30.6991 104.098 30.3852C104.211 30.0713 104.386 29.7841 104.613 29.5413C104.838 29.2997 105.11 29.1079 105.412 28.9777C105.713 28.8478 106.038 28.7826 106.365 28.7861C106.683 28.761 107.002 28.8085 107.299 28.9253C107.597 29.0422 107.865 29.225 108.085 29.4605C108.305 29.6969 108.47 29.9797 108.569 30.2886C108.669 30.598 108.699 30.9259 108.659 31.2491V31.7185H108.774ZM112.444 30.194C111.527 30.194 110.953 30.5456 110.953 31.4836V33.9465H109.692V29.1381H110.953V30.0765C111.085 29.7797 111.293 29.5245 111.556 29.338C111.818 29.1525 112.125 29.0429 112.444 29.0211V30.194Z" fill="black"/>
<path d="M76.0845 29.4901C75.167 29.4901 74.5934 30.194 74.5934 31.3665V31.4836C74.5641 31.7019 74.5807 31.924 74.6419 32.1354C74.7032 32.3466 74.8082 32.5424 74.9493 32.7086C75.0899 32.8745 75.2639 33.008 75.4597 33.1001C75.6555 33.1922 75.8686 33.2408 76.0845 33.2426C77.002 33.2426 77.6904 32.6565 77.6904 31.3665V31.2491C77.7174 31.0218 77.6955 30.7913 77.6261 30.5734C77.5567 30.3555 77.4415 30.1554 77.2884 29.987C77.1363 29.8194 76.9495 29.6879 76.7414 29.6019C76.5333 29.5159 76.309 29.478 76.0845 29.4901ZM65.0733 2.16474C65.0705 1.82422 64.9368 1.49819 64.7005 1.25586C64.4655 1.01512 64.1461 0.878127 63.8118 0.874737H59.7973C58.8319 0.856181 57.8726 1.03291 56.9755 1.39457C56.0764 1.75725 55.2574 2.29711 54.5661 2.9828C53.872 3.67096 53.3187 4.49092 52.938 5.39577C52.556 6.30294 52.3535 7.27712 52.3418 8.26318V10.7261C52.3535 11.7121 52.5561 12.6861 52.938 13.5931C53.3187 14.498 53.872 15.3179 54.5661 16.0061C55.2574 16.6918 56.0764 17.2316 56.9755 17.5943C57.8726 17.956 58.8319 18.1327 59.7973 18.1142H63.8118C63.9777 18.114 64.142 18.0806 64.2952 18.0157C64.4483 17.9509 64.5872 17.8559 64.7038 17.7364C64.9409 17.4935 65.0737 17.1656 65.0733 16.8242C65.0733 16.4822 64.9404 16.154 64.7038 15.912C64.5872 15.7924 64.4483 15.6974 64.2952 15.6326C64.142 15.5677 63.9777 15.5343 63.8118 15.5342H59.7973C59.1793 15.5462 58.5651 15.4347 57.9898 15.2061C57.4144 14.9776 56.8893 14.6364 56.4444 14.2021C55.5405 13.3198 55.0146 12.1138 54.9796 10.8432V8.38022C55.0146 7.10962 55.5405 5.90362 56.4444 5.02131C56.8893 4.587 57.4144 4.24579 57.9898 4.01722C58.5651 3.78864 59.1793 3.67719 59.7973 3.68924H63.8118C64.167 3.63235 64.4899 3.44709 64.7207 3.16774C64.9528 2.8868 65.0779 2.53098 65.0733 2.16474ZM41.101 0.874737C40.1361 0.887232 39.1832 1.09425 38.297 1.48454C37.4092 1.87581 36.607 2.44156 35.9369 3.149C35.2642 3.85901 34.7363 4.69621 34.3832 5.61279C34.0294 6.53159 33.8567 7.51168 33.8751 8.49769V17.0587C33.8751 17.4011 34.008 17.7293 34.2446 17.9709C34.3612 18.0905 34.5 18.1855 34.6532 18.2505C34.8063 18.3154 34.9706 18.3489 35.1366 18.3491C35.4715 18.3491 35.7925 18.2129 36.029 17.9709C36.2662 17.728 36.3989 17.4001 36.3985 17.0587V8.49769C36.3975 7.25594 36.8804 6.06391 37.7423 5.18043C38.1665 4.74568 38.6717 4.40041 39.2286 4.16462C39.7854 3.92882 40.383 3.80717 40.9866 3.8067C42.2033 3.8067 43.3701 4.30071 44.2305 5.18043C45.0924 6.06391 45.5753 7.25594 45.5743 8.49769V17.0587C45.5743 17.4011 45.7072 17.7293 45.9437 17.9709C46.0604 18.0905 46.1994 18.1855 46.3526 18.2504C46.5058 18.3153 46.6701 18.3488 46.8362 18.3491C47.0022 18.3489 47.1665 18.3154 47.3196 18.2505C47.4727 18.1855 47.6116 18.0905 47.7282 17.9709C47.9653 17.728 48.0981 17.4001 48.0977 17.0587V8.49769C48.1606 7.51984 48.0262 6.53926 47.7027 5.6157C47.3803 4.69433 46.8751 3.84948 46.2182 3.13317C45.5636 2.41948 44.7707 1.85004 43.889 1.46038C43.0096 1.07211 42.0603 0.872693 41.101 0.874737Z" fill="black"/>
<path d="M58.7649 8.14535C58.5989 8.14547 58.4346 8.17893 58.2815 8.24378C58.1283 8.30863 57.9895 8.40358 57.8728 8.52314C57.6356 8.76596 57.5026 9.09381 57.5029 9.43535C57.5029 9.77774 57.6358 10.106 57.8728 10.3476C57.9894 10.4672 58.1283 10.5622 58.2814 10.6271C58.4345 10.6921 58.5989 10.7256 58.7649 10.7258H60.7147C60.8807 10.7256 61.045 10.6921 61.1982 10.6271C61.3513 10.5622 61.4902 10.4672 61.6067 10.3476C61.8439 10.1047 61.9766 9.77683 61.9762 9.43535C61.9762 9.09338 61.8433 8.76515 61.6067 8.52314C61.4901 8.40358 61.3512 8.30863 61.1981 8.24378C61.045 8.17893 60.8807 8.14547 60.7147 8.14535H58.7649ZM83.5399 5.56535C83.2056 5.56865 82.8861 5.70566 82.6512 5.94648C82.4146 6.18868 82.2809 6.51479 82.2784 6.85535V16.9413C82.2784 17.2832 82.4113 17.6115 82.6479 17.8535C82.7645 17.973 82.9034 18.068 83.0565 18.1328C83.2096 18.1977 83.3739 18.2311 83.5399 18.2313C83.7059 18.2311 83.8702 18.1977 84.0233 18.1328C84.1764 18.068 84.3153 17.973 84.4319 17.8535C84.6692 17.6106 84.8021 17.2828 84.8018 16.9413V6.85535C84.7989 6.51478 84.6651 6.18876 84.4286 5.94648C84.1937 5.70566 83.8742 5.56865 83.5399 5.56535ZM78.3783 0.87437H76.314C75.3486 0.855815 74.3893 1.03255 73.4923 1.3942C72.5931 1.75698 71.774 2.29682 71.0824 2.98244C70.3886 3.67072 69.8355 4.49066 69.4547 5.39541C69.0728 6.30258 68.8702 7.27675 68.8585 8.26281V17.0583C68.8585 17.4007 68.9914 17.7289 69.228 17.9705C69.3446 18.0901 69.4835 18.1852 69.6366 18.2501C69.7897 18.315 69.954 18.3485 70.12 18.3487C70.2861 18.3485 70.4504 18.315 70.6035 18.2501C70.7566 18.1852 70.8955 18.0901 71.0121 17.9705C71.2487 17.7289 71.382 17.4007 71.382 17.0583V8.26281C71.4165 6.99207 71.9423 5.78581 72.8463 4.90348C73.2913 4.46925 73.8164 4.12812 74.3918 3.89961C74.9671 3.67111 75.5813 3.55973 76.1992 3.57183H78.2639C78.5983 3.56842 78.9177 3.43126 79.1526 3.19029C79.3891 2.94824 79.5228 2.62227 79.5254 2.28183C79.5598 2.10965 79.5559 1.93187 79.514 1.76141C79.4721 1.59094 79.3932 1.43206 79.283 1.29632C79.1737 1.16114 79.0354 1.0529 78.8787 0.979803C78.7219 0.906702 78.5508 0.870649 78.3783 0.87437ZM9.44399 8.61436L4.16756 6.85577C3.82513 6.74923 3.5273 6.53065 3.3208 6.2343C3.11305 5.93658 3.00754 5.57808 3.02044 5.2138C3.01601 4.99733 3.05447 4.78215 3.13355 4.58098C3.21263 4.37981 3.33072 4.19671 3.48085 4.04251C3.63003 3.8891 3.80866 3.76823 4.00573 3.68735C4.2028 3.60648 4.41415 3.5673 4.62674 3.57225H8.98564C9.32015 3.57225 9.64108 3.43604 9.87766 3.19445C10.1146 2.95147 10.2474 2.6237 10.2471 2.28225C10.2476 1.94076 10.1148 1.61292 9.87766 1.37004C9.76103 1.2505 9.62214 1.15556 9.46902 1.09071C9.31591 1.02586 9.15161 0.992397 8.98564 0.992249H4.62633C3.50444 1.01129 2.43454 1.47436 1.64579 2.28225C0.852062 3.09546 0.399487 4.18774 0.382638 5.33084C0.375644 6.2368 0.649258 7.12193 1.16439 7.85919C1.67738 8.5949 2.4078 9.14678 3.25044 9.43535L8.52646 11.1948C8.86796 11.3006 9.16544 11.5188 9.37322 11.8158C9.58059 12.1128 9.68592 12.4719 9.67358 12.8363V12.9538C9.6681 13.6349 9.4005 14.287 8.92762 14.7715C8.4577 15.2531 7.81879 15.5271 7.15016 15.5338H2.33209C2.16611 15.5339 2.00181 15.5674 1.84869 15.6322C1.69557 15.6971 1.55668 15.792 1.44006 15.9116C1.20306 16.1545 1.0703 16.4823 1.07058 16.8238C1.07058 17.1662 1.20348 17.4944 1.44006 17.736C1.55668 17.8556 1.69557 17.9505 1.84869 18.0154C2.00181 18.0802 2.16611 18.1137 2.33209 18.1138H7.37893C8.71633 18.1005 9.99432 17.5525 10.9343 16.5893C11.88 15.6202 12.4152 14.316 12.4262 12.9538V12.8363C12.4508 11.8969 12.1723 10.9749 11.6329 10.2101C11.0964 9.44915 10.327 8.88803 9.44399 8.61436ZM97.6481 8.61436L92.3717 6.85535C92.0293 6.7487 91.7315 6.53015 91.5249 6.23388C91.3173 5.93608 91.212 5.57761 91.2249 5.21338C91.2198 4.99683 91.2579 4.78146 91.3368 4.58013C91.4158 4.37881 91.534 4.19568 91.6845 4.04168C91.8344 3.88851 92.0134 3.76778 92.2108 3.68679C92.4074 3.60609 92.6183 3.56697 92.8304 3.57183H97.1893C97.3553 3.57171 97.5196 3.53825 97.6727 3.4734C97.8258 3.40855 97.9647 3.3136 98.0813 3.19404C98.3183 2.95105 98.4511 2.62328 98.4508 2.28183C98.4512 1.94035 98.3184 1.61251 98.0813 1.36963C97.9647 1.25006 97.8258 1.15511 97.6727 1.09026C97.5196 1.02541 97.3553 0.991957 97.1893 0.991832H92.8304C91.7083 1.01094 90.6382 1.47433 89.8495 2.28266C89.056 3.09584 88.6036 4.18795 88.5867 5.33084C88.5797 6.2368 88.8533 7.12193 89.3685 7.85919C89.8813 8.59485 90.6116 9.14673 91.4541 9.43535L96.7306 11.1948C97.0721 11.3006 97.3695 11.5188 97.5773 11.8158C97.7847 12.1128 97.8904 12.4719 97.8773 12.8363V12.9538C97.872 13.6349 97.6045 14.287 97.1317 14.7715C96.6616 15.2531 96.0226 15.5271 95.3538 15.5338H90.5366C90.3706 15.5339 90.2063 15.5674 90.0532 15.6322C89.9001 15.6971 89.7612 15.792 89.6446 15.9116C89.4076 16.1545 89.2748 16.4823 89.2751 16.8238C89.2751 17.1662 89.408 17.4944 89.6446 17.736C89.7612 17.8556 89.9001 17.9505 90.0532 18.0154C90.2063 18.0802 90.3706 18.1137 90.5366 18.1138H95.3538C96.6914 18.1006 97.9695 17.5526 98.9096 16.5893C99.8551 15.6201 100.39 14.3159 100.401 12.9538V12.8363C100.519 11.9123 100.305 10.976 99.7987 10.198C99.2953 9.42354 98.531 8.86072 97.6481 8.61436ZM28.943 1.34339L23.093 7.32478C23.0084 7.38262 22.9086 7.41353 22.8064 7.41353C22.7043 7.41353 22.6045 7.38262 22.5199 7.32478L16.5555 1.34297C16.3782 1.12619 16.1286 0.982638 15.8539 0.939432C15.5792 0.896226 15.2983 0.956354 15.0644 1.10846C14.72 1.34297 14.376 1.69494 14.376 2.04691C14.3443 2.25594 14.3588 2.46947 14.4182 2.6722C14.4777 2.87492 14.5808 3.06181 14.72 3.21944L21.2579 9.90436C21.4019 10.0643 21.4834 10.273 21.4875 10.4904V17.0579C21.4863 17.4119 21.6151 17.7531 21.8492 18.0138C22.082 18.2741 22.4035 18.4354 22.749 18.4653H22.8638C23.0342 18.4839 23.2065 18.4633 23.3679 18.4049C23.5293 18.3466 23.6756 18.252 23.7958 18.1284C23.9167 18.0039 24.009 17.854 24.066 17.6892C24.1229 17.5245 24.1432 17.349 24.1253 17.1753V10.4908C24.1253 10.2563 24.2405 10.1393 24.3549 9.90478L30.8929 3.21944C31.122 2.96411 31.2455 2.62797 31.2368 2.28141C31.2459 2.09772 31.208 1.91487 31.1282 1.75075C31.0481 1.5866 30.9275 1.44614 30.7781 1.34297C30.6716 1.19761 30.5331 1.07938 30.3736 0.997664C30.1333 0.874536 29.8577 0.841704 29.5957 0.90501C29.3337 0.968316 29.1024 1.12365 28.943 1.34339ZM114.738 15.5338H110.609C109.991 15.5458 109.377 15.4344 108.802 15.2058C108.226 14.9772 107.701 14.636 107.256 14.2017C106.352 13.3194 105.826 12.1134 105.791 10.8428V8.37986C105.826 7.10926 106.352 5.90326 107.256 5.02094C107.701 4.58664 108.226 4.24543 108.802 4.01685C109.377 3.78828 109.991 3.67683 110.609 3.68888H114.624C114.79 3.68875 114.954 3.6553 115.107 3.59045C115.26 3.5256 115.399 3.43064 115.516 3.31108C115.753 3.0682 115.886 2.74036 115.885 2.39888C115.885 2.0569 115.752 1.72868 115.516 1.48667C115.399 1.36711 115.26 1.27216 115.107 1.20731C114.954 1.14246 114.79 1.109 114.624 1.10888H110.609C109.644 1.09032 108.684 1.26705 107.787 1.62871C106.888 1.99139 106.069 2.53125 105.378 3.21695C104.684 3.90521 104.131 4.72515 103.75 5.62991C103.368 6.53708 103.165 7.51126 103.154 8.49732V10.9603C103.165 11.9462 103.368 12.9202 103.75 13.8273C104.131 14.732 104.684 15.552 105.378 16.2402C106.069 16.9259 106.888 17.4658 107.787 17.8285C108.684 18.1901 109.644 18.3668 110.609 18.3483H114.624C114.958 18.345 115.277 18.208 115.512 17.9672C115.749 17.7249 115.883 17.3988 115.885 17.0583C115.885 16.3548 115.426 15.5338 114.738 15.5338Z" fill="black"/>
<path d="M109.692 8.14575C109.357 8.14575 109.036 8.28196 108.799 8.52355C108.562 8.7665 108.429 9.09429 108.43 9.43575C108.43 9.77814 108.563 10.1064 108.799 10.348C108.916 10.4676 109.055 10.5627 109.208 10.6276C109.361 10.6925 109.526 10.726 109.692 10.7262H111.642C111.808 10.726 111.972 10.6925 112.125 10.6275C112.278 10.5626 112.417 10.4676 112.534 10.348C112.771 10.1051 112.903 9.77723 112.903 9.43575C112.903 9.09378 112.77 8.76555 112.534 8.52355C112.417 8.40399 112.278 8.30903 112.125 8.24418C111.972 8.17933 111.808 8.14588 111.642 8.14575H109.692Z" fill="black"/>
</g>
</g>
<defs>
<clipPath id="clip0_949_12920">
<rect width="115.617" height="36.2383" fill="white" transform="translate(0.38269 0.874756)"/>
</clipPath>
</defs>
</svg>
