<?xml version="1.0" standalone="no"?>
<!DOCTYPE svg PUBLIC "-//W3C//DTD SVG 20010904//EN"
 "http://www.w3.org/TR/2001/REC-SVG-20010904/DTD/svg10.dtd">
<svg version="1.0" xmlns="http://www.w3.org/2000/svg"
 width="700.000000pt" height="700.000000pt" viewBox="0 0 700.000000 700.000000"
 preserveAspectRatio="xMidYMid meet">
<metadata>
Created by potrace 1.14, written by Peter Selinger 2001-2017
</metadata>
<g transform="translate(0.000000,700.000000) scale(0.100000,-0.100000)"
fill="#000000" stroke="none">
<path d="M2760 6479 c-1065 -76 -2017 -729 -2480 -1702 -137 -289 -226 -597
-266 -926 -21 -176 -15 -632 10 -791 74 -459 243 -886 494 -1250 205 -297 477
-569 772 -772 907 -622 2079 -696 3057 -193 164 84 360 211 506 328 131 104
350 323 454 453 587 736 796 1684 572 2599 -24 98 -28 109 -35 103 -3 -3 6
-50 20 -104 32 -127 63 -302 76 -433 13 -133 13 -449 0 -582 -59 -590 -300
-1163 -682 -1619 -400 -477 -940 -816 -1544 -971 -270 -69 -397 -83 -729 -84
-319 0 -411 9 -665 66 -735 166 -1396 622 -1815 1254 -243 366 -398 766 -467
1206 -19 125 -22 182 -22 439 0 257 3 314 22 439 129 825 579 1543 1262 2013
363 250 793 420 1243 489 190 30 561 37 757 15 367 -42 668 -130 995 -291 186
-92 382 -216 545 -345 135 -107 353 -325 460 -460 85 -107 254 -357 265 -391
4 -11 11 -19 17 -19 24 0 -144 259 -274 422 -45 57 -143 164 -218 239 -514
515 -1180 818 -1910 869 -163 11 -253 11 -420 -1z"/>
<path d="M2680 5444 c-609 -86 -1139 -421 -1446 -916 -367 -592 -376 -1378
-22 -1978 325 -552 892 -898 1572 -961 165 -15 542 -6 641 15 131 29 322 97
461 165 249 122 458 281 614 469 107 127 160 209 241 368 92 180 164 369 334
874 192 571 258 729 380 915 67 103 121 162 198 221 179 135 404 189 678 165
133 -12 471 -62 464 -69 -2 -2 -86 6 -187 19 -668 84 -962 -41 -1197 -509 -77
-153 -119 -265 -287 -765 -206 -614 -302 -843 -438 -1052 -239 -366 -613 -638
-1056 -769 -47 -14 -77 -25 -67 -25 33 -1 312 40 401 60 49 10 91 17 93 15 2
-2 -3 -21 -11 -41 -41 -97 0 -126 132 -91 187 50 490 266 508 362 9 48 -11 64
-79 64 l-49 0 70 70 c92 91 187 209 258 320 l56 90 30 -25 c16 -14 38 -25 49
-25 31 0 114 91 152 166 61 122 97 267 78 317 -12 32 -37 35 -101 12 l-42 -15
7 28 c4 15 31 133 61 262 56 239 101 424 110 449 3 9 18 -2 47 -33 24 -25 51
-46 60 -46 24 0 74 82 100 165 16 53 22 96 22 175 0 103 0 105 -23 103 -12 -2
-40 -14 -63 -29 -22 -14 -43 -23 -45 -21 -6 6 60 174 97 248 41 82 142 228
188 273 l40 39 6 -29 c19 -95 38 -106 142 -81 118 29 323 146 331 191 2 11
-11 30 -34 50 l-39 33 30 7 c84 17 238 26 503 27 160 1 292 3 292 5 0 3 -25
20 -56 40 -115 74 -282 130 -494 166 -171 30 -549 32 -683 5 -207 -42 -367
-113 -528 -234 -230 -173 -419 -424 -654 -873 -258 -489 -297 -562 -350 -650
-149 -247 -327 -450 -488 -559 -263 -177 -550 -242 -866 -195 -602 88 -1009
611 -951 1223 38 402 246 722 583 897 178 92 330 128 537 127 351 -2 649 -134
897 -397 l88 -94 290 287 c160 157 291 291 293 297 5 18 -172 198 -263 270
-258 201 -593 348 -950 415 -146 28 -509 35 -665 13z m3430 -883 c0 -23 -171
-115 -236 -127 l-39 -7 20 23 c50 56 255 145 255 111z m-644 -826 c-28 -90
-56 -129 -56 -79 0 35 31 144 56 199 l18 40 4 -39 c2 -23 -7 -72 -22 -121z
m-261 -957 c-16 -90 -80 -232 -124 -272 -26 -24 -27 -11 -5 65 32 107 103 249
126 249 6 0 7 -16 3 -42z m-615 -927 c0 -44 -369 -265 -397 -237 -23 22 182
168 314 222 62 25 83 29 83 15z"/>
</g>
</svg>
