<?xml version="1.0" encoding="utf-8"?>
<!-- Generator: Adobe Illustrator 23.0.3, SVG Export Plug-In . SVG Version: 6.00 Build 0)  -->
<svg version="1.1" xmlns="http://www.w3.org/2000/svg" xmlns:xlink="http://www.w3.org/1999/xlink" x="0px" y="0px"
	 viewBox="0 0 1600 1200" style="enable-background:new 0 0 1600 1200;" xml:space="preserve">
<style type="text/css">
	.st0{fill:#E8E8E8;}
	.st1{fill:#EC615B;}
	.st2{fill:#5222D0;}
	.st3{fill:#FFFFFF;stroke:#000000;stroke-width:3;stroke-miterlimit:10;}
	.st4{fill:#161616;}
	.st5{fill:#FFFFFF;}
	.st6{opacity:0.18;fill:#828282;}
	.st7{opacity:0.15;fill:#828282;}
	.st8{opacity:0.19;fill:#828282;}
	.st9{opacity:0.13;fill:#828282;}
</style>
<g id="background">
	<g>
		<g>
			<path class="st0" d="M530.4,1112.3c-17.9-7.9-30.6-25-32.7-44.5c-0.5,0.5-1,1-1.5,1.5c5.4,0.5,10.2,2.2,14.7,5.3
				c1.4,1,3-1.2,1.8-2.4c-4.6-4.8-8.1-10.3-10.1-16.7c-0.9-2.9-1.5-5.9-1.7-8.9c-0.1-1.8,0.2-3.8-0.3-5.5c-0.9-3-3.7-6.3-5.3-9.1
				c-1.7-3-3.4-6.1-5.1-9.2c-3.2-5.9-6.3-11.8-9.3-17.8c-11.6-22.9-27.7-50.8-20-77.2c-0.7,0.3-1.5,0.6-2.2,0.9
				c23.9,13.6,37.7,38.8,51.5,61.6c15.8,26,30.9,52.4,45.3,79.1c0.9,1.7,3.5,0.2,2.6-1.5c-15.1-27.9-30.8-55.3-47.3-82.4
				c-13.5-22.2-27.3-46.1-50.6-59.3c-0.9-0.5-1.9,0-2.2,0.9c-7.7,26.5,7.5,53.9,19,77c3.3,6.6,6.6,13,10.1,19.5
				c1.7,3.1,3.4,6.1,5.1,9.2c1.9,3.3,4.8,7,5.5,10.7c1,6,1.1,11.4,3.5,17.2c2.2,5.1,5.3,9.6,9.2,13.6c0.6-0.8,1.2-1.6,1.8-2.4
				c-5-3.3-10.3-5.2-16.2-5.7c-0.7-0.1-1.6,0.7-1.5,1.5c2.2,20.5,15.2,38.7,34.2,47.1C530.6,1115.7,532.1,1113.1,530.4,1112.3
				L530.4,1112.3z"/>
		</g>
	</g>
	<g>
		<g>
			<path class="st0" d="M538.6,1027.7c-3.3-5.1-5.9-10.5-7.5-16.4c-0.7-2.8-1.6-5.9-1.5-8.8c0-1.6,0.1-3.9,1-5.2
				c1.5-2.4,5.5-3.9,7.1-0.5c0.7,1.6,3.2,0.4,2.7-1.2c-5.4-19.8-10.9-40.4-9.1-61.1c0.4-4.1,0.5-12.3,3.4-15.7
				c4.2-5,11,4.8,12.9,7.6c5,7.4,7.9,16.1,11.2,24.3c15.3,38.2,29.6,76.8,43,115.7c0.6,1.8,3.5,1,2.9-0.8
				c-12.3-35.9-25.5-71.4-39.4-106.7c-5.3-13.5-9.7-30.4-20.7-40.7c-3.2-3-7.9-6.4-11.6-2.3c-4.4,4.7-4.5,14.3-4.8,20.4
				c-1.3,20.4,4.1,40.6,9.3,60.1c0.9-0.4,1.8-0.8,2.7-1.2c-3.2-6.7-11.7-2.7-13.2,3c-2.6,10,3.7,22.8,9,30.9
				C537,1030.8,539.6,1029.3,538.6,1027.7L538.6,1027.7z"/>
		</g>
	</g>
	<g>
		<g>
			<path class="st0" d="M599.8,1042.1c0.2-2.5-0.1-5,0-7.6c0.1-4.2,2-13.5,9.3-6c3,3.2,4.8,9.6,6.3,13.6c3.3,9.1,5.2,18.7,5.6,28.4
				c0.1,1.9,3.1,1.9,3,0c-0.7-14.6-4.1-31.1-12.3-43.5c-2.4-3.6-6.4-6.2-10.5-3.3c-6,4.3-3.8,12.1-4.3,18.3
				C596.6,1044,599.6,1044,599.8,1042.1L599.8,1042.1z"/>
		</g>
	</g>
	<g>
		<g>
			<path class="st0" d="M1069.6,1087.6c-4.3-10.8-5.9-22.3-4.6-33.8c0.6-5.6,2-11.2,4-16.5c1.2-3.3,2.8-8.9,7.2-6.7
				c2.7,1.3,4.5,7.5,5.2,10c0.4,1.7,2.8,1.2,2.9-0.4c1-15.3,3.4-30.4,7.1-45.2c1.8-7.2,3.9-14.3,6.4-21.2
				c1.6-4.6,6.6-23.2,14.9-16.6c1.5,1.2,3.6-0.9,2.1-2.1c-13.5-10.8-20.6,19.4-22.8,26.7c-5.9,19-9.4,38.6-10.7,58.5
				c1-0.1,2-0.3,2.9-0.4c-1.1-4.2-4.9-14.6-10.7-14.1c-5.3,0.4-7.5,10.8-8.7,14.7c-4.9,15.7-4.1,32.7,2,48
				C1067.4,1090.2,1070.3,1089.4,1069.6,1087.6L1069.6,1087.6z"/>
		</g>
	</g>
	<g>
		<g>
			<path class="st0" d="M1114.2,967.4c0.8-7.6,3-14.9,6.6-21.6c3.2-5.9,8.4-14.3,15.2-16.6c7.5-2.5,6.2,7.5,5.9,11.6
				c-0.2,3.8-0.6,7.5-1.1,11.3c-1.1,9-2.8,18-4.4,26.9c-6.1,34.4-12.1,68.8-18.2,103.2c-0.3,1.9,2.6,2.7,2.9,0.8
				c5.9-33.4,11.8-66.9,17.7-100.3c2.7-15.4,5.9-31,6.3-46.7c0.1-3.8-0.2-8.4-4.4-9.9c-4.2-1.6-8.9,1.4-11.8,4.1
				c-10.3,9.5-16.3,23.4-17.7,37.1C1111,969.3,1114,969.3,1114.2,967.4L1114.2,967.4z"/>
		</g>
	</g>
	<g>
		<g>
			<path class="st0" d="M1131.1,1037.9c2.3-6.7,6.3-17.4,15.4-16c7.6,1.2,7.7,10.4,7.1,16.3c-1.5,14.4-5.5,28.8-10.3,42.5
				c-0.6,1.8,2.3,2.6,2.9,0.8c3.6-10.3,6.5-20.8,8.5-31.5c1.4-7.4,3.7-16.5,0.8-23.9c-2.2-5.6-7.7-8.5-13.5-6.9
				c-8.1,2.3-11.4,10.7-13.8,17.9C1127.6,1038.9,1130.5,1039.7,1131.1,1037.9L1131.1,1037.9z"/>
		</g>
	</g>
	<g>
		<g>
			<path class="st0" d="M173.4,259.8c21.7,15.8,37.7,38.9,44.5,64.9c7.5,28.5,3.4,59.4-10.7,85.2c-0.9,1.7,1.7,3.2,2.6,1.5
				c14.4-26.6,18.7-58.2,11-87.5c-7-26.8-23.6-50.4-45.9-66.7C173.4,256.1,171.9,258.7,173.4,259.8L173.4,259.8z"/>
		</g>
	</g>
	<g>
		<g>
			<path class="st0" d="M247.5,444.7c18.3-10,41.1-11.1,59.9-1.7c16.7,8.3,29.1,23.7,33.9,41.6c0.5,1.9,3.4,1.1,2.9-0.8
				c-5.2-19.1-18.6-35.6-36.6-44.1c-19.6-9.1-42.7-8-61.6,2.4C244.3,443.1,245.8,445.7,247.5,444.7L247.5,444.7z"/>
		</g>
	</g>
	<g>
		<g>
			<path class="st0" d="M199.6,191.2c10.7,6.6,23.5,1.3,32.8-5.4c10.4-7.5,19.5-17.1,27-27.5c15.5-21.4,24.2-47.3,24.7-73.8
				c0-1.9-3-1.9-3,0c-0.4,23.8-7.7,47.2-20.7,67.1c-6.4,9.8-14.2,18.8-23.1,26.4c-9.3,8-23.7,18.1-36.1,10.5
				C199.4,187.6,197.9,190.2,199.6,191.2L199.6,191.2z"/>
		</g>
	</g>
	<g>
		<g>
			<path class="st0" d="M504.4,56.7c4.7,18,22.4,30.8,41.1,29.4c1.9-0.1,1.9-3.1,0-3c-17.3,1.3-33.7-10.4-38.2-27.2
				C506.8,54,503.9,54.8,504.4,56.7L504.4,56.7z"/>
		</g>
	</g>
	<g>
		<g>
			<path class="st0" d="M626.4,118.6c-32.6,36.5-38.1,93.3-13,135.3c1,1.7,3.6,0.1,2.6-1.5c-24.4-40.8-19.2-96.1,12.5-131.6
				C629.9,119.3,627.7,117.1,626.4,118.6L626.4,118.6z"/>
		</g>
	</g>
	<g>
		<g>
			<path class="st0" d="M1276.8,50.5c-10,22.1-17.4,46.3-15.4,70.8c1.7,20.4,9.9,40.3,25.2,54.2c1.4,1.3,3.6-0.8,2.1-2.1
				c-34.9-31.6-26.8-83-9.4-121.4C1280.2,50.2,1277.6,48.7,1276.8,50.5L1276.8,50.5z"/>
		</g>
	</g>
	<g>
		<g>
			<path class="st0" d="M1263,352.4c-5.2-19.2,3.1-39.2,16.4-53.1c13.7-14.4,31.9-23.4,49.6-32.2c1.7-0.9,0.2-3.4-1.5-2.6
				c-19.1,9.5-39.3,19.5-53.3,36.2c-12.1,14.5-19.1,33.8-14,52.5C1260.6,355.1,1263.5,354.3,1263,352.4L1263,352.4z"/>
		</g>
	</g>
	<g>
		<g>
			<path class="st0" d="M899.8,123.1c20.9,15.3,47.7,5.9,66.3-8.3c20.1-15.5,38.3-35.9,47-60c0.7-1.8-2.2-2.6-2.9-0.8
				c-8.1,22.4-24.6,41-42.8,56c-18.1,14.9-44.8,26.2-66.1,10.6C899.8,119.4,898.3,122,899.8,123.1L899.8,123.1z"/>
		</g>
	</g>
	<g>
		<g>
			<path class="st0" d="M1034.1,338.7c8.4,5.5,15,12.9,19.7,21.7c0.9,1.7,3.5,0.2,2.6-1.5c-4.9-9.3-12-17-20.8-22.8
				C1034,335,1032.5,337.6,1034.1,338.7L1034.1,338.7z"/>
		</g>
	</g>
	<g>
		<g>
			<path class="st0" d="M1073,360.2c5.7-11.2,9.7-23.1,11.9-35.6c0.3-1.9-2.6-2.7-2.9-0.8c-2.1,12.2-5.9,23.8-11.6,34.9
				C1069.5,360.4,1072.1,361.9,1073,360.2L1073,360.2z"/>
		</g>
	</g>
	<g>
		<g>
			<path class="st0" d="M1124.7,348.9c12.5-11,24.9-22.1,37.4-33.1c1.4-1.3-0.7-3.4-2.1-2.1c-12.5,11-24.9,22.1-37.4,33.1
				C1121.1,348.1,1123.2,350.2,1124.7,348.9L1124.7,348.9z"/>
		</g>
	</g>
	<g>
		<g>
			<path class="st0" d="M324.7,1121.2c-4.3-6.1-9.1-12.1-12.7-18.7c-1.9-3.5-4-8.8-1-12.3c2-2.3,7.4-4.1,8.9-0.2
				c0.7,1.8,3.5,1.1,2.9-0.8c-5.5-18.1-11.5-36.3-15.6-54.8c-2.2-9.8-3.4-20.1-0.9-29.9c1.3-5.2,4.1-12.1,10.7-8.4
				c3.5,2,6.7,5.2,9.2,8.3c11.2,13.5,16.3,32,22.7,48.1c7.2,18.2,14.5,36.3,21.7,54.5c0.7,1.8,3.6,1,2.9-0.8
				c-6.7-17-13.5-33.9-20.2-50.9c-5.8-14.6-10.8-30.2-18.6-43.9c-3.8-6.6-15.8-24.8-25.3-18.4c-4.8,3.3-6.2,10.6-6.9,15.9
				c-1,7.5-0.3,15.2,1.2,22.6c3.8,19.8,10.5,39.2,16.4,58.5c1-0.3,1.9-0.5,2.9-0.8c-2.5-6.7-12.1-5.1-15.1,0.5
				c-2.3,4.3-0.8,9.5,1.3,13.6c3.5,6.8,8.7,13.1,13.1,19.4C323.2,1124.3,325.8,1122.8,324.7,1121.2L324.7,1121.2z"/>
		</g>
	</g>
	<g>
		<g>
			<path class="st0" d="M362.7,1077.9c-2.3-2.7-0.5-6.4,2-8.2c2.9-2.1,6.4-1.3,9.2,0.4c4.7,2.9,7.6,8.3,9.8,13.2
				c4,9,6.5,18.5,12.5,26.5c1.1,1.5,3.8,0,2.6-1.5c-9-12-9.7-31.6-22.7-40.4c-4.4-3-10.2-3.7-14.2,0.2c-3.4,3.3-4.3,8.2-1.2,11.9
				C361.9,1081.5,364,1079.4,362.7,1077.9L362.7,1077.9z"/>
		</g>
	</g>
	<g>
		<g>
			<path class="st0" d="M1240.2,1090.3c-0.1-8.9-0.1-17.8-0.1-26.7c0-3.4-0.8-8.6,0.6-11.9c3.8-9.1,10.4,1.2,12,5.3
				c0.6,1.5,2.9,1.4,2.9-0.4c0.1-17.1,2.5-34.1,7.3-50.6c2.3-7.9,5.1-15.6,8.4-23.1c1.7-3.8,3.5-7.5,5.4-11.2
				c1.6-3.1,7.2-15.3,11.9-7c1.8,3.1,1.8,8.4,2.4,11.8c0.7,4.1,1.4,8.3,2,12.4c1.3,9.1,2.3,18.3,3,27.5c1.3,18,1.4,36.1,0.2,54.1
				c1,0,2,0,3,0c-0.2-6-0.6-13,2.8-18.3c3.2-5,11.9-8.2,15.7-1.9c2.7,4.6,1.6,11.7,1.6,16.8c0,7,0,13.9,0,20.9c0,1.9,3,1.9,3,0
				c0-10.2,0.5-20.4,0-30.6c-0.3-5.3-1.8-11.3-7.5-13.1c-5.2-1.7-11.2,1.1-14.4,5.1c-4.6,5.9-4.4,14.1-4.1,21.1c0.1,1.9,2.9,1.9,3,0
				c2-33,0.1-66.1-6-98.5c-0.8-4-1-10.8-5.4-12.8c-4.3-1.9-8.2,1.9-10.4,5.2c-8.2,12.3-13.6,27.6-17.7,41.7
				c-4.7,16.4-7,33.4-7.2,50.5c1-0.1,2-0.3,2.9-0.4c-2.3-5.8-11.3-17.3-16.9-7.5c-2.7,4.7-1.6,11.7-1.6,16.8c0,8.2,0,16.5,0.1,24.7
				C1237.2,1092.2,1240.2,1092.2,1240.2,1090.3L1240.2,1090.3z"/>
		</g>
	</g>
	<g>
		<g>
			<path class="st0" d="M1223.8,607c-2.6-5,2.1-10,6.8-11.5c5.1-1.6,10.4,1,14.5,3.8c6.6,4.4,12.3,10.4,20.3,12.3
				c6.2,1.5,12.2-0.1,16.1-5.3c2.1-2.9,3.4-6.3,5.4-9.2c3.4-4.9,8.6-6,14.2-4.2c13.7,4.4,23.8,24,40,14.9
				c7.3-4.1,12.1-11.3,19.2-15.8c7-4.4,16.1-7.7,24.3-5c8.1,2.7,11.5,11.8,20.6,12.8c6.8,0.7,13.3-2.4,16.9-8.1
				c1-1.6-1.6-3.1-2.6-1.5c-2.4,3.8-6.4,6.2-10.9,6.6c-5.4,0.6-9.2-1.8-12.9-5.5c-5.3-5.3-10.9-8.6-18.6-8.2
				c-7.5,0.4-14.7,3.7-20.7,8c-6.9,4.9-12.5,14.1-21.2,15.9c-16.8,3.4-26.4-24-44.2-17c-7.9,3.1-8.1,12.7-14.4,17.2
				c-9.2,6.7-20.2-3.3-27.2-8.6c-6.2-4.6-14-8.9-21.6-5.1c-5.7,2.8-9.6,8.9-6.4,15C1222.1,610.3,1224.7,608.8,1223.8,607L1223.8,607
				z"/>
		</g>
	</g>
	<g>
		<g>
			<path class="st0" d="M1340.5,656c6.9-12.9,23.9-18.2,37.4-13c7.5,2.9,10.7,9.3,16.6,14.1c5.4,4.3,12,4.3,18.1,1.4
				c7.6-3.6,12.7-10,18.4-15.9c6.3-6.5,16.3-14.6,25.6-8.7c8.4,5.3,14.5,22.1,27,15.9c7.2-3.6,10-12.8,18.4-14.6
				c10.8-2.3,21.3,7.3,28,14.5c1.3,1.4,3.4-0.7,2.1-2.1c-9.5-10.2-26.2-22.6-39.2-10.8c-5.4,4.9-10.9,15.1-19.5,9.6
				c-5.8-3.7-8.8-10.5-14.4-14.5c-15.7-11.2-29.2,9.2-39.3,18.1c-3.6,3.2-8,6.3-12.9,7.3c-6.4,1.2-10.7-2.5-14.5-7
				c-4.7-5.4-9.8-9.5-16.9-11.3c-14.2-3.5-30.4,2.3-37.4,15.4C1337,656.2,1339.6,657.7,1340.5,656L1340.5,656z"/>
		</g>
	</g>
	<g>
		<g>
			<path class="st0" d="M136.5,638.8c0.6-7.9,10.8-10.1,17.1-7.7c7.5,2.9,12.3,10.4,17.5,16.1c2.9,3.2,6.9,6.9,11.3,3.6
				c4.5-3.5,4.7-10.3,7.6-14.8c4-6.2,11.3-10.1,18.6-10.4c7.7-0.3,13.8,4.1,20,8.2c4.9,3.1,10.6,6.9,16.7,5.9
				c5.5-0.9,8.7-5.2,11.1-9.8c2.2-4.1,4.1-8.3,8.2-10.8c3.8-2.3,8.3-3.1,12.7-2.9c10.2,0.6,18.8,7.3,26.6,13.1
				c1.5,1.2,3-1.4,1.5-2.6c-11.5-8.7-27.1-18.9-41.7-10.6c-6.9,3.9-8,11.4-12.9,17c-7,8-16.6,0.8-23.3-3.6c-5.9-3.8-11.7-7.2-19-6.9
				c-6,0.2-11.8,2.5-16.3,6.4c-2.4,2-4.4,4.4-5.8,7.2c-1.7,3.2-2.2,6.9-4.1,10c-3.7,6-8.2,0.1-11.2-3.3c-2.8-3.3-5.6-6.7-8.8-9.6
				c-5.1-4.4-11.1-7-17.9-5.6c-5.8,1.2-10.5,5.1-11,11.2C133.3,640.7,136.3,640.7,136.5,638.8L136.5,638.8z"/>
		</g>
	</g>
	<g>
		<g>
			<path class="st0" d="M310.6,596.1c0.1-9,11.8-14.5,18.6-8.2c5.1,4.8,6.4,12.5,12.5,16.5c3.6,2.4,10.5,4.1,13.4-0.4
				c1.5-2.3,1.5-5.5,3.3-8c2.5-3.5,6-6.2,10-7.7c8.9-3.6,16.2,0,23.4,5.3c5.3,3.8,10.8,7.4,17.6,6.4c4.8-0.7,8.6-3.6,9.5-8.6
				c0.7-4.3-0.1-8.4,3.1-12c2.3-2.6,5.7-4.1,9-4.8c18.2-4.2,32,12.9,49.4,14.8c1.9,0.2,1.9-2.8,0-3c-16.8-1.8-29.2-17.2-46.8-15.2
				c-5.4,0.6-11,2.7-14.4,7.1c-1.6,2-2.4,4.3-2.8,6.9c-0.4,2.6,0.3,5.7-1,8.1c-1.4,2.6-4.3,3.7-7,3.9c-9.5,0.9-15.8-8.3-23.9-11.7
				c-5.5-2.3-11.8-2-17.3,0.2c-5.7,2.4-10.7,6.8-13.2,12.5c-0.8,1.9-1.1,4.7-3.4,5.6c-2.2,0.9-5.4-0.6-7.2-1.8
				c-4.1-2.7-5.8-7.5-8.3-11.5c-3.6-5.7-8.9-9.6-15.9-7.9c-6.4,1.6-11.3,7-11.3,13.6C307.6,598,310.6,598,310.6,596.1L310.6,596.1z"
				/>
		</g>
	</g>
	<circle class="st1" cx="545.5" cy="577.5" r="5"/>
	<circle class="st1" cx="1160.2" cy="528.4" r="6.1"/>
	<circle class="st1" cx="966.8" cy="693.2" r="10.7"/>
	<circle class="st1" cx="956.6" cy="80.8" r="10.2"/>
	<circle class="st1" cx="136.2" cy="166.4" r="8.1"/>
	<circle class="st2" cx="105.1" cy="210.1" r="6.3"/>
	<circle class="st2" cx="607" cy="694.4" r="8.7"/>
	<circle class="st2" cx="1106.2" cy="541" r="6.5"/>
	<circle class="st2" cx="1340.2" cy="371.6" r="12"/>
</g>
<g id="sign_left">
	<path class="st3" d="M1135.7,630.5c-7.8,9.3-15.6,19.5-23.3,30.8c-24.8,36.5-40,72.2-49.6,102.2c15.4,19.2,33.5,39.6,54.8,60.1
		c44.5,42.7,89.3,72.8,127,93.9c10.9-27.1,21.9-54.1,33.1-81.1c9.9-24.1,19.9-48.1,30.1-72.1C1250.4,719.6,1193.1,675,1135.7,630.5z
		"/>
	<path class="st3" d="M1101.3,713.7c13.8,31.4,27.6,62.8,41.4,94.2c7.6-10.4,15.3-20.8,22.9-31.2c26.9,23.8,53.9,47.5,80.8,71.3
		c6.2-17.1,12.5-34.3,18.7-51.4c-28.1-14.2-56.1-28.5-84.2-42.7c5.9-12.5,11.9-25,17.8-37.5C1166.2,715.4,1133.8,714.5,1101.3,713.7
		z"/>
	<g>
		<g>
			<path d="M1072.5,777.3c-4.3,2-6,8-3.1,11.8c2.9,3.8,9.2,3.7,12.2,0c1.2-1.5-0.9-3.6-2.1-2.1c-1.8,2.3-5.8,2.8-7.7,0.3
				c-1.9-2.5-0.5-6.2,2.2-7.4C1075.7,779.1,1074.2,776.5,1072.5,777.3L1072.5,777.3z"/>
		</g>
	</g>
	<g>
		<g>
			<path d="M1087.8,794.9c-4.5,1.5-6,7.1-3.6,11c2.9,4.8,9.8,4.5,13.8,1.5c1.5-1.1,0-3.7-1.5-2.6c-2.6,1.9-7,2.8-9.4,0
				c-1.7-2.1-1.3-6.1,1.5-7C1090.4,797.2,1089.6,794.3,1087.8,794.9L1087.8,794.9z"/>
		</g>
	</g>
	<g>
		<g>
			<path d="M1103.8,812.6c-2.8,4.1-2.3,10.1,1.5,13.4c3.8,3.4,9.5,3,13.3,0c1.5-1.2-0.6-3.3-2.1-2.1c-2.7,2.2-7.1,2.1-9.6-0.4
				c-2.5-2.6-2.5-6.5-0.5-9.4C1107.5,812.5,1104.9,811,1103.8,812.6L1103.8,812.6z"/>
		</g>
	</g>
	<g>
		<g>
			<path d="M1125.9,831.1c-5.5,2-5.5,8.8-2.3,12.9c4,5.2,11.4,5.3,16.1,0.9c1.4-1.3-0.7-3.5-2.1-2.1c-3,2.8-7.6,3.3-10.7,0.4
				c-2.2-2.1-4.1-7.7-0.1-9.1C1128.5,833.4,1127.7,830.5,1125.9,831.1L1125.9,831.1z"/>
		</g>
	</g>
	<g>
		<g>
			<path d="M1146.7,852c-4.1,4-4.1,11.4,0.5,15.1c4.6,3.6,11.5,2.1,14.6-2.6c1.1-1.6-1.5-3.1-2.6-1.5c-2.1,3.1-6.9,4.2-10,1.9
				c-3.5-2.5-3.3-7.9-0.4-10.8C1150.2,852.7,1148.1,850.6,1146.7,852L1146.7,852z"/>
		</g>
	</g>
	<g>
		<g>
			<path d="M1167.1,869.1c-3.1,4.1-2.9,10.3,0.8,14c3.7,3.7,9.9,3.9,14,0.8c1.5-1.1,0-3.8-1.5-2.6c-3,2.3-7.6,2.5-10.4-0.4
				c-2.8-2.8-2.6-7.4-0.3-10.4C1170.8,869.1,1168.2,867.6,1167.1,869.1L1167.1,869.1z"/>
		</g>
	</g>
	<g>
		<g>
			<path d="M1195.5,888.7c-4.1,3.5-4.3,10.6-0.1,14.2c4.3,3.6,10.9,2.1,13.8-2.4c1-1.6-1.6-3.1-2.6-1.5c-2,3.1-6.8,4-9.6,1.4
				c-2.8-2.6-2.2-7.2,0.5-9.5C1199.1,889.6,1197,887.5,1195.5,888.7L1195.5,888.7z"/>
		</g>
	</g>
	<g>
		<g>
			<path d="M1215.2,901.5c-2.8,4.9-2.8,12.4,2.6,15.6c4.4,2.5,10.6,0.8,12.3-4.1c0.6-1.8-2.3-2.6-2.9-0.8c-1.2,3.3-5.9,3.9-8.4,2
				c-3.4-2.6-2.9-7.8-1-11.1C1218.8,901.3,1216.2,899.8,1215.2,901.5L1215.2,901.5z"/>
		</g>
	</g>
	<g>
		<g>
			<path d="M1251.9,902.6c2.9-3,6.9,0.5,6.2,4c-0.9,4.4-5.7,5.5-9.5,4.7c-1.9-0.4-2.7,2.5-0.8,2.9c6.1,1.3,13.7-1.7,13.4-9
				c-0.2-5.6-7.4-9-11.5-4.7C1248.4,901.9,1250.6,904,1251.9,902.6L1251.9,902.6z"/>
		</g>
	</g>
	<g>
		<g>
			<path d="M1261.8,876.2c3.7,0.2,6.9,4.6,5.1,8.1c-1.5,2.9-5.5,3.9-8.3,2.4c-1.7-0.9-3.2,1.6-1.5,2.6c4.5,2.5,10.9,0.6,12.8-4.4
				c2.1-5.5-2.5-11.4-8.1-11.7C1259.9,873,1259.9,876,1261.8,876.2L1261.8,876.2z"/>
		</g>
	</g>
	<g>
		<g>
			<path d="M1269.3,858.3c3.4-2.1,6.8,1.5,5.8,5c-1.2,4.1-5.8,4.9-9.4,3.8c-1.8-0.6-2.6,2.3-0.8,2.9c5.7,1.8,12.9-0.9,13.3-7.6
				c0.4-5.5-5.6-9.7-10.5-6.7C1266.1,856.7,1267.6,859.3,1269.3,858.3L1269.3,858.3z"/>
		</g>
	</g>
	<g>
		<g>
			<path d="M1277.6,837.5c3.2-2.3,6.7,1.1,6,4.6c-1,4.3-5.7,5.6-9.6,4.9c-1.9-0.3-2.7,2.6-0.8,2.9c6,1,13.3-1.7,13.5-8.7
				c0.2-5.4-5.9-9.6-10.6-6.3C1274.6,836,1276,838.6,1277.6,837.5L1277.6,837.5z"/>
		</g>
	</g>
	<g>
		<g>
			<path d="M1286,815.9c3.9-0.6,8.1,3.8,6.2,7.7c-1.4,2.9-5.4,4.1-8.2,2.5c-1.7-1-3.2,1.6-1.5,2.6c4.7,2.6,11.4,0.3,12.9-5.1
				c1.7-6.1-4.4-11.5-10.2-10.6C1283.3,813.3,1284.1,816.2,1286,815.9L1286,815.9z"/>
		</g>
	</g>
	<g>
		<g>
			<path d="M1294.9,795.6c3-2.3,6.4,0.8,5.7,4.1c-0.9,3.9-5.1,5.1-8.6,4.5c-1.9-0.3-2.7,2.6-0.8,2.9c5.6,0.9,12.3-1.7,12.5-8.2
				c0.2-5.2-5.9-9.3-10.3-5.9C1291.9,794.2,1293.4,796.8,1294.9,795.6L1294.9,795.6z"/>
		</g>
	</g>
	<g>
		<g>
			<path d="M1304.2,776.6c2.5-2.4,6.3-0.3,6.1,3c-0.2,3.6-3.9,4.9-6.9,3.8c-1.8-0.7-2.6,2.2-0.8,2.9c5.2,1.9,11.3-1.8,10.7-7.7
				c-0.6-5.5-7.2-8-11.2-4.1C1300.7,775.9,1302.8,778,1304.2,776.6L1304.2,776.6z"/>
		</g>
	</g>
	<g>
		<g>
			<path d="M1066.1,752.2c-3.3-1.1-6.3-3.8-6-7.5c0.3-3.7,4.6-5.9,7.3-2.9c1.3,1.4,3.4-0.7,2.1-2.1c-3.6-4-10.1-2.4-11.9,2.5
				c-2.2,5.9,2.3,11.1,7.7,12.9C1067.1,755.7,1067.9,752.8,1066.1,752.2L1066.1,752.2z"/>
		</g>
	</g>
	<g>
		<g>
			<path d="M1074.9,731c-3.9-0.1-8-3.2-6.9-7.5c1-3.9,6.3-4.9,8.1-1c0.8,1.7,3.4,0.2,2.6-1.5c-2.6-5.6-10.7-5-13.1,0.5
				c-2.9,6.6,2.9,12.4,9.3,12.6C1076.8,734,1076.8,731,1074.9,731L1074.9,731z"/>
		</g>
	</g>
	<g>
		<g>
			<path d="M1082.9,710.8c-4-0.1-5.5-5-5.3-8.3c0.1-1.8,0.8-3.8,2.3-5c1.8-1.4,5.2-0.5,5,2.2c-0.2,1.9,2.8,1.9,3,0
				c0.3-3-2.1-5.3-4.9-5.8c-3.3-0.6-6,1.5-7.4,4.3c-2.6,5.7-0.1,15.4,7.3,15.5C1084.8,713.9,1084.8,710.9,1082.9,710.8L1082.9,710.8
				z"/>
		</g>
	</g>
	<g>
		<g>
			<path d="M1095.1,689.8c-3.5-1.4-5.6-5.1-5.1-8.8c0.6-4.7,7.2-8.5,9.8-2.9c0.8,1.8,3.4,0.2,2.6-1.5c-3-6.6-11.8-4.7-14.5,1.1
				c-2.8,5.9,0.7,12.8,6.5,15C1096.1,693.4,1096.9,690.5,1095.1,689.8L1095.1,689.8z"/>
		</g>
	</g>
	<g>
		<g>
			<path d="M1107.4,668.3c-3.2-2.4-6.3-6.3-5.1-10.6c0.5-1.7,1.7-3.5,3.5-4c2.7-0.8,5.4,1.5,5.1,4.2c-0.2,1.9,2.8,1.9,3,0
				c0.5-6.8-8.2-9.5-12.5-4.8c-5.4,6-0.9,13.7,4.4,17.8C1107.4,672,1108.9,669.4,1107.4,668.3L1107.4,668.3z"/>
		</g>
	</g>
	<g>
		<g>
			<path d="M1119.2,647.5c-2.7,0.6-3.5-3.5-3.4-5.3c0.1-1.8,0.8-3.7,2-5.1c2.4-2.9,7.7-3,9.2,1c0.7,1.8,3.6,1,2.9-0.8
				c-2.4-6.5-11-6.8-14.9-1.5c-3.3,4.5-3.1,16.3,5,14.7C1121.9,650,1121.1,647.1,1119.2,647.5L1119.2,647.5z"/>
		</g>
	</g>
	<g>
		<g>
			<path d="M1149.2,638.5c-1.6-3.9,1.2-8.5,5.7-7.5c4.4,1,5.4,6.7,1.8,9.3c-1.5,1.1-0.1,3.7,1.5,2.6c5.4-3.9,4.7-12.5-1.9-14.6
				c-6.6-2.1-12.6,4.7-9.9,11C1147.1,641.1,1150,640.3,1149.2,638.5L1149.2,638.5z"/>
		</g>
	</g>
	<g>
		<g>
			<path d="M1166,651.4c-1.4-1,0.3-3.3,1.2-4c1.5-1.1,3.8-1.5,5.6-0.9c3,1,4.5,6,0.9,7.4c-1.8,0.7-1,3.6,0.8,2.9
				c6.5-2.5,5-11.9-1.5-13.4c-3.2-0.7-7,0.3-9.1,2.9c-1.8,2.4-2.2,5.8,0.5,7.6C1166.1,655.1,1167.6,652.5,1166,651.4L1166,651.4z"/>
		</g>
	</g>
	<g>
		<g>
			<path d="M1188,670.3c-1.8-1.2-0.5-3.4,0.9-4.2c1.6-0.8,3.8-0.7,5.4-0.2c1.6,0.5,3.3,1.5,3.8,3.2c0.5,1.6-0.1,3.7-1.9,4.2
				c-1.8,0.6-1,3.5,0.8,2.9c2.9-0.9,4.5-3.7,4.2-6.7c-0.4-3.5-3.6-5.9-6.8-6.6c-3.1-0.7-7.2-0.3-9.2,2.5c-1.8,2.4-1.3,5.9,1.2,7.5
				C1188.1,674,1189.6,671.4,1188,670.3L1188,670.3z"/>
		</g>
	</g>
	<g>
		<g>
			<path d="M1215.4,690.3c-1.6-1.1,0-3.6,1.1-4.4c1.4-1,3.4-1.3,5-0.7c3.7,1.3,4.1,6.3,1.5,8.8c-1.4,1.3,0.7,3.5,2.1,2.1
				c4.7-4.6,2.5-13.2-4.2-14.1c-3-0.4-6.2,0.7-7.9,3.2c-1.7,2.4-1.7,5.8,0.9,7.7C1215.5,694,1217,691.4,1215.4,690.3L1215.4,690.3z"
				/>
		</g>
	</g>
	<g>
		<g>
			<path d="M1238.3,707.9c-2.2-0.4,0-3.6,1-4.2c1.8-1.1,4.2-1.2,6.2-0.4c4.3,1.8,4.5,7.7,1.2,10.6c-1.4,1.3,0.7,3.4,2.1,2.1
				c5.8-5.2,3-15.2-4.9-16.1c-3.3-0.4-7.3,1-8.8,4.1c-1.2,2.5-0.7,6.3,2.4,6.8C1239.3,711.1,1240.2,708.2,1238.3,707.9L1238.3,707.9
				z"/>
		</g>
	</g>
	<g>
		<g>
			<path d="M1262.5,725.2c-1.5-2,0.9-4.1,2.8-4.6c1.8-0.5,3.8-0.1,5.3,1c3.4,2.4,2.7,7.4-0.3,9.8c-1.5,1.2,0.6,3.3,2.1,2.1
				c5.1-4,4.4-12.6-1.7-15.2c-2.8-1.2-6.2-1.1-8.8,0.7c-2.5,1.7-3.9,5.2-2,7.8C1261,728.2,1263.6,726.7,1262.5,725.2L1262.5,725.2z"
				/>
		</g>
	</g>
	<g>
		<g>
			<path d="M1284,744.7c0.1-4.6,5.2-7.5,8.9-4.3c3.7,3.3,1.4,8.6-3.1,9.4c-1.9,0.3-1.1,3.2,0.8,2.9c7-1.3,9.7-10.1,4.1-14.7
				c-5.6-4.7-13.6-0.3-13.8,6.7C1281,746.6,1284,746.6,1284,744.7L1284,744.7z"/>
		</g>
	</g>
	<g>
		<g>
			<path class="st1" d="M1093.6,730.1c5.6,16.3,11.2,32.6,16.8,48.9c0.6,1.8,3.5,1,2.9-0.8c-5.6-16.3-11.2-32.6-16.8-48.9
				C1095.8,727.5,1092.9,728.3,1093.6,730.1L1093.6,730.1z"/>
		</g>
	</g>
	<g>
		<g>
			<path class="st1" d="M1113,765.9c6.5,13.2,11.9,26.8,16.2,40.9c0.6,1.8,3.5,1.1,2.9-0.8c-4.4-14.3-9.9-28.2-16.5-41.6
				C1114.7,762.6,1112.1,764.2,1113,765.9L1113,765.9z"/>
		</g>
	</g>
	<g>
		<g>
			<path class="st1" d="M1201.1,750.8c14.4,7.5,28.8,15,43.2,22.5c1.7,0.9,3.2-1.7,1.5-2.6c-14.4-7.5-28.8-15-43.2-22.5
				C1201,747.3,1199.4,749.9,1201.1,750.8L1201.1,750.8z"/>
		</g>
	</g>
</g>
<g id="sign_right">
	<path class="st3" d="M436.2,642.4c10.5,9.3,21.1,19.5,31.5,30.8c33.5,36.5,54.1,72.2,67,102.2c-20.8,19.2-45.3,39.6-74.1,60.1
		c-60.2,42.7-120.7,72.8-171.6,93.9c-14.7-27.1-29.6-54.1-44.7-81.1c-13.4-24.1-27-48.1-40.6-72.1
		C281.2,731.6,358.7,687,436.2,642.4z"/>
	<path class="st3" d="M482.7,725.6c-18.6,31.4-37.3,62.8-55.9,94.2c-10.3-10.4-20.6-20.8-31-31.2c-36.4,23.8-72.8,47.5-109.2,71.3
		c-8.4-17.1-16.8-34.3-25.3-51.4c37.9-14.2,75.9-28.5,113.8-42.7c-8-12.5-16-25-24.1-37.5C395,727.3,438.9,726.5,482.7,725.6z"/>
	<g>
		<g>
			<path d="M520.3,791.9c3.6,1.2,5.8,5.7,1.7,8c-3,1.6-7.6,1.4-10.2-1c-1.4-1.3-3.6,0.8-2.1,2.1c4,3.6,11.7,4,15.6,0.1
				c4.5-4.4,0.8-10.4-4.2-12.1C519.3,788.4,518.5,791.3,520.3,791.9L520.3,791.9z"/>
		</g>
	</g>
	<g>
		<g>
			<path d="M500.1,809.8c4.2,1.1,5.1,5.8,1,7.8c-3.7,1.8-8.6,1.1-12.1-0.8c-1.7-0.9-3.2,1.7-1.5,2.6c5.1,2.7,13.5,3.6,17.7-1.2
				c3.8-4.3,0.6-10.1-4.3-11.3C499,806.4,498.2,809.3,500.1,809.8L500.1,809.8z"/>
		</g>
	</g>
	<g>
		<g>
			<path d="M476.6,826.4c3.7,4,0.8,8.9-3.8,10.4c-3.7,1.2-7.9,0.8-11.2-1.1c-1.7-1-3.2,1.6-1.5,2.6c5,2.9,12.1,3.1,17-0.2
				c4.9-3.3,5.5-9.5,1.6-13.8C477.4,822.8,475.3,824.9,476.6,826.4L476.6,826.4z"/>
		</g>
	</g>
	<g>
		<g>
			<path d="M448.6,845.9c7.4,2.1,1.5,9.1-2.8,10.5c-4.3,1.4-9,0.6-12.6-2c-1.6-1.1-3.1,1.5-1.5,2.6c6,4.2,15.5,4.3,20.8-1.3
				c4.2-4.4,3.1-11-3.1-12.7C447.6,842.5,446.8,845.4,448.6,845.9L448.6,845.9z"/>
		</g>
	</g>
	<g>
		<g>
			<path d="M419.2,866.3c5.1,3.8,2.3,9.9-3.2,11.3c-4.2,1-9.3,0.2-12.3-3c-1.3-1.4-3.4,0.7-2.1,2.1c4.5,4.9,13.2,5.7,18.8,2.3
				c6.1-3.7,5.7-11.3,0.3-15.3C419.1,862.5,417.6,865.1,419.2,866.3L419.2,866.3z"/>
		</g>
	</g>
	<g>
		<g>
			<path d="M391.1,882.8c3.9,3.9,2.1,9.1-2.7,11.1c-4,1.7-8.9,1.5-12.8-0.6c-1.7-0.9-3.2,1.7-1.5,2.6c5.4,3,13.1,3.1,18.2-0.7
				c4.9-3.7,5.2-10.2,0.9-14.5C391.8,879.3,389.7,881.5,391.1,882.8L391.1,882.8z"/>
		</g>
	</g>
	<g>
		<g>
			<path d="M353.3,903c4.9,3.1,3.1,8.9-2,10.3c-3.9,1.1-8.8,0.3-11.5-2.8c-1.3-1.5-3.4,0.7-2.1,2.1c4.1,4.7,12.5,5.5,17.6,2.2
				c5.7-3.6,4.9-11-0.4-14.4C353.2,899.4,351.7,902,353.3,903L353.3,903z"/>
		</g>
	</g>
	<g>
		<g>
			<path d="M326,915.2c3.4,4.4,1.8,10-3.7,11.5c-3.4,0.9-8.7,0.5-10.4-3.1c-0.8-1.7-3.4-0.2-2.6,1.5c2.6,5.4,11,6,15.8,3.7
				c6.5-3,7.1-10.5,3-15.8C327,911.6,324.9,913.7,326,915.2L326,915.2z"/>
		</g>
	</g>
	<g>
		<g>
			<path d="M281.4,912.2c-4.6-3.5-14.4-1.5-14.3,5.4c0.1,8.3,11.4,9.5,17.4,8.5c1.9-0.3,1.1-3.2-0.8-2.9c-4.1,0.7-12.1,0.5-13.5-4.7
				c-1.4-5.2,6.7-6,9.6-3.7C281.5,916,283,913.4,281.4,912.2L281.4,912.2z"/>
		</g>
	</g>
	<g>
		<g>
			<path d="M265.8,885.1c-5.4,0.2-13.2,4.8-10.7,11.3c2.3,5.9,11.2,7.1,16.3,4.9c1.8-0.7,1-3.6-0.8-2.9c-3.7,1.5-9.3,1.3-12-2
				c-3.8-4.5,3.4-8.2,7.1-8.4C267.8,888,267.8,885,265.8,885.1L265.8,885.1z"/>
		</g>
	</g>
	<g>
		<g>
			<path d="M257.5,867.6c-5-2.2-13.9-0.3-13.4,6.6c0.6,8.1,11.4,9.1,17.4,7.7c1.9-0.4,1.1-3.3-0.8-2.9c-4.1,0.9-11.1,1-13.2-3.7
				c-2.2-4.9,5.2-6.6,8.5-5.1C257.8,871,259.3,868.4,257.5,867.6L257.5,867.6z"/>
		</g>
	</g>
	<g>
		<g>
			<path d="M246.3,846.8c-4.8-2.5-13.8-0.5-13.6,6.1c0.2,8.1,11.1,9.7,17.2,8.9c1.9-0.2,1.9-3.2,0-3c-4.3,0.5-11,0.4-13.6-3.9
				c-2.9-5.1,4.8-7.4,8.4-5.5C246.5,850.3,248,847.7,246.3,846.8L246.3,846.8z"/>
		</g>
	</g>
	<g>
		<g>
			<path d="M233.7,824.9c-5.7-0.7-15.6,3.7-12.6,11c2.5,6,11.3,7,16.5,4.8c1.8-0.7,0.2-3.3-1.5-2.6c-3.5,1.5-9.6,0.9-11.9-2.7
				c-3.4-5.3,6.1-7.9,9.5-7.5C235.6,828.1,235.5,825.1,233.7,824.9L233.7,824.9z"/>
		</g>
	</g>
	<g>
		<g>
			<path d="M222.9,804.9c-4.5-2.6-13-0.8-13.2,5.5c-0.2,7.7,10.1,9.4,15.8,8.7c1.9-0.2,1.9-3.2,0-3c-3.9,0.5-10.4,0.3-12.4-3.9
				c-2.4-4.9,5.1-6.5,8.2-4.7C223.1,808.5,224.6,805.9,222.9,804.9L222.9,804.9z"/>
		</g>
	</g>
	<g>
		<g>
			<path d="M210.7,786.2c-4.4-3.2-13.2-1.9-14,4.4c-0.9,7.2,8.6,9.1,13.8,7.7c1.9-0.5,1.1-3.4-0.8-2.9c-3.1,0.8-10.5,0.4-10-4.4
				c0.4-4.2,6.9-4.1,9.5-2.2C210.8,789.9,212.3,787.3,210.7,786.2L210.7,786.2z"/>
		</g>
	</g>
	<g>
		<g>
			<path d="M531.3,767c5.5-1.3,13.2-6.1,10.1-12.9c-2.6-5.5-10.9-6.3-15.2-2.6c-1.5,1.3,0.7,3.4,2.1,2.1c2.9-2.5,9.4-1.8,10.6,2.3
				c1.4,4.7-4.9,7.3-8.4,8.2C528.6,764.6,529.4,767.5,531.3,767L531.3,767z"/>
		</g>
	</g>
	<g>
		<g>
			<path d="M518.4,745.9c6.2-0.1,16.5-4.8,12.2-12.6c-3.2-5.8-13.4-6.1-16.8-0.5c-1,1.6,1.6,3.2,2.6,1.5c2.3-3.7,9.7-3.4,11.7,0.5
				c2.9,5.6-5.8,8-9.6,8.1C516.5,742.9,516.5,745.9,518.4,745.9L518.4,745.9z"/>
		</g>
	</g>
	<g>
		<g>
			<path d="M507.7,725.8c8,0,13.8-9.2,9-16.1c-2.2-3.2-6.1-4.4-9.8-3.6c-3,0.7-5.8,2.7-5.3,6c0.3,1.9,3.2,1.1,2.9-0.8
				c-0.3-2.3,4.6-2.6,5.9-2.4c2.5,0.4,4.4,2.3,4.9,4.7c1.1,4.8-2.7,9.1-7.5,9.1C505.7,722.8,505.7,725.8,507.7,725.8L507.7,725.8z"
				/>
		</g>
	</g>
	<g>
		<g>
			<path d="M492,704.6c6.1-1.8,12.3-8.2,8.5-14.9c-3.6-6.3-14.8-8.1-18.8-1.3c-1,1.7,1.6,3.2,2.6,1.5c3-5,12.3-2.9,14,2.2
				c1.6,4.7-3.1,8.4-7.1,9.6C489.4,702.2,490.2,705.1,492,704.6L492,704.6z"/>
		</g>
	</g>
	<g>
		<g>
			<path d="M476.3,682.8c6.4-3.6,13.2-12.1,5.3-18.1c-4.8-3.7-16.6-2.4-15.5,5.5c0.3,1.9,3.2,1.1,2.9-0.8c-0.4-2.8,4.2-4,6.2-3.9
				c2.5,0,5.1,1.3,6.3,3.6c2.7,5-3.1,9.1-6.8,11.2C473.1,681.1,474.6,683.7,476.3,682.8L476.3,682.8z"/>
		</g>
	</g>
	<g>
		<g>
			<path d="M457.6,662.3c8.2,1.1,11.5-8.1,6.8-14c-4.5-5.5-16-6.6-19.6,0.5c-0.9,1.7,1.7,3.2,2.6,1.5c2.1-4.1,8.6-4.2,12.1-2.3
				c1.9,1.1,3.5,2.8,4,5c0.8,3.2-1.3,6.9-5.1,6.3C456.5,659.2,455.7,662.1,457.6,662.3L457.6,662.3z"/>
		</g>
	</g>
	<g>
		<g>
			<path d="M421.3,651.6c4.3-7.9-5.7-12.8-12.2-11.4c-3.4,0.7-6.8,2.8-7.5,6.4c-0.7,3.6,1.6,6.7,4.6,8.3c1.7,0.9,3.2-1.7,1.5-2.6
				c-5.3-2.9-3.1-8.1,2.1-9.2c3.9-0.8,11.8,1.6,8.9,7C417.7,651.8,420.3,653.3,421.3,651.6L421.3,651.6z"/>
		</g>
	</g>
	<g>
		<g>
			<path d="M397.1,665.9c3.1-1.6,2.9-5.1,0.7-7.5c-2.8-3-7.8-3.7-11.6-3.1c-3.4,0.5-7.1,2.5-7.6,6.2c-0.5,3.5,2.1,6.2,5.3,7.2
				c1.9,0.6,2.6-2.3,0.8-2.9c-1.9-0.6-3.6-2.1-3-4.3c0.5-2,2.7-2.8,4.5-3.2c2-0.4,4.2-0.3,6.2,0.3c1.3,0.4,6.3,3,3.2,4.6
				C393.9,664.2,395.4,666.8,397.1,665.9L397.1,665.9z"/>
		</g>
	</g>
	<g>
		<g>
			<path d="M367.4,684.9c2.8-1.4,3.8-4.7,1.8-7.2c-2.7-3.4-8.5-3.4-12.3-2.7c-3.5,0.6-7.9,2.5-8.6,6.4c-0.6,3.5,2,6.2,5.2,7
				c1.9,0.5,2.7-2.4,0.8-2.9c-2.1-0.5-3.7-2.1-2.7-4.3c0.8-1.8,3.3-2.6,5.1-3c1.7-0.4,3.6-0.6,5.4-0.4c2,0.2,7.9,2.7,3.9,4.7
				C364.2,683.2,365.7,685.7,367.4,684.9L367.4,684.9z"/>
		</g>
	</g>
	<g>
		<g>
			<path d="M330.3,704.8c2.9-1.6,3.2-5.1,1.1-7.5c-2.4-2.8-6.7-3.7-10.2-3.4c-3.4,0.3-6.8,1.9-8.3,5.2c-1.6,3.5,0.1,7,3,9.2
				c1.6,1.1,3.1-1.5,1.5-2.6c-4.7-3.5-0.7-8.2,3.8-8.8c1.7-0.2,3.6,0,5.3,0.6c1.7,0.6,5.1,3.1,2.3,4.7
				C327.1,703.2,328.6,705.8,330.3,704.8L330.3,704.8z"/>
		</g>
	</g>
	<g>
		<g>
			<path d="M298.6,722.7c3.5-0.5,4.7-4.2,2.8-7.1c-2.3-3.5-7.8-4.3-11.6-3.9c-3.9,0.4-8.1,2.3-9.6,6.2c-1.5,4,0.5,7.9,3.8,10.2
				c1.6,1.1,3.1-1.5,1.5-2.6c-5.3-3.6-2.4-9.3,2.9-10.5c2.2-0.5,4.6-0.5,6.7,0.2c1.1,0.3,2.6,0.8,3.3,1.8c1,1.2,0.9,2.6-0.9,2.9
				C295.9,720.1,296.7,723,298.6,722.7L298.6,722.7z"/>
		</g>
	</g>
	<g>
		<g>
			<path d="M267.8,738.9c2.7-2.9,0.8-6.4-2.3-8.1c-3.3-1.8-7.7-1.9-11.2-0.7c-7.7,2.4-9.2,11.3-2,15.5c1.7,1,3.2-1.6,1.5-2.6
				c-4.5-2.7-4.2-7.9,0.7-9.8c1.9-0.8,4-1,6-0.8c1.6,0.2,7.5,1.9,5.1,4.4C264.3,738.2,266.4,740.3,267.8,738.9L267.8,738.9z"/>
		</g>
	</g>
	<g>
		<g>
			<path d="M239.3,756.6c-0.2-8.7-12-10.7-18-6.6c-7.6,5.3-1.7,13.6,5.7,14.6c1.9,0.3,2.7-2.6,0.8-2.9c-5-0.7-10.5-6-4.1-9.6
				c4-2.2,12.5-1.4,12.6,4.5C236.4,758.6,239.4,758.6,239.3,756.6L239.3,756.6z"/>
		</g>
	</g>
	<g>
		<g>
			<path class="st2" d="M271.4,794.9c20.9-5.9,41.2-13.4,60.9-22.5c1.8-0.8,0.2-3.4-1.5-2.6c-19.5,9-39.6,16.4-60.2,22.2
				C268.7,792.5,269.5,795.4,271.4,794.9L271.4,794.9z"/>
		</g>
	</g>
	<g>
		<g>
			<path class="st2" d="M320.3,766.4c6.7-1.9,13.4-3.8,20.1-5.7c1.9-0.5,1.1-3.4-0.8-2.9c-6.7,1.9-13.4,3.8-20.1,5.7
				C317.7,764.1,318.4,767,320.3,766.4L320.3,766.4z"/>
		</g>
	</g>
	<g>
		<g>
			<path class="st2" d="M362.3,829.5c9.6-5.3,19.2-10.5,28.7-15.8c1.7-0.9,0.2-3.5-1.5-2.6c-9.6,5.3-19.2,10.5-28.7,15.8
				C359.1,827.8,360.6,830.4,362.3,829.5L362.3,829.5z"/>
		</g>
	</g>
	<g>
		<g>
			<path class="st2" d="M482.9,734.4c-9.3,20.2-18.7,40.5-28,60.7c-0.8,1.7,1.8,3.3,2.6,1.5c9.3-20.2,18.7-40.5,28-60.7
				C486.3,734.1,483.7,732.6,482.9,734.4L482.9,734.4z"/>
		</g>
	</g>
	<g>
		<g>
			<path class="st2" d="M483.4,758c-2.7,7.4-5.4,14.8-8.1,22.2c-0.7,1.8,2.2,2.6,2.9,0.8c2.7-7.4,5.4-14.8,8.1-22.2
				C487,757,484.1,756.2,483.4,758L483.4,758z"/>
		</g>
	</g>
</g>
<g id="shoes">
	<polygon class="st3" points="281.4,212 323.1,392 573.6,293.4 519.7,128.5 	"/>
	<g>
		<g>
			<path class="st4" d="M355.7,221.7c-4.3,23.3-5.2,47.2-2.3,70.7c0.6,5.2,1.3,10.4,2.4,15.5c0.6,3,1.6,6.1,4.5,7.6
				c3.4,1.7,8,0.1,11.3-1c4.8-1.6,9.2-4,13.2-7c1.5-1.1,0-3.8-1.5-2.6c-3.6,2.7-7.4,4.9-11.7,6.4c-1.8,0.6-3.6,1.2-5.5,1.5
				c-4.2,0.7-6.6-2-7.4-5.8c-2-9.2-3-18.6-3.6-28c-1.2-18.9,0-38,3.5-56.6C359,220.6,356.1,219.8,355.7,221.7L355.7,221.7z"/>
		</g>
	</g>
	<g>
		<g>
			<path class="st4" d="M356.9,309.9c1.3,8.3,1.3,18.8,7.7,25.1c5.2,5.1,13.6,7.4,20.7,8.2c7.1,0.8,13-7.5,17.3-12.1
				c5.5-6,13.8-14.1,13.1-22.9c-0.1-1.9-3.1-1.9-3,0c0.6,7.8-7.3,15.4-12.2,20.8c-2.3,2.5-4.8,5-7.3,7.3c-1.2,1.1-2.7,2.8-4.2,3.5
				c-1.9,1-5,0.1-7.1-0.3c-6.2-1.3-13.3-3.3-17-8.9c-3.9-5.8-4-14.8-5-21.5C359.4,307.2,356.6,308,356.9,309.9L356.9,309.9z"/>
		</g>
	</g>
	<g>
		<g>
			<path class="st4" d="M358.5,223.7c0.6-4.1,5.1-2.6,7.1-0.9c1.6,1.4,2.3,3,3.2,4.9c1.4,3.1,2.7,6.3,4.3,9.4
				c3.3,6.5,7,12.7,10.8,18.9c3.8,6.2,7.5,12.4,10.9,18.9c3.4,6.5,10.6,18.2,3,24.1c-1.5,1.2,0.6,3.3,2.1,2.1c7.7-6,3.1-16-0.2-23.1
				c-4.8-10.3-11-19.8-16.8-29.5c-2.8-4.7-5.5-9.5-8-14.5c-2-4.2-3.4-9.5-6.5-13c-3.4-3.8-11.7-4.5-12.7,1.9
				C355.3,224.8,358.2,225.6,358.5,223.7L358.5,223.7z"/>
		</g>
	</g>
	<g>
		<g>
			<path class="st4" d="M367.9,225.9c9.1,5.5,17.3,11.3,20.8,21.9c2.9,8.9,3.4,18.3,6.9,27c0.7,1.8,3.6,1,2.9-0.8
				c-4.1-9.9-4.1-21-8.4-30.8c-4.1-9.3-12.3-14.7-20.7-19.8C367.8,222.3,366.3,224.9,367.9,225.9L367.9,225.9z"/>
		</g>
	</g>
	<g>
		<g>
			<path class="st4" d="M360.2,313.2c4.2-1,3.4-6.8,3.5-10.1c0.2-7.7-0.5-15.3-1.2-22.9c-0.6-7.1-1.7-14.5-1-21.6
				c0.4-4,1.5-8.2,4.6-10.9c3.2-2.8,8.3-3.9,11.9-1c1.5,1.2,3.6-0.9,2.1-2.1c-4-3.2-9.1-3.3-13.6-0.8c-4.9,2.7-7.2,7.9-7.9,13.3
				c-1.1,8.2,0.3,16.9,1,25.1c0.3,3.4,3.4,27.3-0.3,28.2C357.5,310.7,358.3,313.6,360.2,313.2L360.2,313.2z"/>
		</g>
	</g>
	<g>
		<g>
			<path class="st4" d="M386.8,261.1c-2,14.2,1.9,28,10.7,39.3c1.2,1.5,3.3-0.6,2.1-2.1c-8.1-10.3-11.8-23.4-10-36.4
				C389.9,260,387.1,259.2,386.8,261.1L386.8,261.1z"/>
		</g>
	</g>
	<g>
		<g>
			<path class="st4" d="M396,275.3c3,5.8,6,11.5,9,17.3c2.9,5.6,6.3,11.1,7.9,17.3c0.5,1.9,3.4,1.1,2.9-0.8
				c-1.5-5.8-4.6-11-7.3-16.3c-3.3-6.3-6.6-12.7-9.9-19C397.7,272.1,395.1,273.6,396,275.3L396,275.3z"/>
		</g>
	</g>
	<g>
		<g>
			<path class="st4" d="M391.9,209.5c-8.3,12.3-3.1,26.7,3.5,38.5c8.8,15.6,17,31.1,23.2,47.9c0.7,1.8,3.6,1,2.9-0.8
				c-5.2-14.2-11.6-28-19.2-41.2c-7.4-12.7-17.5-28.6-7.8-42.9C395.6,209.4,393,207.9,391.9,209.5L391.9,209.5z"/>
		</g>
	</g>
	<g>
		<g>
			<path class="st4" d="M409.4,253.4c3.8,13.9,9,27.2,15.7,39.9c0.9,1.7,3.5,0.2,2.6-1.5c-6.6-12.5-11.8-25.5-15.4-39.1
				C411.8,250.7,408.9,251.5,409.4,253.4L409.4,253.4z"/>
		</g>
	</g>
	<g>
		<g>
			<path class="st4" d="M419.7,297.1c3.3,1.1,7.1-0.8,8.1-4.2c0.6-1.9-2.3-2.6-2.9-0.8c-0.6,1.8-2.7,2.7-4.4,2.1
				C418.7,293.6,417.9,296.5,419.7,297.1L419.7,297.1z"/>
		</g>
	</g>
	<g>
		<g>
			<path class="st4" d="M405.5,252.3c14.2,1.3,25.9,9.6,35.5,19.6c7.3,7.6,12.4,17.6,24.2,16.8c24.1-1.6,44.9-16.3,67.7-23
				c1.8-0.5,1.1-3.4-0.8-2.9c-10.9,3.2-21.3,8.1-31.7,12.6c-11.4,4.9-24.1,10.4-36.7,10.4c-7.7,0-11.4-5.8-16-11
				c-3.9-4.4-8-8.7-12.6-12.5c-8.6-7.1-18.5-11.9-29.6-13C403.6,249.2,403.6,252.2,405.5,252.3L405.5,252.3z"/>
		</g>
	</g>
	<g>
		<g>
			<path class="st4" d="M393.5,211.7c21-2.7,37.3,16.1,52.3,27.9c13.6,10.5,29.6,19.3,47.3,17.2c1.9-0.2,1.9-3.2,0-3
				c-20.9,2.4-38.2-10.4-53.3-23c-13.1-10.9-27.9-24.5-46.3-22.1C391.6,208.9,391.5,211.9,393.5,211.7L393.5,211.7z"/>
		</g>
	</g>
	<g>
		<g>
			<path class="st4" d="M396.9,214.9c9.4,10.5,19.6,20.2,30.5,29.2c9.7,7.9,19.8,15.6,31.6,20c10.2,3.8,22.6,4.7,31.6-2.3
				c2.6-2,4.1-4.6,7.2-5.9c3.6-1.5,6.9-0.2,10.7,0c3.7,0.2,7.5-0.2,11.2-0.3c2.6,0,16.7,0.5,12.1,7.7c-1,1.6,1.6,3.1,2.6,1.5
				c2.3-3.7,0.8-7.7-2.7-9.9c-5.3-3.4-12.6-2.2-18.5-2c-5.7,0.2-13.1-2.7-18.3,0.6c-2.4,1.6-4,4.2-6.3,5.9c-3.4,2.5-7.5,4-11.7,4.4
				c-16,1.6-31.2-9.1-43.2-18.4c-12.5-9.8-24.2-20.8-34.8-32.6C397.7,211.3,395.6,213.5,396.9,214.9L396.9,214.9z"/>
		</g>
	</g>
	<g>
		<g>
			<path class="st4" d="M307.4,215.3c1.3,4.3,0.1,8.8-3.2,11.8c-1.4,1.3,0.7,3.4,2.1,2.1c4.1-3.7,5.6-9.4,4-14.7
				C309.7,212.7,306.8,213.4,307.4,215.3L307.4,215.3z"/>
		</g>
	</g>
	<g>
		<g>
			<path class="st4" d="M308.7,215.4c1.5,5.2,5.7,9.2,10.9,10.3c1.9,0.4,2.7-2.5,0.8-2.9c-4.3-0.9-7.6-3.9-8.8-8.2
				C311.1,212.7,308.2,213.5,308.7,215.4L308.7,215.4z"/>
		</g>
	</g>
	<g>
		<g>
			<path class="st4" d="M304.4,230.7c4.3,1.7,7.7,5.2,9.2,9.5c0.6,1.8,3.5,1,2.9-0.8c-1.9-5.4-6-9.5-11.3-11.6
				C303.4,227.1,302.6,230,304.4,230.7L304.4,230.7z"/>
		</g>
	</g>
	<g>
		<g>
			<path class="st4" d="M317.8,240.4c-0.6-5.7,1-11.1,4.8-15.4c1.3-1.4-0.8-3.6-2.1-2.1c-4.3,4.9-6.4,11-5.7,17.5
				C315,242.3,318,242.3,317.8,240.4L317.8,240.4z"/>
		</g>
	</g>
	<g>
		<g>
			<path class="st1" d="M544.3,273.9c0.8,2.7-0.1,5.4-2.3,7.2c-1.5,1.2,0.6,3.4,2.1,2.1c2.9-2.4,4.1-6.4,3.1-10.1
				C546.7,271.2,543.8,272,544.3,273.9L544.3,273.9z"/>
		</g>
	</g>
	<g>
		<g>
			<path class="st1" d="M545.1,273.9c1.7,3.4,4,6.5,6.8,9.2c1.4,1.3,3.5-0.8,2.1-2.1c-2.6-2.5-4.8-5.3-6.4-8.5
				C546.9,270.6,544.3,272.2,545.1,273.9L545.1,273.9z"/>
		</g>
	</g>
	<g>
		<g>
			<path class="st1" d="M541.5,284.2c2.7,1.5,4.4,4.2,4.7,7.3c0.2,1.9,3.2,1.9,3,0c-0.3-4.2-2.5-7.8-6.2-9.9
				C541.3,280.7,539.8,283.3,541.5,284.2L541.5,284.2z"/>
		</g>
	</g>
	<g>
		<g>
			<path class="st1" d="M550.5,292.8c0.5-2.6,1.5-5.1,2.8-7.4c1-1.7-1.6-3.2-2.6-1.5c-1.5,2.5-2.5,5.2-3.1,8.1
				C547.2,293.9,550.1,294.7,550.5,292.8L550.5,292.8z"/>
		</g>
	</g>
	<g>
		<g>
			<path class="st1" d="M471.2,160.8c-0.2,5-2,9.6-5.2,13.4c-1.2,1.5,0.9,3.6,2.1,2.1c3.7-4.5,5.8-9.7,6-15.5
				C474.3,158.9,471.3,158.9,471.2,160.8L471.2,160.8z"/>
		</g>
	</g>
	<g>
		<g>
			<path class="st1" d="M472.1,160.8c1.3,5.6,5,10.4,10.2,12.8c1.7,0.8,3.3-1.8,1.5-2.6c-4.6-2.2-7.7-6.1-8.9-11.1
				C474.6,158.1,471.7,158.9,472.1,160.8L472.1,160.8z"/>
		</g>
	</g>
	<g>
		<g>
			<path class="st1" d="M466.1,177c3.9,2.6,6.6,6.3,7.8,10.8c0.5,1.9,3.4,1.1,2.9-0.8c-1.5-5.2-4.7-9.6-9.2-12.6
				C466,173.3,464.5,175.9,466.1,177L466.1,177z"/>
		</g>
	</g>
	<g>
		<g>
			<path class="st1" d="M478.2,188.6c0.8-5.3,2.3-10.3,4.9-15.1c0.9-1.7-1.7-3.2-2.6-1.5c-2.6,5-4.4,10.2-5.2,15.8
				C475,189.7,477.9,190.6,478.2,188.6L478.2,188.6z"/>
		</g>
	</g>
</g>
<g id="jacket">
	<path class="st3" d="M942.1,168.8c4.7,54.2,9.4,108.5,14.1,162.7c84.9-12.2,169.8-24.4,254.6-36.5c-2.8-57.8-5.5-115.5-8.3-173.3
		C1115.8,137.3,1028.9,153.1,942.1,168.8z"/>
	<g>
		<g>
			<path d="M1045.6,176.2c-8.4,36.9-12.9,74.5-13.6,112.3c0,1.9,3,1.9,3,0c0.7-37.6,5.2-74.9,13.5-111.5
				C1049,175.1,1046.1,174.3,1045.6,176.2L1045.6,176.2z"/>
		</g>
	</g>
	<g>
		<g>
			<path d="M1045.6,174.3c-7.9,0.3-15.4,2.7-21.7,7.6c-6.5,5-10.6,12.4-16.2,18.3c-5.9,6.3-12.5,12-18.3,18.5
				c-6,6.8-11.2,14.3-15.7,22.2c-1,1.7,1.6,3.2,2.6,1.5c8.3-14.6,19.4-25.8,31.1-37.6c5.3-5.4,9.4-11.9,14.7-17.3
				c6.2-6.4,14.6-9.9,23.5-10.2C1047.5,177.3,1047.5,174.3,1045.6,174.3L1045.6,174.3z"/>
		</g>
	</g>
	<g>
		<g>
			<path d="M1020.3,203.1c-3.7,9.2-7.1,18.5-10,27.9c-2.8,9.1-5.8,18.5-7.1,28c-1,7.5,0.3,14.2,6.1,19.4c6.2,5.6,14,9.3,22.1,11.4
				c1.9,0.5,2.7-2.4,0.8-2.9c-7.6-2-15.7-5.5-21.4-11.1c-7.1-7.1-4.9-16.4-2.8-25.1c3.9-15.9,9-31.5,15.2-46.7
				C1024,202.1,1021,201.3,1020.3,203.1L1020.3,203.1z"/>
		</g>
	</g>
	<g>
		<g>
			<path d="M1041.3,175.6c-2.8,3.9-5.7,7.9-8.5,11.8c-2.1,2.9-4.4,5.8-5.2,9.4c-0.8,3.6,0.4,7,1.1,10.5c1.1,5.2,0.6,9.8-0.6,15
				c-1.9,7.8-3.4,14.8-2.1,22.8c1.5,9.4,5.1,18.3,4.6,27.9c-0.1,1.9,2.9,1.9,3,0c0.4-7.8-1.7-15.2-3.5-22.7c-1-4.4-1.9-8.8-1.8-13.4
				c0.1-4.8,1.5-9.3,2.6-13.9c0.8-3.4,1.5-6.9,1.5-10.4c-0.1-3.7-1.3-7.2-1.8-10.9c-1.2-8.7,8.5-18.1,13.3-24.7
				C1045,175.5,1042.4,174,1041.3,175.6L1041.3,175.6z"/>
		</g>
	</g>
	<g>
		<g>
			<path d="M973.1,243.6c1.1,4.1,3.1,7.8,6.3,10.7c2,1.8,5.2,4.6,8.2,3.6c2-0.7,3.4-3,4.7-4.5c2-2.3,4.1-4.6,6.2-6.9
				c4.6-5,9.4-9.9,14.2-14.6c1.4-1.3-0.7-3.5-2.1-2.1c-6.2,6-12.2,12.3-18,18.7c-1.2,1.3-2.3,3-3.7,4.2c-2.8,2.4-3.9,2.4-6.9,0
				c-3.1-2.6-5-6-6-9.9C975.5,240.9,972.6,241.7,973.1,243.6L973.1,243.6z"/>
		</g>
	</g>
	<g>
		<g>
			<path d="M1030.8,270.3c-0.4,6.1-0.7,12.1-1.1,18.2c-0.1,1.9,2.9,1.9,3,0c0.4-6.1,0.7-12.1,1.1-18.2
				C1033.9,268.4,1030.9,268.4,1030.8,270.3L1030.8,270.3z"/>
		</g>
	</g>
	<g>
		<g>
			<path d="M1046.7,178.1c5.5,5.8,14.5,6.9,21.2,2.5c1.6-1.1,0.1-3.6-1.5-2.6c-5.6,3.7-13,2.9-17.6-2
				C1047.5,174.6,1045.3,176.7,1046.7,178.1L1046.7,178.1z"/>
		</g>
	</g>
	<g>
		<g>
			<path d="M1067.8,176.5c-3.9,37.5-7.8,75-11.7,112.6c-0.2,1.9,2.8,1.9,3,0c3.9-37.5,7.8-75,11.7-112.6
				C1071,174.6,1068,174.6,1067.8,176.5L1067.8,176.5z"/>
		</g>
	</g>
	<g>
		<g>
			<path d="M1070.1,177c6,1.2,9.1,6.6,9,12.5c-0.1,5.6-2.8,10.3-4.8,15.3c-1.4,3.5-2.3,7.2-1.4,10.9c1.2,5.1,3.7,9.1,3.7,14.5
				c0,10.8-6,20.3-10.5,29.8c-4.4,9.3-7.4,19.2-9.2,29.3c-0.3,1.9,2.6,2.7,2.9,0.8c2.3-12.7,6.7-24.2,12.4-35.7
				c4.5-9.2,9-19.3,6.9-29.8c-1.3-6.4-4.8-10.7-2.4-17.5c1.7-5,4.5-9.4,5.3-14.8c1.1-7.9-2.4-16.6-11-18.2
				C1069,173.7,1068.2,176.6,1070.1,177L1070.1,177z"/>
		</g>
	</g>
	<g>
		<g>
			<path d="M1073.7,178.5c8.5,1,19.1,3,26.2,8c6.7,4.7,7.1,15.7,9.9,22.7c2.5,6.4,6.5,11,11.4,15.8c6.2,6.1,11.2,12.7,14.5,20.8
				c0.7,1.8,3.6,1,2.9-0.8c-3-7.4-7.3-14.1-12.9-19.8c-3.4-3.4-7.2-6.6-9.8-10.6c-2.8-4.2-4.3-9.2-5.6-14c-2.1-7.4-3.8-14.3-11.1-18
				c-7.9-4-16.6-6.1-25.4-7.1C1071.8,175.3,1071.8,178.3,1073.7,178.5L1073.7,178.5z"/>
		</g>
	</g>
	<g>
		<g>
			<path d="M1093,209.5c3.5,23.2,4.4,46.7,2.8,70.2c-0.1,1.9,2.9,1.9,3,0c1.7-23.7,0.7-47.5-2.9-71
				C1095.6,206.8,1092.7,207.6,1093,209.5L1093,209.5z"/>
		</g>
	</g>
	<g>
		<g>
			<path d="M1058.8,292.2c13.8-0.9,26.9-4.8,38.9-11.6c1.7-1,0.2-3.5-1.5-2.6c-11.5,6.6-24.1,10.4-37.4,11.2
				C1056.9,289.3,1056.9,292.3,1058.8,292.2L1058.8,292.2z"/>
		</g>
	</g>
	<g>
		<g>
			<path d="M1096.5,232c7,9.7,16,18.7,25.1,26.4c8,6.8,15.1-5.3,18.1-11.8c0.8-1.7-1.8-3.3-2.6-1.5c-1.8,4-4.2,7.6-7.4,10.6
				c-3.2,3-5.8,0.8-8.4-1.7c-1.4-1.4-2.9-2.8-4.3-4.2c-6.3-6.1-12.6-12.2-17.8-19.4C1098,228.9,1095.4,230.4,1096.5,232L1096.5,232z
				"/>
		</g>
	</g>
	<g>
		<g>
			<path d="M1034.3,281.6c7.7,2.7,15.7,2.9,23.6,0.6c1.8-0.5,1.1-3.4-0.8-2.9c-7.4,2.2-14.8,1.9-22-0.6
				C1033.3,278,1032.5,280.9,1034.3,281.6L1034.3,281.6z"/>
		</g>
	</g>
	<g>
		<g>
			<path d="M1138,146.5c0.6,5.2-2.1,9.9-6.9,12c-1.8,0.8-0.2,3.4,1.5,2.6c5.6-2.5,9.1-8.5,8.4-14.6
				C1140.7,144.6,1137.7,144.6,1138,146.5L1138,146.5z"/>
		</g>
	</g>
	<g>
		<g>
			<path d="M1139.2,146.5c0.1,5.6,3.3,10.7,8.4,13c1.7,0.8,3.3-1.8,1.5-2.6c-4.2-1.9-6.8-5.8-6.9-10.5
				C1142.1,144.6,1139.1,144.6,1139.2,146.5L1139.2,146.5z"/>
		</g>
	</g>
	<g>
		<g>
			<path d="M1131.1,162.3c4.4,1.6,7.8,5.1,9.2,9.5c0.6,1.8,3.5,1,2.9-0.8c-1.8-5.5-5.9-9.7-11.3-11.6
				C1130,158.7,1129.2,161.6,1131.1,162.3L1131.1,162.3z"/>
		</g>
	</g>
	<g>
		<g>
			<path d="M1144.8,171.5c0.3-4.5,1.9-8.8,4.8-12.3c1.2-1.5-0.9-3.6-2.1-2.1c-3.4,4.2-5.4,9-5.7,14.4
				C1141.6,173.4,1144.6,173.4,1144.8,171.5L1144.8,171.5z"/>
		</g>
	</g>
	<g>
		<g>
			<path d="M1161.1,262.6c-1.5,4.9-4.3,9-8.2,12.2c-1.5,1.2,0.6,3.3,2.1,2.1c4.3-3.6,7.3-8.2,8.9-13.6
				C1164.6,261.6,1161.7,260.8,1161.1,262.6L1161.1,262.6z"/>
		</g>
	</g>
	<g>
		<g>
			<path d="M1161.7,262.5c0.4,6.9,3.8,13,9.4,17c1.6,1.1,3.1-1.5,1.5-2.6c-4.7-3.4-7.6-8.6-7.9-14.5
				C1164.6,260.6,1161.6,260.6,1161.7,262.5L1161.7,262.5z"/>
		</g>
	</g>
	<g>
		<g>
			<path d="M1152.4,278.9c4.1,2.8,7.1,6.8,8.7,11.6c0.6,1.8,3.5,1,2.9-0.8c-1.8-5.5-5.3-10.1-10.1-13.3
				C1152.3,275.2,1150.8,277.8,1152.4,278.9L1152.4,278.9z"/>
		</g>
	</g>
	<g>
		<g>
			<path d="M1165.8,289.7c1.5-3.5,3.7-6.5,6.5-9.1c1.4-1.3-0.7-3.4-2.1-2.1c-3.2,2.9-5.6,6.4-7.3,10.4
				C1162.2,290.7,1165.1,291.5,1165.8,289.7L1165.8,289.7z"/>
		</g>
	</g>
	<g>
		<g>
			<path class="st2" d="M967.7,176.3c0.5,3.5-0.8,6.8-3.3,9.2c-1.4,1.3,0.7,3.5,2.1,2.1c3.3-3.2,4.7-7.6,4.1-12.1
				C970.4,173.6,967.5,174.4,967.7,176.3L967.7,176.3z"/>
		</g>
	</g>
	<g>
		<g>
			<path class="st2" d="M969.4,176.2c1.1,4.5,3.9,8.3,7.8,10.8c1.6,1.1,3.1-1.5,1.5-2.6c-3.2-2.1-5.5-5.3-6.4-9
				C971.8,173.6,968.9,174.3,969.4,176.2L969.4,176.2z"/>
		</g>
	</g>
	<g>
		<g>
			<path class="st2" d="M964.3,188.8c3.2,2,5.3,5.2,5.8,8.9c0.2,1.9,3.2,1.9,3,0c-0.6-4.8-3.1-8.9-7.3-11.5
				C964.2,185.2,962.7,187.8,964.3,188.8L964.3,188.8z"/>
		</g>
	</g>
	<g>
		<g>
			<path class="st2" d="M975.1,198.6c0.2-4.7,1.8-9,4.6-12.8c1.2-1.6-1.5-3-2.6-1.5c-3.1,4.2-4.8,9.1-5,14.3
				C972,200.6,975,200.6,975.1,198.6L975.1,198.6z"/>
		</g>
	</g>
</g>
<g id="character">
	<g id="leg_right">
		<path d="M705.8,1047.1c0.2,8.3,0.4,16.7,0.6,25c-1.4,1.8-2.9,3.7-4.3,5.5c-10.5,4.2-18.9,7.4-24.1,9.3c-17,6.4-25.3,9-32.9,17.2
			c-2.7,2.9-4.6,5.7-5.7,7.6c2.2,1,5.8,2.4,10.3,3.1c7,1,12.6-0.3,15.3-1c29.1-7.1,43.7-10.7,54.3-13.8c4.6-1.3,11.7-3.4,20.6-5.8
			c0.2-3,0.3-6,0.4-9.1c0.3-14.1-0.5-27.3-2.1-39.3c-2.8,1.5-7.4,3.6-13.5,4.2C715.9,1051.1,709,1048.5,705.8,1047.1z"/>
		<path class="st5" d="M707.8,549.5c-0.7,7-1.8,17.5-3.2,30.3c-9.1,88.7-18.6,181.1-24.5,271.2c-3.1,47.5-6.4,113.3-7.2,193.1
			c8.2,2.2,17.8,4.1,28.6,4.7c31.9,1.9,57.6-7.4,72.4-14.4c-1.1-27.1-1.7-54.8-2-82.9c-0.9-115.8,5.8-224.7,17.4-326
			c28.9-68,28.3-123.2,8.5-133.5C780,482.7,742.1,508,707.8,549.5z"/>
		<path class="st6" d="M790,624.1c-1.7,3-4.2,7.8-6.7,13.9c-10.6,25.2-11.7,46.8-12.1,53.2c-1.7,27.2-16,165.3-35.2,355.8
			c8.4-1.1,19-3.5,30.2-9.2c3.4-1.7,6.5-3.5,9.3-5.4c-0.9-17-2-40.8-2.4-69.3c-0.3-17.7-0.3-41.1,1.9-109.1
			c2.3-69.1,3.4-103.6,6.4-143.1C784.3,674.3,787.6,644.3,790,624.1z"/>
		<g>
			<g>
				<path class="st4" d="M706.3,549.5c-13.4,128.3-26.8,256.6-32.3,385.5c-1.6,36.3-2.5,72.7-2.6,109.1c0,1.9,3,1.9,3,0
					c0.5-129,11-257.7,23.7-386c3.6-36.2,7.4-72.4,11.1-108.6C709.5,547.6,706.5,547.6,706.3,549.5L706.3,549.5z"/>
			</g>
		</g>
		<g>
			<g>
				<path class="st4" d="M673.6,1045.5c18.3,5.1,37.5,6.4,56.4,4c8.9-1.2,17.7-3.2,26.2-6c4.2-1.4,8.3-3,12.3-4.8
					c3.1-1.4,7.2-2.3,8.4-5.8c0.2-0.5,0-1.1-0.4-1.5c-1.1-1.1-2.3-0.9-3.5,0c-0.6,0.4-0.5,1.3-0.2,1.8c0.1,0.1,0.1,0.3,0.2,0.4
					c0.8,1.8,3.3,0.2,2.6-1.5c-0.1-0.1-0.1-0.3-0.2-0.4c-0.1,0.6-0.2,1.2-0.2,1.8c-1.3-0.7-2.5-0.6-3.5,0.4c-1,0.5-2.1,1-3.1,1.5
					c-2.2,1-4.5,2-6.7,2.9c-4,1.6-8,2.9-12.2,4.1c-8.1,2.3-16.4,3.9-24.8,4.7c-17,1.6-34.1,0.1-50.5-4.4
					C672.6,1042.1,671.8,1045,673.6,1045.5L673.6,1045.5z"/>
			</g>
		</g>
		<g>
			<g>
				<path class="st4" d="M787.9,625.6c-11.5,105.5-17.4,211.6-17.4,317.7c0,29.7,0.5,59.3,1.3,89c0.1,1.9,3.1,1.9,3,0
					c-3.2-106.1-0.7-212.3,7.7-318.1c2.3-29.6,5.1-59.1,8.3-88.6C791.1,623.7,788.1,623.7,787.9,625.6L787.9,625.6z"/>
			</g>
		</g>
		<g>
			<g>
				<path class="st4" d="M704.1,1050.3c0.2,5.3,0.4,10.6,0.6,15.9c0.1,2.4,1.1,7.4-1.1,9.2c-1.7,1.4-5.1,1.9-7.1,2.6
					c-8.2,2.9-16.2,6.2-24.1,9.9c-8.3,3.8-16.5,8-24.4,12.7c-3.5,2.1-12.4,7.1-9.7,12.5c2.6,5.2,14.3,3.5,18.7,3.2
					c8.9-0.5,17.6-2.3,26.2-4.5c19.1-4.9,38.1-10.6,57.1-16c0.7-0.2,1.1-0.8,1.1-1.4c0.9-16.2,0.3-32.3-1.7-48.4
					c-0.2-1.9-3.2-1.9-3,0c2,16.1,2.6,32.2,1.7,48.4c0.4-0.5,0.7-1,1.1-1.4c-17.2,4.9-34.4,9.8-51.6,14.5
					c-8.3,2.3-16.8,4.4-25.3,5.4c-4.3,0.5-8.7,0.8-13,0.6c-2.7-0.1-5.9,0.6-7.2-2.2c-1.4-1.5-1-2.7,1-3.8c1.1-1,2.2-1.9,3.5-2.7
					c13.7-9.3,29.9-16.2,45.3-22c3.8-1.4,7.9-2.4,11.5-4.1c1.7-0.8,3.1-1.5,3.9-3.3c1.4-3.2,0.2-7.9,0.1-11.2
					c-0.2-4.6-0.3-9.2-0.5-13.9C707,1048.4,704,1048.4,704.1,1050.3L704.1,1050.3z"/>
			</g>
		</g>
	</g>
	<g id="leg_left">
		<path d="M872.6,1046c0.6,17,1.1,34,1.7,51c2.6,1.7,6.5,4,11.6,5.5c9.1,2.7,16.8,1.4,21.1,0.7c19.8-3.1,39.9-3.7,59.8-5.9
			c7.6-0.9,13.7-1.5,17.3-1.9c0.6-6.8-1.2-10.4-3-12.4c-4.8-5.4-11.8-2.5-35.6-4.2c-8.9-0.6-13.6-1.5-23.1-3.2
			c-10.8-2-12.1-2.9-13-3.6c-8.7-7.7,1.2-25-5.5-31.4C900.8,1037.4,893.2,1036,872.6,1046z"/>
		<path class="st5" d="M775.6,548.3c-1.2,8.6-2,18.5-2,29.3c0.1,18.4,2.8,34.4,5.9,46.9c9.4,0.2,18.8,0.4,28.3,0.5
			c2.8,44.2,5.9,88.3,9.2,132.5c7,94.6,15.1,189,24.1,283.5c8.5,3.6,20.9,7.6,36.2,7.9c36.1,0.7,61.5-19.5,69.1-26.1
			c-10.7-54.7-17.9-98.9-22.4-127.5c-15.1-97.3-18.1-146.4-35.6-262.8c-5.6-37.2-10.5-67.1-13.5-84.9
			C841.8,547.8,808.7,548,775.6,548.3z"/>
		<path class="st7" d="M854.1,547.7c0.2,17,0.5,34.1,0.9,51.4c4.1,157.5,20.2,306.9,44.6,447.5c6.8-1.6,15.7-4.3,25.3-9.3
			c9.2-4.7,16.3-10.1,21.5-14.6c-2.7-15.9-6.7-39.9-11.5-69.1c-9.7-59-16.3-99.1-22.9-144.6c-9.9-68.3-9.1-74.9-19.2-146.1
			c-7-49.6-13.5-89.8-17.8-115.4C867.9,547.6,861,547.7,854.1,547.7z"/>
		<g>
			<g>
				<path class="st4" d="M785.5,625.6c6.6-0.2,13.1,0.1,19.6,1.1c1.9,0.3,2.7-2.6,0.8-2.9c-6.8-1.1-13.5-1.5-20.4-1.2
					C783.5,622.7,783.5,625.7,785.5,625.6L785.5,625.6z"/>
			</g>
		</g>
		<g>
			<g>
				<path class="st4" d="M806.3,625.1c7,108.4,15.3,216.7,24.9,324.9c2.7,30.3,5.5,60.7,8.4,91c0.2,1.9,3.2,1.9,3,0
					c-10.4-108.1-19.4-216.4-27.1-324.7c-2.2-30.4-4.2-60.8-6.2-91.2C809.2,623.1,806.2,623.1,806.3,625.1L806.3,625.1z"/>
			</g>
		</g>
		<g>
			<g>
				<path class="st4" d="M873.4,548c21.6,123.2,33.3,247.9,52.8,371.4c5.5,34.7,11.6,69.3,18.7,103.8c0.4,1.9,3.3,1.1,2.9-0.8
					c-25.3-122.6-37.8-247.2-55.2-371c-4.9-34.8-10.2-69.6-16.3-104.2C876,545.3,873.1,546.1,873.4,548L873.4,548z"/>
			</g>
		</g>
		<g>
			<g>
				<path class="st4" d="M842,1043.8c34.5,12.8,74.6,5.7,102.8-17.9c1.5-1.2-0.6-3.4-2.1-2.1c-27.4,23-66.4,29.5-99.9,17.1
					C841,1040.2,840.2,1043.1,842,1043.8L842,1043.8z"/>
			</g>
		</g>
		<g>
			<g>
				<path class="st4" d="M870.8,1050.6c0.1,7.4,0.3,14.8,0.4,22.2c0.1,7-0.5,14.5,0.5,21.4c1.6,10.1,17.3,10.9,25.2,11
					c14,0.2,28.1-2.2,42-3.6c14.9-1.5,29.8-3,44.7-4.5c1.9-0.2,1.9-3.2,0-3c-25.4,2.5-50.7,5.5-76.1,7.6c-5.5,0.5-11.1,0.7-16.7,0.1
					c-3.3-0.4-6.6-1-9.7-2.2c-2.8-1-4.6-1.8-5.7-4.8c-0.8-2.3-0.9-3.3-0.9-5.7c-0.3-12.8-0.5-25.7-0.7-38.5
					C873.8,1048.6,870.8,1048.6,870.8,1050.6L870.8,1050.6z"/>
			</g>
		</g>
		<g>
			<g>
				<path class="st4" d="M902.6,1047.3c0.6,4.9,1.2,9.8,1.8,14.7c0.4,3.2,0.2,7.9,2.3,10.6c1.9,2.4,5,2.7,7.8,3.2
					c5.1,0.9,10.2,1.7,15.3,2.4c9.7,1.4,19.4,2.6,29.1,3.6c5.1,0.5,10.3,0.8,15.4,1.3c2.9,0.3,6.3,0.3,8.1,3.2
					c1.5,2.5,0.7,6.1,0.2,8.7c-0.4,1.9,2.5,2.7,2.9,0.8c1.1-5.6,1.4-12.1-4.9-14.6c-3.4-1.4-7.5-1.2-11.1-1.5
					c-5.5-0.4-10.9-0.9-16.3-1.5c-10.7-1.2-21.5-2.6-32.1-4.3c-2.5-0.4-5.2-0.6-7.6-1.3c-5.2-1.6-5.3-5.2-5.9-9.7
					c-0.7-5.2-1.3-10.4-2-15.6C905.3,1045.4,902.3,1045.3,902.6,1047.3L902.6,1047.3z"/>
			</g>
		</g>
	</g>
	<g id="torso">
		<path class="st1" d="M701.1,302.4c8.4-6.4,18.4-12.5,30.3-17.5c54.1-22.8,107.3-4.5,125.7,2.8c4.5,18.9,9.9,47.7,10.8,83.2
			c0.8,30.1-2.2,44.7-2.7,73.1c-0.5,24.5,0.9,59.9,9.7,103.6c-23.2,4.8-52,8.7-85.2,9c-31.6,0.2-59.3-2.9-81.8-7
			c10.2-44.3,8.4-78.6,4.8-102c-3.5-22.5-8.4-33.3-12-59C695.6,352.4,698.2,322.2,701.1,302.4z"/>
	</g>
	<g id="Layer_10">
		<path class="st3" d="M867.4,402.1c-19.2-0.1-38.8,0.1-58.8,0.6c-33.7,0.8-66.3,2.5-97.7,4.7c-5.7,22-10.8,47.6-13.9,76.4
			c-2.8,25.6-3.5,49-3,69.6c20.6,2.8,42.7,4.9,66.3,5.9c49.9,2.2,94.8-0.9,133.5-6.1c-2.2-24.5-5.5-51-10.5-79
			C878.6,448.3,873.2,424.2,867.4,402.1z"/>
		<g>
			<g>
				<path d="M733.5,280.3c3.8,42.3,13.6,83.9,29.1,123.5c0.7,1.8,3.6,1,2.9-0.8c-15.4-39.3-25.2-80.7-29-122.7
					C736.4,278.4,733.4,278.4,733.5,280.3L733.5,280.3z"/>
			</g>
		</g>
		<g>
			<g>
				<path d="M830.2,278.2c-14.7,40.2-25.8,81.6-33.2,123.8c-0.3,1.9,2.6,2.7,2.9,0.8c7.3-42.2,18.4-83.6,33.2-123.8
					C833.7,277.2,830.8,276.4,830.2,278.2L830.2,278.2z"/>
			</g>
		</g>
		<g>
			<g>
				<path d="M760.4,419.6c-0.2,8.5,0.8,16.8,2.8,25.1c0.5,1.9,3.4,1.1,2.9-0.8c-2-8-2.9-16-2.7-24.3
					C763.5,417.7,760.5,417.7,760.4,419.6L760.4,419.6z"/>
			</g>
		</g>
		<g>
			<g>
				<path d="M764.7,440.4c9,1.1,16.3,7.7,18.6,16.3c0.5,1.9,3.4,1.1,2.9-0.8c-2.7-10.1-11.2-17.3-21.5-18.5
					C762.7,437.2,762.8,440.2,764.7,440.4L764.7,440.4z"/>
			</g>
		</g>
		<g>
			<g>
				<path d="M763.7,444.3c0,4.3,0.4,8.5,1.3,12.7c0.5,2.4,1,7.3,3.4,8.8c2.1,1.3,5.8,0,7.9-0.8c3.5-1.3,6.5-3.3,9.2-6
					c1.4-1.4-0.8-3.5-2.1-2.1c-3,3-11.5,9.5-14.4,3.5c-2.3-4.6-2.3-11.1-2.3-16.1C766.7,442.3,763.7,442.3,763.7,444.3L763.7,444.3z
					"/>
			</g>
		</g>
		<g>
			<g>
				<path d="M784.7,450.1c5.6-5.4,11.8-11,20-11.2c1.9,0,1.9-3,0-3c-9,0.2-15.9,6.1-22.1,12C781.2,449.4,783.3,451.5,784.7,450.1
					L784.7,450.1z"/>
			</g>
		</g>
		<g>
			<g>
				<path d="M784.6,460.1c5.7,2.6,11.6,3.3,17.8,2.2c1.9-0.3,1.1-3.2-0.8-2.9c-5.3,0.9-10.5,0.3-15.4-1.9
					C784.4,456.7,782.9,459.3,784.6,460.1L784.6,460.1z"/>
			</g>
		</g>
		<g>
			<g>
				<path d="M806.5,429.1c-3.2,10.3-5.3,20.9-6.1,31.6c-0.2,1.9,2.8,1.9,3,0c0.8-10.5,2.9-20.8,6-30.8
					C810,428,807.1,427.2,806.5,429.1L806.5,429.1z"/>
			</g>
		</g>
		<g>
			<g>
				<path d="M767.1,463.8c1.2,3.3,0.2,5.6,4,6.9c5.2,1.7,11.6,1.6,16.9,1c4.2-0.5,20.4-3.3,14.5-11c-1.2-1.5-3.8,0-2.6,1.5
					c0.8,1.1-3.5,4.5-4.6,5c-1.3,0.5-2.9,0.8-4.2,1c-3,0.6-6.1,0.9-9.2,0.8c-2.6,0-5.8,0-8.3-0.9c-3-1.1-2.7-2.6-3.7-5.2
					C769.4,461.2,766.5,462,767.1,463.8L767.1,463.8z"/>
			</g>
		</g>
		<g>
			<g>
				<path d="M768.9,468.6c-11.4,15.2-29.3,24.1-39.2,40.6c-0.9,1.5,1.2,3,2.4,1.8c3.9-4,9.6-5.4,14.9-3.8c5.3,1.7,7.3,6.8,11.4,10
					c8.6,6.8,16.2-4.9,25.2-2.5c5.1,1.4,9.2,5.4,13.9,7.7c3.5,1.7,7.4,2.7,11.4,2.8c8.8,0.2,17.3-3.5,22.9-10.2
					c1.2-1.5-0.9-3.6-2.1-2.1c-7.1,8.5-19.2,11.9-29.5,7.4c-8.2-3.5-15-11.7-24.7-8.1c-5.4,2-10.6,6.9-16,1.9
					c-3.1-2.9-5-6.6-8.9-8.7c-6.8-3.6-15.2-2-20.5,3.4c0.8,0.6,1.6,1.2,2.4,1.8c9.9-16.4,27.8-25.5,39.2-40.6
					C772.7,468.6,770.1,467.1,768.9,468.6L768.9,468.6z"/>
			</g>
		</g>
		<g>
			<g>
				<path d="M802.2,465.3c3.3,7.9,8.9,14.6,16.7,18.5c9.5,4.8,24,5.4,27.5,17.4c0.6-0.6,1.2-1.2,1.8-1.8
					c-8.9-1.3-17.4,4.6-18.8,13.6c-0.3,1.9,2.6,2.7,2.9,0.8c1.1-7.2,7.7-12.6,15.1-11.5c1.1,0.2,2.2-0.6,1.8-1.8
					c-2.4-8.3-10.1-12.4-17.8-15c-11.7-4-21.4-8.7-26.4-20.8C804.4,462.8,801.5,463.5,802.2,465.3L802.2,465.3z"/>
			</g>
		</g>
		<g>
			<g>
				<path d="M741.9,505.2c-4.2,5.9-8.3,11.8-12.5,17.7c-1,1.4,1.2,2.9,2.4,1.8c5.6-5.1,12.7,1.4,17.3,4.6c3.8,2.7,7.7,4.5,12.4,3.8
					c5.9-0.9,11.2-5,17.4-3.4c5.1,1.2,9.2,4.8,13.7,7.3c3.3,1.9,7,3.4,10.9,2.9c4.9-0.6,8-4.5,12.3-6.4c5.5-2.4,12.1-0.4,18-1.9
					c5.1-1.3,9.6-3.9,13.5-7.4c1.4-1.3-0.7-3.4-2.1-2.1c-5.2,4.7-11.7,7.4-18.7,7.5c-5.4,0.1-9.8-0.4-14.5,2.7
					c-5.6,3.7-9.6,6.2-16.1,3c-4.4-2.2-8.3-5.4-12.8-7.3c-3.7-1.6-7.4-2.1-11.4-1.1c-6.8,1.7-12.2,5.4-19,1.2
					c-6.6-4.1-15.2-12.5-22.9-5.5c0.8,0.6,1.6,1.2,2.4,1.8c4.2-5.9,8.3-11.8,12.5-17.7C745.6,505.2,743,503.7,741.9,505.2
					L741.9,505.2z"/>
			</g>
		</g>
		<g>
			<g>
				<path d="M836.7,502.9c-1.4,3.1,0.7,5,3.4,6.3c5.2,2.4,7.7,7.9,6,13.4c-0.6,1.8,2.3,2.6,2.9,0.8c1.2-3.6,0.9-7.3-0.9-10.7
					c-0.9-1.7-2-3.1-3.5-4.3c-0.9-0.7-5.9-2.8-5.4-4C840.1,502.7,837.5,501.2,836.7,502.9L836.7,502.9z"/>
			</g>
		</g>
		<g>
			<g>
				<path d="M810.6,418.3c-1.5,3.8-3.1,7.7-4.6,11.5c-0.7,1.8,2.2,2.6,2.9,0.8c1.5-3.8,3.1-7.7,4.6-11.5
					C814.2,417.3,811.3,416.6,810.6,418.3L810.6,418.3z"/>
			</g>
		</g>
		<g>
			<g>
				<path d="M728.5,439.6c0.8,4.1-1,8.3-4.5,10.7c-1.6,1.1-0.1,3.7,1.5,2.6c4.6-3.2,6.9-8.5,5.9-14.1
					C731,436.9,728.1,437.7,728.5,439.6L728.5,439.6z"/>
			</g>
		</g>
		<g>
			<g>
				<path d="M729.8,439.2c0,4.7,2.1,9.1,5.8,12c1.5,1.2,3.6-0.9,2.1-2.1c-3.1-2.4-4.9-5.9-4.9-9.9
					C732.8,437.3,729.8,437.3,729.8,439.2L729.8,439.2z"/>
			</g>
		</g>
		<g>
			<g>
				<path d="M723.7,454.2c3.5,1.6,5.8,4.7,6.5,8.6c0.3,1.9,3.2,1.1,2.9-0.8c-0.7-4.5-3.7-8.4-7.8-10.3
					C723.5,450.8,721.9,453.4,723.7,454.2L723.7,454.2z"/>
			</g>
		</g>
		<g>
			<g>
				<path d="M734,462.4c0.1-4.1,2-7.6,5.2-10c1.5-1.2-0.6-3.3-2.1-2.1c-3.8,2.9-6,7.4-6.1,12.2C731,464.3,734,464.3,734,462.4
					L734,462.4z"/>
			</g>
		</g>
		<g>
			<g>
				<path d="M869.2,511.8c-0.1,4.1-2.3,7.7-5.9,9.7c-1.7,1-0.2,3.6,1.5,2.6c4.5-2.6,7.2-7.2,7.4-12.3
					C872.3,509.9,869.3,509.9,869.2,511.8L869.2,511.8z"/>
			</g>
		</g>
		<g>
			<g>
				<path d="M870.5,512c0.8,4.9,2.4,10.7,8,11.8c1.9,0.4,2.7-2.5,0.8-2.9c-4.5-0.9-5.3-5.9-5.9-9.7
					C873.1,509.3,870.2,510.1,870.5,512L870.5,512z"/>
			</g>
		</g>
		<g>
			<g>
				<path d="M863,525.5c3.3,2.4,5.9,5.6,7.4,9.4c0.5,1.3,2.5,1.6,2.9,0c1-4.3,3.2-7.8,6.6-10.6c1.5-1.2-0.6-3.3-2.1-2.1
					c-3.7,3.1-6.3,7.2-7.4,11.9c1,0,1.9,0,2.9,0c-1.8-4.6-4.7-8.3-8.8-11.2C862.9,521.8,861.4,524.4,863,525.5L863,525.5z"/>
			</g>
		</g>
		<g>
			<g>
				<path class="st1" d="M842.4,423.9c0.3,3.8-1.1,7.2-4,9.7c-1.5,1.3,0.7,3.4,2.1,2.1c3.4-3,5.2-7.3,4.9-11.8
					C845.2,422,842.2,422,842.4,423.9L842.4,423.9z"/>
			</g>
		</g>
		<g>
			<g>
				<path class="st1" d="M843.6,423.7c1,4.8,3.5,9,7.3,12.1c1.5,1.2,3.6-0.9,2.1-2.1c-3.4-2.8-5.6-6.5-6.5-10.8
					C846.1,421.1,843.2,421.9,843.6,423.7L843.6,423.7z"/>
			</g>
		</g>
		<g>
			<g>
				<path class="st1" d="M838.2,437.7c3.8,2.2,6.2,6.2,6.2,10.6c0,1.9,3,1.9,3,0c-0.1-5.5-3-10.4-7.7-13.2
					C838,434.2,836.5,436.8,838.2,437.7L838.2,437.7z"/>
			</g>
		</g>
		<g>
			<g>
				<path class="st1" d="M848.6,448.2c0.9-4.5,2.5-8.7,4.8-12.6c1-1.7-1.6-3.2-2.6-1.5c-2.4,4.2-4.1,8.6-5.1,13.3
					C845.3,449.3,848.2,450.1,848.6,448.2L848.6,448.2z"/>
			</g>
		</g>
	</g>
	<g id="hand_left">
		<path class="st5" d="M850.6,288.5c-3.1,2-3.2,6.8-3.2,12.4c0,22.7,0,34,1.1,38.7c1.8,7.7,5.7,15.5,13.4,30.7
			c10.4,20.6,15.5,30.8,24.4,41.5c5.5,6.7,12.9,15.5,25.5,23.6c21.1,13.5,41.7,14.9,49,15.1c5,0.1,16.6,0.1,30.6-4.1
			c18.5-5.5,31.2-15.1,38-21.2c9.9-4.5,18.1-5.8,23.9-6.1c7.9-0.4,10.9,1,19.6-0.2c8.2-1.1,14-3.5,18.2-5.2
			c10.1-4.2,17.4-7.2,20.3-14.4c1.6-3.9,1.3-7.6,0.9-9.9c1.5-6.1,0.3-9.1-1-10.7c-1.5-1.9-3.5-2.2-8.7-4.6c-3.3-1.5-5.8-3-7.4-4
			c-6.3,1-11.1,2.9-14.8,4.9c-6.5,3.5-8.5,6.8-14.8,9.9c-5.3,2.6-10.5,3.6-14.8,4c1.6-1,6.5-4.4,7.2-9.9c0.1-1.1,0.4-3.5-1-5
			c-2-1.9-5.8-0.7-6.7-0.4c-4,1.3-5,3.7-9.4,7.9c-3.7,3.6-3.9,2.7-13.8,10.4c-3.3,2.5-5.8,4.6-7.4,5.9c-8.6,0.8-15.7,2-20.7,3
			c-13,2.5-18.3,4.7-31.1,6.1c-10,1.1-15,0.6-19.8-1.1c-4.4-1.6-7.5-3.9-10.9-6.4c-6.2-4.6-10.5-9.3-13.8-13.3
			c-5.2-6.4-9.1-12.6-15.2-23.8c-9.4-17.5-9-19.2-17.9-35.4c-0.7-1.2,0.2,0.4-14.1-22.1c-2.8-4.4-5.2-8.3-10-11.7
			C864.5,291.7,855.5,285.4,850.6,288.5z"/>
		<path class="st8" d="M847.1,303.1c1.2,3.5,2.6,7.1,4.2,10.8c1.3,3,2.6,5.9,4,8.7c2.3,11.7,12.4,56.4,53.5,85.1
			c10.2,7.1,38,26.6,75.3,21.9c21-2.6,36.4-11.8,44.7-17.8c10.3,0.5,23.8,0,39.2-3.2c19.3-4.1,34.4-11.1,44.7-16.8
			c-0.3,3.3-1.2,8.6-4.9,13.2c-2.6,3.3-6.5,6-16.5,8.9c-5,1.4-11.9,3-37.8,5.4c-6.4,0.6-11.2,1-17.3,3.5c-5.8,2.3-10.1,5.4-12.8,7.7
			c-4.5,3.4-11.4,8.1-20.6,12c-8.4,3.6-32.3,12.5-61.5,5.5c-6.6-1.6-19.7-5.4-33.2-15c-11.9-8.4-18.5-17.2-25.7-26.7
			c-11-14.6-16.9-27.4-21.9-38.6c-5-11.1-8.5-18.7-11-29.8C846.3,323.5,846.4,311.3,847.1,303.1z"/>
		<g>
			<g>
				<path class="st4" d="M851.6,287.9c17.1,2.3,25.1,20.1,32.5,33.5c8.5,15.4,16.9,30.7,25.4,46.1c6.3,11.5,12.7,23.7,23.5,31.6
					c10.9,8,24.6,9.8,37.8,9c17.5-1.1,34.8-5.8,51.6-10.4c1.9-0.5,1.1-3.4-0.8-2.9c-15.5,4.3-31.5,8.6-47.5,10.1
					c-14.9,1.4-30.5-0.4-42.2-10.6c-11.3-9.9-17.8-24.8-24.9-37.7c-8.1-14.7-16.2-29.5-24.3-44.2c-7-12.5-15.6-25.5-31-27.5
					C849.6,284.6,849.7,287.6,851.6,287.9L851.6,287.9z"/>
			</g>
		</g>
		<g>
			<g>
				<path class="st4" d="M1023.3,397.1c4.7-5.8,12.7-9.1,18.3-14.1c2.6-2.4,5.8-7.2,9.2-8.3c2.1-1.4,4.1-0.5,5.9,2.7
					c-0.1,1.6-0.7,3-1.6,4.3c-1,1.8-2.4,3.4-3.4,5.1c-0.9,1.7,1.6,3.2,2.6,1.5c2.3-4.1,7-8.6,4.8-13.8c-1.5-3.4-5.5-4.2-8.7-3.1
					c-5.1,1.8-8.8,7.6-12.8,11c-5.2,4.4-12.1,7.2-16.4,12.5C1019.9,396.5,1022.1,398.6,1023.3,397.1L1023.3,397.1z"/>
			</g>
		</g>
		<g>
			<g>
				<path class="st4" d="M854,360c16.4,25.5,26.6,54.9,52,73.3c23.4,17,53.5,22.8,81.5,15.9c16-4,30.7-11.9,43-22.8
					c1.4-1.3-0.7-3.4-2.1-2.1c-21.7,19.2-51.6,28.4-80.3,23.6c-28.7-4.9-52-22.4-67.2-46.8c-8.6-13.9-15.4-28.8-24.2-42.6
					C855.6,356.9,853,358.4,854,360L854,360z"/>
			</g>
		</g>
		<g>
			<g>
				<path class="st4" d="M1030.7,426.5c7.9-2.6,15.9-5.3,24.3-6c7.8-0.6,15.3,0.7,23.1-0.9c13.4-2.7,25.6-10.1,34.9-20.1
					c1.3-1.4-0.8-3.5-2.1-2.1c-10.1,10.7-23.7,18.6-38.5,20c-7.1,0.7-14.1-0.6-21.2,0.4c-7.3,1-14.3,3.3-21.3,5.6
					C1028.1,424.2,1028.9,427.1,1030.7,426.5L1030.7,426.5z"/>
			</g>
		</g>
		<g>
			<g>
				<path class="st4" d="M1053.2,390.3c7.1-1.3,13.6-4.2,19.6-8.2c6.3-4.2,14.2-13.4,22.6-9.2c1.7,0.9,3.2-1.7,1.5-2.6
					c-6.9-3.5-13.3,0.1-18.9,4.4c-7.8,5.9-15.9,10.9-25.6,12.7C1050.5,387.8,1051.3,390.6,1053.2,390.3L1053.2,390.3z"/>
			</g>
		</g>
		<g>
			<g>
				<path class="st4" d="M1063.8,394c5.9,1.8,12.4-4.3,16.9-7.4c6.1-4.2,14.4-13.2,22.4-10.1c1.8,0.7,2.6-2.2,0.8-2.9
					c-5.8-2.2-10.9,0.5-15.6,3.8c-3.1,2.2-6.1,4.4-9.2,6.6c-3.4,2.3-10.4,8.4-14.6,7.1C1062.8,390.6,1062,393.5,1063.8,394
					L1063.8,394z"/>
			</g>
		</g>
		<g>
			<g>
				<path class="st4" d="M1078.5,397.4c5.8-2.6,11.2-5.9,16.3-9.7c5-3.8,9.9-8.4,16.6-7.5c1.9,0.2,1.9-2.8,0-3
					c-6.1-0.8-11,2.5-15.7,6c-6,4.5-11.9,8.5-18.7,11.6C1075.3,395.6,1076.8,398.2,1078.5,397.4L1078.5,397.4z"/>
			</g>
		</g>
		<g>
			<g>
				<path class="st4" d="M1085,401.5c4.6-2.2,9.2-4.4,13.8-6.6c2.1-1,4.6-2.7,6.9-3.3c2.9-2,5.3-0.7,7.2,3.9c-0.7,1.1-1.5,2-2.5,2.8
					c-1.5,1.3,0.7,3.4,2.1,2.1c3.9-3.3,6.6-11.8-0.5-13.6c-3.7-0.9-8.2,2.3-11.3,3.8c-5.8,2.7-11.5,5.5-17.3,8.2
					C1081.7,399.7,1083.2,402.3,1085,401.5L1085,401.5z"/>
			</g>
		</g>
		<g>
			<g>
				<path class="st4" d="M1109.9,379.5c2.2,2.5,2.7,6.2,1.1,9.2c-0.9,1.7,1.7,3.2,2.6,1.5c2.2-4.3,1.6-9.2-1.6-12.8
					C1110.8,376,1108.7,378.1,1109.9,379.5L1109.9,379.5z"/>
			</g>
		</g>
		<g>
			<g>
				<path class="st4" d="M850.1,285.4c-8.7,24.4-7.1,51.4,4.3,74.6c0.9,1.7,3.4,0.2,2.6-1.5c-11.1-22.5-12.5-48.7-4-72.3
					C853.7,284.4,850.8,283.6,850.1,285.4L850.1,285.4z"/>
			</g>
		</g>
	</g>
	<g id="hand_right">
		<path class="st5" d="M699.1,304c-3.3-0.3-6.3,3.2-12.2,12.6c-13.2,20.8-19,34.4-19,34.4c-14.4,34.2-15,37.8-20.7,49.4
			c-7.1,14.4-14.3,25.3-19,32c-4.2,2.2-10.5,5.1-18.4,7.7c-14.4,4.8-26.3,6-39.7,7.2c-6.5,0.6-15.3,1.2-25.7,1.2
			c-3.4-5.2-7-8.6-9.6-10.8c-4.2-3.4-7.7-6.3-11.9-5.6c-2.8,0.4-5.9,2.3-6,4.4c-0.1,1.8,1.9,2.6,3.8,5.4c1.8,2.8,2.2,5.8,2.2,7.9
			c-2.1,1-5.5,2.3-9.7,3c-3.5,0.5-7.3,0.5-21-2c-10.7-2-13.8-3-15.9-0.9c-1.2,1.2-1.5,4.1-2,9.8c-0.3,3.7-0.4,6.8-0.5,9.1
			c-0.8,1.6-2,4.7-1,7.9c0.8,2.7,3.1,5,9.7,7.9c5.4,2.4,10.9,4.8,20.1,5.5c18.7,1.3,36.2-6.1,42.8-9.1c6.7,1.6,16.4,3.6,28.4,4.1
			c26.7,1.3,46.1-5,50.1-6.3c9.5-3.2,19.2-6.4,29.3-14.8c4.2-3.5,7.9-7.5,20-26.5c14.1-22.3,21.2-33.4,27.5-48.9
			c6.3-15.5,8.6-26.4,9.6-32.9c2.4-14.4,1.4-22.7,0.9-26C710.9,328.3,707.2,304.7,699.1,304z"/>
		<path class="st6" d="M709.7,320.2c-1.5,9.1-4.1,21.3-8.7,35.2c-9.2,27.4-21.6,47-28.5,56.9c-18.1,26.1-28.9,41.5-48.9,50.4
			c-28.5,12.7-39-4.2-81.4,10c-10.5,3.5-19.5,7.8-32.9,6.5c-15.4-1.5-27.3-9.3-35.1-15.8c-0.9,2-2.8,7.1-0.9,12.4
			c0.5,1.3,2.4,5.8,11.2,10c2.7,1.3,12.5,5.6,29.4,4.2c7.1-0.6,18.4-2.5,31.3-8.9c6.7,1.6,16.5,3.5,28.4,4.1
			c16.2,0.8,39.4,2,62-10.4c16.8-9.2,26.3-22.2,37.4-37.3c8.6-11.7,14.7-23,18.5-30.2c4.1-7.7,8.1-15.2,11.9-26
			c2.2-6.2,5.1-14.6,6.8-25.6C711.4,347.5,712.3,335.2,709.7,320.2z"/>
		<g>
			<g>
				<path class="st4" d="M700.4,301.1c-21.1,16.3-30.9,41.4-40.3,65.4c-6.1,15.4-12.6,30.5-20.2,45.2c-3.7,7.1-7.2,15.6-13.9,20.4
					c-6.6,4.8-15.6,6.4-23.4,8.2c-18.9,4.4-38.2,6.6-57.6,7c-1.9,0-1.9,3,0,3c16.8-0.3,33.6-2.1,50.1-5.4
					c13.2-2.6,29.7-4.7,38.4-16.2c4.9-6.5,8.4-14.3,12-21.5c4-8,7.7-16.1,11.2-24.3c5.6-13.2,10.3-26.8,16.4-39.9
					c6.9-15,15.7-29.3,28.9-39.5C703.4,302.5,701.9,299.9,700.4,301.1L700.4,301.1z"/>
			</g>
		</g>
		<g>
			<g>
				<path class="st4" d="M545.5,447.7c-4.6-7.8-13.9-16.9-23.6-17.2c-3.4-0.1-7.1,2.2-6.6,6c0.2,1.8,1.7,3.3,2.8,4.7
					c2.2,2.8,4.4,5.6,6.5,8.4c1.2,1.5,3.3-0.6,2.1-2.1c-2.2-2.8-4.4-5.6-6.5-8.4c-0.5-0.7-1.1-1.4-1.6-2.1c1.7-2.8,3.6-3.8,5.8-2.9
					c1.7,0.2,3.5,1.3,5.1,2.1c5.7,3,10.3,7.5,13.6,13.1C543.9,450.9,546.5,449.4,545.5,447.7L545.5,447.7z"/>
			</g>
		</g>
		<g>
			<g>
				<path class="st4" d="M522,448.6c-13,6.8-30.4,0.6-43.9-1.8c-1.9-0.3-2.7,2.5-0.8,2.9c14.4,2.6,32.3,8.8,46.2,1.5
					C525.2,450.3,523.7,447.7,522,448.6L522,448.6z"/>
			</g>
		</g>
		<g>
			<g>
				<path class="st4" d="M474.8,475.4c0.6-1.2,1.1-2.3,1.7-3.5c1.4-0.1,2.8-0.2,4.2-0.3c1.4,0.2,3,1.5,4.2,2.3
					c2,1.4,3.9,2.8,6.2,3.8c4,1.8,8.2,2.5,12.5,2.4c1.9,0,1.9-3,0-3c-5.7,0.1-10.6-1.3-15.3-4.5c-2.6-1.7-5.2-4-8.5-4.3
					c-4.6-0.5-9,3.1-7.9,7.9C472.4,478,475.3,477.2,474.8,475.4L474.8,475.4z"/>
			</g>
		</g>
		<g>
			<g>
				<path class="st4" d="M476.2,468.9c-0.5-1.1-1-2.2-1.5-3.3c1.1-0.9,2.3-1.8,3.4-2.7c1.6-0.6,4,0,5.6,0.4c2.6,0.7,5.1,1.9,7.5,3
					c3.5,1.6,7,2.8,10.9,2.9c1.9,0,1.9-3,0-3c-8.6-0.2-17.3-9.3-26.1-5.8c-4.7,1.9-6.3,8.6-1.3,11.1
					C476.4,472.4,477.9,469.8,476.2,468.9L476.2,468.9z"/>
			</g>
		</g>
		<g>
			<g>
				<path class="st4" d="M476.2,459.5c-1.3-1.8-0.7-2.9,1.8-3.4c0.9,0,1.9,0.1,2.7,0.4c1.1,0.3,2.2,0.8,3.3,1.2
					c2.9,1.1,5.8,2.2,8.7,3.3c1.8,0.7,2.6-2.2,0.8-2.9c-3.6-1.4-7.2-2.9-10.9-4.2c-2.3-0.8-5.1-1.4-7.3-0.2
					c-3.1,1.7-3.9,6.6-0.5,8.4C476.4,463,477.9,460.4,476.2,459.5L476.2,459.5z"/>
			</g>
		</g>
		<g>
			<g>
				<path class="st4" d="M476.8,453.2c-0.9-0.4-0.8-1.6,0.1-2c0.7-0.3,0.9-1.4,0.5-2.1c-0.5-0.8-1.3-0.9-2.1-0.5
					c-2.8,1.2-2.8,5.9-0.1,7.1c0.7,0.3,1.6,0.2,2.1-0.5C477.8,454.6,477.6,453.5,476.8,453.2L476.8,453.2z"/>
			</g>
		</g>
		<g>
			<g>
				<path class="st4" d="M471.7,477.8c17.6,20.4,50.7,15.6,72.1,4.9c1.7-0.9,0.2-3.5-1.5-2.6c-20.3,10.1-51.8,14.9-68.5-4.5
					C472.5,474.2,470.4,476.3,471.7,477.8L471.7,477.8z"/>
			</g>
		</g>
		<g>
			<g>
				<path class="st4" d="M544.9,482.4c19.7,5.1,40.1,5.3,60.1,2.1c17.5-2.8,36.5-7.7,49.8-20.1c6.7-6.2,11.7-14.1,16.6-21.7
					c5.6-8.6,11.2-17.2,16.4-26c10-17,18.7-35,22.7-54.4c4.2-20.1,3.4-41.2-5.1-60.1c-0.8-1.8-3.4-0.2-2.6,1.5
					c15.8,35.2,3.4,74.2-14.5,106c-8.8,15.7-18.4,32.2-29.8,46.2c-11.8,14.6-29.2,20.6-47,24.3c-21.7,4.5-44.3,4.9-65.8-0.7
					C543.8,479.1,543,482,544.9,482.4L544.9,482.4z"/>
			</g>
		</g>
	</g>
	<g id="head">
		<path class="st5" d="M714.3,148.3c-0.9,4.9,0.8,10.4-1,26.5c-0.3,3.2-0.7,5.8-1,7.5c-1.3,0-5.6,0.2-8.9,3.3
			c-4.4,4.3-4.4,11.6-1.2,16.6c3.1,4.9,9.1,7.4,15.1,6.3c1.4,5.9,3.3,10.5,4.7,13.4c6.5,13.5,16.1,21.9,23.2,27.9
			c3.3,2.8,6.2,5,8,6.3c0.3,8,0.7,16.1,1,24.1c3,0.4,6.4,0.6,10.3,0.5c8.7-0.4,15.7-2.8,20.5-4.9c-0.1-7.6-0.2-15.2-0.2-22.8
			c2.5-1.9,6.1-4.8,10-8.9c8.8-9.1,8.7-13.1,15.1-20.1c10.3-11.4,16.6-7.7,23.5-17.7c4.9-7.2,5.5-14.7,6-21.5
			c1-14-3.2-24.7-6.5-32.9c-5.1-12.6-8.5-20.9-16.5-27c-12.3-9.3-27.6-6.9-45.9-4C760.8,122.7,717.9,129.4,714.3,148.3z"/>
		<path class="st9" d="M796.7,151c0.7,4.6,1.6,11.4,1.8,19.5c0.3,11.4,0.6,30.2-7.8,51.3c-6.6,16.4-16.3,28.7-25.1,37.3
			c4.1-1.3,8.2-2.5,12.3-3.8c-0.3,7.9-0.6,15.8-0.8,23.7c3.2-1.1,6.4-2.2,9.6-3.3c-0.6-1.1-6.5-12.3-0.8-23.6
			c3.6-7,9.6-10.1,11.8-11.1c3.7-4,8.7-10,12.7-18.5c3.5-7.3,5.1-13.9,6-18.9c1.9,0.1,5.2,0.1,8.8-1.4c1.6-0.7,9.4-4.4,9.9-11.6
			c0.1-0.8,0.4-6.3-3.8-9.2c-3.4-2.4-8.4-2.1-12.3,0.9c5.2-9.4,3.6-20.6-3.3-26.9C808.2,148.6,797.7,150.8,796.7,151z"/>
		<path class="st2" d="M687.3,185.2c-1.9-9.4-3.6-25.7,3.3-43.3c10.5-27,37.8-48.2,67.6-48.6c14.3-0.2,25.6,4.5,32.2,7.9
			c-3.3,6-9.1,14.9-19,22.3c-16.5,12.4-29.6,9.4-42,19.7c-6.8,5.6-14.9,16.4-17,39.2c-1,0.1-6.5,0.6-9.8,5.2
			c-3.9,5.2-3,13.1,1.6,17.6c4.1,3.9,9.5,3.7,10.6,3.6c3.4,8.2,7.3,14.7,10.5,19.5c2.8,4.2,7,10.4,14.1,17.2
			c5.2,4.9,10.2,8.4,13.9,10.8c1.5,4.8,3.7,13.8,1,24.1c-4.1,16-18.4,31.4-36.8,32.8c-20.3,1.5-33.9-14.6-35.5-16.6
			c-10.9-13.5-10.2-29.5-9-51C673.9,231.7,676.8,210.3,687.3,185.2z"/>
		<path class="st2" d="M753,113c-1.8,6.7,6.6,14.5,13.1,20.3c7.3,6.6,22.9,18.4,49.7,22.3c1,8.7,1.9,17.4,2.9,26.2
			c5.1-2.9,11-2.2,14.2,1.2c3.8,4.1,1.8,10.3,1.6,10.9c-1.9,6-8.7,10.1-16.6,9.5c-1.8,7.4-5.6,19.1-14.3,31.1
			c-6.4,8.8-13.4,14.9-18.7,18.7c-0.2,4.9,0.2,12.5,3.6,20.6c6.7,15.6,24,31.3,43.1,29c20.2-2.4,30.5-23.6,33.8-30.3
			c9.7-20,6-39.4,3.4-53.1c-3.7-19.5-11.6-34.4-17.9-44.1c1.1-5.4,4.3-23.2-5.5-41.3c-13.3-24.7-39.5-29.7-45.8-30.9
			C780.9,99.6,755.7,102.8,753,113z"/>
		<g>
			<g>
				<path class="st4" d="M712.8,148.3c-1.4,24.4-2.6,49.9,7.3,72.9c8.3,19.4,24.7,33.9,45.2,39.4c1.9,0.5,2.7-2.4,0.8-2.9
					c-21-5.6-37.2-21-44.7-41.3c-8.1-21.8-6.8-45.3-5.5-68.1C715.9,146.4,712.9,146.4,712.8,148.3L712.8,148.3z"/>
			</g>
		</g>
		<g>
			<g>
				<path class="st4" d="M766.9,260.1c19.7-3.5,35.7-17.9,44.3-35.6c10.4-21.5,9.9-46.3,6.1-69.3c-0.3-1.9-3.2-1.1-2.9,0.8
					c3.7,22.2,4.3,46.3-5.8,67c-8.3,17.1-23.4,30.9-42.5,34.2C764.2,257.6,765,260.5,766.9,260.1L766.9,260.1z"/>
			</g>
		</g>
		<g>
			<g>
				<path class="st4" d="M713.1,181c-8.8-4.8-13.9,7.8-13.9,14.7c0,8.7,7,16,15.9,14.4c1.9-0.4,1.1-3.2-0.8-2.9
					c-5.7,1.1-10.6-3.1-11.8-8.5c-1-4.4,1.4-19.2,9-15.1C713.3,184.6,714.8,182,713.1,181L713.1,181z"/>
			</g>
		</g>
		<g>
			<g>
				<path class="st4" d="M819.8,182.8c6.5-5.9,15.2,1.3,13.7,9c-1.4,7.3-8.8,10.4-15.6,10c-1.9-0.1-1.9,2.9,0,3
					c9.7,0.7,19.9-5.9,18.7-16.7c-1.1-9.1-12-13.7-18.9-7.4C816.2,182,818.3,184.1,819.8,182.8L819.8,182.8z"/>
			</g>
		</g>
		<g>
			<g>
				<path class="st4" d="M751.8,256.2c0.4,5.8,0.6,11.7,1.3,17.4c0.4,3.2,1.3,6.1,4.3,7.6c3.7,1.8,9.2,1.2,13.1,0.7
					c5.4-0.7,10.4-2.3,15.3-4.7c1.7-0.9,0.2-3.4-1.5-2.6c-6.5,3.2-16.3,6.4-23.6,4.4c-5.3-1.5-4.7-6.8-5-11.1
					c-0.3-3.9-0.6-7.8-0.9-11.7C754.6,254.3,751.6,254.3,751.8,256.2L751.8,256.2z"/>
			</g>
		</g>
		<g>
			<g>
				<path class="st4" d="M783.3,253.1c-0.2,6.9,0.1,13.7,1,20.5c0.2,1.9,3.2,1.9,3,0c-0.8-6.8-1.2-13.6-1-20.5
					C786.3,251.2,783.3,251.2,783.3,253.1L783.3,253.1z"/>
			</g>
		</g>
		<g>
			<g>
				<path class="st4" d="M753.1,170c0,16.6,1,33.2,3,49.7c0.2,1.3,2.1,2.2,2.8,0.8c3-6.1,4.8-12.4,5.5-19.1c0.2-1.9-2.8-1.9-3,0
					c-0.6,6.2-2.3,12-5.1,17.6c0.9,0.3,1.9,0.5,2.8,0.8c-2-16.5-3-33.1-3-49.7C756.1,168.1,753.1,168.1,753.1,170L753.1,170z"/>
			</g>
		</g>
		<g>
			<g>
				<path class="st4" d="M755.5,232.6c12.6,2.7,25.8-3.7,31.2-15.5c0.8-1.7-1.8-3.3-2.6-1.5c-4.8,10.5-16.4,16.5-27.8,14.1
					C754.4,229.3,753.6,232.2,755.5,232.6L755.5,232.6z"/>
			</g>
		</g>
		<g>
			<g>
				<path class="st4" d="M726.5,179.1c1-4,3.8-8.1,8.1-9.2c5.5-1.4,8.6,4.9,9.5,9.2c0.4,1.9,3.3,1.1,2.9-0.8
					c-1.2-5.4-5.2-12.3-11.6-11.7c-6,0.6-10.4,6.2-11.8,11.7C723.1,180.2,726,181,726.5,179.1L726.5,179.1z"/>
			</g>
		</g>
		<g>
			<g>
				<path class="st4" d="M780.8,176.6c0.7-5.3,5.7-10.7,11.4-9.3c5.2,1.3,6.4,6.9,7.1,11.5c0.3,1.9,3.2,1.1,2.9-0.8
					c-1.1-6.7-4.2-14.7-12.4-14c-6.6,0.6-11.2,6.3-12,12.6C777.6,178.5,780.6,178.5,780.8,176.6L780.8,176.6z"/>
			</g>
		</g>
		<g>
			<g>
				<path class="st4" d="M728.8,193.4c-0.1,0-0.2,0-0.4,0c-0.8,0-1.5,0.7-1.5,1.5c0,0.8,0.7,1.5,1.5,1.5c0.1,0,0.2,0,0.4,0
					c0.8,0,1.5-0.7,1.5-1.5C730.3,194,729.6,193.4,728.8,193.4L728.8,193.4z"/>
			</g>
		</g>
		<g>
			<g>
				<path class="st4" d="M743.5,193.5c1.9,0,1.9-3,0-3C741.5,190.5,741.5,193.5,743.5,193.5L743.5,193.5z"/>
			</g>
		</g>
		<g>
			<g>
				<path class="st4" d="M741,205c1.9,0,1.9-3,0-3C739,202,739,205,741,205L741,205z"/>
			</g>
		</g>
		<g>
			<g>
				<path class="st4" d="M782.5,191.3c1.9,0,1.9-3,0-3C780.6,188.3,780.6,191.3,782.5,191.3L782.5,191.3z"/>
			</g>
		</g>
		<g>
			<g>
				<path class="st4" d="M800.8,188.1c1.9,0,1.9-3,0-3C798.9,185.1,798.9,188.1,800.8,188.1L800.8,188.1z"/>
			</g>
		</g>
		<g>
			<g>
				<path class="st4" d="M793.6,198.1c1.9,0,1.9-3,0-3C791.7,195.1,791.7,198.1,793.6,198.1L793.6,198.1z"/>
			</g>
		</g>
	</g>
</g>
</svg>
